<svg xmlns="http://www.w3.org/2000/svg" xmlns:xlink="http://www.w3.org/1999/xlink" viewBox="0 0 150 150"><defs><style>.cls-1{fill:#dc5712;}.cls-2{fill:#f8f4f4;}.cls-3{isolation:isolate;}.cls-4{opacity:0.3;}.cls-10,.cls-4,.cls-7{mix-blend-mode:multiply;}.cls-10,.cls-5,.cls-7{fill:#241916;}.cls-6{clip-path:url(#clip-path);}.cls-7{opacity:0.5;}.cls-8{fill:#372f2c;}.cls-9{clip-path:url(#clip-path-2);}.cls-10{opacity:0.4;}</style><clipPath id="clip-path"><path class="cls-1" d="M73.5,24.1c-23.6,0-34.4,9.4-29.9,32.6,1.8,9.4,5.3,18.6,8.9,29.2,4.5,13.5,6,25.1,21,25.1S90,99.4,94.5,85.9c3.6-10.6,7.1-19.8,8.9-29.2C107.9,33.5,97.1,24.1,73.5,24.1Z"/></clipPath><clipPath id="clip-path-2"><path class="cls-2" d="M89.9,80c-4.5-9-14-17-14-26.8s3.5-20.8,3.2-23.4-3.4-3.6-5.6-3.6-5.2.5-5.6,3.6,3.2,13.6,3.2,23.4S61.6,71,57.1,80c-3.1,6.2-4.7,14.8-3.8,21.3a9.9,9.9,0,0,0,10.1,8.2c5.6,0,9-4.3,10.1-4.3s4.5,4.3,10.1,4.3,9.4-3.7,10-8.2C94.6,94.8,93,86.2,89.9,80Z"/></clipPath></defs><title>dogCard</title><g class="cls-3"><g id="shadow"><g class="cls-4"><path class="cls-5" d="M116.3,44.6c-5-5.4-11.1-7.5-11.8-6.7-5.2-3.3-12.6-4.8-22-4.8s-16.8,1.5-22,4.8c-.7-.8-6.8,1.3-11.9,6.7s-24,49.3-22.9,59.9c.7,6.9,8.2,23.7,22.9,26.6,8.4,1.7,19.4-3.8,21.5-12.8l2.3.2h1.9a19.3,19.3,0,0,0,8.2,1.6,19.3,19.3,0,0,0,8.2-1.6h1.9l2.3-.2c2.1,9,13.1,14.5,21.5,12.8,14.7-2.9,22.2-19.7,22.9-26.6C140.4,93.9,120.5,49,116.3,44.6Z"/><path class="cls-5" d="M70.5,61a5.1,5.1,0,1,1-5.1-5.1A5.1,5.1,0,0,1,70.5,61Z"/><path class="cls-5" d="M104.7,61a5.1,5.1,0,1,1-5.1-5.1A5.1,5.1,0,0,1,104.7,61Z"/></g></g><g id="dog"><path class="cls-1" d="M73.5,24.1c-23.6,0-34.4,9.4-29.9,32.6,1.8,9.4,5.3,18.6,8.9,29.2,4.5,13.5,6,25.1,21,25.1S90,99.4,94.5,85.9c3.6-10.6,7.1-19.8,8.9-29.2C107.9,33.5,97.1,24.1,73.5,24.1Z"/><g class="cls-6"><polygon class="cls-7" points="72.3 98.3 89 114.9 74.6 122.7 57.8 105.8 72.3 98.3"/></g><path class="cls-8" d="M52.8,86.2c-3.6-10.7-7.2-20-9-29.4C41.5,44.6,44,37.2,49,32c1.2-1.3,2.9-2.7,2.6-3.1s-6.8,1.2-12,6.7-24,49.3-22.9,59.9c.7,6.9,8.2,23.7,22.9,26.6,8.9,1.8,20.8-4.5,21.7-14.6,0-.1.1-1.5.1-2.2C58,100.5,55.6,94.7,52.8,86.2Z"/><path class="cls-8" d="M94.2,86.2c3.6-10.7,7.2-20,9-29.4C105.5,44.6,103,37.2,98,32c-1.2-1.3-2.9-2.7-2.6-3.1s6.8,1.2,11.9,6.7,24.1,49.3,23,59.9c-.7,6.9-8.2,23.7-22.9,26.6-8.9,1.8-20.8-4.5-21.7-14.6,0-.1-.1-1.5-.1-2.2C89,100.5,91.4,94.7,94.2,86.2Z"/><path class="cls-2" d="M89.9,80c-4.5-9-14-17-14-26.8s3.5-20.8,3.2-23.4-3.4-3.6-5.6-3.6-5.2.5-5.6,3.6,3.2,13.6,3.2,23.4S61.6,71,57.1,80c-3.1,6.2-4.7,14.8-3.8,21.3a9.9,9.9,0,0,0,10.1,8.2c5.6,0,9-4.3,10.1-4.3s4.5,4.3,10.1,4.3,9.4-3.7,10-8.2C94.6,94.8,93,86.2,89.9,80Z"/><g class="cls-9"><polygon class="cls-10" points="81 88.3 97.7 105 83.3 112.8 66.5 95.9 81 88.3"/></g><path class="cls-8" d="M73.5,86.2c-5.5,0-8.8,1.7-8.8,5.6s5.8,7.4,8.8,7.4,8.8-2.8,8.8-7.4S79,86.2,73.5,86.2Z"/><path class="cls-8" d="M61.5,52a5.1,5.1,0,1,1-5.1-5.1A5.1,5.1,0,0,1,61.5,52Z"/><path class="cls-8" d="M95.7,52a5.1,5.1,0,1,1-5.1-5.1A5.1,5.1,0,0,1,95.7,52Z"/></g></g></svg>