<svg xmlns="http://www.w3.org/2000/svg" xmlns:xlink="http://www.w3.org/1999/xlink" viewBox="0 0 150 150"><defs><style>.cls-1{fill:none;}.cls-2{isolation:isolate;}.cls-3,.cls-7{fill:#241916;mix-blend-mode:multiply;}.cls-3{opacity:0.3;}.cls-4{fill:#727479;}.cls-5{fill:#372f2c;}.cls-6{clip-path:url(#clip-path);}.cls-7{opacity:0.25;}.cls-8{fill:#f8f4f4;}.cls-9{fill:#fff;}.cls-10{clip-path:url(#clip-path-2);}</style><clipPath id="clip-path"><path class="cls-1" d="M125.2,41.3c-5.1-5.1-17.4-12.3-29-14.4-1.1-.2-2.5.9-3.8,2.4a1.6,1.6,0,0,1-1.9.6A71.1,71.1,0,0,0,74,28.1a71.1,71.1,0,0,0-16.5,1.8,1.6,1.6,0,0,1-1.9-.6c-1.3-1.5-2.7-2.6-3.8-2.4-11.6,2.1-23.9,9.3-29,14.4s6.4,20.5,9,25.7,4.6,3,5.9-1.1c.2-.5.6-.6.7,0a33.7,33.7,0,0,0,.3,4.4c2.7,31.6,7.5,39.1,35.3,39.2s32.6-7.6,35.3-39.2a33.7,33.7,0,0,0,.3-4.4c.1-.6.5-.5.7,0,1.3,4.1,3.6,5.7,5.9,1.1S130.3,46.5,125.2,41.3Z"/></clipPath><clipPath id="clip-path-2"><path class="cls-1" d="M74,74.9C48.3,74.9,35.5,86,35.5,99.7S48.3,124.4,74,124.4s38.5-11.1,38.5-24.7S99.7,74.9,74,74.9Z"/></clipPath></defs><title>dogCard</title><g class="cls-2"><g id="shadow"><path class="cls-3" d="M134.2,50.3c-5.1-5.1-17.4-12.3-29-14.4-1.1-.2-2.5.9-3.8,2.4a1.6,1.6,0,0,1-1.9.6A71.1,71.1,0,0,0,83,37.1a71.1,71.1,0,0,0-16.5,1.8,1.6,1.6,0,0,1-1.9-.6c-1.3-1.5-2.7-2.6-3.8-2.4-11.6,2.1-23.9,9.3-29,14.4s6.4,20.5,9,25.7,4.6,3,5.9-1.1c.2-.5.6-.6.7,0s.2,2.9.3,4.4a140.8,140.8,0,0,0,2,15.8,19.8,19.8,0,0,0-5.2,13.6c0,13.6,12.8,24.7,38.5,24.7s38.5-11.1,38.5-24.7a19.8,19.8,0,0,0-5.2-13.6,140.8,140.8,0,0,0,2-15.8,33.7,33.7,0,0,0,.3-4.4c.1-.6.5-.5.7,0,1.3,4.1,3.6,5.7,5.9,1.1S139.3,55.5,134.2,50.3Z"/></g><g id="dog"><path class="cls-4" d="M125.2,41.3c-5.1-5.1-17.4-12.3-29-14.4-1.1-.2-2.5.9-3.8,2.4a1.6,1.6,0,0,1-1.9.6A71.1,71.1,0,0,0,74,28.1a71.1,71.1,0,0,0-16.5,1.8,1.6,1.6,0,0,1-1.9-.6c-1.3-1.5-2.7-2.6-3.8-2.4-11.6,2.1-23.9,9.3-29,14.4s6.4,20.5,9,25.7,4.6,3,5.9-1.1c.2-.5.6-.6.7,0a33.7,33.7,0,0,0,.3,4.4c2.7,31.6,7.5,39.1,35.3,39.2s32.6-7.6,35.3-39.2a33.7,33.7,0,0,0,.3-4.4c.1-.6.5-.5.7,0,1.3,4.1,3.6,5.7,5.9,1.1S130.3,46.5,125.2,41.3Z"/><path class="cls-5" d="M55.1,64.3a4.9,4.9,0,0,1-4.9-4.9,4.9,4.9,0,1,1,9.8,0A4.9,4.9,0,0,1,55.1,64.3Z"/><path class="cls-5" d="M88,59.4a4.9,4.9,0,1,1,9.8,0,4.9,4.9,0,1,1-9.8,0Z"/><g class="cls-6"><path class="cls-7" d="M107.9,55.6l33.2,33.2-28.6,2.1L80.8,59.2ZM39.7,58.2,71.4,89.8l27.9-5.4L66.1,51.2Z"/></g><path class="cls-8" d="M74,74.9C48.3,74.9,35.5,86,35.5,99.7S48.3,124.4,74,124.4s38.5-11.1,38.5-24.7S99.7,74.9,74,74.9Z"/><path class="cls-5" d="M74,101a60,60,0,0,1-14.2-1.6,1.8,1.8,0,0,1-1.3-2.1A1.8,1.8,0,0,1,60.6,96a60.6,60.6,0,0,0,26.8,0,1.8,1.8,0,0,1,2.1,1.3,1.8,1.8,0,0,1-1.3,2.1A60,60,0,0,1,74,101Z"/><path class="cls-9" d="M61.5,59.2c2.4.6,6.2,1.9,6.3-1.8s-.5-7.4-5.7-7.6a43.8,43.8,0,0,0-20,4.5c-4.6,2.3-3.1,5.1.9,4.4A46.3,46.3,0,0,1,61.5,59.2Z"/><path class="cls-9" d="M86.5,59.2c-2.4.6-6.2,1.9-6.3-1.8s.5-7.4,5.7-7.6a43.8,43.8,0,0,1,20,4.5c4.6,2.3,3.1,5.1-.9,4.4A46.3,46.3,0,0,0,86.5,59.2Z"/><g class="cls-10"><polygon class="cls-7" points="67.2 88.7 98.9 120.4 114.5 114.2 81.3 81 67.2 88.7"/></g><path class="cls-5" d="M74,79c-5.4,0-8.7,1.7-8.7,5.5S71,91.8,74,91.8s8.7-2.8,8.7-7.3S79.4,79,74,79Z"/></g></g></svg>