<svg xmlns="http://www.w3.org/2000/svg" xmlns:xlink="http://www.w3.org/1999/xlink" viewBox="0 0 150 150"><defs><style>.cls-1{fill:#eb6877;}.cls-2{isolation:isolate;}.cls-3,.cls-7{fill:#241916;mix-blend-mode:multiply;}.cls-3{opacity:0.3;}.cls-4{fill:#372f2c;}.cls-5{fill:#ea620a;}.cls-6{clip-path:url(#clip-path);}.cls-7{opacity:0.4;}</style><clipPath id="clip-path"><path class="cls-1" d="M89,98.8c-4.7-.2-7.2-3.9-9.9-7.8-.9-1.3-2.1-2.3-3.6-2.2a4.6,4.6,0,0,0-3.6,2.3c-2.5,3.9-5,7.7-9.7,7.9-.6,0-.8.3-.5,1.2,3.3,10.3,4.1,16.3,14,16.2s10.6-6.1,13.8-16.4C89.8,99.2,89.6,98.8,89,98.8Z"/></clipPath></defs><title>dogCard</title><g class="cls-2"><g id="shadow"><path class="cls-3" d="M138,51.8c-8.2-7.8-19.6-7.7-30.7-15.2-1-.7-2.1-.8-2.6-.3a14.3,14.3,0,0,0-2.7-.9c-10.2-2.3-15.6-.3-17.8-.3s-7.7-1.9-17.8.6l-2.8.9c-.5-.5-1.5-.4-2.6.3-10.9,7.6-22.3,7.7-30.4,15.6-2.6,2.5-1.9,8.1.1,14.7,2.7,8.5,4.3,14.5,3.6,23.2-.1,1.7,2.1,2.2,4,.1a24.3,24.3,0,0,0,1.9-2.7c-.4,9.7.8,21.2,9.7,29l3.1,2.5a40.9,40.9,0,0,0,31.8,15.4c12.1,0,24.6-6.3,31.6-15.8a38.8,38.8,0,0,0,3.1-2.6c8.8-7.9,9.9-19.3,9.3-29l1.9,2.6c2,2.1,4.2,1.6,4-.1-.8-8.8.8-14.8,3.3-23.3C140,59.8,140.6,54.2,138,51.8Z"/></g><g id="dog"><path class="cls-4" d="M119.1,70.3c-.5-4.7-.1-10.4-.7-15.8-1.5-13.5-15.8-25.8-25.5-28s-15.6-.3-17.8-.3-7.7-2-17.8.5S33.6,41.6,32.2,55.1c-.5,5.4,0,11.1-.5,15.8-1,10.6-2.4,26.9,9.2,36.9,9.8,8.6,20.1,12.4,34.8,12.3s25-4,34.7-12.7C121.8,97.2,120.3,80.9,119.1,70.3Z"/><path class="cls-5" d="M112.6,76.8c-1.9-.1-3.3,9.6-6.3,7.4S96,82.2,93,76.8C90.9,73,88.9,69,85.7,65.9a13.9,13.9,0,0,0-10.4-4.4c-4.5,0-7.4,1.7-10.3,4.5s-5,7.2-7.1,11c-3,5.4-8.8,4.3-13.2,7.6s-4.5-7.4-6.4-7.3-3,5.1-2.5,10c.7,6.8,3,14.9,6.3,20.3,6.6,11,20.4,18.3,33.7,18.2s26.9-7.6,33.4-18.6c3.2-5.5,5.4-13.6,6-20.5C115.7,81.8,115,76.9,112.6,76.8Z"/><path class="cls-4" d="M75.4,63c-5.2,0-8.6,3.4-8.5,7s2.3,8.1,8.6,8S84,74.5,84,69.9,80.5,63,75.4,63Z"/><path class="cls-4" d="M102.7,91.1c-2.7,2.4-7.7,7-13.5,6.8S79.8,84,75.5,84s-7,13.8-13.6,14.1-10.8-4.3-13.5-6.7-2.9-.4-2.5,1.4c1.7,7.1,3.8,11.7,5.7,14.7s5,6.7,9.4,6.7c2.1,0,3.5,7.5,14.7,7.4S88.3,114,90.4,114c4.4-.1,7.4-3.9,9.3-6.9s3.9-7.6,5.5-14.7C105.6,90.6,104.3,89.6,102.7,91.1Z"/><path class="cls-4" d="M102.7,91.1c-2.7,2.4-7.7,7-13.5,6.8S79.8,84,75.5,84s-7,13.8-13.6,14.1-10.8-4.3-13.5-6.7-2.9-.4-2.5,1.4c1.7,7.1,3.8,11.7,5.7,14.7s5,6.7,9.4,6.7c2.1,0,3.5,7.5,14.7,7.4S88.3,114,90.4,114c4.4-.1,7.4-3.9,9.3-6.9s3.9-7.6,5.5-14.7C105.6,90.6,104.3,89.6,102.7,91.1Z"/><path class="cls-4" d="M35.4,68.3C34,74,31.3,79.2,29.3,81.5s-4.1,1.7-4,0c.7-8.8-1-14.7-3.6-23.2-2.1-6.7-2.8-12.3-.2-14.8C29.6,35.6,41,35.6,52,28c2.1-1.5,4.1-.3,1.9,2.3s-5.9,4.9-8.3,8C37.1,49.5,38,57.7,35.4,68.3Z"/><path class="cls-4" d="M115.4,67.8c1.4,5.6,4.2,10.9,6.3,13.1s4.1,1.6,4-.1c-.8-8.7.8-14.7,3.3-23.2,1.9-6.7,2.5-12.3,0-14.8-8.3-7.8-19.7-7.7-30.7-15.2-2.1-1.4-4.2-.1-1.9,2.4s6,4.9,8.3,7.9C113.4,49,112.7,57.2,115.4,67.8Z"/><path class="cls-5" d="M60.9,62.5a7.5,7.5,0,0,1-14.9.1,7.5,7.5,0,1,1,14.9-.1Z"/><path class="cls-4" d="M58.7,62.5a5.2,5.2,0,0,1-5.2,5.3,5.3,5.3,0,1,1,5.2-5.3Z"/><path class="cls-5" d="M58.9,55.1c2.3.2,4.3-1.4,3.8-3.3a3.1,3.1,0,0,0-4.9-1.6C55.8,51.6,55.8,55,58.9,55.1Z"/><path class="cls-5" d="M89.8,62.3a7.5,7.5,0,1,0,7.4-7.5A7.4,7.4,0,0,0,89.8,62.3Z"/><path class="cls-4" d="M92,62.3A5.3,5.3,0,1,0,97.2,57,5.2,5.2,0,0,0,92,62.3Z"/><path class="cls-5" d="M91.7,54.9c-2.3.2-4.3-1.3-3.9-3.3a3.2,3.2,0,0,1,5-1.6C94.8,51.3,94.8,54.7,91.7,54.9Z"/><path class="cls-1" d="M89,98.8c-4.7-.2-7.2-3.9-9.9-7.8-.9-1.3-2.1-2.3-3.6-2.2a4.6,4.6,0,0,0-3.6,2.3c-2.5,3.9-5,7.7-9.7,7.9-.6,0-.8.3-.5,1.2,3.3,10.3,4.1,16.3,14,16.2s10.6-6.1,13.8-16.4C89.8,99.2,89.6,98.8,89,98.8Z"/><g class="cls-6"><polygon class="cls-7" points="62.8 98.5 85.5 120.9 93.8 88.5 69.5 76.6 62.8 98.5"/></g></g></g></svg>