<svg xmlns="http://www.w3.org/2000/svg" xmlns:xlink="http://www.w3.org/1999/xlink" viewBox="0 0 150 150"><defs><style>.cls-1,.cls-6{fill:#f8f4f4;}.cls-2{fill:none;}.cls-3{isolation:isolate;}.cls-11,.cls-4{fill:#241916;}.cls-4{opacity:0.3;}.cls-11,.cls-4,.cls-6{mix-blend-mode:multiply;}.cls-5{clip-path:url(#clip-path);}.cls-6{opacity:0.2;}.cls-7{fill:#f29bad;}.cls-8{fill:#372f2c;}.cls-9{fill:#010101;}.cls-10{clip-path:url(#clip-path-2);}.cls-11{opacity:0.4;}</style><clipPath id="clip-path"><path class="cls-1" d="M105.3,41.2c9.2,15.4,18.6,36.9,21.3,55.9,2.2,16.1-3.7,24.6-24,24.6-15.7,0-25.2-18-29.2-25.9-3-6,5.6-44.3,5.6-44.3Z"/></clipPath><clipPath id="clip-path-2"><path class="cls-2" d="M99.3,30.4c-.8-3.7-22,10.9-24.3,10.9S51.5,26.7,50.7,30.4c-1.8,8.7-4.5,9.3-.6,25.5,11.8,49.9,16.4,54.7,24.9,54.7s13.1-4.8,24.9-54.7C103.8,39.7,101.1,39.1,99.3,30.4Z"/></clipPath></defs><title>dogCard</title><g class="cls-3"><g id="shadow"><path class="cls-4" d="M135.6,106.1c-2.4-17.4-10.6-36.9-19-51.9A19.9,19.9,0,0,0,117,50c0-12.1-10.6-21.9-33-21.9S51,37.9,51,50a19.9,19.9,0,0,0,.4,4.2c-8.4,15-16.6,34.5-19,51.9s3.7,24.6,24,24.6c9.2,0,16.3-6.2,21.4-12.9a9.2,9.2,0,0,0,6.2,1.8,9.2,9.2,0,0,0,6.2-1.8c5.1,6.7,12.2,12.9,21.4,12.9C131.9,130.7,137.8,122.2,135.6,106.1Z"/></g><g id="dog"><path class="cls-1" d="M105.3,41.2c9.2,15.4,18.6,36.9,21.3,55.9,2.2,16.1-3.7,24.6-24,24.6-15.7,0-25.2-18-29.2-25.9-3-6,5.6-44.3,5.6-44.3Z"/><g class="cls-5"><polygon class="cls-6" points="102.7 27.9 147.1 106 100.5 134.7 54.2 88.5 102.7 27.9"/></g><path class="cls-1" d="M44.7,41.2C35.5,56.6,26.1,78.1,23.4,97.1c-2.2,16.1,3.7,24.6,24,24.6,15.7,0,25.2-18,29.2-25.9,3-6-5.6-44.3-5.6-44.3Z"/><path class="cls-7" d="M99.3,30.4c-.8-3.7-22,10.9-24.3,10.9S51.5,26.7,50.7,30.4c-1.8,8.7-4.5,9.3-.6,25.5,11.8,49.9,16.4,54.7,24.9,54.7s13.1-4.8,24.9-54.7C103.8,39.7,101.1,39.1,99.3,30.4Z"/><path class="cls-8" d="M64.9,68a4.1,4.1,0,0,1-4.1,4.1,4.1,4.1,0,0,1,0-8.2A4.1,4.1,0,0,1,64.9,68Z"/><path class="cls-8" d="M93.3,68a4.1,4.1,0,0,1-4.1,4.1,4.1,4.1,0,0,1,0-8.2A4.1,4.1,0,0,1,93.3,68Z"/><path class="cls-9" d="M80.9,104.6a1,1,0,0,0-1.1-.6,11.5,11.5,0,0,1-2.8.6c-1.1.1-1.2-.3-1.2-1s.3-.9.9-1.1,3.4-2,3.4-3.9-2-3.2-5.1-3.2-5.1,1-5.1,3.2,1.7,3.3,3.4,3.9.9.4.9,1.1-.1,1.1-1.2,1a11.5,11.5,0,0,1-2.8-.6,1,1,0,0,0-1.1.6.8.8,0,0,0,.6,1,18,18,0,0,0,10.6,0A.8.8,0,0,0,80.9,104.6Z"/><g class="cls-10"><path class="cls-11" d="M85.1,44.8l45.3,14.6-34.7,43L47.2,54ZM69.4,105.4l18.1,18.2,12.2-6.5L79.3,96.7l-4.2,4.8-.6,4.1Z"/></g><path class="cls-1" d="M108,41c0,12.1-10.6,21.9-33,21.9S42,53.1,42,41,52.6,19.1,75,19.1,108,28.9,108,41Z"/></g></g></svg>