<svg xmlns="http://www.w3.org/2000/svg" xmlns:xlink="http://www.w3.org/1999/xlink" viewBox="0 0 150 150"><defs><style>.cls-1{fill:#fff;}.cls-2{fill:#df097f;}.cls-3{isolation:isolate;}.cls-4{fill:#241916;opacity:0.3;mix-blend-mode:multiply;}.cls-5{fill:#f49807;}.cls-6{clip-path:url(#clip-path);}.cls-7{fill:#231815;}.cls-8{fill:#fee2bf;}.cls-9{clip-path:url(#clip-path-2);}</style><clipPath id="clip-path"><path class="cls-1" d="M105.3,85.4c-1-4.4-4.9-8.9-11.2-5-3.7,2.3-7.5,2.8-9.6-2C81.3,71,75.9,67.8,75.9,60c0-5.6,5.3-11.1,1.6-11.7A15.5,15.5,0,0,0,74,48a15.5,15.5,0,0,0-3.5.3c-3.7.6,1.6,6.1,1.6,11.7,0,7.8-5.4,11-8.6,18.4-2.1,4.8-5.9,4.3-9.6,2-6.3-3.9-10.2.6-11.2,5-1.5,6.9,1.7,19.8,9,27.8,5.2,5.7,14.1,11.5,22.3,11.5s17.1-5.8,22.3-11.5C103.6,105.2,106.8,92.3,105.3,85.4Z"/></clipPath><clipPath id="clip-path-2"><path class="cls-2" d="M73.9,98.1c-2.7,0-5.6,2.4-8.6,2.6,1.1,8.6,4,11.6,8.7,11.6h0c4.7,0,7.6-3,8.7-11.6C79.7,100.6,76.7,98.1,73.9,98.1Z"/></clipPath></defs><title>dogCard</title><g class="cls-3"><g id="shadow"><path class="cls-4" d="M125.4,37.3c-7.8,2.9-27.8,17.7-32,18.9a27.2,27.2,0,0,1-7.2,1.1h0a14.2,14.2,0,0,0-3.4-.3,14.6,14.6,0,0,0-3.5.3h0a27.2,27.2,0,0,1-7.2-1.1c-4.2-1.2-24.2-16-32-18.9s-12.9,1.4-12,10.9a78.4,78.4,0,0,0,6.4,24.9c3,7.2,9.7,10,12.2,18.3,1.9,6.1-4.3,18.3,3.1,27.6,4.5,5.7,12.2,9.6,21.2,11.4a25.3,25.3,0,0,0,11.8,3.3,25.2,25.2,0,0,0,11.7-3.3c9-1.8,16.7-5.7,21.3-11.4,7.3-9.3,1.1-21.5,3-27.6,2.5-8.3,9.2-11.1,12.2-18.3a78.4,78.4,0,0,0,6.4-24.9C138.4,38.7,133.2,34.4,125.4,37.3Z"/></g><g id="dog"><path class="cls-5" d="M116.6,28.3c-7.7,2.9-27.7,17.7-32,18.9A34.3,34.3,0,0,1,74,48.4a34.3,34.3,0,0,1-10.6-1.2c-4.3-1.2-24.3-16-32-18.9s-13,1.4-12,10.9a81.4,81.4,0,0,0,6.3,24.9c3.1,7.2,9.7,10,12.3,18.3,1.9,6.1-4.4,18.3,3,27.6s19.2,12.5,33,12.5,26.5-4.4,33-12.5,1.1-21.5,3-27.6c2.6-8.3,9.2-11.1,12.3-18.3a81.4,81.4,0,0,0,6.3-24.9C129.6,29.7,124.4,25.4,116.6,28.3Z"/><path class="cls-1" d="M105.3,85.4c-1-4.4-4.9-8.9-11.2-5-3.7,2.3-7.5,2.8-9.6-2C81.3,71,75.9,67.8,75.9,60c0-5.6,5.3-11.1,1.6-11.7A15.5,15.5,0,0,0,74,48a15.5,15.5,0,0,0-3.5.3c-3.7.6,1.6,6.1,1.6,11.7,0,7.8-5.4,11-8.6,18.4-2.1,4.8-5.9,4.3-9.6,2-6.3-3.9-10.2.6-11.2,5-1.5,6.9,1.7,19.8,9,27.8,5.2,5.7,14.1,11.5,22.3,11.5s17.1-5.8,22.3-11.5C103.6,105.2,106.8,92.3,105.3,85.4Z"/><g class="cls-6"><polygon class="cls-4" points="81 83.4 67.9 92.5 82.7 107.3 92.5 95 81 83.4"/></g><path class="cls-7" d="M82,85.1c-1.4-3.7-5.5-3.7-8-3.7s-6.6,0-8,3.7,1.3,7.3,3.4,8.6a7.8,7.8,0,0,0,9.2,0C80.7,92.4,83.4,88.9,82,85.1Z"/><path class="cls-1" d="M61.7,68.9A6.7,6.7,0,1,1,55,62.3,6.6,6.6,0,0,1,61.7,68.9Z"/><path class="cls-7" d="M59.6,68.9A4.5,4.5,0,0,1,55,73.5a4.6,4.6,0,0,1-4.6-4.6A4.7,4.7,0,0,1,55,64.3,4.6,4.6,0,0,1,59.6,68.9Z"/><path class="cls-1" d="M86.4,68.9a6.6,6.6,0,0,0,13.2,0,6.6,6.6,0,1,0-13.2,0Z"/><path class="cls-7" d="M88.4,68.9A4.5,4.5,0,0,0,93,73.5a4.6,4.6,0,0,0,4.6-4.6A4.7,4.7,0,0,0,93,64.3,4.6,4.6,0,0,0,88.4,68.9Z"/><path class="cls-7" d="M92.3,92.8c-.8.8-1.6,1.9-2.4,2.8a14.8,14.8,0,0,1-4.5,4.5c-3.9,2.2-7.9-2-11.4-2s-7.5,4.2-11.4,2a14.8,14.8,0,0,1-4.5-4.5c-.8-.9-1.6-2-2.4-2.8s-1.5-.1-1,.9,1.8,4.1,2.7,6c2.2,4.3,5.5,6.5,6,7.5,2.7,5,5.1,7,10.6,7s7.9-2,10.6-7c.5-1,3.8-3.2,6-7.5.9-1.9,1.8-4.1,2.7-6S93,92.1,92.3,92.8Z"/><path class="cls-8" d="M47,52.5c1.4-3.7-2.9-10.3-8.1-14.3s-11.1-7.7-13.5-6.1S23.1,42,26.9,52.4s6.8,14,11,11.2S45.5,56.6,47,52.5Z"/><path class="cls-8" d="M101,52.5c-1.4-3.7,2.9-10.3,8.1-14.3s11.1-7.7,13.5-6.1,2.3,9.9-1.5,20.3-6.8,14-11,11.2S102.5,56.6,101,52.5Z"/><path class="cls-2" d="M73.9,98.1c-2.7,0-5.6,2.4-8.6,2.6,1.1,8.6,4,11.6,8.7,11.6h0c4.7,0,7.6-3,8.7-11.6C79.7,100.6,76.7,98.1,73.9,98.1Z"/><g class="cls-9"><polygon class="cls-4" points="65.3 100.7 78.8 114.3 86.4 96.2 73.2 92.5 65.3 100.7"/></g></g></g></svg>