<svg xmlns="http://www.w3.org/2000/svg" xmlns:xlink="http://www.w3.org/1999/xlink" viewBox="0 0 150 150"><defs><style>.cls-1{fill:none;}.cls-2{isolation:isolate;}.cls-11,.cls-3,.cls-6{fill:#241916;}.cls-3{opacity:0.3;}.cls-11,.cls-3{mix-blend-mode:multiply;}.cls-4{fill:#f5f5f5;}.cls-5{fill:#372f2c;}.cls-7{fill:#de3f8f;}.cls-8{fill:#9a2939;}.cls-9{clip-path:url(#clip-path);}.cls-10{opacity:0.4;}.cls-11{opacity:0.6;}</style><clipPath id="clip-path"><path class="cls-1" d="M118.1,77.4c-1.2-14.8-2.5-22-3.2-33.2s-1.6-19.1-6-20.4c-2.4-.7-6.1,2.9-7.7,3.9-12,7.5-18.2,6.6-25.7,6.6s-13.8.9-25.7-6.6c-1.7-1-5.3-4.6-7.7-3.9-4.4,1.3-5.5,9.8-6.1,20.4s-1.9,18.4-3.2,33.2c-3.2,37.6,13.6,49.1,42.7,49.1S121.4,115,118.1,77.4Z"/></clipPath></defs><title>dogCard</title><g class="cls-2"><g id="shadow"><path class="cls-3" d="M127.1,86.4c-1.2-14.8-2.5-22-3.2-33.2s-1.6-19.1-6-20.4c-2.4-.7-6.1,2.9-7.7,3.9-12,7.5-18.2,6.6-25.7,6.6s-13.8.9-25.7-6.6c-1.7-1-5.3-4.6-7.7-3.9-4.4,1.3-5.5,9.8-6.1,20.4s-1.9,18.4-3.2,33.2c-3.2,37.6,13.6,49.1,42.7,49.1S130.4,124,127.1,86.4Z"/></g><g id="dog"><path class="cls-4" d="M118.1,77.4c-1.2-14.8-2.5-22-3.2-33.2s-1.6-19.1-6-20.4c-2.4-.7-6.1,2.9-7.7,3.9-12,7.5-18.2,6.6-25.7,6.6s-13.8.9-25.7-6.6c-1.7-1-5.3-4.6-7.7-3.9-4.4,1.3-5.5,9.8-6.1,20.4s-1.9,18.4-3.2,33.2c-3.2,37.6,13.6,49.1,42.7,49.1S121.4,115,118.1,77.4Z"/><path class="cls-5" d="M65.6,68.5A4.5,4.5,0,1,1,61.1,64,4.5,4.5,0,0,1,65.6,68.5Z"/><path class="cls-5" d="M94.4,68.5A4.6,4.6,0,1,1,89.9,64,4.5,4.5,0,0,1,94.4,68.5Z"/><path class="cls-6" d="M98.7,90.3a6.1,6.1,0,0,1-1.4,0s-18.2,11.5-21.8,11.5S53.7,90.3,53.7,90.3a7.1,7.1,0,0,1-1.5,0c-.8-.2-1.2.7-.5,1.1s3.4,3.8,4.4,5.7,2.5,6.2,5.6,10.3c.8,1.1,1.7,2.1,2.5,3.1a9.6,9.6,0,0,1,2.1,3.8c1.5,4,4.3,5.9,9.2,5.9s7.6-1.9,9.1-5.9a11.4,11.4,0,0,1,2.2-3.8l2.5-3.1c3.1-4.1,4.5-8.1,5.6-10.3s2.8-4.9,4.3-5.7S99.5,90.1,98.7,90.3Z"/><path class="cls-7" d="M84.5,101.4c-2.8-.7-5.8,1.4-9,1.4s-6.3-2.1-9-1.4a4.5,4.5,0,0,0-.3,1.8c.2,10.8,2.4,15.7,9.3,15.7s9-4.9,9.2-15.7A8.2,8.2,0,0,0,84.5,101.4Z"/><path class="cls-8" d="M41.1,49.8c-.4-7.4-1.2-18.4,1.9-19.7s6.5,4.9,9,8.6,1.7,4.2-.7,5.9a45.9,45.9,0,0,0-7.1,6.3C42.3,53.2,41.3,52.5,41.1,49.8Z"/><path class="cls-8" d="M109.5,50.2c.5-7.4,1.3-18.4-1.8-19.7s-6.5,4.9-9,8.6-1.7,4.2.7,5.9a41.1,41.1,0,0,1,7.1,6.3C108.4,53.6,109.4,52.9,109.5,50.2Z"/><g class="cls-9"><g class="cls-10"><polygon class="cls-11" points="130.6 121.8 89.7 130.2 62.4 102.9 99 90.2 130.6 121.8"/></g></g><path class="cls-4" d="M102.8,77.9l-27.3.7-27.3-.7-.8,11.8c4.6.2,6.1.6,8.4,3.5s3.6,5.9,5.7,8.6,2.8,3.2,5,3.5a15.8,15.8,0,0,0,7.2-.3,2,2,0,0,0,1.5-.9c.2-.4.2-.7.3-.7l.2.7a2.4,2.4,0,0,0,1.5.9,16,16,0,0,0,7.2.3c2.2-.3,3.7-1.7,5-3.5s4.2-6.8,5.7-8.6,3.8-3.3,8.4-3.5Z"/><path class="cls-6" d="M75.5,88.4c-4.9,0-7.9,1.5-7.9,4.9s5.2,6.6,7.9,6.6,7.8-2.5,7.8-6.6S80.3,88.4,75.5,88.4Z"/></g></g></svg>