<svg xmlns="http://www.w3.org/2000/svg" xmlns:xlink="http://www.w3.org/1999/xlink" viewBox="0 0 150 150"><defs><style>.cls-1,.cls-5,.cls-9{fill:#241916;}.cls-1{opacity:0.4;}.cls-1,.cls-5,.cls-7,.cls-9{mix-blend-mode:multiply;}.cls-2{fill:#e4097f;}.cls-3{fill:#e9a235;}.cls-4{isolation:isolate;}.cls-5{opacity:0.3;}.cls-6{clip-path:url(#clip-path);}.cls-11,.cls-7{fill:#372f2c;}.cls-7,.cls-9{opacity:0.5;}.cls-8{clip-path:url(#clip-path-2);}.cls-10{clip-path:url(#clip-path-3);}.cls-12{fill:#dc5712;}</style><clipPath id="clip-path"><path class="cls-1" d="M90.8,111.3c0,7-6.6,9.4-14.8,9.4s-14.8-2.4-14.8-9.4c0-4.7,6.6-3.7,14.8-3.7S90.8,106.6,90.8,111.3Z"/></clipPath><clipPath id="clip-path-2"><path class="cls-2" d="M87.6,109.3c0,6.5-5.2,8.6-11.6,8.6s-11.6-2.1-11.6-8.6c0-4.4,5.2-3.4,11.6-3.4S87.6,104.9,87.6,109.3Z"/></clipPath><clipPath id="clip-path-3"><path class="cls-3" d="M76,26.5C50.4,26.5,37.6,40,41.2,70.6c1.7,14.8,9.2,26.3,10.9,36.9s4.8,11.8,11.8,9.4c4.4-1.5,10.3-6.3,12.1-6.3s7.7,4.8,12.1,6.3c7,2.4,10.3.4,11.8-9.4s9.2-22.1,10.9-36.9C114.4,40,101.6,26.5,76,26.5Z"/></clipPath></defs><title>dogCard</title><g class="cls-4"><g id="shadow"><path class="cls-5" d="M139.6,67.2c-3.3-4.6-20.1-25.7-31.3-26.1-.1,0-.3,0-.3.1-5.8-3.9-13.5-5.7-23-5.7s-17.2,1.8-23,5.7c0-.1-.2-.1-.3-.1-11.2.4-28,21.5-31.3,26.1-2.1,3-1.7,5.5,2,11.8,5.1,8.8,7.1,12.7,6.8,17.2-.1,1.3-1.3,2.9-1.7,4s1.6,3.1,3.6,1.7,6.4-7.4,7.7-10.2A37.8,37.8,0,0,0,51.1,85c2.6,12.2,8.5,22.2,10,31.5s4.7,11.7,11.3,9.6c2.6,2.6,7.3,3.6,12.6,3.6s10-1,12.6-3.6c6.6,2.1,9.8,0,11.3-9.6s7.4-19.3,10-31.6a36.2,36.2,0,0,0,2.3,6.8c1.3,2.8,5.1,8.4,7.7,10.2s4.2.1,3.6-1.7-1.6-2.7-1.7-4c-.3-4.5,1.7-8.4,6.8-17.2C141.3,72.7,141.7,70.2,139.6,67.2Z"/></g><g id="dog"><path class="cls-1" d="M90.8,111.3c0,7-6.6,9.4-14.8,9.4s-14.8-2.4-14.8-9.4c0-4.7,6.6-3.7,14.8-3.7S90.8,106.6,90.8,111.3Z"/><g class="cls-6"><polygon class="cls-7" points="55 115 74.7 133.2 102.4 107.5 81.9 88.6 55 115"/></g><path class="cls-2" d="M87.6,109.3c0,6.5-5.2,8.6-11.6,8.6s-11.6-2.1-11.6-8.6c0-4.4,5.2-3.4,11.6-3.4S87.6,104.9,87.6,109.3Z"/><g class="cls-8"><polygon class="cls-9" points="57.5 112.9 74.8 130.2 99.3 105.8 81.2 87.7 57.5 112.9"/></g><path class="cls-3" d="M76,26.5C50.4,26.5,37.6,40,41.2,70.6c1.7,14.8,9.2,26.3,10.9,36.9s4.8,11.8,11.8,9.4c4.4-1.5,10.3-6.3,12.1-6.3s7.7,4.8,12.1,6.3c7,2.4,10.3.4,11.8-9.4s9.2-22.1,10.9-36.9C114.4,40,101.6,26.5,76,26.5Z"/><g class="cls-10"><polygon class="cls-1" points="67.9 104.5 87.5 124.1 104 114.6 84.8 95.5 67.9 104.5"/></g><circle class="cls-11" cx="61.1" cy="59.5" r="4.8"/><path class="cls-11" d="M95.6,59.5a4.8,4.8,0,1,1-4.7-4.8A4.8,4.8,0,0,1,95.6,59.5Z"/><path class="cls-11" d="M76,93c-6.4,0-10.4,2-10.4,6.5s6.9,8.6,10.4,8.6,10.4-3.2,10.4-8.6S82.4,93,76,93Z"/><path class="cls-12" d="M39.8,82.7c-1.3,2.8-5.1,8.4-7.7,10.2s-4.2.1-3.6-1.7,1.6-2.7,1.7-4c.3-4.5-1.7-8.4-6.8-17.2-3.7-6.3-4.1-8.8-2-11.8,3.3-4.6,20.1-25.7,31.3-26.1.5,0,.7.3-.4,1a18.3,18.3,0,0,0-6,8.1C41.6,53.5,45.7,70.3,39.8,82.7Z"/><path class="cls-12" d="M112.2,82.7c1.3,2.8,5.1,8.4,7.7,10.2s4.2.1,3.6-1.7-1.6-2.7-1.7-4c-.3-4.5,1.7-8.4,6.8-17.2,3.7-6.3,4.1-8.8,2-11.8-3.3-4.6-20.1-25.7-31.3-26.1-.5,0-.7.3.4,1a18.3,18.3,0,0,1,6,8.1C110.4,53.5,106.3,70.3,112.2,82.7Z"/></g></g></svg>