<svg xmlns="http://www.w3.org/2000/svg" xmlns:xlink="http://www.w3.org/1999/xlink" viewBox="0 0 150 150"><defs><style>.cls-1{fill:#fff;}.cls-2{isolation:isolate;}.cls-3,.cls-6,.cls-9{fill:#241916;}.cls-3{opacity:0.3;}.cls-3,.cls-6{mix-blend-mode:multiply;}.cls-4{fill:#302826;}.cls-5{clip-path:url(#clip-path);}.cls-6{opacity:0.4;}.cls-7{fill:#372f2c;}.cls-8{fill:#bfbfc0;}.cls-10{fill:#fbdbda;}</style><clipPath id="clip-path"><path class="cls-1" d="M80.3,53.3c.3-3.8,2.7-6.3,8.4-4a2.4,2.4,0,0,0,2.7-.2c7.1-5,18-22.1,22.9-26.4,8.6-7.5,17.5-9.3,17.7,4.6s-8.9,32.1-9.5,34.6-.9,6.8-2.6,9.3-5.1,3.4-7.5,5.3-1,1.6-.7,2.9c3.3,14.2.6,26.6-1.2,30.7-3.2,7.1-7.4,10-10.8,11.8-1,.5-2.6-2.1-6.4-2.4l-11.4-9.7,1.6-14.1c-5.2-5.6,2.1-14.5,1.6-22.9C84.7,67.4,79.9,61,80.3,53.3Z"/></clipPath></defs><title>dogCard</title><g class="cls-2"><g id="shadow"><path class="cls-3" d="M123.3,31.7c-4.9,4.3-15.8,21.4-22.9,26.4a2.4,2.4,0,0,1-2.7.2,11.7,11.7,0,0,0-3.7-.9,40.5,40.5,0,0,0-9.5-1.2A37.8,37.8,0,0,0,73.1,58a4.2,4.2,0,0,0-1.8.3,2.4,2.4,0,0,1-2.7-.2c-7.1-5-18-22.1-22.9-26.4-8.6-7.5-17.5-9.3-17.7,4.6s8.9,32.1,9.5,34.6.9,6.8,2.6,9.3,5.1,3.4,7.5,5.3,1,1.6.7,2.9c-3.3,14.2-.6,26.6,1.2,30.7a22.9,22.9,0,0,0,7.8,10,10.1,10.1,0,0,0,9.8,7.7,8.5,8.5,0,0,0,3.4-.5l.6.3c3.5,1.7,7.1,2.6,13.4,2.6s9.9-.9,13.4-2.6l.6-.3a8.5,8.5,0,0,0,3.4.5,10.1,10.1,0,0,0,9.8-7.7,22.9,22.9,0,0,0,7.8-10c1.8-4.1,4.5-16.5,1.2-30.7-.3-1.3-.3-2.1.7-2.9s5.9-2.9,7.5-5.3,1.8-6.1,2.6-9.3,9.7-20.8,9.5-34.6S131.9,24.2,123.3,31.7Z"/></g><g id="dog"><path class="cls-1" d="M109.5,74.5c-4.3-16.2-16.5-27.3-34-27.3s-29.7,11.1-34,27.3c-3.6,13.2-2.5,23.7-.8,27.4,3,6.4,6.3,7.5,8.9,9.4s25.9-1.9,25.9-1.9,23.4,3.9,25.9,1.9,5.9-3,8.9-9.4C112,98.2,113.1,87.7,109.5,74.5Z"/><path class="cls-4" d="M69.3,56.7c-1.3-4.7-3-9-7-7.4a2.4,2.4,0,0,1-2.7-.2c-7.1-5-18-22.1-22.9-26.4-8.6-7.5-17.5-9.3-17.7,4.6s8.9,32.1,9.5,34.6.9,6.8,2.6,9.3,5.1,3.4,7.5,5.3,1,1.6.7,2.9c-3.3,14.2-.6,26.6,1.2,30.7,3.2,7.1,7.4,10,10.8,11.8,1,.5,2.6-2.1,6.4-2.4l11.4-9.7L67.3,91.3c5.2-2.7,5.1-4.5,4.9-12.9A106.6,106.6,0,0,0,69.3,56.7Z"/><path class="cls-1" d="M80.3,53.3c.3-3.8,2.7-6.3,8.4-4a2.4,2.4,0,0,0,2.7-.2c7.1-5,18-22.1,22.9-26.4,8.6-7.5,17.5-9.3,17.7,4.6s-8.9,32.1-9.5,34.6-.9,6.8-2.6,9.3-5.1,3.4-7.5,5.3-1,1.6-.7,2.9c3.3,14.2.6,26.6-1.2,30.7-3.2,7.1-7.4,10-10.8,11.8-1,.5-2.6-2.1-6.4-2.4l-11.4-9.7,1.6-14.1c-5.2-5.6,2.1-14.5,1.6-22.9C84.7,67.4,79.9,61,80.3,53.3Z"/><g class="cls-5"><polygon class="cls-6" points="95.1 96.9 112.6 114.4 94.7 126 92.5 99.9 95.1 96.9"/></g><path class="cls-7" d="M75.5,98.1c-4.3,0-7,1.3-7,4.4s4.6,5.8,7,5.8,7-2.2,7-5.8S79.8,98.1,75.5,98.1Z"/><path class="cls-8" d="M51.5,117.7c1.1,3.3,4.3,6.8,10.6,9.9,3.5,1.7,7.1,2.6,13.4,2.6s9.9-.9,13.4-2.6c6.3-3.1,9.5-6.6,10.6-9.9,2-6.6-2.9-9.3-8.6-9.5s-11.9,4.2-15.4,4.2-10.2-4.4-15.4-4.2S49.4,111.1,51.5,117.7Z"/><path class="cls-1" d="M102.6,110.6c-1.1-5.8-4.7-12-12-17.7-3.9-3.1-8-4.6-15.1-4.6s-11.2,1.5-15.1,4.6c-7.3,5.7-10.9,11.9-12,17.7-2.4,11.9,3.2,16.9,9.7,17.2s13.4-7.5,17.4-7.5,11.6,7.9,17.4,7.5S105,122.5,102.6,110.6Z"/><path class="cls-1" d="M59.6,86a7.8,7.8,0,1,1-7.8-7.8A7.7,7.7,0,0,1,59.6,86Z"/><path class="cls-9" d="M56.7,86a4.9,4.9,0,1,1-4.9-4.9A4.8,4.8,0,0,1,56.7,86Z"/><path class="cls-9" d="M91.1,86a7.1,7.1,0,1,0,7.1-7.1A7.1,7.1,0,0,0,91.1,86Z"/><path class="cls-9" d="M80.3,114a10.7,10.7,0,0,1,2.4-8.2c.7-1,2.3-2.4,2.3-3.9s-3.6-6.2-9.5-6.2S66,98.9,66,101.9s1.6,2.9,2.3,3.9a10.7,10.7,0,0,1,2.4,8.2c-.4,4.1-3.2,8.5-4.3,10s0,1,.8.8l3.6-1.4a15.4,15.4,0,0,1,4.7-1.4c1.6,0,5.5,1.8,8.3,2.8.8.2,1.2-.1.8-.8S80.7,118.1,80.3,114Z"/><path class="cls-9" d="M66.5,118.8a1.3,1.3,0,1,1-1.3-1.3A1.3,1.3,0,0,1,66.5,118.8Z"/><path class="cls-9" d="M61.8,120.4a1.1,1.1,0,1,1-2.2,0,1.1,1.1,0,0,1,2.2,0Z"/><path class="cls-9" d="M56.6,120.1a.9.9,0,0,1-.8.9.9.9,0,0,1-.9-.9.8.8,0,0,1,.9-.8A.8.8,0,0,1,56.6,120.1Z"/><path class="cls-9" d="M65.8,111.8a1.3,1.3,0,0,1-1.3,1.3,1.2,1.2,0,0,1-1.2-1.3,1.2,1.2,0,0,1,1.2-1.2A1.2,1.2,0,0,1,65.8,111.8Z"/><path class="cls-9" d="M60.6,113.5a1.1,1.1,0,0,1-1.1,1.1,1,1,0,0,1-1-1.1,1,1,0,0,1,1-1A1.1,1.1,0,0,1,60.6,113.5Z"/><path class="cls-9" d="M55.7,113.7a.9.9,0,1,1-.9-.9A.9.9,0,0,1,55.7,113.7Z"/><path class="cls-9" d="M84.5,118.8a1.3,1.3,0,1,0,1.3-1.3A1.3,1.3,0,0,0,84.5,118.8Z"/><path class="cls-9" d="M89.2,120.4a1.1,1.1,0,1,0,2.2,0,1.1,1.1,0,0,0-2.2,0Z"/><path class="cls-9" d="M94.4,120.1a.9.9,0,0,0,.8.9.9.9,0,0,0,.9-.9.8.8,0,0,0-.9-.8A.8.8,0,0,0,94.4,120.1Z"/><path class="cls-9" d="M85.2,111.8a1.3,1.3,0,0,0,1.3,1.3,1.2,1.2,0,0,0,1.2-1.3,1.2,1.2,0,0,0-1.2-1.2A1.2,1.2,0,0,0,85.2,111.8Z"/><path class="cls-9" d="M90.4,113.5a1.1,1.1,0,0,0,1.1,1.1,1,1,0,0,0,1-1.1,1,1,0,0,0-1-1A1.1,1.1,0,0,0,90.4,113.5Z"/><path class="cls-9" d="M95.3,113.7a.9.9,0,1,0,.9-.9A.9.9,0,0,0,95.3,113.7Z"/><path class="cls-10" d="M46.6,54.4c-.7-9.9-12.5-25.5-17.4-29.3-7.3-5.6-6.4,9.6-2.1,17.2s7.1,24.1,10.5,25.1S46.9,59.9,46.6,54.4Z"/><path class="cls-10" d="M104.4,54.4c.7-9.9,12.5-25.5,17.4-29.3,7.3-5.6,6.4,9.6,2.1,17.2s-7.1,24.1-10.5,25.1S104.1,59.9,104.4,54.4Z"/></g></g></svg>