<svg xmlns="http://www.w3.org/2000/svg" viewBox="0 0 150 150"><defs><style>.cls-1{opacity:0.5;}.cls-2{fill:#372f2c;}.cls-3{fill:#f2f2f2;}</style></defs><title>cardBackPawprint_Pawprint</title><g id="dog"><g id="_Group_" data-name="&lt;Group&gt;" class="cls-1"><path id="_Path_" data-name="&lt;Path&gt;" class="cls-2" d="M53.4,58.9a16,16,0,0,0,2.9,4.4,12.2,12.2,0,0,0,4.5,3.4,9.7,9.7,0,0,0,4.1.8,8.9,8.9,0,0,0,5.5-2.6,11,11,0,0,0,2.9-4.7,18.3,18.3,0,0,0,.9-3.9,22,22,0,0,0-.5-7.3,21.7,21.7,0,0,0-3-6.8,19.5,19.5,0,0,0-3.8-3.8,11.2,11.2,0,0,0-4-1.8H60.1a9.5,9.5,0,0,0-4.7,2.3,12.6,12.6,0,0,0-3,4.8,20,20,0,0,0-.9,3.5,20.6,20.6,0,0,0-.1,4.3A22,22,0,0,0,53.4,58.9Z"/><path id="_Path_2" data-name="&lt;Path&gt;" class="cls-2" d="M52,81.6a17.4,17.4,0,0,0,.6-4.5,17.8,17.8,0,0,0-3-9.5,24.7,24.7,0,0,0-2.1-2.7,13.9,13.9,0,0,0-5.6-3.6,8.9,8.9,0,0,0-3.9-.6,8.4,8.4,0,0,0-5.2,2.4,9.7,9.7,0,0,0-2.7,4.7,9.4,9.4,0,0,0-.5,3v1.6a17.5,17.5,0,0,0,1.7,6.8,17.7,17.7,0,0,0,3,4.5,13.6,13.6,0,0,0,5.6,3.9,9.6,9.6,0,0,0,4.1.7A8.7,8.7,0,0,0,49.4,86,11.4,11.4,0,0,0,52,81.6Z"/><path id="_Path_3" data-name="&lt;Path&gt;" class="cls-2" d="M108.8,106.4h0V106a20.2,20.2,0,0,0-1.9-7.2,25.8,25.8,0,0,0-4.6-6.7,27.3,27.3,0,0,0-2.5-2.3,38,38,0,0,1-4.2-4.7l-2.7-3.6-.3-.6-3-4.5a23.7,23.7,0,0,0-3.2-3.9,15.7,15.7,0,0,0-4.7-3l-.7-.3a11.6,11.6,0,0,0-3.7-.7H77a12.7,12.7,0,0,0-3.8.7l-.6.3a14.5,14.5,0,0,0-4.7,3,23.7,23.7,0,0,0-3.2,3.9c-1.1,1.5-2,3-3,4.5l-.4.6c-.8,1.2-1.7,2.5-2.6,3.6a32,32,0,0,1-4.3,4.7L52,92.1a23.5,23.5,0,0,0-4.6,6.7,18.3,18.3,0,0,0-1.9,7.2v.3h0v.4h0v.5h0v.2h0v.5h0a13.6,13.6,0,0,0,.6,2.9,13.4,13.4,0,0,0,4.3,6.7,11.1,11.1,0,0,0,4.5,2.5,10.9,10.9,0,0,0,2.6.4h2.9a27.4,27.4,0,0,0,5.7-1.1l4.8-1.3,3.9-.8,2.3-.2,2.4.2,3.9.8,4.8,1.3a27.7,27.7,0,0,0,5.6,1.1h3a11,11,0,0,0,7.1-2.9,14.1,14.1,0,0,0,4.3-6.7,9.3,9.3,0,0,0,.5-2.9h0a.4.4,0,0,0,.1-.3v-.2h0v-.2h0v-.5h0Z"/><path id="_Path_4" data-name="&lt;Path&gt;" class="cls-2" d="M81,60.2a11.8,11.8,0,0,0,2.8,4.7,9.1,9.1,0,0,0,5.6,2.6,9,9,0,0,0,4-.8A11.8,11.8,0,0,0,98,63.3a16,16,0,0,0,2.9-4.4,22,22,0,0,0,2-7.5,20.7,20.7,0,0,0-.2-4.3,13.7,13.7,0,0,0-.8-3.5,12.8,12.8,0,0,0-3.1-4.8,8.8,8.8,0,0,0-4.6-2.3H91.4a12.5,12.5,0,0,0-4.1,1.8,22.2,22.2,0,0,0-3.7,3.8,21.7,21.7,0,0,0-3,6.8,18.2,18.2,0,0,0-.6,4.6,24.4,24.4,0,0,0,.1,2.7A18.3,18.3,0,0,0,81,60.2Z"/><path id="_Path_5" data-name="&lt;Path&gt;" class="cls-2" d="M124.7,70.8a9.4,9.4,0,0,0-.5-3,9.7,9.7,0,0,0-2.7-4.7,8.4,8.4,0,0,0-5.2-2.4,8.9,8.9,0,0,0-3.9.6,13.9,13.9,0,0,0-5.6,3.6l-2.2,2.7a18.6,18.6,0,0,0-2.9,9.5,11.7,11.7,0,0,0,.6,4.5,10.3,10.3,0,0,0,2.6,4.4,8.3,8.3,0,0,0,5.4,2.3,9.6,9.6,0,0,0,4.1-.7,13.6,13.6,0,0,0,5.6-3.9,17.7,17.7,0,0,0,3-4.5,17.5,17.5,0,0,0,1.7-6.8Z"/></g><g id="_Group_2" data-name="&lt;Group&gt;"><path id="_Path_6" data-name="&lt;Path&gt;" class="cls-3" d="M49.1,51.6A18.2,18.2,0,0,0,52,56.1a12.6,12.6,0,0,0,4.6,3.3,7.8,7.8,0,0,0,4,.8,8.2,8.2,0,0,0,5.6-2.6A11.8,11.8,0,0,0,69,52.9a16.2,16.2,0,0,0,.9-3.8,24.4,24.4,0,0,0,.1-2.7,18.4,18.4,0,0,0-.6-4.7,20.3,20.3,0,0,0-3-6.7,16.7,16.7,0,0,0-3.7-3.8,10.7,10.7,0,0,0-4.1-1.8l-.9-.2s-.1.1-.1,0H55.8a7.5,7.5,0,0,0-4.6,2.3,12.5,12.5,0,0,0-3.1,4.7,13.7,13.7,0,0,0-.8,3.5,21.6,21.6,0,0,0-.2,4.4A21.4,21.4,0,0,0,49.1,51.6Z"/><path id="_Path_7" data-name="&lt;Path&gt;" class="cls-3" d="M47.7,74.4a12.2,12.2,0,0,0,.6-4.6,18.2,18.2,0,0,0-2.9-9.4,19.9,19.9,0,0,0-2.2-2.7A13.1,13.1,0,0,0,37.6,54a10.5,10.5,0,0,0-3.9-.5,7.8,7.8,0,0,0-5.2,2.3,9.7,9.7,0,0,0-2.7,4.7,10.5,10.5,0,0,0-.5,3v1.6A18.4,18.4,0,0,0,27,72a19,19,0,0,0,3,4.4,14.8,14.8,0,0,0,5.6,4,9.5,9.5,0,0,0,4.1.6,8.3,8.3,0,0,0,5.4-2.3A10.6,10.6,0,0,0,47.7,74.4Z"/><path id="_Path_8" data-name="&lt;Path&gt;" class="cls-3" d="M104.5,99.2h0v-.3a18.3,18.3,0,0,0-1.9-7.2A23.5,23.5,0,0,0,98,84.8l-2.4-2.3a37.2,37.2,0,0,1-4.3-4.6l-2.6-3.6-.4-.6c-1-1.5-1.9-3.1-3-4.6a23.7,23.7,0,0,0-3.2-3.9,14.5,14.5,0,0,0-4.7-3l-.6-.2a10.2,10.2,0,0,0-3.8-.7h-.3A9.4,9.4,0,0,0,69,62l-.7.2a15.7,15.7,0,0,0-4.7,3,23.7,23.7,0,0,0-3.2,3.9l-3,4.6-.3.6-2.7,3.6a45.8,45.8,0,0,1-4.2,4.6l-2.5,2.3a25.8,25.8,0,0,0-4.6,6.7,20.2,20.2,0,0,0-1.9,7.2V99h0v.3h0v.4h0v.6a.4.4,0,0,0,.1.3h0a8.7,8.7,0,0,0,.5,2.8,14.4,14.4,0,0,0,4.3,6.8,13.1,13.1,0,0,0,4.5,2.4,11.7,11.7,0,0,0,2.6.4h3a37.3,37.3,0,0,0,5.6-1.2l4.8-1.3a26.6,26.6,0,0,1,3.9-.7,19.7,19.7,0,0,1,2.4-.3l2.3.3a26.6,26.6,0,0,1,3.9.7l4.8,1.3a36.1,36.1,0,0,0,5.7,1.2h2.9a10.9,10.9,0,0,0,2.6-.4,12.2,12.2,0,0,0,4.5-2.4,13.7,13.7,0,0,0,4.3-6.8,12.7,12.7,0,0,0,.6-2.8h0V100h0v-.4h0Z"/><path id="_Path_9" data-name="&lt;Path&gt;" class="cls-3" d="M76.7,52.9a11,11,0,0,0,2.9,4.7,8,8,0,0,0,5.5,2.6,8.4,8.4,0,0,0,4.1-.8,13.1,13.1,0,0,0,4.5-3.3,18.2,18.2,0,0,0,2.9-4.5,21.1,21.1,0,0,0,1.9-11.8,20,20,0,0,0-.9-3.5,12.2,12.2,0,0,0-3-4.7,8.1,8.1,0,0,0-4.7-2.3H88.1c0,.1-.1,0-.1,0l-.9.2a9.7,9.7,0,0,0-4,1.8A15.2,15.2,0,0,0,79.3,35a20.3,20.3,0,0,0-3,6.7,22.7,22.7,0,0,0-.5,7.4A16.2,16.2,0,0,0,76.7,52.9Z"/><path id="_Path_10" data-name="&lt;Path&gt;" class="cls-3" d="M120.4,63.5a10.5,10.5,0,0,0-.5-3,9.7,9.7,0,0,0-2.7-4.7,7.8,7.8,0,0,0-5.2-2.3,10.5,10.5,0,0,0-3.9.5,13.1,13.1,0,0,0-5.6,3.7,13.9,13.9,0,0,0-2.1,2.7,17.5,17.5,0,0,0-3,9.4,18.2,18.2,0,0,0,.6,4.6,11.8,11.8,0,0,0,2.6,4.3A8.7,8.7,0,0,0,106,81a9.5,9.5,0,0,0,4.1-.6,14.8,14.8,0,0,0,5.6-4,19,19,0,0,0,3-4.4,18.4,18.4,0,0,0,1.7-6.9Z"/></g></g></svg>