<svg id="Layer_2" data-name="Layer 2" xmlns="http://www.w3.org/2000/svg" xmlns:xlink="http://www.w3.org/1999/xlink" viewBox="0 0 344 233"><defs><style>.cls-1{fill:none;}.cls-2{fill:#7d7d7f;}.cls-3{fill:#fff;}.cls-4{clip-path:url(#clip-path);}.cls-5{fill:#251a17;opacity:0.15;isolation:isolate;}.cls-6{fill:#f5a049;}.cls-7{clip-path:url(#clip-path-2);}.cls-8{fill:#241916;}</style><clipPath id="clip-path"><path class="cls-1" d="M275.5,111.3a2.6,2.6,0,0,0-1.8-3.1h-.1c-6.1-1.9-16.4-2.1-19.6-4-1.7-1-1.8-7-9.1-9.3S227.7,93.8,223,97c-9,6.1-15.7,20.2-21.7,32.6-4.2,8.6-10.5,9.8-18,10.5-13.3,1.3-23,3.3-29.4,3.5s-26.4-.2-44.7-1c-12.5-.6-30.6,13.8-30.6,17.2-.4,16.6,18.7,30,36.7,38.8,21.6,10.5,56.7,22.9,84.2,15.6,5.8-1.5,9.4,2.1,15.2,1,31.7-5.7,37.3-30.9,36.6-47.4-.9-23.5-6.5-37.4,3.5-40.5,3.8-1.2,5.2-1,11.4-3.9S275,115.1,275.5,111.3Z"/></clipPath><clipPath id="clip-path-2"><path class="cls-1" d="M261.6,106.7a1.4,1.4,0,0,0-1-.9c-2.8-.4-5.2-.9-6.5-1.7s-1.9-7-9.3-9.3a30.2,30.2,0,0,0-8.5-1.3,12.8,12.8,0,0,1-2.9-2.8c-1.7-2.4-5.4-13.5-13.6-14.5-3.3-.3-3,5-1.6,15.6.4,3.6.7,6.2,1,8.1-7.2,7-12.9,19-18.1,29.7-4.2,8.6-11.1,9.7-18.6,10.5-13.2,1.3-22.7,3-29.1,3.2s-25.9-.2-44.2-1c-4.5-.2-10.7,1.2-16.7,4.1-12.4,5.9-18.4,18.2-21.5,29.4-4.1,14.4-2.9,29.5.7,35.6a9,9,0,0,1,.9,3.3c0,.5.6.5.9.6a10.8,10.8,0,0,0,4-.1c1.9-.4,7.1-2.5,12.5-5.2a7.6,7.6,0,0,0,1.9-1.2,46,46,0,0,1,19.4-8.6,19.4,19.4,0,0,1,9.8,1.3c21.8,9.8,53.3,19.8,78.5,13.2a11.1,11.1,0,0,1,3-.8,7.7,7.7,0,0,0,3.9-1.1c3.5-1.7,5.5-2.4,9.5-5.6s5.8-8.5,7.1-13.7,9.4-7.2,14-16.1c5.9-11.6-5.7-40-5.8-52.9s6.4-11.6,11.6-11.8,11,1.1,15.5.3S262.5,108.4,261.6,106.7Z"/></clipPath></defs><title>homeDog</title><g id="Layer_1" data-name="Layer 1"><path class="cls-2" d="M217.2,158.6c.7,4.9-4.7,13.4-4.5,19.5.5,15.2,3.1,20.6,7.2,32.9,2.7,8,6.4,22,7,22h14.2c2.1-4,.9-8-2.3-9.5s-2.8-1.9-3-3.6,3.4-13.9,5.1-29c1.2-11.1-.8-15,0-29C242.1,139.1,215.3,145.3,217.2,158.6Z"/><path class="cls-2" d="M105.7,148.8c-9.1,9-12.3,14.4-15.9,25-2.6,7.7-1.3,24.4-3.2,31.8-1,4.1,4.5,25.5,5.2,27.4h14.6c1.3-2.4,1.6-6.2-1.3-7.5s-3.9-1.3-4.3-4a34.3,34.3,0,0,1,2.2-12.3c1.8-4.1,7.6-9.7,18.3-17.9a35.7,35.7,0,0,0,13.8-32.2C135.1,146.8,118.6,136.2,105.7,148.8Z"/><path class="cls-3" d="M275.5,111.3a2.6,2.6,0,0,0-1.8-3.1h-.1c-6.1-1.9-16.4-2.1-19.6-4-1.7-1-1.8-7-9.1-9.3S227.7,93.8,223,97c-9,6.1-15.7,20.2-21.7,32.6-4.2,8.6-10.5,9.8-18,10.5-13.3,1.3-23,3.3-29.4,3.5s-26.4-.2-44.7-1c-12.5-.6-30.6,13.8-30.6,17.2-.4,16.6,18.7,30,36.7,38.8,21.6,10.5,56.7,22.9,84.2,15.6,5.8-1.5,9.4,2.1,15.2,1,31.7-5.7,37.3-30.9,36.6-47.4-.9-23.5-6.5-37.4,3.5-40.5,3.8-1.2,5.2-1,11.4-3.9S275,115.1,275.5,111.3Z"/><g class="cls-4"><path class="cls-5" d="M210.6,205.3,222.4,223l15.5-11.5-16.2-16.2Z"/></g><path class="cls-3" d="M92.9,146.6c-13,6.3-18.1,17.8-21.7,30.6-4.5,16.1.1,33.8,1.3,34.2.5,4.9-.5,5.1-.6,8.8-.1,5.7,1,11.2,2,12.8H91.1c1.2-2.3,1.6-6.4-1-7.8S86,223.5,86,221s1-7.1,3.7-10.2c4.3-5,19.3-12.7,28.1-10.7,36.1,8.4,38.5-14.9,41.1-15.2s-26.9-30.5-47.6-40.7C104.3,140.8,96.8,144.8,92.9,146.6Z"/><path class="cls-3" d="M201.7,158.6c.7,4.9-10.5,14.2-10.3,20.4.4,15.1,8.9,32,14.4,43.7,2.8,5.8,5.1,10.3,5.7,10.3h14.2c2.1-4,1-8-2.3-9.5s-2.8-1.9-3-3.6,3.4-16.9,5.1-32.1c1.2-11.1,11.7-15.7,12.5-29.7C239.1,135.4,199.9,145.3,201.7,158.6Z"/><path class="cls-6" d="M261.6,106.7a1.4,1.4,0,0,0-1-.9c-2.8-.4-5.2-.9-6.5-1.7s-1.9-7-9.3-9.3a30.2,30.2,0,0,0-8.5-1.3,12.8,12.8,0,0,1-2.9-2.8c-1.7-2.4-5.4-13.5-13.6-14.5-3.3-.3-3,5-1.6,15.6.4,3.6.7,6.2,1,8.1-7.2,7-12.9,19-18.1,29.7-4.2,8.6-11.1,9.7-18.6,10.5-13.2,1.3-22.7,3-29.1,3.2s-25.9-.2-44.2-1c-4.5-.2-10.7,1.2-16.7,4.1-12.4,5.9-18.4,18.2-21.5,29.4-4.1,14.4-2.9,29.5.7,35.6a9,9,0,0,1,.9,3.3c0,.5.6.5.9.6a10.8,10.8,0,0,0,4-.1c1.9-.4,7.1-2.5,12.5-5.2a7.6,7.6,0,0,0,1.9-1.2,46,46,0,0,1,19.4-8.6,19.4,19.4,0,0,1,9.8,1.3c21.8,9.8,53.3,19.8,78.5,13.2a11.1,11.1,0,0,1,3-.8,7.7,7.7,0,0,0,3.9-1.1c3.5-1.7,5.5-2.4,9.5-5.6s5.8-8.5,7.1-13.7,9.4-7.2,14-16.1c5.9-11.6-5.7-40-5.8-52.9s6.4-11.6,11.6-11.8,11,1.1,15.5.3S262.5,108.4,261.6,106.7Z"/><g class="cls-7"><polygon class="cls-5" points="125.2 189.6 151.4 215.7 103.1 212 125.2 189.6"/></g><path class="cls-6" d="M133.9,198.1a213.3,213.3,0,0,0-22.6,2.1A47.4,47.4,0,0,0,92,208.8l14.6-24.6h33.1Z"/><path class="cls-8" d="M251,104.9c.2,1.5-1.8,2.9-3.2,3a2.7,2.7,0,0,1-2.8-2.6,2.9,2.9,0,0,1,2.3-2.8C248.6,102.4,250.9,103.4,251,104.9Z"/></g></svg>