<svg id="Layer_2" data-name="Layer 2" xmlns="http://www.w3.org/2000/svg" xmlns:xlink="http://www.w3.org/1999/xlink" viewBox="0 0 344 233"><defs><style>.cls-1{fill:none;}.cls-2{fill:#fff;}.cls-3{fill:#7d7d7f;}.cls-4{clip-path:url(#clip-path);}.cls-5{fill:#251a17;opacity:0.15;isolation:isolate;}.cls-6{fill:#241916;}</style><clipPath id="clip-path"><path class="cls-1" d="M287.4,42.5c-.5-4-2.6-5.6-4.4-5.4-5.8.5-8,1.5-15.3,2.2-5.1.6-5-10.1-21.5-11.2h-1.4a9.9,9.9,0,0,1-2.4-.3l-2.9-.8c-2.6-1.1-7.3-6.9-9.5-6.9s-2.8,3.5-2.5,8.9c.1,2.6-4.3,7.8-7.6,13.9a15.6,15.6,0,0,1-1.7,2.5c-9.2,11.2-11.1,13.8-19.9,25.9s-16.2,13.4-32.5,13.1c-8.3-.1-32.4-3-57.5,2.5-17,3.6-36.2,15.8-39.6,35.4C63,155,94.9,148.8,119,162.8c30.5,17.8,45.3,25.1,92.6,24.5,1.5,0,11.2-5,12.7-5,24.4-.2,52.2-47.2,50.9-79.5-.8-18.7-9.8-29.9-8-32.4s4.8-3.5,13.9-9.5C287.6,56.7,288.5,50.9,287.4,42.5Z"/></clipPath></defs><title>homeDog</title><g id="Layer_1" data-name="Layer 1"><path class="cls-2" d="M101.4,94.3a12.8,12.8,0,0,1,10.4-10.1c13-2.1,21.7,19,25.7,30.1s10.9,8.6,16.6-1,6.3-25.9,3.6-36.4a41.9,41.9,0,0,0-5.9-13.1c-11.7-17-35.7-27.5-58.9-13.3C76.2,60.6,71.9,74,68.3,86.7c-3.1,11-4.1,27.5-8.8,39.4Z"/><path class="cls-3" d="M93.3,160.7c-3,10.8-7.8,31.8-8.2,40.1-.2,5.8,3.3,29.5,4.3,32.2h20.5c1.8-3.3,2.1-7.7-2-9.6s-5.3-1.9-5.9-5.6a49.7,49.7,0,0,1,1.4-14.9c1.3-5.5,15.2-13.4,22.5-26.7,9.1-16.4,8.5-27.4,6.7-42.9C132.6,116.1,101.3,132.5,93.3,160.7Z"/><path class="cls-3" d="M226.5,129.4c1,6.9-28.5,31.4-28.2,40,.5,18,17.3,35.7,23.1,45.9,1.4,2.5,8.9,3.4,9,6.5.5,8-1.6,11.2-.7,11.2h18.5c1.7-3.3,2.5-8.2-2.1-10.2s-3.9-2.6-4.2-5a181.2,181.2,0,0,1,3-46.5c3.5-16.4,11.6-28.1,12.6-47.5C259.2,92.1,223.9,111,226.5,129.4Z"/><path class="cls-2" d="M287.4,42.5c-.5-4-2.6-5.6-4.4-5.4-5.8.5-8,1.5-15.3,2.2-5.1.6-5-10.1-21.5-11.2h-1.4a9.9,9.9,0,0,1-2.4-.3l-2.9-.8c-2.6-1.1-7.3-6.9-9.5-6.9s-2.8,3.5-2.5,8.9c.1,2.6-4.3,7.8-7.6,13.9a15.6,15.6,0,0,1-1.7,2.5c-9.2,11.2-11.1,13.8-19.9,25.9s-16.2,13.4-32.5,13.1c-8.3-.1-32.4-3-57.5,2.5-17,3.6-36.2,15.8-39.6,35.4C63,155,94.9,148.8,119,162.8c30.5,17.8,45.3,25.1,92.6,24.5,1.5,0,11.2-5,12.7-5,24.4-.2,52.2-47.2,50.9-79.5-.8-18.7-9.8-29.9-8-32.4s4.8-3.5,13.9-9.5C287.6,56.7,288.5,50.9,287.4,42.5Z"/><g class="cls-4"><path class="cls-5" d="M123.7,150.7l36.4,36.4-67.2-5.3ZM205.6,173,222,197.7l21.6-16L221,159.1Z"/></g><path class="cls-2" d="M83.9,94.7A55.7,55.7,0,0,0,68,109.4c-7.9,11.4-11.8,22.3-11.8,36.8S63,188,61.4,196.5c-2,10.3-1.2,33.5,0,36.5H82.8c1.6-3.2,2.2-7.3-1.4-9.3s-3.6-3.5-3.6-7,.8-9.7,4.2-14.5c5.9-8,34.1-24,44.3-43a60.9,60.9,0,0,1,5.2-8C141.3,138.7,91.8,89.9,83.9,94.7Z"/><path class="cls-2" d="M211.7,129.4c1,6.9-28.5,31.4-28.2,40,.5,18,15.7,38,23.1,45.9,4.9,5.1,8.3,4,8.8,7,1.1,7.8,2.7,10.7,3.5,10.7h18.5c1.7-3.3,2.5-8.2-2.1-10.2s-3.9-2.6-4.2-5a129.3,129.3,0,0,1-1.4-49.2c2.9-16.5,12-25.4,13-44.8C244.4,92.1,209.1,111,211.7,129.4Z"/><path class="cls-6" d="M259.8,42.6c.6,1.3-.7,3.3-1.9,3.9a2.7,2.7,0,0,1-2.4-4.7C256.7,41.1,259.1,41.2,259.8,42.6Z"/></g></svg>