<svg id="Layer_2" data-name="Layer 2" xmlns="http://www.w3.org/2000/svg" xmlns:xlink="http://www.w3.org/1999/xlink" viewBox="0 0 344 233"><defs><style>.cls-1{fill:none;}.cls-2{fill:#949394;}.cls-3{fill:#fff;}.cls-4{clip-path:url(#clip-path);}.cls-5,.cls-8{fill:#251a17;}.cls-5{opacity:0.15;isolation:isolate;}.cls-6{fill:#241916;}.cls-7{fill:#ee9616;}</style><clipPath id="clip-path"><path class="cls-1" d="M264,124.8c-1.6-4.2,0-7.1-5.3-7.1-2,0-3.3-4.3-5.2-6.5-3.7-4.2-12.4-6.6-17.8-7a17.9,17.9,0,0,0-4,.2c-1.4.2-2.2.2-2.4-.9-1.2-5.5-3-9.2-4.5-10.9s-2.9-1.5-2.7,1.7-2.2,7.4-3.3,15.9c-.2,1.6-2.4,2.7-4.2,3.5-9.8,4.3-15.1,6.8-20.3,10.4s-13.4,4.6-19.1,5.3c-11.5,1.4-35.4-4.9-50.3,0-5.9,1.9-8.2.8-10.8.1s-15.7,8.7-7.3,11.5c2.8.9,1.8,1.9,4.5,2.5,20.2,4.5-.1,26.1,15.5,33.7,18.3,8.9,45.8,16.4,68.1,15.5.5,0,1,3.1,1.5,2.9,16.8-4.8,23.2-13.4,31.4-34.9,1.4-3.8,2.6-5.5,7.8-8.9s12.4-8.3,15.7-10c4.8-2.5,10.4-5.2,12.3-7.3S265.3,128.5,264,124.8Z"/></clipPath></defs><title>homeDog</title><g id="Layer_1" data-name="Layer 1"><path class="cls-2" d="M116.8,160c-7.9,7.8-7.7,17.4-10.8,26.6-2.3,6.6-4.4,18.6-5.2,25.5-.5,3.5,2.9,19.2,3.5,20.9h13.5c1-2.1.8-4.8-1.7-6s-3.3-1.2-3.7-3.5a35.6,35.6,0,0,1,.3-10.3c.9-3.4,7.9-12.2,15.4-18.6S143,177,141.8,167.3,127.9,149.1,116.8,160Z"/><path class="cls-2" d="M196,177.9c-.2,10.9,1.8,30.9,2.9,43.5.6,6.9,2.8,11.6,3,11.6h12.4c.9-1.4,1.6-5.5-1.6-6.7s-2.4-2.4-2.6-3.9,1.2-18.8,3.4-31.9c1.4-7.8,5.6-17.7,5.4-20.7C218.9,169.3,196,177.9,196,177.9Z"/><path class="cls-3" d="M264,124.8c-1.6-4.2,0-7.1-5.3-7.1-2,0-3.3-4.3-5.2-6.5-3.7-4.2-12.4-6.6-17.8-7a17.9,17.9,0,0,0-4,.2c-1.4.2-2.2.2-2.4-.9-1.2-5.5-3-9.2-4.5-10.9s-2.9-1.5-2.7,1.7-2.2,7.4-3.3,15.9c-.2,1.6-2.4,2.7-4.2,3.5-9.8,4.3-15.1,6.8-20.3,10.4s-13.4,4.6-19.1,5.3c-11.5,1.4-35.4-4.9-50.3,0-5.9,1.9-8.2.8-10.8.1s-15.7,8.7-7.3,11.5c2.8.9,1.8,1.9,4.5,2.5,20.2,4.5-.1,26.1,15.5,33.7,18.3,8.9,45.8,16.4,68.1,15.5.5,0,1,3.1,1.5,2.9,16.8-4.8,23.2-13.4,31.4-34.9,1.4-3.8,2.6-5.5,7.8-8.9s12.4-8.3,15.7-10c4.8-2.5,10.4-5.2,12.3-7.3S265.3,128.5,264,124.8Z"/><g class="cls-4"><path class="cls-5" d="M133.4,170.9l22.7,22.6L119,186.7Zm54.8,15.7L198.4,202l22-6.8-18.3-18.3Z"/></g><path class="cls-6" d="M255.3,135.1a56.6,56.6,0,0,1-1.2-8.1c-.2-2.8.9-5.8,1.2-7.4s-1.5-6.2-2.5-7.4c-3.7-4.3-12.5-3.2-17.4-3.8-2.9-.3-2.5-3.8-3.7-4s-2.1.2-2.4-.9c-1.1-5.5-3-9.2-4.5-10.9s-2.9-1.8-2.9,1.6-2,7.4-3.1,15.9c-.2.9-.5,1.8-.7,2.6-1.5,6.1.3,14.2,15,19.8,4.9,1.8,11.1,5.6,13.6,6.8C252.2,142.1,256,138.5,255.3,135.1Z"/><path class="cls-3" d="M248.6,117.5a3.6,3.6,0,1,1-3.6-3.6h0A3.6,3.6,0,0,1,248.6,117.5Z"/><path class="cls-6" d="M247.4,117.5a2.4,2.4,0,1,1-2.4-2.4A2.3,2.3,0,0,1,247.4,117.5Z"/><path class="cls-7" d="M224.3,96.5c.7-.9,2.4,7.8,2.1,9.4s-2.4,3.3-3,3.1,0-3.7.3-6.9S223.9,97,224.3,96.5Z"/><path class="cls-3" d="M183.1,168.5a124.4,124.4,0,0,1,.8,13.7c.4,13.1,1.6,28.6,2.3,41.9.3,5,2.4,8.9,2.9,8.9h12c1.1-2,1.6-5.1-1.3-6.3s-2.4-1.7-2.6-3.2a281.1,281.1,0,0,1,4.9-30.3c1.9-9.4,12.6-11.6,13.2-23.7,1-19.8-10.5-28.5-13.9-29.5s-8.2-1.7-11.1.9S181.4,157,183.1,168.5Z"/><path class="cls-3" d="M131.6,138.4c-1.6-1.3-11.5-11.4-21.5-5.8s-19.7,16.1-19.2,25.8c.3,5.7.9,22.8-1.8,30.6s-8.7,18.4-9.4,23.8-1.1,18.1.3,20.2H92.3c1-2,1.4-4.5-.9-5.8s-2.2-2.2-2.2-4.3a21.4,21.4,0,0,1,3.5-9.6c3.7-5,7.7-3.9,24.1-19.5,7.1-6.7,16.2-13.8,21.3-15.3,3.4-1,7.2-1,13.9-.4S138.2,143.6,131.6,138.4Z"/><path class="cls-8" d="M175.3,129.4c-11.5,1.4-35.4-4.8-50.3,0-5.9,2-8.2.1-10.9-.3s-7.5,3.1-9.8,7.3c-8.8,6.2-13.9,13.5-13.6,21.9.2,2.2.3,6,.3,10.5,0,2.5,3.2,3.5,9.8-6.3s10.6-11.6,17.8-13.1c12-2.6,13.4-1.4,17.9-8.9s9.2-2.7,16.9,8.8,7.6,23.7,16.8,31.5c7.4,6.4,20,3.2,25.8-2.9s11-15.7,5.9-26.2c-3.3-7-6.9-14.3-8.1-24.6-.3-1.8-1.2-1.8-2.1-1.4C186.6,128,180.1,128.9,175.3,129.4Z"/></g></svg>