<svg id="Layer_2" data-name="Layer 2" xmlns="http://www.w3.org/2000/svg" xmlns:xlink="http://www.w3.org/1999/xlink" viewBox="0 0 344 233"><defs><style>.cls-1{fill:none;}.cls-2{fill:#a9aaab;}.cls-3{fill:#fff;}.cls-4{clip-path:url(#clip-path);}.cls-5{fill:#251a17;opacity:0.25;isolation:isolate;}.cls-6{fill:#4d4a4a;}.cls-7{fill:#dcdedd;}.cls-8{fill:#241916;}</style><clipPath id="clip-path"><path class="cls-1" d="M255.4,140.1c.7-2.1,1.8-3.9.1-5.1a40.9,40.9,0,0,1-8.7-7.9c.4-.9,2.3.1.8-1.8s-.9-.5-2.8-2a96.5,96.5,0,0,0-13-9c-5.1-2.7-11-3.9-17.1-.2s-8.4,8.1-13.4,13.7-11.4,12.1-18.5,14.8c-14.2,5.5-37.7,7.2-48,8.8-4.7.7-5.9-4.4-8.8-3.7a4,4,0,0,0-2.2,2.4c-.8,2,1.3,3.9,2.1,6.2.1.3.5,2.2-1.5,4.9-5.1,7.2-.3,14.7,16.8,16.9,3,.4-2.9,3.7,4.6,7.7,15.2,8,35.5,12.2,48,13.7,2.1.3,3.4,3.2,4.6,3.2,19.9-.8,20.6-27.3,20.2-39.6-.2-6.8,3.5-21.2,6.1-21.7,5.3-1,4.1,6.5,4.5,8,1.5,4.9,6.3,9.4,7,10.4s7.2-2.6,9.2-3.3C250.8,154.5,253.3,146.1,255.4,140.1Z"/></clipPath></defs><title>homeDog</title><g id="Layer_1" data-name="Layer 1"><path class="cls-2" d="M123,167.3c-1.4,2.9-2.4,1.2-2.7,12.4-.5,16.9-20.3,23-21.4,31.8-1.3,11.2,5.5,20.3,15.4,20.3h6.9c10,0,6.2-3.8,6.9-6,2.6-7.9,13.8-12,18.9-21.9s10.7-22.9,22.8-22.1c2.2.1-16-26.6-21.4-28.3C135.3,149.3,127.1,158.7,123,167.3Z"/><path class="cls-2" d="M215.1,187.3a102.9,102.9,0,0,0-4,29.2c0,3.6-.1,7.2,0,9.4s1.6,3.8,1.4,4.9-1.3,2.2-3.8,2.2h-9.8c-4.4,0-7-4.6-7.5-7a164.1,164.1,0,0,1-3.4-21c-1.1-12.6-.8-19.9.3-22.7s9.2-13.1,14.4-9.3,11.2,5.5,12,8.5S215.8,184.7,215.1,187.3Z"/><path class="cls-3" d="M255.4,140.1c.7-2.1,1.8-3.9.1-5.1a40.9,40.9,0,0,1-8.7-7.9c.4-.9,2.3.1.8-1.8s-.9-.5-2.8-2a96.5,96.5,0,0,0-13-9c-5.1-2.7-11-3.9-17.1-.2s-8.4,8.1-13.4,13.7-11.4,12.1-18.5,14.8c-14.2,5.5-37.7,7.2-48,8.8-4.7.7-5.9-4.4-8.8-3.7a4,4,0,0,0-2.2,2.4c-.8,2,1.3,3.9,2.1,6.2.1.3.5,2.2-1.5,4.9-5.1,7.2-.3,14.7,16.8,16.9,3,.4-2.9,3.7,4.6,7.7,15.2,8,35.5,12.2,48,13.7,2.1.3,3.4,3.2,4.6,3.2,19.9-.8,20.6-27.3,20.2-39.6-.2-6.8,3.5-21.2,6.1-21.7,5.3-1,4.1,6.5,4.5,8,1.5,4.9,6.3,9.4,7,10.4s7.2-2.6,9.2-3.3C250.8,154.5,253.3,146.1,255.4,140.1Z"/><g class="cls-4"><polygon class="cls-5" points="154.8 185.6 169 199.8 140.2 197.6 144.5 184.9 154.8 185.6"/><polygon class="cls-5" points="206.9 204.4 209 189 218.4 198.4 206.9 204.4"/></g><path class="cls-3" d="M213.5,189.3c-4.5,5.5-6.5,17.4-7.3,27.2-.3,3.6-.7,7.2-.8,9.4s1.7,3.6,1.4,4.8-1.8,2.3-4.2,2.3h-9.9c-4.4,0-6.6-4.5-7-6.9A165.2,165.2,0,0,1,184,205c-.2-12.6.6-19.9,2-22.7s10.1-13.1,15.1-9.3,10.7,5.5,11.3,8.5S215.3,187.1,213.5,189.3Z"/><path class="cls-3" d="M121,163.9c-1.9,2.8-2.3,5.8-4.8,17-3.7,16.9-24.7,23-27.5,31.8C85.2,224,90.2,233,100.1,233H107c10.1,0,7-3.8,8.1-6,4.1-7.8,16.2-12,23.1-21.9s15.2-22.8,27.1-22.1c2.2.2-10.8-26.6-15.8-28.3C137.1,150.5,126.8,155.3,121,163.9Z"/><path class="cls-6" d="M255.5,135a38.9,38.9,0,0,1-8.7-8c.4-.8,3.2.8,1.7-1.2a8.5,8.5,0,0,0-3.5-2.7c-2.7-1.4-8.1-6.7-13-9.3l-2-.9c-.8-.3-1-.7-1-1.7s-.1-5,0-6.1-1-1.9-2.2-.4-4.5,4.6-6.9,6.7a9.2,9.2,0,0,1-2.4,1.3,24.4,24.4,0,0,0-2.8,1.4c-5,3.1-8.4,8.1-13.4,13.7s-11.4,12.1-18.5,14.8c-14.2,5.5-37.7,7.2-48,8.8-4.7.7-5.9-4.4-8.8-3.7a4,4,0,0,0-2.2,2.4c-.7,2,1.3,3.9,2.1,6.2s-.5,2.2-1.7,3.2a15.9,15.9,0,0,0-3.4,3.9c-2.1,3.6-2.5,8.1-4.8,17.7-1.6,6.9-7.2,17.1-4.5,22.5,1.4,2.7,8.4,4,15-2.2s11.8-13.5,17.9-16.6,13.8,1.4,19.1,2.5c9.7,1.9,17.3,1.2,19.9-.9s2.7,4.7,3.2,7.2c1.2,6.5,6.6,4.2,15.4-.9,5.8-3.5,11.4-14.2,12.4-17,2.4-7,3.8-23.1,4-30.7s0-16.6,4.8-19.4,9.8,5,10.7,10.5c.7,3.7,1.6,6.6,4.6,6.9s6.3-1.9,8.6-1.1,6.9,1.9,8.3-1.9C256.1,138,257.2,136.2,255.5,135Z"/><path class="cls-7" d="M227.2,114.8a17.9,17.9,0,0,0,.7-7.6c-.1-1.3-1-.7-2.3.8s-4.3,5.2-4.5,6.4S226.6,116.4,227.2,114.8Z"/><path class="cls-8" d="M243.5,128.6c.1,1.2-1.4,2.3-2.5,2.4a2.1,2.1,0,0,1-2.2-2,2.1,2.1,0,0,1,1.7-2.2C241.6,126.7,243.4,127.4,243.5,128.6Z"/></g></svg>