<svg id="Layer_2" data-name="Layer 2" xmlns="http://www.w3.org/2000/svg" xmlns:xlink="http://www.w3.org/1999/xlink" viewBox="0 0 344 233"><defs><style>.cls-1{fill:none;}.cls-2{fill:#241916;}.cls-3{fill:#302826;}.cls-4{clip-path:url(#clip-path);}.cls-5{fill:#251a17;opacity:0.15;isolation:isolate;}.cls-6{fill:#e9640a;}.cls-7{fill:#a94417;}.cls-8{fill:#a8947f;}.cls-9{fill:#ebebec;}</style><clipPath id="clip-path"><path class="cls-1" d="M326.5,17.4c-6.5-1.8-8.6-.5-16.1-3.4-4.3-1.6-5.4-7.8-9.9-10.5-6.6-3.8-26.1-7.2-38.6,5.8s-16.3,19-27.2,31.5-14,12.4-26.2,16.1-25.9,3.7-44,3.3c-8-.1-33.6-1.3-58.5.9C88.2,62.6,74.3,73,69.6,87.1c-13.5,40-30.9,37.4-51.1,30.9-4.1-1.3-5.4,1.5-3.1,4.4,17.8,22.5,48.8,11.2,64.2-1.4,13.4-11,26.9,6.3,37.7,4.7s15.6,1.3,20.8,3.8c27.1,12.4,51.1,16.7,87.5,16.2,1.7,0-1.7-1.6,0-1.6,21.3,0,41.1-9,53.8-45.2,3.8-10.9,6.5-17,9.7-32.3,1.7-7.8,2.6-9.8,5.2-13.2s4.6-6.4,11.8-9.4c4.8-2.1,17.9-10.1,21.2-14.2S331,18.6,326.5,17.4Z"/></clipPath></defs><title>homeDog</title><g id="Layer_1" data-name="Layer 1"><path class="cls-2" d="M92.5,103c-15,13.9-13.5,34.8-20.1,51.1-4.8,11.8-10.3,20.2-13.2,34-1.4,6.3,2.4,41.9,3.3,44.8H81c2.2-3.6,2.9-8.5-1.4-10.6s-5.8-2.1-6.2-6.2a105.4,105.4,0,0,1,3.3-22.4c1.9-6.1,13.4-17.6,26.7-29.3,10.9-9.6,19-23.7,24-34.2,2.9-6,9.8-10.8,31.5-7C160.1,104.2,113.5,83.6,92.5,103Z"/><path class="cls-2" d="M229.8,133.2c.4,30,8.2,98.7,9.1,98.7l17.6.7c1.6-2.6,2.4-9.8-3.3-12s-4.5-4.2-4.9-6.8.2-31.6,2.4-56.2c1.3-14,10.5-32.6,10-37.9C260.6,118.6,229.8,133.2,229.8,133.2Z"/><path class="cls-3" d="M326.5,17.4c-6.5-1.8-8.6-.5-16.1-3.4-4.3-1.6-5.4-7.8-9.9-10.5-6.6-3.8-26.1-7.2-38.6,5.8s-16.3,19-27.2,31.5-14,12.4-26.2,16.1-25.9,3.7-44,3.3c-8-.1-33.6-1.3-58.5.9C88.2,62.6,74.3,73,69.6,87.1c-13.5,40-30.9,37.4-51.1,30.9-4.1-1.3-5.4,1.5-3.1,4.4,17.8,22.5,48.8,11.2,64.2-1.4,13.4-11,26.9,6.3,37.7,4.7s15.6,1.3,20.8,3.8c27.1,12.4,51.1,16.7,87.5,16.2,1.7,0-1.7-1.6,0-1.6,21.3,0,41.1-9,53.8-45.2,3.8-10.9,6.5-17,9.7-32.3,1.7-7.8,2.6-9.8,5.2-13.2s4.6-6.4,11.8-9.4c4.8-2.1,17.9-10.1,21.2-14.2S331,18.6,326.5,17.4Z"/><g class="cls-4"><path class="cls-5" d="M128.4,110.8l40.3,40.4-74.5-5.9Zm98.5,24.3L245,162.5l24-17.8-25.1-25Z"/></g><path class="cls-6" d="M302.9,14.4a3.6,3.6,0,0,1-2.9,3.9,4,4,0,0,1-4.3-2.9c-.3-1.9,1.6-3.6,3.3-3.8A3.5,3.5,0,0,1,302.9,14.4Z"/><path class="cls-2" d="M282,2.6c-7.6-1.1-20.7,1.5-26.1,6.9-3.3,3.3,11.6,27.6,17.4,30.1s6.7-1.8,6.1-8.6c-.4-4.9-1.6-14.2,5.4-23.5C287.3,4.2,286.1,3.2,282,2.6Z"/><path class="cls-7" d="M84.8,180.1c-.8-1.3-4,0-7.8,1.6-8.5,3.8-18.2,9.2-18.3,14.9-.1,11.3,2.9,33.8,3.7,36.3H81.2c2.2-3.6,2.6-8.7-1.7-10.8s-5.6-2.1-6-6.2a104.2,104.2,0,0,1,3.1-21.6,27.8,27.8,0,0,1,6.2-9.6C85.4,181.9,85.4,181.1,84.8,180.1Z"/><path class="cls-7" d="M253.2,220.6c-4.3-1.6-4.5-4.2-4.9-6.8-.1-.8.2-18.1,1.2-37,.2-2.6-.8-2.7-2.1-1.7-3.6,2.5-8.2,4.4-11.5,7.3s-2.7,2.9-2.4,6.3c2.3,23.2,4.9,43.2,5.4,43.2l17.6.7C258.1,230,258.9,222.7,253.2,220.6Z"/><path class="cls-3" d="M105.2,64.2c-5.3,3-30.7,4.5-35.8,43.6-3.1,24-7.5,38-15,48.8s-18.1,18-18.8,26c-.7,6.3-.7,19.8-.4,31.3a72.4,72.4,0,0,0,3,19h15c1.9-3.6,4.4-6.3.4-8.5s-4.4-5.4-4.4-9.3,3.2-19.7,6.5-25.2c6.5-10.7,39.6-27.5,49.6-41.8C125.4,119.2,134,123,138.9,124,192.7,134.9,141.4,43.5,105.2,64.2Z"/><path class="cls-6" d="M53.9,187.6c-3.4,2.4-4.1,4.4-7.6,9.4s-6.8,6.5-9.2,7.3-2.3,2.6-2.2,4.8c.3,9.9,1.1,22.3,1.7,23.8H56.3c1.8-3.6,2.4-8-1.6-10.3s-4-3.9-4-7.8,2.1-19.7,5.4-25.2C57.3,187.6,56.3,185.9,53.9,187.6Z"/><path class="cls-3" d="M208,118.1a180.2,180.2,0,0,1,3,23.1c1.7,23.3,4.3,52.2,6.5,75.8.8,8.9,4.2,15.9,5.2,15.9h14c1.8-3.6,2.9-8.3-2.3-10.5s-4-3.7-4.4-6.4c-.2-1.2.6-25.8,4.5-55.4,2.5-18.4,11.8-29,12.1-50.6.5-35.1-4.1-40.8-10.2-42.6-8-2.3-14.6-3-19.6,1.6S204.4,97.7,208,118.1Z"/><path class="cls-6" d="M234.9,221.7c-4.1-1.8-4.5-3-4.9-5.6-.1-.5.5-8.7.9-15.6a5.9,5.9,0,0,0-1.3-4.8c-3.1-3.4-7.7-5.7-12.8-7.8-1.3-.5-2.1-.1-2,1.5.7,7.8,1.9,20.4,2.6,27.5.8,8.9,2.3,16,3.3,16h17C239.4,229.3,240.1,223.9,234.9,221.7Z"/><path class="cls-8" d="M296.3,37.3c1.1-1.8,11.3-6,18.3-5.7,3,.2,5.7,2.9,7,3.5s.9,3.7-.1,4.9-3.5,2.3-9.8,2.2c-2.9-.1-14.3-1.1-15-3.2S296.3,37.3,296.3,37.3Z"/><path class="cls-9" d="M302,39.3c0-.4,1.3-2.1,1.9-2.1s1.8,2.4,2.1,2.8,1.5-.7,2.3-1,1,.6,1.5,1.3,2.9-.6,3.3-.6.9.6,1.4,1.1,2.4-2.2,3.1-3.2,1.4,2.3,1.4,3.1,1.4-1.4,1.7-1.9.9,1.2.9,1.9-.9,1.2-3.4,1.2h-6a35.1,35.1,0,0,1-7.9-1.2C302.9,40.2,302,39.9,302,39.3Z"/><path class="cls-6" d="M325.1,26.4c-1.4-.8-2.3-3-2.5-5.2s-.5-1.2-1.3-.5c-7.4,6.1-20.9,7.9-26.9,12.4s-4.5-3.4-4.1-7.2-4.5-3-7.8,6.6c-2.4,6.8,3.4,7.8,3.6,11.1s1.3,10.3,4.6,13.5c1.2,1.2,2.2,0,3.2-2s2-4.4,6.2-5.4,7-1.2,13.4-1.2,7.9-1.8,9.6-3.6,1.6-2.5,1.2-2.8-2,1.2-3.6,2c-5.3,2.5-14.9,2.5-20.4-.3s-2-6.6,0-8,6.4-1,12.5,1.4a12.3,12.3,0,0,0,13.8-3.8,16.9,16.9,0,0,0,2.4-6.1c.1-.7-.1-.7-.8-.5A4.3,4.3,0,0,1,325.1,26.4Z"/><path class="cls-3" d="M303.6,37.1c2.4-.6,7.6.5,10.6.8.8.1.7-.4.2-.5l-1.7-.5c-6-2.4-11-2.4-12.6-1.3s-5.3,5.4.2,8.2,15.3,3,20.5.4a31.3,31.3,0,0,0,3-2c.1-.1.2-.6-.4-.7a11.3,11.3,0,0,0-4.1-.1c-2.2.2-4.6-.3-9.1,0a16,16,0,0,1-7.7-1.7C301.6,39.3,300.7,37.7,303.6,37.1Z"/><path class="cls-2" d="M302.2,14.8a2.5,2.5,0,1,1-2.5-2.5h0A2.5,2.5,0,0,1,302.2,14.8Z"/></g></svg>