<svg id="Layer_2" data-name="Layer 2" xmlns="http://www.w3.org/2000/svg" xmlns:xlink="http://www.w3.org/1999/xlink" viewBox="0 0 344 233"><defs><style>.cls-1{fill:none;}.cls-2{fill:#a9aaab;}.cls-3{fill:#fff;}.cls-4{clip-path:url(#clip-path);}.cls-5{fill:#251a17;opacity:0.15;isolation:isolate;}.cls-6{fill:#ed6f19;}.cls-7{fill:#241916;}.cls-8{fill:#a94417;}</style><clipPath id="clip-path"><path class="cls-1" d="M273.5,91.5c-.2-1.9-.8-2.1-2-2.3-5.5-1.2-10.7-1.9-15.6-3.1-1.8-.5-1.2-5.7-5.9-8.4-7.4-4.1-21.8-4.5-26.5-1.3-8.9,6-10.8,12.3-15.4,20.6s-9.4,12.1-15.3,15.6c-11.5,6.7-39.9,8.1-46.2,8.7s-10.8.3-26.3.6c-5.1.1-8.3-2.2-10-9.2-2.2-8.7-5.3-26.5-.4-44.7,2.8-10.2-7.8-8.4-11.5,1.4-5.5,14.6-2.8,36.7,2,57.7,2.6,11.3-9,24.2-7.7,27.4,9.1,22.8,16.2,9.1,35.5,14,24.5,6.3,52.9,16.5,80.6,10.1,18-4.1,23-17.3,24.5-34.2.4-4.4,2.7-9.2,3.7-13.6,3.6-16.6,5.6-18.6,15-19.6,3.9-.5,8.7,0,14.4-2S273.8,96.2,273.5,91.5Z"/></clipPath></defs><title>homeDog</title><g id="Layer_1" data-name="Layer 1"><path class="cls-2" d="M110.9,149.2c-9.1,8.9-7.3,22.4-10.9,32.9-2.6,7.6-6.7,16.4-8.6,23.8-1,4,1.8,25.2,2.5,27.1h13.6c1.3-2.4,1.5-5.5-1.4-6.9s-2.8-1.3-3.3-4a64.7,64.7,0,0,1,1.1-13.9c1-3.9,11.1-12.3,19.1-19.9,9.8-9.2,14-18.8,12.7-29.9S123.6,136.7,110.9,149.2Z"/><path class="cls-2" d="M208.5,169.2c-.6,19.3,3.6,63.8,4.2,63.8h13.7c1.1-1.7,1.9-6.3-1.8-7.7s-2.1-3.2-2.2-4.9-.7-21.9,1.5-35.2c1.5-8.9,5.4-21.5,5.2-24.9C229.1,159.6,208.5,169.2,208.5,169.2Z"/><path class="cls-3" d="M273.5,91.5c-.2-1.9-.8-2.1-2-2.3-5.5-1.2-10.7-1.9-15.6-3.1-1.8-.5-1.2-5.7-5.9-8.4-7.4-4.1-21.8-4.5-26.5-1.3-8.9,6-10.8,12.3-15.4,20.6s-9.4,12.1-15.3,15.6c-11.5,6.7-39.9,8.1-46.2,8.7s-10.8.3-26.3.6c-5.1.1-8.3-2.2-10-9.2-2.2-8.7-5.3-26.5-.4-44.7,2.8-10.2-7.8-8.4-11.5,1.4-5.5,14.6-2.8,36.7,2,57.7,2.6,11.3-9,24.2-7.7,27.4,9.1,22.8,16.2,9.1,35.5,14,24.5,6.3,52.9,16.5,80.6,10.1,18-4.1,23-17.3,24.5-34.2.4-4.4,2.7-9.2,3.7-13.6,3.6-16.6,5.6-18.6,15-19.6,3.9-.5,8.7,0,14.4-2S273.8,96.2,273.5,91.5Z"/><g class="cls-4"><path class="cls-5" d="M133.5,159.6l26.1,26-48.1-3.8Zm62.7,10.1,11.7,17.7L230,171.5l-16.2-16.1Z"/></g><path class="cls-3" d="M129.2,132.1c-1.9-1.4-24.6-14.9-27.7-2.1-2.7,11.1-8,11.8-11.3,25.7-1.5,6.4-2.2,16.2-5.2,25.1s-12.5,17.7-13.3,23.8c-1.1,7.8-1.9,26.1-.3,28.4H86.3c1.1-2.3,1.6-5.2-1-6.6s-2.6-2.5-2.6-5,1-10.4,3.5-13.7c4.1-5.7,20.4-17.4,24.3-22.3,8.3-10.5,13.8-17.5,21.8-18.9,11.4-2.1,16.3-.8,24-.1S136.7,138.2,129.2,132.1Z"/><path class="cls-3" d="M188.8,158.9c.7,5,2.9,8.8,3.1,14.9.4,15.1,2,33.7,2.8,49,.3,5.7,1,10.2,1.6,10.2h13.5c1.2-2.3,1.8-5.8-1.5-7.3s-2.8-1.9-3-3.6.9-14.7,4.8-33.6c2.2-10.9,13.9-16.1,14.7-30,1.2-22.6-9.8-31.1-13.7-32.2s-9.4-2-12.7,1S186.9,145.8,188.8,158.9Z"/><path class="cls-6" d="M209.4,115c-4.6-3-9.3-4.6-15.2-.7-1.4,1-3.6,1.9-5.2,2.8-11.4,6.6-36.3,5.6-42.6,6.2s-11.9-.5-26.1-1.4c-5.1-.4-8.2-2.3-10-9.3a97.9,97.9,0,0,1-1.9-9.9c0-.4-.3-.5-.7-.3a15.4,15.4,0,0,1-4.8,2.4,9.6,9.6,0,0,1-6.4-1.1c-.2-.2-.4-.2-.3.3a219.2,219.2,0,0,0,4,22.9A13.7,13.7,0,0,1,98.7,137c-1.7,3.3-3.6,5.6-5.5,9.5a33.5,33.5,0,0,0-2.5,6.9c-.9,7,8.7,21.9,15.4,24.8,3.7,1.6,6.3,1.9,8.2,1.4a3,3,0,0,0,2-1.3c3.4-3.9,6-6.9,9.3-9s12.2-4.2,19.9-3c14.2,2.3,29.1,6.3,34.1,7.3,3,.5,7,2.8,9.6,4.7.6.4,2.3,1,3,2s.8,3.2,1.9,5.6c2.7,5.4,13.7,9.3,15.1,7s.8-3.1,1.1-4.6c1.3-5.8,6.4-11.8,8.7-14.9,4.4-5.6,5.7-11.3,6.4-16.8a81.9,81.9,0,0,0-.8-26.6C223.4,123.2,213.7,117.8,209.4,115Z"/><path class="cls-6" d="M250.1,77.6c-7.5-4.2-20.8-4.8-26.7-1.2C214.2,82,212.5,88.8,208,97c-.8,1.4-.3,1.8.8,2.8a36.9,36.9,0,0,0,9.3,5.7c4.8,1.9,8,15.1,27.6,5.4,5.4-2.6,2-11.1,3.7-13.9s3.3-3.5,3.7-6.3A22,22,0,0,0,252,80.2,4.6,4.6,0,0,0,250.1,77.6Z"/><path class="cls-7" d="M206.7,119.8c7.3-7.9-7.5-10.9-8.2-10.7-2.5.4-3.8,2.4-8.1,4.3-12.1,5.3-35.6,6.8-42,7.3-10.4.7-16.6.7-26.9.9-2.3,0-5.4-.5-7.1-1.7s-.8-.2-.8-.1c-.4,3.1,5,8.4,9.8,15.4,3.2,4.6,6.4,14,10.5,18.4,7.2,8,20.9,12.1,46.7,14,22.2,1.5,10.8-19.3,13.4-30.6C196.3,127.6,202.6,124.1,206.7,119.8Z"/><path class="cls-7" d="M249.7,85.5c0,1.3-2,2.3-3.3,2.3a2.5,2.5,0,0,1-2-2.8,2.4,2.4,0,0,1,2.3-2C247.9,83,249.8,84.2,249.7,85.5Z"/><path class="cls-8" d="M213.4,98.1a20.6,20.6,0,0,1,8.1-13.5,27.2,27.2,0,0,1,5.8-3.7c1.3-.6,2.9-.1,3.4,2.1,1.1,4.5,3.2,9.2,5.1,15.4,2.7,9.3,2.4,17.4,1.1,19.1-3.3,4.3-12.6,3.3-17.4-.2C216.3,115.1,212.4,105.2,213.4,98.1Z"/></g></svg>