<svg id="Layer_2" data-name="Layer 2" xmlns="http://www.w3.org/2000/svg" xmlns:xlink="http://www.w3.org/1999/xlink" viewBox="0 0 344 233"><defs><style>.cls-1{fill:none;}.cls-2{fill:#82531d;}.cls-3{fill:#7d7d7f;}.cls-4{fill:#f7a713;}.cls-5{fill:#fff;}.cls-6{fill:#241916;}.cls-7{clip-path:url(#clip-path);}.cls-8{fill:#251a17;opacity:0.25;isolation:isolate;}</style><clipPath id="clip-path"><path class="cls-1" d="M242.5,128.5c1.9,17.3-1.2,42.8-29.4,44-8.9.4-37-1.5-63.6-13-11-4.7-15-3-19.3-3.6-24.2-3.2-33.5-11.4-33.5-23.7s9-23.1,23-25.2,31.4,2.8,40,3.4c24.4,1.9,31.3.8,36.2-10s10.8-33,20.3-42.7c7.1-7.3,18.9-9.6,26.8-7.6,11.8,3.1,13.8,12.3,13.5,17.4-.4,6.7-3.4,11.5-14.7,11.4,10.1,23.8,11.5,35-.2,37.3Q241.8,121,242.5,128.5Z"/></clipPath></defs><title>homeDog</title><g id="Layer_1" data-name="Layer 1"><path class="cls-2" d="M212.5,221.8c0,1.8-.6,9,.8,11.2h12.4a3.7,3.7,0,0,0,1-4.4c-.7-1.4-4.1-3.5-5.2-6.4S212.5,221.8,212.5,221.8Z"/><path class="cls-2" d="M108.2,219.4c.3,1.9-.9,11.2,1,13.6H124a3.6,3.6,0,0,0,.2-4.7c-1-1.5-4.9-4.7-6.7-7.8S108.2,219.4,108.2,219.4Z"/><path class="cls-3" d="M233.4,168.4c-5.4,8.4-5.1,21.4-6.2,34.7-1.2,15.1-.4,16.8-3.4,18.9s-18.6,1.5-20.9-2.6-2.4-25.5-2-35.6c.8-17.7,2.4-28.2,4.4-32.1s14-18.5,20.1-13.2,9.6-12.9,11.7-9.2S244.5,151.1,233.4,168.4Z"/><path class="cls-3" d="M105,127.1c-1.9,4,11.9,20.9,14.3,37.2s-6,27.3-10.3,35.2c-7.7,14.3-4.8,22.2.9,23.6s11.1-.4,14.8-4.9c12.7-15.7,14.5-19.3,17.7-29.4,5.1-16.5,8.9-29.6,24.2-27,12.1,2.1-8.9-34-18.4-39C140.2,118.5,110.9,115,105,127.1Z"/><path class="cls-4" d="M250.7,73a7.7,7.7,0,0,0,4.4,4.1c6.2,2.1,15.5,5.5,16.5,6.1s-3.4,9.7-8.2,10.8-12.9-.2-18.7-.7a12.7,12.7,0,0,0-6.4,1c-5.3,1.9-6.8-9.1-4.3-13.5S249.8,70.8,250.7,73Z"/><path class="cls-5" d="M77.6,77c-9.2,8.8-6,25.6,4.9,31.4s17.3,1.4,19,3.1,3.4,6.3,3.4,6.3l9.7-7.6s-5.1-3.4-5.4-4.7,7-15.8-3.1-27.1A20,20,0,0,0,78,76.6C77.9,76.8,77.7,76.9,77.6,77Z"/><path class="cls-4" d="M198.3,222.4c0,1.8-.6,8.2.9,10.6h14.1a3.9,3.9,0,0,0,1.1-4.7c-.7-1.5-4.4-3.8-5.6-6.9S198.3,222.4,198.3,222.4Z"/><path class="cls-4" d="M82.1,219c0,1.9-.2,11.6,1.3,14h14a4,4,0,0,0,1.2-4.7c-.7-1.5-4-4.7-5.2-7.8S82.1,219,82.1,219Z"/><path class="cls-6" d="M245.8,78.5a11,11,0,0,0,5.4.8c.6-.2,1.4-2.7.4-3S245,78.1,245.8,78.5Z"/><path class="cls-5" d="M242.5,128.5c1.9,17.3-1.2,42.8-29.4,44-8.9.4-37-1.5-63.6-13-11-4.7-15-3-19.3-3.6-24.2-3.2-33.5-11.4-33.5-23.7s9-23.1,23-25.2,31.4,2.8,40,3.4c24.4,1.9,31.3.8,36.2-10s10.8-33,20.3-42.7c7.1-7.3,18.9-9.6,26.8-7.6,11.8,3.1,13.8,12.3,13.5,17.4-.4,6.7-3.4,11.5-14.7,11.4,10.1,23.8,11.5,35-.2,37.3Q241.8,121,242.5,128.5Z"/><g class="cls-7"><polygon class="cls-8" points="155.4 154.5 169.1 168.3 139.8 166.5 143.9 154.3 155.4 154.5"/><polygon class="cls-8" points="224.4 175.2 226.7 159 236.6 168.8 224.4 175.2"/></g><path class="cls-5" d="M230.7,161.6c-6.3,7.8-9.4,25.5-11.2,39.4s-1.9,19.5-4.9,21.7-19.4,3-21.4-2.1c-1.4-3.5-1.9-26.7-1.5-36.8.8-17.8,2.4-28.2,4.4-32.1s14-18.5,20.1-13.2,13.2,7.9,13.7,12.1S233.1,158.5,230.7,161.6Z"/><path class="cls-5" d="M97.9,127.1c-2.7,4-.9,12.9-3,29.1-1.8,13.9-11.8,24.7-15.8,35.2-6,15.7-3.5,27.5,1.1,30.4s14.3,3.3,17.1-2.2c5.8-11.2,17.1-20.9,26.9-34.8,8.6-12.2,17.9-26.7,34.8-25.6a131.6,131.6,0,0,1,13.2.7c5.6.8-23.7-33.3-30.2-37.1S106.1,115,97.9,127.1Z"/></g></svg>