<svg xmlns="http://www.w3.org/2000/svg" xmlns:xlink="http://www.w3.org/1999/xlink" viewBox="0 0 150 150"><defs><style>.cls-1{fill:none;}.cls-2,.cls-8{fill:#f8f4f4;}.cls-3{isolation:isolate;}.cls-4{fill:#eb5a4d;}.cls-5{clip-path:url(#clip-path);}.cls-13,.cls-6{fill:#241916;}.cls-6{opacity:0.3;}.cls-13,.cls-6,.cls-8{mix-blend-mode:multiply;}.cls-7{clip-path:url(#clip-path-2);}.cls-8{opacity:0.2;}.cls-9{fill:#f29bad;}.cls-10{fill:#372f2c;}.cls-11{fill:#010101;}.cls-12{clip-path:url(#clip-path-3);}.cls-13{opacity:0.4;}</style><clipPath id="clip-path"><rect class="cls-1" width="150" height="150"/></clipPath><clipPath id="clip-path-2"><path class="cls-2" d="M105.26,44.66c9.21,15.44,18.68,37,21.31,56,2.23,16.11-3.68,24.56-23.94,24.56-15.78,0-25.25-18-29.19-25.83C70.39,93.28,79,55,79,55Z"/></clipPath><clipPath id="clip-path-3"><path class="cls-1" d="M99.26,33.93C98.46,30.19,77.34,44.75,75,44.75S51.54,30.19,50.74,33.93c-1.87,8.71-4.49,9.27-.66,25.5C61.86,109.32,66.5,114.14,75,114.14s13.14-4.82,24.92-54.71C103.75,43.2,101.13,42.64,99.26,33.93Z"/></clipPath></defs><title>dog-cards</title><g class="cls-3"><g id="BG"><rect class="cls-4" width="150" height="150"/></g><g id="shadow"><g class="cls-5"><polygon class="cls-6" points="102.68 31.4 189 122.33 102.08 194.05 27.08 119.05 102.68 31.4"/></g></g><g id="dog"><path class="cls-2" d="M105.26,44.66c9.21,15.44,18.68,37,21.31,56,2.23,16.11-3.68,24.56-23.94,24.56-15.78,0-25.25-18-29.19-25.83C70.39,93.28,79,55,79,55Z"/><g class="cls-7"><polygon class="cls-8" points="102.68 31.4 147.06 109.52 100.45 138.24 54.17 91.96 102.68 31.4"/></g><path class="cls-2" d="M44.74,44.66c-9.21,15.44-18.68,37-21.31,56-2.23,16.11,3.68,24.56,23.94,24.56,15.78,0,25.25-18,29.19-25.83C79.61,93.28,71,55,71,55Z"/><path class="cls-9" d="M99.26,33.93C98.46,30.19,77.34,44.75,75,44.75S51.54,30.19,50.74,33.93c-1.87,8.71-4.49,9.27-.66,25.5C61.86,109.32,66.5,114.14,75,114.14s13.14-4.82,24.92-54.71C103.75,43.2,101.13,42.64,99.26,33.93Z"/><path class="cls-10" d="M64.88,71.51a4.1,4.1,0,1,1-4.1-4.1A4.1,4.1,0,0,1,64.88,71.51Z"/><path class="cls-10" d="M93.32,71.51a4.1,4.1,0,1,1-4.1-4.1A4.09,4.09,0,0,1,93.32,71.51Z"/><path class="cls-11" d="M80.86,108.05a.83.83,0,0,0-1-.53,14.93,14.93,0,0,1-2.77.59c-1.13.12-1.2-.27-1.2-1s.28-.89.9-1.13c1.61-.61,3.34-2,3.34-3.87,0-2.21-1.94-3.2-5.08-3.2s-5.08,1-5.08,3.2c0,1.9,1.73,3.26,3.34,3.87.62.24.91.42.91,1.13s-.08,1.1-1.2,1a14.87,14.87,0,0,1-2.78-.59.84.84,0,0,0-.52,1.59,17.94,17.94,0,0,0,10.66,0A.84.84,0,0,0,80.86,108.05Z"/><g class="cls-12"><path class="cls-13" d="M85.08,48.28l45.34,14.58L95.65,105.94,47.24,57.53ZM69.36,108.92,87.5,127.06l12.21-6.51L79.33,100.18,75.06,105l-.61,4.07Z"/></g><path class="cls-2" d="M108,44.51c0,12.11-10.67,21.92-33,21.92S42,56.62,42,44.51,52.65,22.59,75,22.59,108,32.41,108,44.51Z"/></g></g></svg>