<svg xmlns="http://www.w3.org/2000/svg" xmlns:xlink="http://www.w3.org/1999/xlink" viewBox="0 0 150 150"><defs><style>.cls-1{fill:none;}.cls-2{fill:#fff;}.cls-3{fill:#df097f;}.cls-4{isolation:isolate;}.cls-5{fill:#43abe0;}.cls-6{clip-path:url(#clip-path);}.cls-7{fill:#241916;opacity:0.3;mix-blend-mode:multiply;}.cls-8{fill:#f49807;}.cls-9{clip-path:url(#clip-path-2);}.cls-10{fill:#231815;}.cls-11{fill:#fee2bf;}.cls-12{clip-path:url(#clip-path-3);}</style><clipPath id="clip-path"><rect class="cls-1" width="150" height="150"/></clipPath><clipPath id="clip-path-2"><path class="cls-2" d="M106.28,85.92c-1-4.44-4.87-8.88-11.15-5-3.7,2.3-7.5,2.74-9.61-2.06-3.25-7.37-8.62-10.57-8.62-18.36,0-5.65,5.33-11.09,1.58-11.72a20.33,20.33,0,0,0-7,0c-3.75.63,1.58,6.07,1.58,11.72,0,7.79-5.37,11-8.62,18.36-2.11,4.8-5.91,4.36-9.61,2.06-6.28-3.9-10.18.54-11.15,5-1.52,6.93,1.67,19.81,9,27.82,5.21,5.71,14.07,11.45,22.3,11.45s17.09-5.74,22.3-11.45C104.61,105.73,107.8,92.85,106.28,85.92Z"/></clipPath><clipPath id="clip-path-3"><path class="cls-3" d="M74.92,98.55c-2.71,0-5.64,2.49-8.65,2.65,1.16,8.61,4,11.64,8.73,11.64h0c4.74,0,7.57-3,8.73-11.64C80.67,101.13,77.68,98.55,74.92,98.55Z"/></clipPath></defs><title>dog-cards</title><g class="cls-4"><g id="BG"><rect class="cls-5" width="150" height="150"/></g><g id="dog"><g class="cls-6"><polygon class="cls-7" points="128.41 197.09 44.16 112.84 126.82 29.52 179.14 81.84 175.5 156.5 128.41 197.09"/></g><path class="cls-8" d="M117.64,28.78c-7.76,2.9-27.79,17.72-32,18.89-3.33.93-5.55,1.19-10.63,1.19s-7.3-.26-10.63-1.19c-4.22-1.17-24.25-16-32-18.89s-13,1.42-12,10.95a81.16,81.16,0,0,0,6.36,24.89C29.78,71.8,36.4,74.56,39,82.86c1.92,6.16-4.37,18.3,3,27.62C48.45,118.62,61.21,123,75,123s26.55-4.39,33-12.53c7.39-9.32,1.1-21.46,3-27.62,2.58-8.3,9.2-11.06,12.26-18.24a81.16,81.16,0,0,0,6.36-24.89C130.6,30.2,125.41,25.89,117.64,28.78Z"/><path class="cls-2" d="M106.28,85.92c-1-4.44-4.87-8.88-11.15-5-3.7,2.3-7.5,2.74-9.61-2.06-3.25-7.37-8.62-10.57-8.62-18.36,0-5.65,5.33-11.09,1.58-11.72a20.33,20.33,0,0,0-7,0c-3.75.63,1.58,6.07,1.58,11.72,0,7.79-5.37,11-8.62,18.36-2.11,4.8-5.91,4.36-9.61,2.06-6.28-3.9-10.18.54-11.15,5-1.52,6.93,1.67,19.81,9,27.82,5.21,5.71,14.07,11.45,22.3,11.45s17.09-5.74,22.3-11.45C104.61,105.73,107.8,92.85,106.28,85.92Z"/><g class="cls-9"><polygon class="cls-7" points="81.96 83.92 68.91 92.98 83.73 107.8 93.51 95.46 81.96 83.92"/></g><path class="cls-10" d="M83,85.64c-1.44-3.76-5.53-3.76-8-3.76s-6.56,0-8,3.76,1.27,7.25,3.45,8.57A9.17,9.17,0,0,0,75,95.72a9.14,9.14,0,0,0,4.56-1.51C81.74,92.89,84.45,89.41,83,85.64Z"/><path class="cls-2" d="M62.65,69.42A6.63,6.63,0,1,1,56,62.79,6.62,6.62,0,0,1,62.65,69.42Z"/><path class="cls-10" d="M60.63,69.42a4.61,4.61,0,1,1-4.6-4.6A4.6,4.6,0,0,1,60.63,69.42Z"/><path class="cls-2" d="M87.35,69.42A6.63,6.63,0,1,0,94,62.79,6.62,6.62,0,0,0,87.35,69.42Z"/><path class="cls-10" d="M89.38,69.42a4.6,4.6,0,1,0,4.6-4.6A4.6,4.6,0,0,0,89.38,69.42Z"/><path class="cls-10" d="M93.28,93.32c-.76.78-1.6,1.86-2.35,2.79a15.65,15.65,0,0,1-4.5,4.45c-4,2.25-7.89-2-11.43-2s-7.46,4.26-11.43,2a15.65,15.65,0,0,1-4.5-4.45c-.75-.93-1.59-2-2.35-2.79s-1.53-.15-1,.84c1,2,1.78,4.15,2.74,6,2.19,4.34,5.44,6.51,6,7.48,2.74,5,5.11,7.06,10.61,7.06s7.87-2.09,10.61-7.06c.54-1,3.78-3.14,6-7.48,1-1.89,1.78-4.08,2.74-6C94.81,93.17,94,92.56,93.28,93.32Z"/><path class="cls-11" d="M48,53c1.39-3.79-2.84-10.37-8-14.38C34.08,34.15,28.8,31,26.4,32.55c-1.84,1.19-2.29,10,1.47,20.34s6.83,14,11.05,11.16C42.56,61.62,46.49,57.08,48,53Z"/><path class="cls-11" d="M102,53c-1.39-3.79,2.84-10.37,8-14.38,5.86-4.51,11.14-7.66,13.54-6.11,1.84,1.19,2.29,10-1.47,20.34s-6.83,14-11,11.16C107.44,61.62,103.51,57.08,102,53Z"/><path class="cls-3" d="M74.92,98.55c-2.71,0-5.64,2.49-8.65,2.65,1.16,8.61,4,11.64,8.73,11.64h0c4.74,0,7.57-3,8.73-11.64C80.67,101.13,77.68,98.55,74.92,98.55Z"/><g class="cls-12"><polygon class="cls-7" points="66.27 101.2 79.83 114.75 87.35 96.75 74.16 92.98 66.27 101.2"/></g></g></g></svg>