<svg xmlns="http://www.w3.org/2000/svg" xmlns:xlink="http://www.w3.org/1999/xlink" viewBox="0 0 150 150"><defs><style>.cls-1{fill:none;}.cls-2{fill:#fff;}.cls-3{isolation:isolate;}.cls-4{fill:#eb5a4d;}.cls-5{clip-path:url(#clip-path);}.cls-10,.cls-13,.cls-6{fill:#241916;}.cls-6{opacity:0.3;}.cls-10,.cls-6{mix-blend-mode:multiply;}.cls-7{clip-path:url(#clip-path-2);}.cls-8{fill:#302826;}.cls-9{clip-path:url(#clip-path-3);}.cls-10{opacity:0.4;}.cls-11{fill:#372f2c;}.cls-12{fill:#bfbfc0;}.cls-14{fill:#fbdbda;}</style><clipPath id="clip-path"><rect class="cls-1" x="-210" width="150" height="150"/></clipPath><clipPath id="clip-path-2"><rect class="cls-1" width="150" height="150"/></clipPath><clipPath id="clip-path-3"><path class="cls-2" d="M79.85,53.32c.23-3.79,2.65-6.28,8.36-4a2.56,2.56,0,0,0,2.71-.17c7.12-5,18-22.08,22.91-26.41,8.54-7.53,17.43-9.31,17.66,4.54S122.6,59.4,122,61.92c-.79,3.17-.83,6.75-2.57,9.31-1.62,2.37-5.1,3.36-7.51,5.26-1,.78-.94,1.63-.66,2.87,3.23,14.26.58,26.64-1.24,30.73-3.16,7.15-7.37,10-10.8,11.8-1,.51-2.57-2.09-6.35-2.36l-11.4-9.76L83,95.67C77.8,90.1,85.1,81.21,84.55,72.83,84.19,67.45,79.37,61.05,79.85,53.32Z"/></clipPath></defs><title>dog-cards</title><g class="cls-3"><g id="BG"><rect class="cls-4" width="150" height="150"/></g><g id="shadow"><g class="cls-5"><polygon class="cls-6" points="-83.78 46.83 24.98 155.6 -64.22 222.88 -167.94 119.17 -163.7 86.64 -175.49 74.85 -172.83 62.88 -83.78 46.83"/></g><g class="cls-7"><polygon class="cls-6" points="129.12 18.68 83.33 69.84 37.17 23.68 31.41 72.16 53.4 94.16 45.12 117.8 51.17 123.85 50.33 124.69 121.05 195.41 203.56 93.12 129.12 18.68"/></g></g><g id="dog"><path class="cls-2" d="M109,74.48c-4.33-16.13-16.51-27.24-34-27.24S45.31,58.35,41,74.48c-3.56,13.22-2.52,23.68-.76,27.44,3,6.33,6.28,7.49,8.83,9.42s26-1.92,26-1.92,23.4,3.85,26,1.92,5.87-3.09,8.83-9.42C111.54,98.16,112.58,87.7,109,74.48Z"/><path class="cls-8" d="M68.76,56.75c-1.28-4.74-3-9-7-7.45a2.58,2.58,0,0,1-2.71-.17c-7.12-5-18-22.08-22.91-26.41-8.53-7.53-17.43-9.31-17.66,4.54S27.4,59.4,28,61.92c.79,3.17.83,6.75,2.58,9.31,1.61,2.37,5.09,3.36,7.5,5.26,1,.78.94,1.63.66,2.87C35.54,93.62,38.19,106,40,110.09c3.16,7.15,7.37,10,10.8,11.8,1,.51,2.57-2.09,6.35-2.36l11.4-9.76L66.78,91.33c5.19-2.69,5.14-4.48,4.9-12.88A98.6,98.6,0,0,0,68.76,56.75Z"/><path class="cls-2" d="M79.85,53.32c.23-3.79,2.65-6.28,8.36-4a2.56,2.56,0,0,0,2.71-.17c7.12-5,18-22.08,22.91-26.41,8.54-7.53,17.43-9.31,17.66,4.54S122.6,59.4,122,61.92c-.79,3.17-.83,6.75-2.57,9.31-1.62,2.37-5.1,3.36-7.51,5.26-1,.78-.94,1.63-.66,2.87,3.23,14.26.58,26.64-1.24,30.73-3.16,7.15-7.37,10-10.8,11.8-1,.51-2.57-2.09-6.35-2.36l-11.4-9.76L83,95.67C77.8,90.1,85.1,81.21,84.55,72.83,84.19,67.45,79.37,61.05,79.85,53.32Z"/><g class="cls-9"><polygon class="cls-10" points="94.56 96.89 112.09 114.41 94.2 125.96 92.03 99.92 94.56 96.89"/></g><path class="cls-11" d="M75,98.07c-4.31,0-7,1.35-7,4.38,0,3.63,4.59,5.82,7,5.82s7-2.19,7-5.82C82,99.42,79.31,98.07,75,98.07Z"/><path class="cls-12" d="M51.05,117.75c1,3.24,4.2,6.71,10.59,9.86,3.5,1.72,7.09,2.57,13.36,2.57s9.85-.85,13.35-2.57c6.4-3.15,9.58-6.62,10.6-9.86,2.1-6.62-2.83-9.39-8.55-9.59-5.21-.19-11.89,4.2-15.4,4.2s-10.2-4.39-15.4-4.2C53.88,108.36,49,111.13,51.05,117.75Z"/><path class="cls-2" d="M102.14,110.6c-1.16-5.81-4.76-12-12-17.7-4-3.09-8-4.61-15.13-4.61S63.83,89.81,59.87,92.9c-7.25,5.66-10.85,11.89-12,17.7-2.38,11.88,3.21,16.85,9.69,17.22,5.9.34,13.47-7.55,17.45-7.55s11.55,7.89,17.45,7.55C98.93,127.45,104.52,122.48,102.14,110.6Z"/><path class="cls-2" d="M59.14,86a7.79,7.79,0,1,1-7.79-7.79A7.79,7.79,0,0,1,59.14,86Z"/><path class="cls-13" d="M56.24,86a4.9,4.9,0,1,1-4.89-4.9A4.89,4.89,0,0,1,56.24,86Z"/><path class="cls-13" d="M90.58,86a7.11,7.11,0,1,0,7.11-7.11A7.11,7.11,0,0,0,90.58,86Z"/><path class="cls-13" d="M79.83,114a10.48,10.48,0,0,1,2.36-8.23c.75-.94,2.29-2.38,2.29-3.84,0-3.08-3.61-6.24-9.48-6.24s-9.48,3.16-9.48,6.24c0,1.46,1.54,2.9,2.29,3.84A10.48,10.48,0,0,1,70.17,114c-.32,4.13-3.18,8.51-4.23,10-.47.66,0,1,.71.75,1.12-.37,2.4-.88,3.64-1.36A17.52,17.52,0,0,1,75,122c1.64,0,5.53,1.88,8.35,2.8.76.25,1.18-.09.71-.75C83,122.52,80.15,118.14,79.83,114Z"/><path class="cls-13" d="M66,118.82a1.28,1.28,0,1,1-1.27-1.28A1.28,1.28,0,0,1,66,118.82Z"/><path class="cls-13" d="M61.27,120.44a1.07,1.07,0,1,1-1.07-1.08A1.06,1.06,0,0,1,61.27,120.44Z"/><path class="cls-13" d="M56.13,120.13a.88.88,0,1,1-.88-.88A.88.88,0,0,1,56.13,120.13Z"/><path class="cls-13" d="M65.31,111.84A1.28,1.28,0,1,1,64,110.56,1.28,1.28,0,0,1,65.31,111.84Z"/><path class="cls-13" d="M60.1,113.55A1.07,1.07,0,1,1,59,112.48,1.07,1.07,0,0,1,60.1,113.55Z"/><path class="cls-13" d="M55.15,113.68a.88.88,0,0,1-1.75,0,.88.88,0,1,1,1.75,0Z"/><path class="cls-13" d="M84,118.82a1.28,1.28,0,1,0,1.27-1.28A1.28,1.28,0,0,0,84,118.82Z"/><path class="cls-13" d="M88.73,120.44a1.07,1.07,0,1,0,1.07-1.08A1.06,1.06,0,0,0,88.73,120.44Z"/><path class="cls-13" d="M93.87,120.13a.88.88,0,1,0,.88-.88A.89.89,0,0,0,93.87,120.13Z"/><path class="cls-13" d="M84.69,111.84A1.28,1.28,0,1,0,86,110.56,1.28,1.28,0,0,0,84.69,111.84Z"/><path class="cls-13" d="M89.9,113.55A1.07,1.07,0,1,0,91,112.48,1.07,1.07,0,0,0,89.9,113.55Z"/><path class="cls-13" d="M94.85,113.68a.88.88,0,0,0,1.75,0,.88.88,0,1,0-1.75,0Z"/><path class="cls-14" d="M46.06,54.44c-.68-9.9-12.46-25.51-17.39-29.36-7.22-5.63-6.34,9.57-2.1,17.21,4,7.22,7.11,24.15,10.5,25.14S46.44,59.85,46.06,54.44Z"/><path class="cls-14" d="M103.94,54.44c.68-9.9,12.46-25.51,17.39-29.36,7.22-5.63,6.34,9.57,2.1,17.21-4,7.22-7.11,24.15-10.5,25.14S103.56,59.85,103.94,54.44Z"/></g></g></svg>