<svg xmlns="http://www.w3.org/2000/svg" xmlns:xlink="http://www.w3.org/1999/xlink" viewBox="0 0 150 150"><defs><style>.cls-1{fill:none;}.cls-12,.cls-2,.cls-8{fill:#241916;}.cls-2{opacity:0.4;}.cls-10,.cls-12,.cls-2,.cls-8{mix-blend-mode:multiply;}.cls-3{fill:#e4097f;}.cls-4{fill:#e9a235;}.cls-5{isolation:isolate;}.cls-6{fill:#55235f;}.cls-7{clip-path:url(#clip-path);}.cls-8{opacity:0.3;}.cls-9{clip-path:url(#clip-path-2);}.cls-10,.cls-14{fill:#372f2c;}.cls-10,.cls-12{opacity:0.5;}.cls-11{clip-path:url(#clip-path-3);}.cls-13{clip-path:url(#clip-path-4);}.cls-15{fill:#dc5712;}</style><clipPath id="clip-path"><rect class="cls-1" width="150" height="150"/></clipPath><clipPath id="clip-path-2"><path class="cls-2" d="M89.84,115.83c0,7-6.65,9.36-14.84,9.36s-14.84-2.35-14.84-9.36c0-4.78,6.65-3.71,14.84-3.71S89.84,111.05,89.84,115.83Z"/></clipPath><clipPath id="clip-path-3"><path class="cls-3" d="M86.58,113.8c0,6.46-5.18,8.62-11.58,8.62s-11.58-2.16-11.58-8.62c0-4.41,5.18-3.43,11.58-3.43S86.58,109.39,86.58,113.8Z"/></clipPath><clipPath id="clip-path-4"><path class="cls-4" d="M75,31C49.36,31,36.59,44.46,40.17,75.13,41.89,89.89,49.43,101.39,51.1,112c1.55,9.8,4.82,11.86,11.77,9.42,4.47-1.56,10.32-6.35,12.13-6.35s7.66,4.79,12.13,6.35c7,2.44,10.22.38,11.77-9.42,1.67-10.6,9.21-22.1,10.93-36.86C113.41,44.46,100.64,31,75,31Z"/></clipPath></defs><title>dog-cards</title><g class="cls-5"><g id="BG"><rect class="cls-6" width="150" height="150"/></g><g id="shadow"><g class="cls-7"><polygon class="cls-8" points="117.75 48.92 187.44 118.6 117.24 186.76 28.09 97.61 39.44 78.57 117.75 48.92"/></g></g><g id="dog"><path class="cls-2" d="M89.84,115.83c0,7-6.65,9.36-14.84,9.36s-14.84-2.35-14.84-9.36c0-4.78,6.65-3.71,14.84-3.71S89.84,111.05,89.84,115.83Z"/><g class="cls-9"><polygon class="cls-10" points="54.02 119.51 73.69 137.66 101.44 112.05 80.92 93.11 54.02 119.51"/></g><path class="cls-3" d="M86.58,113.8c0,6.46-5.18,8.62-11.58,8.62s-11.58-2.16-11.58-8.62c0-4.41,5.18-3.43,11.58-3.43S86.58,109.39,86.58,113.8Z"/><g class="cls-11"><polygon class="cls-12" points="56.54 117.42 73.85 134.73 98.27 110.31 80.21 92.25 56.54 117.42"/></g><path class="cls-4" d="M75,31C49.36,31,36.59,44.46,40.17,75.13,41.89,89.89,49.43,101.39,51.1,112c1.55,9.8,4.82,11.86,11.77,9.42,4.47-1.56,10.32-6.35,12.13-6.35s7.66,4.79,12.13,6.35c7,2.44,10.22.38,11.77-9.42,1.67-10.6,9.21-22.1,10.93-36.86C113.41,44.46,100.64,31,75,31Z"/><g class="cls-13"><polygon class="cls-2" points="66.93 109.05 86.51 128.63 102.95 119.11 83.84 100 66.93 109.05"/></g><circle class="cls-14" cx="60.15" cy="63.99" r="4.77"/><path class="cls-14" d="M94.62,64a4.77,4.77,0,1,1-4.77-4.77A4.76,4.76,0,0,1,94.62,64Z"/><path class="cls-14" d="M75,97.45c-6.42,0-10.37,2-10.37,6.53,0,5.4,6.84,8.67,10.37,8.67s10.37-3.27,10.37-8.67C85.37,99.47,81.42,97.45,75,97.45Z"/><path class="cls-15" d="M38.81,87.22c-1.3,2.75-5.14,8.41-7.67,10.2-2,1.41-4.23.08-3.64-1.69.37-1.13,1.61-2.76,1.7-4.07.28-4.44-1.69-8.34-6.81-17.19-3.64-6.27-4.07-8.72-1.95-11.75C23.71,58.05,40.52,37,51.66,36.6c.53,0,.71.25-.31,1a18.65,18.65,0,0,0-6.09,8.14C40.6,58,44.69,74.79,38.81,87.22Z"/><path class="cls-15" d="M111.19,87.22c1.3,2.75,5.14,8.41,7.68,10.2,2,1.41,4.22.08,3.63-1.69-.37-1.13-1.61-2.76-1.7-4.07-.28-4.44,1.69-8.34,6.82-17.19,3.63-6.27,4.06-8.72,1.94-11.75C126.29,58.05,109.48,37,98.34,36.6c-.53,0-.71.25.31,1a18.65,18.65,0,0,1,6.09,8.14C109.41,58,105.32,74.79,111.19,87.22Z"/></g></g></svg>