<svg xmlns="http://www.w3.org/2000/svg" xmlns:xlink="http://www.w3.org/1999/xlink" viewBox="0 0 150 150"><defs><style>.cls-1{fill:none;}.cls-2{fill:#eb6877;}.cls-3{isolation:isolate;}.cls-4{fill:#96bf3e;}.cls-5{clip-path:url(#clip-path);}.cls-10,.cls-6{fill:#241916;mix-blend-mode:multiply;}.cls-6{opacity:0.3;}.cls-7{fill:#372f2c;}.cls-8{fill:#ea620a;}.cls-9{clip-path:url(#clip-path-2);}.cls-10{opacity:0.4;}</style><clipPath id="clip-path"><rect class="cls-1" width="150" height="150"/></clipPath><clipPath id="clip-path-2"><path class="cls-2" d="M88.41,103.34c-4.77-.17-7.25-3.88-9.84-7.81a4,4,0,0,0-7.2,0c-2.59,3.93-5.07,7.64-9.84,7.81-.56,0-.73.38-.45,1.24,3.25,10.28,4,16.29,13.89,16.29s10.64-6,13.9-16.29C89.14,103.72,89,103.36,88.41,103.34Z"/></clipPath></defs><title>dog-cards</title><g class="cls-3"><g id="BG"><rect class="cls-4" width="150" height="150"/></g><g id="shadow"><g class="cls-5"><polygon class="cls-6" points="111.11 183.05 39.17 111.12 34.39 95.96 25.16 86.73 36.35 75.51 128.7 47.64 187.97 106.9 181.67 153.67 111.11 183.05"/></g></g><g id="dog"><path class="cls-7" d="M118.64,75.1c-.48-4.69,0-10.41-.57-15.85-1.44-13.46-15.67-25.87-25.32-28.18-10.1-2.42-15.58-.41-17.78-.41s-7.68-2-17.78.41c-9.65,2.31-23.88,14.72-25.32,28.18-.58,5.44-.08,11.16-.57,15.85-1.11,10.59-2.58,26.84,8.9,37,9.79,8.65,20,12.49,34.77,12.49s25-3.84,34.77-12.49C121.22,101.94,119.75,85.69,118.64,75.1Z"/><path class="cls-8" d="M112.12,81.51c-1.91-.1-3.39,9.58-6.38,7.36-4.39-3.27-10.21-2.11-13.2-7.52-2.1-3.78-4.05-7.8-7.21-10.93a14.26,14.26,0,0,0-20.72,0c-3.16,3.13-5.11,7.15-7.21,10.93-3,5.41-8.81,4.25-13.2,7.52-3,2.22-4.47-7.46-6.38-7.36-2.42.14-3,5.06-2.56,10,.65,6.87,2.89,14.93,6.14,20.37C48,122.9,61.73,130.27,75,130.27s27-7.37,33.58-18.42c3.24-5.44,5.48-13.5,6.13-20.37C115.14,86.57,114.55,81.65,112.12,81.51Z"/><path class="cls-7" d="M75,67.48c-5.14,0-8.55,3.3-8.55,7,0,4.57,2.28,8.06,8.55,8.06s8.55-3.49,8.55-8.06C83.52,70.78,80.11,67.48,75,67.48Z"/><path class="cls-7" d="M102.13,95.71c-2.69,2.42-7.75,7-13.52,6.77-6.58-.25-9.31-14-13.64-14s-7.07,13.77-13.64,14c-5.78.21-10.83-4.35-13.52-6.77-1.65-1.48-2.88-.47-2.48,1.32,1.62,7.11,3.74,11.79,5.63,14.74s5,6.74,9.36,6.79c2,0,3.43,7.51,14.65,7.51s12.63-7.49,14.65-7.51c4.41,0,7.48-3.86,9.36-6.79s4-7.63,5.63-14.74C105,95.24,103.78,94.23,102.13,95.71Z"/><path class="cls-7" d="M102.13,95.71c-2.69,2.42-7.75,7-13.52,6.77-6.58-.25-9.31-14-13.64-14s-7.07,13.77-13.64,14c-5.78.21-10.83-4.35-13.52-6.77-1.65-1.48-2.88-.47-2.48,1.32,1.62,7.11,3.74,11.79,5.63,14.74s5,6.74,9.36,6.79c2,0,3.43,7.51,14.65,7.51s12.63-7.49,14.65-7.51c4.41,0,7.48-3.86,9.36-6.79s4-7.63,5.63-14.74C105,95.24,103.78,94.23,102.13,95.71Z"/><path class="cls-7" d="M35,72.53c-1.4,5.64-4.16,10.89-6.22,13.17s-4.12,1.62-4-.07c.73-8.75-.89-14.72-3.46-23.23-2-6.67-2.66-12.29-.08-14.76,8.16-7.84,19.56-7.81,30.6-15.37,2.08-1.43,4.15-.18,1.84,2.36-1.91,2.1-5.9,4.87-8.25,7.94C36.85,53.75,37.62,61.91,35,72.53Z"/><path class="cls-7" d="M115,72.53c1.4,5.64,4.16,10.89,6.22,13.17s4.13,1.62,4-.07c-.73-8.75.89-14.72,3.46-23.23,2-6.67,2.66-12.29.08-14.76-8.16-7.84-19.56-7.81-30.6-15.37C96,30.84,94,32.09,96.26,34.63c1.91,2.1,5.91,4.87,8.25,7.94C113.09,53.75,112.32,61.91,115,72.53Z"/><path class="cls-8" d="M60.56,66.88a7.47,7.47,0,1,1-7.47-7.47A7.47,7.47,0,0,1,60.56,66.88Z"/><path class="cls-7" d="M58.35,66.88a5.26,5.26,0,1,1-5.26-5.25A5.26,5.26,0,0,1,58.35,66.88Z"/><path class="cls-8" d="M58.6,59.5c2.25.14,4.28-1.38,3.83-3.36a3.13,3.13,0,0,0-5-1.58C55.44,55.94,55.44,59.31,58.6,59.5Z"/><path class="cls-8" d="M89.38,66.88a7.47,7.47,0,1,0,7.47-7.47A7.47,7.47,0,0,0,89.38,66.88Z"/><path class="cls-7" d="M91.59,66.88a5.26,5.26,0,1,0,5.26-5.25A5.25,5.25,0,0,0,91.59,66.88Z"/><path class="cls-8" d="M91.34,59.5c-2.24.14-4.28-1.38-3.83-3.36a3.13,3.13,0,0,1,5-1.58C94.5,55.94,94.5,59.31,91.34,59.5Z"/><path class="cls-2" d="M88.41,103.34c-4.77-.17-7.25-3.88-9.84-7.81a4,4,0,0,0-7.2,0c-2.59,3.93-5.07,7.64-9.84,7.81-.56,0-.73.38-.45,1.24,3.25,10.28,4,16.29,13.89,16.29s10.64-6,13.9-16.29C89.14,103.72,89,103.36,88.41,103.34Z"/><g class="cls-9"><polygon class="cls-10" points="62.15 102.88 84.71 125.44 93.29 93.08 69.02 81.06 62.15 102.88"/></g></g></g></svg>