<svg xmlns="http://www.w3.org/2000/svg" xmlns:xlink="http://www.w3.org/1999/xlink" viewBox="0 0 150 150"><defs><style>.cls-1{fill:none;}.cls-2{isolation:isolate;}.cls-3{fill:#43abe0;}.cls-4{clip-path:url(#clip-path);}.cls-5,.cls-9{fill:#241916;mix-blend-mode:multiply;}.cls-5{opacity:0.3;}.cls-6{fill:#727479;}.cls-7{fill:#372f2c;}.cls-8{clip-path:url(#clip-path-2);}.cls-9{opacity:0.25;}.cls-10{fill:#f8f4f4;}.cls-11{fill:#fff;}.cls-12{clip-path:url(#clip-path-3);}</style><clipPath id="clip-path"><rect class="cls-1" width="150" height="150"/></clipPath><clipPath id="clip-path-2"><path class="cls-1" d="M126.22,46.83c-5.13-5.13-17.42-12.33-29-14.45-1.09-.2-2.47.94-3.73,2.42a1.6,1.6,0,0,1-2,.62,73.94,73.94,0,0,0-33,0,1.6,1.6,0,0,1-2-.62c-1.26-1.48-2.64-2.62-3.73-2.42-11.63,2.12-23.92,9.32-29,14.45s6.41,20.51,9,25.64c2.31,4.62,4.62,3,6-1.12.15-.45.59-.59.63.1.07,1.39.17,2.83.3,4.33,2.73,31.6,7.5,39.1,35.32,39.18,27.82-.08,32.59-7.58,35.32-39.18.13-1.5.23-2.94.3-4.33,0-.69.48-.55.63-.1,1.37,4.12,3.68,5.74,6,1.12C119.81,67.34,131.34,52,126.22,46.83Z"/></clipPath><clipPath id="clip-path-3"><path class="cls-1" d="M75,80.37c-25.73,0-38.47,11.09-38.47,24.78S49.27,129.94,75,129.94s38.47-11.1,38.47-24.79S100.73,80.37,75,80.37Z"/></clipPath></defs><title>dog-cards</title><g class="cls-2"><g id="BG"><rect class="cls-3" width="150" height="150"/></g><g id="shadow"><g class="cls-4"><polygon class="cls-5" points="126.22 46.83 234.98 155.6 145.78 222.88 42.06 119.17 46.3 86.64 34.51 74.85 37.17 62.88 126.22 46.83"/></g></g><g id="dog"><path class="cls-6" d="M126.22,46.83c-5.13-5.13-17.42-12.33-29-14.45-1.09-.2-2.47.94-3.73,2.42a1.6,1.6,0,0,1-2,.62,73.94,73.94,0,0,0-33,0,1.6,1.6,0,0,1-2-.62c-1.26-1.48-2.64-2.62-3.73-2.42-11.63,2.12-23.92,9.32-29,14.45s6.41,20.51,9,25.64c2.31,4.62,4.62,3,6-1.12.15-.45.59-.59.63.1.07,1.39.17,2.83.3,4.33,2.73,31.6,7.5,39.1,35.32,39.18,27.82-.08,32.59-7.58,35.32-39.18.13-1.5.23-2.94.3-4.33,0-.69.48-.55.63-.1,1.37,4.12,3.68,5.74,6,1.12C119.81,67.34,131.34,52,126.22,46.83Z"/><path class="cls-7" d="M56.1,69.81A4.94,4.94,0,1,1,61,64.88,4.93,4.93,0,0,1,56.1,69.81Z"/><path class="cls-7" d="M89,64.88a4.94,4.94,0,1,1,4.94,4.93A4.94,4.94,0,0,1,89,64.88Z"/><g class="cls-8"><path class="cls-9" d="M108.92,61.14l33.2,33.2L113.45,96.4,81.79,64.74ZM40.73,63.68,72.4,95.35l27.9-5.42L67.09,56.72Z"/></g><path class="cls-10" d="M75,80.37c-25.73,0-38.47,11.09-38.47,24.78S49.27,129.94,75,129.94s38.47-11.1,38.47-24.79S100.73,80.37,75,80.37Z"/><path class="cls-7" d="M75,106.51a62,62,0,0,1-14.24-1.64,1.74,1.74,0,0,1-1.28-2.09,1.72,1.72,0,0,1,2.08-1.28,59.51,59.51,0,0,0,26.88,0,1.73,1.73,0,0,1,.8,3.37A62,62,0,0,1,75,106.51Z"/><path class="cls-11" d="M62.54,64.71c2.35.64,6.19,1.92,6.22-1.78s-.51-7.41-5.63-7.68a45.24,45.24,0,0,0-20.07,4.52c-4.53,2.29-3.06,5.15,1,4.4A46,46,0,0,1,62.54,64.71Z"/><path class="cls-11" d="M87.46,64.71c-2.35.64-6.19,1.92-6.22-1.78s.5-7.41,5.63-7.68a45.27,45.27,0,0,1,20.07,4.52c4.52,2.29,3.06,5.15-1,4.4A46,46,0,0,0,87.46,64.71Z"/><g class="cls-12"><polygon class="cls-9" points="68.22 94.24 99.88 125.91 115.53 119.71 82.32 86.5 68.22 94.24"/></g><path class="cls-7" d="M75,84.47c-5.41,0-8.73,1.7-8.73,5.5,0,4.55,5.76,7.3,8.73,7.3s8.73-2.75,8.73-7.3C83.73,86.17,80.41,84.47,75,84.47Z"/></g></g></svg>