<svg xmlns="http://www.w3.org/2000/svg" xmlns:xlink="http://www.w3.org/1999/xlink" viewBox="0 0 150 150"><defs><style>.cls-1{fill:none;}.cls-2{isolation:isolate;}.cls-3{fill:#55235f;}.cls-4{clip-path:url(#clip-path);}.cls-13,.cls-5,.cls-8{fill:#241916;}.cls-5{opacity:0.3;}.cls-13,.cls-5{mix-blend-mode:multiply;}.cls-6{fill:#f5f5f5;}.cls-7{fill:#372f2c;}.cls-9{fill:#de3f8f;}.cls-10{fill:#9a2939;}.cls-11{clip-path:url(#clip-path-2);}.cls-12{opacity:0.4;}.cls-13{opacity:0.6;}</style><clipPath id="clip-path"><rect class="cls-1" width="150" height="150"/></clipPath><clipPath id="clip-path-2"><path class="cls-1" d="M117.63,76.37c-1.26-14.74-2.54-21.94-3.19-33.22-.6-10.56-1.67-19.07-6.07-20.38-2.39-.71-6,2.92-7.69,3.95-12,7.47-18.16,6.57-25.71,6.57s-13.75.9-25.71-6.57c-1.65-1-5.3-4.66-7.69-3.95-4.41,1.31-5.48,9.82-6.08,20.38-.64,11.28-1.92,18.48-3.19,33.22C29.07,114,45.9,125.48,75,125.48S120.87,114,117.63,76.37Z"/></clipPath></defs><title>dog-cards</title><g class="cls-2"><g id="BG"><rect class="cls-3" width="150" height="150"/></g><g id="shadow"><g class="cls-4"><polygon class="cls-5" points="107.84 181.29 40.58 114.03 110.65 24.41 190.47 104.22 175 156 107.84 181.29"/></g></g><g id="dog"><path class="cls-6" d="M117.63,76.37c-1.26-14.74-2.54-21.94-3.19-33.22-.6-10.56-1.67-19.07-6.07-20.38-2.39-.71-6,2.92-7.69,3.95-12,7.47-18.16,6.57-25.71,6.57s-13.75.9-25.71-6.57c-1.65-1-5.3-4.66-7.69-3.95-4.41,1.31-5.48,9.82-6.08,20.38-.64,11.28-1.92,18.48-3.19,33.22C29.07,114,45.9,125.48,75,125.48S120.87,114,117.63,76.37Z"/><path class="cls-7" d="M65.09,67.53a4.51,4.51,0,1,1-4.5-4.5A4.5,4.5,0,0,1,65.09,67.53Z"/><path class="cls-7" d="M93.85,67.53a4.5,4.5,0,1,1-4.5-4.5A4.49,4.49,0,0,1,93.85,67.53Z"/><path class="cls-8" d="M98.2,89.3a6.33,6.33,0,0,1-1.42,0S78.63,100.83,75,100.83s-21.81-11.5-21.81-11.5a6.33,6.33,0,0,1-1.42,0c-.8-.2-1.24.73-.55,1.08,1.57.78,3.43,3.8,4.38,5.74a51.32,51.32,0,0,0,5.59,10.28c.85,1.14,1.72,2.1,2.51,3.07a11.28,11.28,0,0,1,2.15,3.79c1.53,4,4.32,5.93,9.15,5.93s7.62-1.88,9.15-5.93a11.42,11.42,0,0,1,2.14-3.79c.8-1,1.67-1.93,2.52-3.07a51.32,51.32,0,0,0,5.59-10.28c.95-1.94,2.81-5,4.37-5.74C99.44,90,99,89.1,98.2,89.3Z"/><path class="cls-9" d="M84,100.35c-2.73-.67-5.74,1.42-9,1.42s-6.26-2.09-9-1.42a5.1,5.1,0,0,0-.28,1.81c.19,10.87,2.4,15.75,9.27,15.75S84,113,84.23,102.16A4.69,4.69,0,0,0,84,100.35Z"/><path class="cls-10" d="M40.63,48.79c-.47-7.37-1.26-18.34,1.87-19.65,2.23-.94,6.49,4.86,9,8.59,1.68,2.49,1.7,4.18-.71,5.85a45.34,45.34,0,0,0-7.11,6.3C41.75,52.22,40.8,51.52,40.63,48.79Z"/><path class="cls-10" d="M109,49.18c.47-7.37,1.26-18.34-1.87-19.65-2.23-.94-6.49,4.86-9,8.59-1.68,2.49-1.7,4.18.71,5.85A45.2,45.2,0,0,1,106,50.26C107.92,52.6,108.87,51.91,109,49.18Z"/><g class="cls-11"><g class="cls-12"><polygon class="cls-13" points="130.09 120.84 89.17 129.16 61.93 101.92 98.47 89.23 130.09 120.84"/></g></g><path class="cls-6" d="M102.25,76.92,75,77.62l-27.28-.7L46.91,88.7c4.63.15,6.13.58,8.44,3.48C56.8,94,58.92,98.11,61,100.83c1.37,1.79,2.82,3.15,5,3.52a17.57,17.57,0,0,0,7.19-.32,2.44,2.44,0,0,0,1.48-1c.15-.33.2-.66.27-.66s.12.33.27.66a2.44,2.44,0,0,0,1.48,1,17.57,17.57,0,0,0,7.19.32c2.2-.37,3.65-1.73,5-3.52C91,98.11,93.14,94,94.59,92.18c2.31-2.9,3.81-3.33,8.44-3.48Z"/><path class="cls-8" d="M75,87.38c-4.85,0-7.83,1.52-7.83,4.92,0,4.09,5.16,6.55,7.83,6.55s7.83-2.46,7.83-6.55C82.8,88.9,79.82,87.38,75,87.38Z"/></g></g></svg>