<svg xmlns="http://www.w3.org/2000/svg" xmlns:xlink="http://www.w3.org/1999/xlink" viewBox="0 0 150 150"><defs><style>.cls-1{fill:none;}.cls-2{fill:#dc5712;}.cls-3{fill:#f8f4f4;}.cls-4{isolation:isolate;}.cls-5{fill:#96bf3e;}.cls-6{clip-path:url(#clip-path);}.cls-12,.cls-7,.cls-9{fill:#241916;mix-blend-mode:multiply;}.cls-7{opacity:0.3;}.cls-8{clip-path:url(#clip-path-2);}.cls-9{opacity:0.5;}.cls-10{fill:#372f2c;}.cls-11{clip-path:url(#clip-path-3);}.cls-12{opacity:0.4;}</style><clipPath id="clip-path"><rect class="cls-1" width="150" height="150"/></clipPath><clipPath id="clip-path-2"><path class="cls-2" d="M75,28.58c-23.59,0-34.4,9.41-29.93,32.65,1.79,9.35,5.35,18.58,8.92,29.2,4.54,13.51,6,25.07,21,25.07s16.47-11.56,21-25.07c3.57-10.62,7.12-19.85,8.92-29.2C109.4,38,98.59,28.58,75,28.58Z"/></clipPath><clipPath id="clip-path-3"><path class="cls-3" d="M91.41,84.51c-4.54-9-14-17-14-26.78s3.56-20.81,3.24-23.41c-.38-3.09-3.38-3.6-5.61-3.6s-5.23.51-5.61,3.6c-.32,2.6,3.24,13.6,3.24,23.41s-9.5,17.8-14,26.78a39.38,39.38,0,0,0-3.74,21.29c.63,4.51,4.51,8.22,10.08,8.22s8.95-4.3,10.07-4.3,4.51,4.3,10.08,4.3,9.43-3.71,10.07-8.22A39.38,39.38,0,0,0,91.41,84.51Z"/></clipPath></defs><title>dog-cards</title><g class="cls-4"><g id="BG"><rect class="cls-5" width="150" height="150"/></g><g id="shadow"><g class="cls-6"><polygon class="cls-7" points="91.42 182.53 27.91 119.02 108.85 40.08 184.7 115.93 176 181.29 91.42 182.53"/></g></g><g id="dog"><path class="cls-2" d="M75,28.58c-23.59,0-34.4,9.41-29.93,32.65,1.79,9.35,5.35,18.58,8.92,29.2,4.54,13.51,6,25.07,21,25.07s16.47-11.56,21-25.07c3.57-10.62,7.12-19.85,8.92-29.2C109.4,38,98.59,28.58,75,28.58Z"/><g class="cls-8"><polygon class="cls-9" points="73.83 102.76 90.49 119.42 76.14 127.17 59.28 110.32 73.83 102.76"/></g><path class="cls-10" d="M54.29,90.73c-3.56-10.7-7.15-20-8.95-29.44-2.32-12.18.21-19.58,5.13-24.8,1.22-1.3,2.94-2.64,2.58-3.1-.63-.84-6.78,1.24-11.9,6.69C37,44.54,17.15,89.37,18.21,100c.69,6.86,8.22,23.64,22.92,26.58,8.92,1.79,20.81-4.45,21.7-14.56,0-.12.11-1.49.11-2.28C59.48,105,57.11,99.18,54.29,90.73Z"/><path class="cls-10" d="M95.7,90.73c3.57-10.7,7.16-20,9-29.44,2.32-12.18-.21-19.58-5.13-24.8-1.22-1.3-2.94-2.64-2.59-3.1.64-.84,6.78,1.24,11.91,6.69,4.19,4.46,24,49.29,22.94,59.93-.69,6.86-8.22,23.64-22.92,26.58-8.92,1.79-20.81-4.45-21.7-14.56,0-.12-.11-1.49-.11-2.28C90.52,105,92.89,99.18,95.7,90.73Z"/><path class="cls-3" d="M91.41,84.51c-4.54-9-14-17-14-26.78s3.56-20.81,3.24-23.41c-.38-3.09-3.38-3.6-5.61-3.6s-5.23.51-5.61,3.6c-.32,2.6,3.24,13.6,3.24,23.41s-9.5,17.8-14,26.78a39.38,39.38,0,0,0-3.74,21.29c.63,4.51,4.51,8.22,10.08,8.22s8.95-4.3,10.07-4.3,4.51,4.3,10.08,4.3,9.43-3.71,10.07-8.22A39.38,39.38,0,0,0,91.41,84.51Z"/><g class="cls-11"><polygon class="cls-12" points="82.5 92.83 99.16 109.5 84.81 117.25 67.95 100.39 82.5 92.83"/></g><path class="cls-10" d="M75,90.71c-5.47,0-8.84,1.71-8.84,5.56,0,4.61,5.83,7.38,8.84,7.38s8.83-2.77,8.83-7.38C83.83,92.42,80.47,90.71,75,90.71Z"/><path class="cls-10" d="M63,56.47a5.09,5.09,0,1,1-5.08-5.09A5.07,5.07,0,0,1,63,56.47Z"/><path class="cls-10" d="M97.18,56.47a5.09,5.09,0,1,1-5.09-5.09A5.08,5.08,0,0,1,97.18,56.47Z"/></g></g></svg>