<svg xmlns="http://www.w3.org/2000/svg" xmlns:xlink="http://www.w3.org/1999/xlink" viewBox="0 0 300 220"><defs><style>.cls-1{fill:#fff;}.cls-2{fill:#f5a047;}.cls-3{isolation:isolate;}.cls-4{fill:#a9aaab;}.cls-4,.cls-7{mix-blend-mode:multiply;}.cls-5{fill:#7d7d7e;}.cls-6{clip-path:url(#clip-path);}.cls-7{fill:#241916;opacity:0.15;}.cls-8{clip-path:url(#clip-path-2);}.cls-9{fill:#231815;}</style><clipPath id="clip-path"><path class="cls-1" d="M254.7,84.7a2.7,2.7,0,0,0-2-3.1c-6.2-1.8-16.5-2-19.8-3.9-1.7-1-1.8-7.1-9.2-9.5s-17.3-1.1-22.1,2.2c-9.1,6.1-15.9,20.4-22,32.9-4.2,8.7-10.6,9.9-18.2,10.6-13.4,1.3-23.2,3.4-29.7,3.6s-26.7-.2-45.2-1.1c-12.6-.5-30.9,14-30.9,17.5-.5,16.8,18.9,30.3,37.1,39.2,21.9,10.6,57.3,23.2,85.2,15.8,5.8-1.5,9.5,2.1,15.3,1,32-5.8,37.7-31.3,37-47.9-1-23.7-6.6-37.8,3.5-40.9,3.9-1.2,5.2-1.1,11.6-4S254.1,88.7,254.7,84.7Z"/></clipPath><clipPath id="clip-path-2"><path class="cls-2" d="M240.6,80.2c-.3-.7-.6-.9-1-.9-2.9-.5-5.3-1-6.6-1.8s-1.9-7-9.3-9.4a33.4,33.4,0,0,0-8.7-1.3,13,13,0,0,1-2.9-2.8c-1.8-2.5-5.5-13.7-13.8-14.6-3.3-.4-3,5-1.6,15.7.4,3.6.8,6.2,1.1,8.2-7.4,7.1-13.1,19.2-18.4,30-4.2,8.7-11.2,9.9-18.8,10.6-13.3,1.3-22.9,3.1-29.4,3.3s-26.2-.2-44.7-1.1c-4.5-.2-10.8,1.3-16.9,4.2-12.5,6-18.5,18.4-21.7,29.8-4.1,14.5-2.9,29.7.7,35.9a7.8,7.8,0,0,1,.9,3.3c0,.5.6.5.9.6a8.2,8.2,0,0,0,4.1-.1c1.9-.4,7.2-2.5,12.6-5.2a6.7,6.7,0,0,0,2-1.3,47.7,47.7,0,0,1,19.5-8.6A20,20,0,0,1,98.7,176c21.9,9.9,53.9,20,79.3,13.3a12.2,12.2,0,0,1,3-.8,8.1,8.1,0,0,0,4-1.1c3.5-1.7,5.5-2.4,9.6-5.6s5.8-8.6,7.1-13.8,9.6-7.4,14.1-16.3c6-11.8-5.7-40.5-5.8-53.5s6.5-11.8,11.7-11.9,11.2,1,15.7.2S241.5,81.8,240.6,80.2Z"/></clipPath></defs><title>fullDog</title><g class="cls-3"><g id="Layer_1" data-name="Layer 1"><ellipse class="cls-4" cx="145.6" cy="207.8" rx="118.6" ry="12.2"/><path class="cls-5" d="M195.7,132.6c.7,5-4.7,13.5-4.5,19.7.4,15.3,3.1,20.9,7.3,33.3,2.7,8.1,6.4,22.2,7,22.2h14.3c2.2-4,1.1-8.1-2.2-9.6s-2.9-1.9-3.1-3.6,3.5-14,5.1-29.4c1.2-11.2-.7-15.1,0-29.3C220.9,112.9,193.8,119.2,195.7,132.6Z"/><path class="cls-5" d="M83,122.7c-9.2,9.1-12.4,14.6-16.1,25.3-2.6,7.7-1.3,24.7-3.2,32.2-1,4,4.5,25.7,5.2,27.6H83.7c1.3-2.4,1.6-6.2-1.3-7.6s-3.9-1.3-4.4-4,.5-8.6,2.3-12.4,7.6-9.8,18.5-18.1a35.9,35.9,0,0,0,13.9-32.5C112.7,120.7,96,110,83,122.7Z"/><path class="cls-1" d="M254.7,84.7a2.7,2.7,0,0,0-2-3.1c-6.2-1.8-16.5-2-19.8-3.9-1.7-1-1.8-7.1-9.2-9.5s-17.3-1.1-22.1,2.2c-9.1,6.1-15.9,20.4-22,32.9-4.2,8.7-10.6,9.9-18.2,10.6-13.4,1.3-23.2,3.4-29.7,3.6s-26.7-.2-45.2-1.1c-12.6-.5-30.9,14-30.9,17.5-.5,16.8,18.9,30.3,37.1,39.2,21.9,10.6,57.3,23.2,85.2,15.8,5.8-1.5,9.5,2.1,15.3,1,32-5.8,37.7-31.3,37-47.9-1-23.7-6.6-37.8,3.5-40.9,3.9-1.2,5.2-1.1,11.6-4S254.1,88.7,254.7,84.7Z"/><g class="cls-6"><path class="cls-7" d="M189.1,179.8l11.9,18,15.7-11.7-16.4-16.4Z"/></g><path class="cls-1" d="M70.1,120.5c-13.2,6.3-18.3,17.9-22,30.9-4.6,16.3.1,34.2,1.4,34.6.5,4.9-.6,5.2-.7,8.9-.1,5.7,1,11.3,2.1,12.9H68.2c1.2-2.3,1.6-6.4-1-7.9s-4.1-1.7-4.1-4.2.9-7.2,3.7-10.3c4.3-5,19.5-12.9,28.4-10.8,36.4,8.4,38.9-15.1,41.6-15.4s-27.2-30.8-48.2-41.1C81.6,114.7,73.9,118.7,70.1,120.5Z"/><path class="cls-1" d="M180.1,132.6c.7,5-10.7,14.4-10.5,20.6.5,15.3,9,32.4,14.6,44.2,2.8,5.9,5.1,10.4,5.7,10.4h14.3c2.2-4,1.1-8.1-2.2-9.6s-2.9-1.9-3.1-3.6,3.5-17.1,5.1-32.5c1.2-11.2,11.9-15.8,12.6-29.9C217.9,109.1,178.2,119.2,180.1,132.6Z"/><path class="cls-2" d="M240.6,80.2c-.3-.7-.6-.9-1-.9-2.9-.5-5.3-1-6.6-1.8s-1.9-7-9.3-9.4a33.4,33.4,0,0,0-8.7-1.3,13,13,0,0,1-2.9-2.8c-1.8-2.5-5.5-13.7-13.8-14.6-3.3-.4-3,5-1.6,15.7.4,3.6.8,6.2,1.1,8.2-7.4,7.1-13.1,19.2-18.4,30-4.2,8.7-11.2,9.9-18.8,10.6-13.3,1.3-22.9,3.1-29.4,3.3s-26.2-.2-44.7-1.1c-4.5-.2-10.8,1.3-16.9,4.2-12.5,6-18.5,18.4-21.7,29.8-4.1,14.5-2.9,29.7.7,35.9a7.8,7.8,0,0,1,.9,3.3c0,.5.6.5.9.6a8.2,8.2,0,0,0,4.1-.1c1.9-.4,7.2-2.5,12.6-5.2a6.7,6.7,0,0,0,2-1.3,47.7,47.7,0,0,1,19.5-8.6A20,20,0,0,1,98.7,176c21.9,9.9,53.9,20,79.3,13.3a12.2,12.2,0,0,1,3-.8,8.1,8.1,0,0,0,4-1.1c3.5-1.7,5.5-2.4,9.6-5.6s5.8-8.6,7.1-13.8,9.6-7.4,14.1-16.3c6-11.8-5.7-40.5-5.8-53.5s6.5-11.8,11.7-11.9,11.2,1,15.7.2S241.5,81.8,240.6,80.2Z"/><g class="cls-8"><polygon class="cls-7" points="102.7 164 129.2 190.4 80.3 186.6 102.7 164"/></g><path class="cls-2" d="M111.5,172.6a209.9,209.9,0,0,0-22.9,2.1,47.7,47.7,0,0,0-19.5,8.6l14.8-24.8h33.5Z"/><path class="cls-9" d="M229.9,78.3c.2,1.5-1.8,2.9-3.2,3.1a2.7,2.7,0,0,1-2.8-2.5,2.6,2.6,0,0,1,2.2-3C227.5,75.8,229.8,76.8,229.9,78.3Z"/></g></g></svg>