<?xml version="1.0" encoding="utf-8"?>
<!-- Generator: Adobe Illustrator 22.0.1, SVG Export Plug-In . SVG Version: 6.00 Build 0)  -->
<svg version="1.1" id="Layer_1" xmlns="http://www.w3.org/2000/svg" xmlns:xlink="http://www.w3.org/1999/xlink" x="0px" y="0px"
	 viewBox="0 0 300 192" style="enable-background:new 0 0 300 192;" xml:space="preserve">
<style type="text/css">
	.st0{fill:#A9AAAB;}
	.st1{fill:#7D7D7E;}
	.st2{fill:#FFFFFF;}
	.st3{clip-path:url(#SVGID_2_);}
	.st4{opacity:0.15;fill:#241916;enable-background:new    ;}
	.st5{fill:#F5A047;}
	.st6{clip-path:url(#SVGID_4_);}
	.st7{fill:#231815;}
</style>
<title>fullDog</title>
<g>
	<g id="Layer_1_1_">
		<ellipse class="st0" cx="145.6" cy="179.8" rx="118.6" ry="12.2"/>
		<path class="st1" d="M195.7,104.6c0.7,5-4.7,13.5-4.5,19.7c0.4,15.3,3.1,20.9,7.3,33.3c2.7,8.1,6.4,22.2,7,22.2h14.3
			c2.2-4,1.1-8.1-2.2-9.6s-2.9-1.9-3.1-3.6s3.5-14,5.1-29.4c1.2-11.2-0.7-15.1,0-29.3C220.9,84.9,193.8,91.2,195.7,104.6z"/>
		<path class="st1" d="M83,94.7c-9.2,9.1-12.4,14.6-16.1,25.3c-2.6,7.7-1.3,24.7-3.2,32.2c-1,4,4.5,25.7,5.2,27.6h14.8
			c1.3-2.4,1.6-6.2-1.3-7.6s-3.9-1.3-4.4-4s0.5-8.6,2.3-12.4s7.6-9.8,18.5-18.1c10-7.6,15.3-20,13.9-32.5C112.7,92.7,96,82,83,94.7z
			"/>
		<path class="st2" d="M254.7,56.7c0.3-1.4-0.6-2.8-2-3.1c-6.2-1.8-16.5-2-19.8-3.9c-1.7-1-1.8-7.1-9.2-9.5s-17.3-1.1-22.1,2.2
			c-9.1,6.1-15.9,20.4-22,32.9c-4.2,8.7-10.6,9.9-18.2,10.6c-13.4,1.3-23.2,3.4-29.7,3.6s-26.7-0.2-45.2-1.1
			c-12.6-0.5-30.9,14-30.9,17.5c-0.5,16.8,18.9,30.3,37.1,39.2c21.9,10.6,57.3,23.2,85.2,15.8c5.8-1.5,9.5,2.1,15.3,1
			c32-5.8,37.7-31.3,37-47.9c-1-23.7-6.6-37.8,3.5-40.9c3.9-1.2,5.2-1.1,11.6-4S254.1,60.7,254.7,56.7z"/>
		<g>
			<defs>
				<path id="SVGID_1_" d="M254.7,56.7c0.3-1.4-0.6-2.8-2-3.1c-6.2-1.8-16.5-2-19.8-3.9c-1.7-1-1.8-7.1-9.2-9.5s-17.3-1.1-22.1,2.2
					c-9.1,6.1-15.9,20.4-22,32.9c-4.2,8.7-10.6,9.9-18.2,10.6c-13.4,1.3-23.2,3.4-29.7,3.6s-26.7-0.2-45.2-1.1
					c-12.6-0.5-30.9,14-30.9,17.5c-0.5,16.8,18.9,30.3,37.1,39.2c21.9,10.6,57.3,23.2,85.2,15.8c5.8-1.5,9.5,2.1,15.3,1
					c32-5.8,37.7-31.3,37-47.9c-1-23.7-6.6-37.8,3.5-40.9c3.9-1.2,5.2-1.1,11.6-4S254.1,60.7,254.7,56.7z"/>
			</defs>
			<clipPath id="SVGID_2_">
				<use xlink:href="#SVGID_1_"  style="overflow:visible;"/>
			</clipPath>
			<g class="st3">
				<path class="st4" d="M189.1,151.8l11.9,18l15.7-11.7l-16.4-16.4L189.1,151.8z"/>
			</g>
		</g>
		<path class="st2" d="M70.1,92.5c-13.2,6.3-18.3,17.9-22,30.9c-4.6,16.3,0.1,34.2,1.4,34.6c0.5,4.9-0.6,5.2-0.7,8.9
			c-0.1,5.7,1,11.3,2.1,12.9h17.3c1.2-2.3,1.6-6.4-1-7.9s-4.1-1.7-4.1-4.2s0.9-7.2,3.7-10.3c4.3-5,19.5-12.9,28.4-10.8
			c36.4,8.4,38.9-15.1,41.6-15.4s-27.2-30.8-48.2-41.1C81.6,86.7,73.9,90.7,70.1,92.5z"/>
		<path class="st2" d="M180.1,104.6c0.7,5-10.7,14.4-10.5,20.6c0.5,15.3,9,32.4,14.6,44.2c2.8,5.9,5.1,10.4,5.7,10.4h14.3
			c2.2-4,1.1-8.1-2.2-9.6s-2.9-1.9-3.1-3.6s3.5-17.1,5.1-32.5c1.2-11.2,11.9-15.8,12.6-29.9C217.9,81.1,178.2,91.2,180.1,104.6z"/>
		<path class="st5" d="M240.6,52.2c-0.3-0.7-0.6-0.9-1-0.9c-2.9-0.5-5.3-1-6.6-1.8s-1.9-7-9.3-9.4c-2.8-0.8-5.8-1.3-8.7-1.3
			c-1.1-0.8-2.1-1.7-2.9-2.8c-1.8-2.5-5.5-13.7-13.8-14.6c-3.3-0.4-3,5-1.6,15.7c0.4,3.6,0.8,6.2,1.1,8.2
			c-7.4,7.1-13.1,19.2-18.4,30c-4.2,8.7-11.2,9.9-18.8,10.6c-13.3,1.3-22.9,3.1-29.4,3.3S105,89,86.5,88.1
			c-4.5-0.2-10.8,1.3-16.9,4.2c-12.5,6-18.5,18.4-21.7,29.8c-4.1,14.5-2.9,29.7,0.7,35.9c0.5,1,0.8,2.1,0.9,3.3
			c0,0.5,0.6,0.5,0.9,0.6c1.4,0.3,2.8,0.3,4.1-0.1c1.9-0.4,7.2-2.5,12.6-5.2c0.7-0.3,1.4-0.8,2-1.3c5.8-4.3,12.4-7.2,19.5-8.6
			c3.4-0.4,6.9,0,10.1,1.3c21.9,9.9,53.9,20,79.3,13.3c1-0.4,2-0.7,3-0.8c1.4,0,2.8-0.4,4-1.1c3.5-1.7,5.5-2.4,9.6-5.6
			s5.8-8.6,7.1-13.8s9.6-7.4,14.1-16.3c6-11.8-5.7-40.5-5.8-53.5s6.5-11.8,11.7-11.9s11.2,1,15.7,0.2S241.5,53.8,240.6,52.2z"/>
		<g>
			<defs>
				<path id="SVGID_3_" d="M240.6,52.2c-0.3-0.7-0.6-0.9-1-0.9c-2.9-0.5-5.3-1-6.6-1.8s-1.9-7-9.3-9.4c-2.8-0.8-5.8-1.3-8.7-1.3
					c-1.1-0.8-2.1-1.7-2.9-2.8c-1.8-2.5-5.5-13.7-13.8-14.6c-3.3-0.4-3,5-1.6,15.7c0.4,3.6,0.8,6.2,1.1,8.2
					c-7.4,7.1-13.1,19.2-18.4,30c-4.2,8.7-11.2,9.9-18.8,10.6c-13.3,1.3-22.9,3.1-29.4,3.3S105,89,86.5,88.1
					c-4.5-0.2-10.8,1.3-16.9,4.2c-12.5,6-18.5,18.4-21.7,29.8c-4.1,14.5-2.9,29.7,0.7,35.9c0.5,1,0.8,2.1,0.9,3.3
					c0,0.5,0.6,0.5,0.9,0.6c1.4,0.3,2.8,0.3,4.1-0.1c1.9-0.4,7.2-2.5,12.6-5.2c0.7-0.3,1.4-0.8,2-1.3c5.8-4.3,12.4-7.2,19.5-8.6
					c3.4-0.4,6.9,0,10.1,1.3c21.9,9.9,53.9,20,79.3,13.3c1-0.4,2-0.7,3-0.8c1.4,0,2.8-0.4,4-1.1c3.5-1.7,5.5-2.4,9.6-5.6
					s5.8-8.6,7.1-13.8s9.6-7.4,14.1-16.3c6-11.8-5.7-40.5-5.8-53.5s6.5-11.8,11.7-11.9s11.2,1,15.7,0.2S241.5,53.8,240.6,52.2z"/>
			</defs>
			<clipPath id="SVGID_4_">
				<use xlink:href="#SVGID_3_"  style="overflow:visible;"/>
			</clipPath>
			<g class="st6">
				<polygon class="st4" points="102.7,136 129.2,162.4 80.3,158.6 				"/>
			</g>
		</g>
		<path class="st5" d="M111.5,144.6c-7.7,0.3-15.3,1-22.9,2.1c-7.1,1.4-13.7,4.3-19.5,8.6l14.8-24.8h33.5L111.5,144.6z"/>
		<path class="st7" d="M229.9,50.3c0.2,1.5-1.8,2.9-3.2,3.1c-1.5,0.1-2.7-1-2.8-2.5c-0.2-1.4,0.7-2.8,2.1-3c0,0,0,0,0.1,0
			C227.5,47.8,229.8,48.8,229.9,50.3z"/>
	</g>
</g>
</svg>
