<svg xmlns="http://www.w3.org/2000/svg" xmlns:xlink="http://www.w3.org/1999/xlink" viewBox="0 0 300 220"><defs><style>.cls-1{fill:#2f2725;}.cls-2{isolation:isolate;}.cls-3{fill:#a9aaab;}.cls-3,.cls-6{mix-blend-mode:multiply;}.cls-4{fill:#231815;}.cls-5{clip-path:url(#clip-path);}.cls-6{fill:#241916;opacity:0.15;}.cls-7{fill:#ea620a;}.cls-8{fill:#a84317;}.cls-9{fill:#a7937d;}.cls-10{fill:#ebebec;}</style><clipPath id="clip-path"><path class="cls-1" d="M269.4,41.5c-5-1.4-6.7-.4-12.5-2.6-3.3-1.2-4.1-6.1-7.6-8.1-5.1-3-20.2-5.6-29.8,4.5s-12.6,14.6-21.1,24.3-10.7,9.6-20.2,12.5-20,2.8-34,2.5c-6.2-.1-25.9-1-45.2.7-13.8,1.1-24.5,9.2-28.1,20.1C60.5,126.3,47,124.3,31.4,119.3c-3.2-1-4.2,1.1-2.5,3.3,13.8,17.5,37.8,8.7,49.7-1.1,10.3-8.4,20.8,5,29.1,3.7s12.1,1.1,16.1,2.9c20.9,9.7,39.5,13,67.6,12.6,1.4,0-1.3-1.2,0-1.2,16.5,0,31.8-7,41.6-35,2.9-8.4,5-13.2,7.5-24.9,1.3-6.1,2-7.6,4.1-10.3s3.5-4.9,9.1-7.3c3.7-1.5,13.8-7.7,16.4-10.9S272.8,42.5,269.4,41.5Z"/></clipPath></defs><title>fullDog</title><g class="cls-2"><g id="Layer_1" data-name="Layer 1"><ellipse class="cls-3" cx="149.2" cy="207.8" rx="122.2" ry="12.2"/><path class="cls-4" d="M88.6,107.7C77,118.4,78.1,134.5,73,147.1c-3.7,9.2-7.9,15.7-10.2,26.3-1.1,4.9,1.9,32.4,2.5,34.7H79.7c1.7-2.8,2.2-6.6-1.1-8.2s-4.5-1.6-4.8-4.8,1-12.5,2.5-17.3S86.7,164.2,97,155.1c8.4-7.4,14.6-18.3,18.5-26.4,2.2-4.7,7.6-8.3,24.3-5.4C140.8,108.6,104.8,92.7,88.6,107.7Z"/><path class="cls-4" d="M194.7,131c.3,23.2,6.3,76.3,7,76.3l13.6.5c1.2-1.9,1.9-7.6-2.6-9.2s-3.4-3.3-3.7-5.3.1-24.4,1.8-43.5c1-10.8,8.1-25.1,7.8-29.2C218.5,119.8,194.7,131,194.7,131Z"/><path class="cls-1" d="M269.4,41.5c-5-1.4-6.7-.4-12.5-2.6-3.3-1.2-4.1-6.1-7.6-8.1-5.1-3-20.2-5.6-29.8,4.5s-12.6,14.6-21.1,24.3-10.7,9.6-20.2,12.5-20,2.8-34,2.5c-6.2-.1-25.9-1-45.2.7-13.8,1.1-24.5,9.2-28.1,20.1C60.5,126.3,47,124.3,31.4,119.3c-3.2-1-4.2,1.1-2.5,3.3,13.8,17.5,37.8,8.7,49.7-1.1,10.3-8.4,20.8,5,29.1,3.7s12.1,1.1,16.1,2.9c20.9,9.7,39.5,13,67.6,12.6,1.4,0-1.3-1.2,0-1.2,16.5,0,31.8-7,41.6-35,2.9-8.4,5-13.2,7.5-24.9,1.3-6.1,2-7.6,4.1-10.3s3.5-4.9,9.1-7.3c3.7-1.5,13.8-7.7,16.4-10.9S272.8,42.5,269.4,41.5Z"/><g class="cls-5"><path class="cls-6" d="M116.3,113.7l31.2,31.2-57.6-4.5Zm76.1,18.8,14.1,21.2,18.4-13.8-19.3-19.3Z"/></g><path class="cls-7" d="M251.2,39.2a2.8,2.8,0,0,1-2.3,3,3,3,0,0,1-3.3-2.3c-.2-1.4,1.3-2.7,2.6-2.9A2.8,2.8,0,0,1,251.2,39.2Z"/><path class="cls-4" d="M235,30.1c-5.9-.9-16,1.2-20.1,5.3-2.6,2.6,8.9,21.3,13.4,23.2s5.2-1.3,4.7-6.6c-.3-3.8-1.2-11,4.2-18.1C239.1,31.3,238.2,30.5,235,30.1Z"/><path class="cls-8" d="M82.6,167.3c-.6-1-3.1,0-5.9,1.2-6.6,2.9-14.2,7.1-14.2,11.5-.1,8.8,2.2,26.1,2.8,28.1H79.8c1.7-2.8,2-6.7-1.3-8.4s-4.3-1.6-4.6-4.8.9-11.9,2.4-16.7a19.4,19.4,0,0,1,4.8-7.3C83.1,168.7,83.1,168,82.6,167.3Z"/><path class="cls-8" d="M212.7,198.6c-3.3-1.2-3.4-3.3-3.7-5.3s.1-14,.9-28.6c.1-2-.6-2.1-1.7-1.3-2.7,1.9-6.2,3.4-8.8,5.6s-2.1,2.3-1.9,4.9c1.8,17.9,3.8,33.4,4.2,33.4l13.6.5C216.5,205.9,217.2,200.2,212.7,198.6Z"/><path class="cls-1" d="M98.4,77.7c-4.1,2.3-23.7,3.4-27.7,33.7-2.4,18.5-5.8,29.3-11.6,37.7S45.2,163,44.5,169.2s-.5,15.3-.2,24.2a54.4,54.4,0,0,0,2.3,14.7H58.2c1.4-2.8,3.4-4.9.3-6.6s-3.4-4.2-3.4-7.2,2.4-15.2,5-19.4c5-8.4,30.6-21.3,38.3-32.4,15.6-22.3,22.2-19.4,26-18.6C166,132.3,126.4,61.7,98.4,77.7Z"/><path class="cls-7" d="M58.7,173.1c-2.6,1.8-3.1,3.3-5.8,7.2s-5.3,5.1-7.2,5.7-1.7,2-1.7,3.7c.2,7.6.9,17.2,1.4,18.4H60.6c1.4-2.8,1.9-6.2-1.2-8s-3.1-2.9-3.1-5.9,1.6-15.3,4.1-19.5C61.4,173.1,60.6,171.8,58.7,173.1Z"/><path class="cls-1" d="M177.8,119.4a137.3,137.3,0,0,1,2.4,17.8c1.2,18.1,3.2,40.3,4.9,58.6.7,6.9,3.3,12.3,4,12.3H200c1.4-2.8,2.3-6.4-1.7-8.2s-3.2-2.8-3.5-4.8a388,388,0,0,1,3.6-42.9c1.9-14.2,9.1-22.4,9.3-39.1.3-27.1-3.2-31.6-7.9-32.9s-11.3-2.3-15.2,1.2S175,103.6,177.8,119.4Z"/><path class="cls-7" d="M198.6,199.4c-3.2-1.4-3.5-2.3-3.8-4.3,0-.4.4-6.8.7-12,.1-1.9-.2-3-1-3.8-2.4-2.6-5.9-4.4-9.9-6-1-.4-1.6-.1-1.5,1.2.5,6,1.4,15.7,1.9,21.2s1.8,12.4,2.6,12.4h13.1C202.1,205.3,202.6,201.1,198.6,199.4Z"/><path class="cls-9" d="M246.1,56.9c.8-1.4,8.7-4.6,14.1-4.4,2.3.1,4.4,2.2,5.4,2.7s.7,2.8-.1,3.7-2.6,1.9-7.6,1.8c-2.1-.1-11-.8-11.5-2.5S246.1,56.9,246.1,56.9Z"/><path class="cls-10" d="M250.5,58.4c0-.3.9-1.6,1.5-1.6s1.3,1.9,1.5,2.2,1.2-.6,1.8-.8.8.4,1.2,1,2.2-.5,2.5-.4.8.5,1.1.8,1.9-1.7,2.5-2.5,1,1.8,1,2.4,1.1-1.1,1.3-1.4.7.9.7,1.4-.7,1-2.6,1h-4.7a29.1,29.1,0,0,1-6-.9C251.1,59.1,250.5,58.9,250.5,58.4Z"/><path class="cls-7" d="M268.3,48.5c-1-.6-1.7-2.3-1.9-4s-.4-1-1-.4c-5.7,4.7-16.2,6.1-20.8,9.6s-3.5-2.6-3.2-5.6-3.5-2.3-6.1,5.1c-1.8,5.2,2.7,6.1,2.8,8.6s1.1,8,3.6,10.4c.9.9,1.7,0,2.4-1.5s1.6-3.5,4.8-4.2,5.5-.9,10.4-.9,6.1-1.4,7.5-2.8,1.2-1.9.8-2.2-1.5.9-2.7,1.5c-4.1,2.1-11.5,2-15.8-.2s-1.5-5.1,0-6.2,5-.7,9.6,1.1a9.5,9.5,0,0,0,10.7-2.9,11.4,11.4,0,0,0,1.9-4.7c.1-.6-.1-.5-.6-.4A3.6,3.6,0,0,1,268.3,48.5Z"/><path class="cls-1" d="M251.7,56.7c1.8-.4,5.8.4,8.2.7.6,0,.5-.4.1-.5l-1.3-.3c-4.6-1.9-8.5-1.9-9.7-1.1s-4.1,4.3.1,6.4,11.9,2.4,15.9.3a10.2,10.2,0,0,0,2.3-1.5c.1-.1.2-.4-.3-.5a9.6,9.6,0,0,0-3.1-.1c-1.7.1-3.6-.2-7,0a12.5,12.5,0,0,1-6.1-1.3C250.2,58.5,249.5,57.2,251.7,56.7Z"/><path class="cls-4" d="M250.6,39.5a1.9,1.9,0,0,1-1.9,1.9,1.9,1.9,0,1,1,0-3.8A1.9,1.9,0,0,1,250.6,39.5Z"/></g></g></svg>