<?xml version="1.0" encoding="utf-8"?>
<!-- Generator: Adobe Illustrator 22.0.1, SVG Export Plug-In . SVG Version: 6.00 Build 0)  -->
<svg version="1.1" id="Layer_1" xmlns="http://www.w3.org/2000/svg" xmlns:xlink="http://www.w3.org/1999/xlink" x="0px" y="0px"
	 viewBox="0 0 300 192" style="enable-background:new 0 0 300 192;" xml:space="preserve">
<style type="text/css">
	.st0{fill:#A9AAAB;}
	.st1{fill:#81521C;}
	.st2{fill:#7D7D7E;}
	.st3{fill:#F7A70E;}
	.st4{fill:#FFFFFF;}
	.st5{fill:#231815;}
	.st6{clip-path:url(#SVGID_2_);}
	.st7{opacity:0.25;fill:#241916;enable-background:new    ;}
</style>
<title>fullDog</title>
<g>
	<g id="Layer_1_1_">
		<ellipse class="st0" cx="138.4" cy="179.8" rx="110.3" ry="12.2"/>
		<path class="st1" d="M189.7,168.9c0,1.7-0.6,8.8,0.8,10.9h12.1c1.3-1,1.7-2.8,1-4.3c-0.6-1.3-4-3.4-5-6.2S189.7,168.9,189.7,168.9
			z"/>
		<path class="st1" d="M87.4,166.5c0.3,1.8-0.9,11,1,13.3h14.5c1.2-1.3,1.3-3.2,0.2-4.6c-0.9-1.5-4.8-4.6-6.5-7.6
			S87.4,166.5,87.4,166.5z"/>
		<path class="st2" d="M210.2,116.5c-5.3,8.2-5,21-6.1,34c-1.2,14.8-0.4,16.5-3.3,18.5s-18.3,1.5-20.5-2.6s-2.4-24.9-2-34.8
			c0.8-17.4,2.4-27.7,4.4-31.5s13.7-18.1,19.6-12.9s9.5-12.7,11.5-9.1S221.1,99.6,210.2,116.5z"/>
		<path class="st2" d="M84.3,76c-1.9,4,11.6,20.5,14.1,36.4s-6,26.9-10.1,34.6c-7.5,14-4.8,21.7,0.8,23.2c7.1,1.7,10.9-0.5,14.5-4.9
			c12.5-15.3,14.3-18.9,17.4-28.8c5.1-16.1,8.7-29,23.7-26.5c11.9,2.1-8.7-33.3-18-38.2S90.1,64.1,84.3,76z"/>
		<path class="st3" d="M227.2,23c0.8,1.8,2.3,3.2,4.2,4c6.1,2,15.3,5.4,16.2,5.9s-3.3,9.5-7.9,10.6s-12.7-0.2-18.4-0.6
			c-2.1-0.2-4.3,0.1-6.3,0.9c-5.2,2-6.7-8.9-4.2-13.1S226.2,20.8,227.2,23z"/>
		<path class="st4" d="M57.4,26.9c-8.9,8.6-5.9,25.1,4.9,30.8s16.9,1.3,18.6,3s3.3,6.2,3.3,6.2l9.5-7.5c0,0-5-3.2-5.3-4.6
			s6.9-15.5-3.1-26.5c-7.1-8.1-19.4-8.9-27.5-1.7C57.7,26.7,57.5,26.8,57.4,26.9z"/>
		<path class="st3" d="M175.8,169.4c0,1.8-0.6,8.1,0.9,10.4h13.8c1.4-1.1,1.8-3,1.1-4.6c-0.7-1.5-4.3-3.7-5.5-6.8
			S175.8,169.4,175.8,169.4z"/>
		<path class="st3" d="M61.9,166.1c0,1.8-0.3,11.4,1.2,13.7h13.8c1.4-1.1,1.8-3,1.1-4.6c-0.7-1.5-4-4.6-5.1-7.6
			S61.9,166.1,61.9,166.1z"/>
		<path class="st5" d="M222.4,28.4c1.7,0.6,3.4,0.9,5.2,0.8c0.6-0.2,1.4-2.7,0.5-3S221.6,28,222.4,28.4z"/>
		<path class="st4" d="M219.1,77.4c1.8,17-1.1,42-28.8,43.1c-8.8,0.4-36.3-1.4-62.4-12.7c-10.7-4.7-14.6-3.1-18.9-3.6
			C85.3,101.1,76.2,93.1,76.2,81S85,58.3,98.7,56.3s30.8,2.7,39.2,3.3c24,1.9,30.7,0.8,35.5-9.8S184,17.5,193.3,7.9
			c6.9-7.1,18.5-9.4,26.3-7.4c11.6,3,13.5,12,13.3,17c-0.4,6.6-3.4,11.3-14.5,11.2c9.9,23.4,11.3,34.3-0.2,36.6
			C218.4,68.4,218.6,72.5,219.1,77.4z"/>
		<g>
			<defs>
				<path id="SVGID_1_" d="M219.1,77.4c1.8,17-1.1,42-28.8,43.1c-8.8,0.4-36.3-1.4-62.4-12.7c-10.7-4.7-14.6-3.1-18.9-3.6
					C85.3,101.1,76.2,93.1,76.2,81S85,58.3,98.7,56.3s30.8,2.7,39.2,3.3c24,1.9,30.7,0.8,35.5-9.8S184,17.5,193.3,7.9
					c6.9-7.1,18.5-9.4,26.3-7.4c11.6,3,13.5,12,13.3,17c-0.4,6.6-3.4,11.3-14.5,11.2c9.9,23.4,11.3,34.3-0.2,36.6
					C218.4,68.4,218.6,72.5,219.1,77.4z"/>
			</defs>
			<clipPath id="SVGID_2_">
				<use xlink:href="#SVGID_1_"  style="overflow:visible;"/>
			</clipPath>
			<g class="st6">
				<polygon class="st7" points="133.7,102.9 147.2,116.4 118.4,114.6 122.4,102.6 				"/>
				<polygon class="st7" points="201.4,123.2 203.7,107.2 213.4,116.9 				"/>
			</g>
		</g>
		<path class="st4" d="M207.5,109.8c-6.1,7.7-9.1,25-10.9,38.7s-1.9,19.1-4.8,21.2s-19.1,3-21-2c-1.4-3.5-2-26.2-1.5-36.1
			c0.7-17.4,2.3-27.7,4.3-31.5s13.7-18.1,19.6-12.9s13,7.7,13.6,11.8C207.4,103.1,209.9,106.8,207.5,109.8z"/>
		<path class="st4" d="M77.3,76c-2.6,4-0.8,12.7-2.9,28.5c-1.8,13.7-11.6,24.2-15.5,34.6c-5.8,15.3-3.5,26.9,1.1,29.7
			s13.9,3.3,16.7-2.1c5.7-10.9,16.7-20.5,26.4-34.2c8.4-11.9,17.5-26.1,34.1-25.1c3,0.2,9,0.1,13,0.7c5.5,0.8-23.3-32.6-29.6-36.3
			S85.4,64.1,77.3,76z"/>
	</g>
</g>
</svg>
