<?xml version="1.0" encoding="utf-8"?>
<!-- Generator: Adobe Illustrator 22.0.1, SVG Export Plug-In . SVG Version: 6.00 Build 0)  -->
<svg version="1.1" id="Layer_1" xmlns="http://www.w3.org/2000/svg" xmlns:xlink="http://www.w3.org/1999/xlink" x="0px" y="0px"
	 viewBox="0 0 300 192" style="enable-background:new 0 0 300 192;" xml:space="preserve">
<style type="text/css">
	.st0{fill:#A9AAAB;}
	.st1{fill:#FFFFFF;}
	.st2{clip-path:url(#SVGID_2_);}
	.st3{opacity:0.15;fill:#241916;enable-background:new    ;}
	.st4{fill:#ED6E15;}
	.st5{fill:#231815;}
	.st6{fill:#A84317;}
</style>
<title>fullDog</title>
<g>
	<g id="Layer_1_1_">
		<ellipse class="st0" cx="140.4" cy="179.8" rx="103.6" ry="12.2"/>
		<path class="st0" d="M93.6,102.5c-8.4,8.3-6.7,20.7-10,30.4c-2.4,7-6.2,15.1-7.9,21.9c-1,3.7,1.7,23.3,2.3,25h12.5
			c1.2-2.2,1.4-5-1.3-6.3s-2.6-1.2-2.9-3.7c-0.2-4.3,0.1-8.6,0.9-12.8c0.9-3.6,10.2-11.4,17.6-18.4c9.1-8.5,12.9-17.3,11.7-27.5
			S105.4,91,93.6,102.5z"/>
		<path class="st0" d="M183.6,121c-0.5,17.8,3.4,58.8,4,58.8h12.6c1-1.5,1.7-5.8-1.7-7.1s-1.9-2.9-2.1-4.5s-0.6-20.1,1.5-32.4
			c1.3-8.3,4.9-19.9,4.8-23C202.6,112.1,183.6,121,183.6,121z"/>
		<path class="st1" d="M243.6,49.3c-0.1-1.7-0.7-1.9-1.9-2.1c-5-1.1-9.8-1.7-14.3-2.9c-1.7-0.4-1.1-5.2-5.4-7.7
			c-6.9-3.8-20.1-4.2-24.5-1.2c-8.2,5.6-10,11.4-14.2,19s-8.6,11.2-14.1,14.4c-10.6,6.1-36.8,7.5-42.6,8s-10,0.3-24.2,0.5
			c-4.7,0.1-7.7-1.9-9.3-8.4s-4.9-24.5-0.3-41.2c2.5-9.4-7.3-7.8-10.6,1.2c-5.1,13.5-2.7,33.9,1.8,53.3c2.4,10.4-8.4,22.3-7.2,25.2
			c8.4,21,15,8.4,32.8,13c22.6,5.8,48.8,15.1,74.3,9.3c16.6-3.8,21.2-16,22.6-31.6c0.4-4,2.5-8.5,3.4-12.5
			c3.4-15.4,5.2-17.2,13.8-18.1c3.7-0.4,8.1,0,13.4-1.8S243.9,53.7,243.6,49.3z"/>
		<g>
			<defs>
				<path id="SVGID_1_" d="M243.6,49.3c-0.1-1.7-0.7-1.9-1.9-2.1c-5-1.1-9.8-1.7-14.3-2.9c-1.7-0.4-1.1-5.2-5.4-7.7
					c-6.9-3.8-20.1-4.2-24.5-1.2c-8.2,5.6-10,11.4-14.2,19s-8.6,11.2-14.1,14.4c-10.6,6.1-36.8,7.5-42.6,8s-10,0.3-24.2,0.5
					c-4.7,0.1-7.7-1.9-9.3-8.4s-4.9-24.5-0.3-41.2c2.5-9.4-7.3-7.8-10.6,1.2c-5.1,13.5-2.7,33.9,1.8,53.3
					c2.4,10.4-8.4,22.3-7.2,25.2c8.4,21,15,8.4,32.8,13c22.6,5.8,48.8,15.1,74.3,9.3c16.6-3.8,21.2-16,22.6-31.6
					c0.4-4,2.5-8.5,3.4-12.5c3.4-15.4,5.2-17.2,13.8-18.1c3.7-0.4,8.1,0,13.4-1.8S243.9,53.7,243.6,49.3z"/>
			</defs>
			<clipPath id="SVGID_2_">
				<use xlink:href="#SVGID_1_"  style="overflow:visible;"/>
			</clipPath>
			<g class="st2">
				<path class="st3" d="M114.5,112.1l24,24l-44.3-3.5L114.5,112.1z M172.3,121.5l10.8,16.3l20.4-14.7l-14.9-14.9L172.3,121.5z"/>
			</g>
		</g>
		<path class="st1" d="M110.5,86.9c-1.7-1.4-22.7-13.8-25.5-2.1s-7.4,10.9-10.5,23.8c-1.3,5.8-1.9,14.8-4.7,23.1s-11.6,16.3-12.3,22
			c-1,7.2-1.8,23.9-0.3,26.1h13.7c1.1-2.1,1.5-4.8-0.9-6.1s-2.4-2.3-2.4-4.6s1-9.5,3.2-12.6c3.9-5.3,18.9-16,22.5-20.5
			c7.6-9.7,12.7-16.2,20.1-17.5c10.5-1.9,15-0.8,22.1-0.1S117.5,92.4,110.5,86.9z"/>
		<path class="st1" d="M165.5,111.5c0.6,4.6,2.7,8.1,2.8,13.8c0.5,13.9,1.9,31,2.6,45.1c0.3,5.3,1,9.4,1.5,9.4h12.4
			c1.2-2.1,1.7-5.4-1.3-6.7s-2.6-1.7-2.8-3.3s0.8-13.5,4.4-31c2.1-10.1,12.9-14.9,13.6-27.7c1.1-20.9-9.1-28.7-12.6-29.7
			s-8.7-1.8-11.8,0.9S163.7,99.4,165.5,111.5z"/>
		<path class="st4" d="M184.5,71c-4.2-2.7-8.6-4.2-14-0.6c-1.3,0.9-3.4,1.7-4.8,2.5c-10.5,6.1-33.4,5.2-39.3,5.8s-11-0.5-24-1.4
			c-4.7-0.3-7.6-2-9.2-8.5c-0.6-2.4-1.3-5.5-1.9-9.2c0-0.3-0.2-0.4-0.6-0.2c-1.3,1-2.8,1.7-4.4,2.2c-2,0.3-4.1,0-5.9-1
			c-0.2-0.2-0.4-0.2-0.3,0.3C81,68,82.2,75,83.8,82c0.7,3.2,0.2,6.5-1.4,9.3c-1.5,3.1-3.3,5.2-5.1,8.8c-1,2-1.7,4.1-2.2,6.3
			c-0.9,6.5,8,20.3,14.2,22.9c3.4,1.5,5.8,1.8,7.5,1.3c0.8-0.1,1.4-0.5,1.8-1.2c3.2-3.7,5.5-6.4,8.6-8.3s11.3-3.9,18.3-2.8
			c13.2,2.1,26.9,5.8,31.5,6.7c2.8,0.5,6.4,2.6,8.8,4.3c0.6,0.4,2.2,1,2.8,1.9s0.7,3.1,1.8,5.2c2.5,4.9,12.6,8.6,13.9,6.4
			c0.2-0.4,0.7-3,1-4.2c1.2-5.3,5.9-10.9,8.1-13.8c3.9-5.1,5.2-10.4,5.9-15.4c1-8.2,0.8-16.4-0.8-24.5
			C197.4,78.6,188.4,73.6,184.5,71z"/>
		<path class="st4" d="M222,36.5c-6.9-3.8-19.1-4.4-24.6-1.1c-8.5,5.2-10.1,11.4-14.2,19c-0.7,1.3-0.3,1.7,0.7,2.5
			c2.6,2.2,5.5,4,8.6,5.3c4.4,1.8,7.3,13.9,25.5,5c5-2.4,1.8-10.3,3.4-12.8s3-3.2,3.4-5.9c0.4-3.2,0.1-6.5-1-9.6
			C223.5,37.9,222.9,37.1,222,36.5z"/>
		<path class="st5" d="M182,75.4c6.8-7.2-6.9-10-7.5-9.8c-2.4,0.4-3.5,2.2-7.5,3.9c-11.2,4.9-32.8,6.3-38.7,6.7
			c-9.6,0.7-15.3,0.7-24.9,0.9c-2.1,0-5-0.5-6.5-1.6s-0.7-0.2-0.7-0.1c-0.4,2.8,4.5,7.8,9,14.2c3,4.2,5.9,12.9,9.7,17
			c6.7,7.4,19.3,11.2,43.1,12.9c20.5,1.4,10-17.8,12.4-28.2C172.4,82.6,178.3,79.4,182,75.4z"/>
		<path class="st5" d="M221.7,43.8c-0.1,1.2-1.9,2.1-3,2.1c-1.2-0.2-2-1.2-1.9-2.4c0-1.2,0.9-2.1,2.1-2.1l0,0
			C220,41.5,221.7,42.6,221.7,43.8z"/>
		<path class="st6" d="M188.2,55.4c0.7-5,3.4-9.4,7.5-12.4c1.6-1.4,3.4-2.5,5.3-3.5c1.2-0.5,2.7-0.1,3.2,2c0.9,4.1,2.9,8.4,4.6,14.2
			c2.5,8.5,2.3,16,1.1,17.6c-3.1,4-11.6,3-16.1-0.2C190.9,71.1,187.3,62,188.2,55.4z"/>
	</g>
</g>
</svg>
