<?xml version="1.0" encoding="utf-8"?>
<!-- Generator: Adobe Illustrator 22.0.1, SVG Export Plug-In . SVG Version: 6.00 Build 0)  -->
<svg version="1.1" id="Layer_1" xmlns="http://www.w3.org/2000/svg" xmlns:xlink="http://www.w3.org/1999/xlink" x="0px" y="0px"
	 viewBox="0 0 300 192" style="enable-background:new 0 0 300 192;" xml:space="preserve">
<style type="text/css">
	.st0{fill:#A9AAAB;}
	.st1{fill:#FFFFFF;}
	.st2{fill:#7D7D7E;}
	.st3{clip-path:url(#SVGID_2_);}
	.st4{opacity:0.15;fill:#241916;enable-background:new    ;}
	.st5{fill:#231815;}
</style>
<title>fullDog</title>
<g>
	<g id="Layer_1_1_">
		<ellipse class="st0" cx="143.4" cy="179.8" rx="115.5" ry="12.2"/>
		<path class="st1" d="M90.3,63c0.9-4.4,4.4-7.8,8.8-8.6c11-1.8,18.3,16,21.7,25.4s9.3,7.3,14.1-0.8s5.3-21.9,3-30.8
			c-1.1-3.9-2.8-7.6-5.1-11c-9.8-14.4-30.1-23.3-49.7-11.3C69,34.5,65.4,45.7,62.3,56.6c-2.6,9.2-3.5,23.1-7.4,33.2L90.3,63z"/>
		<path class="st2" d="M83.5,119c-2.6,9.2-6.6,27-7,34c-0.2,4.8,2.8,24.9,3.6,27.2h17.4c1.5-2.8,1.7-6.5-1.7-8.1s-4.5-1.6-5-4.7
			s0-7.9,1.1-12.7s12.9-11.3,19.1-22.5c7.7-13.9,7.2-23.2,5.7-36.3C116.7,81.4,90.2,95.2,83.5,119z"/>
		<path class="st2" d="M196.1,92.7c0.8,5.8-24.1,26.5-23.9,33.7c0.4,15.3,14.7,30.2,19.5,38.8c1.3,2.1,7.5,2.9,7.7,5.5
			c0.3,6.8-1.4,9.5-0.6,9.5h15.6c1.5-2.8,2.1-6.9-1.8-8.6s-3.3-2.2-3.5-4.3c-0.9-13.1-0.1-26.3,2.5-39.2c3-14,9.8-23.8,10.7-40.2
			C223.7,61.1,193.9,77.1,196.1,92.7z"/>
		<path class="st1" d="M247.6,19.1c-0.5-3.3-2.3-4.7-3.8-4.5c-4.9,0.4-6.7,1.2-12.9,1.9c-4.4,0.4-4.2-8.6-18.2-9.5h-1.1
			c-0.7,0-1.4-0.1-2.1-0.3L207,6c-2.1-0.9-6.1-5.8-7.9-5.8s-2.4,3-2.2,7.6c0.2,2.2-3.6,6.5-6.4,11.7c-0.4,0.8-0.9,1.5-1.4,2.1
			c-7.8,9.5-9.4,11.7-16.8,21.9s-13.7,11.3-27.5,11.1c-7.1-0.1-27.4-2.5-48.6,2C81.8,59.7,65.6,70,62.7,86.7
			c-4.8,27.6,22.1,22.3,42.6,34.2c25.7,15,38.3,21.2,78.2,20.7c1.3,0,9.5-4.2,10.8-4.3c20.6-0.1,44.1-39.8,43-67.1
			c-0.6-15.9-8.2-25.3-6.7-27.4s4-3,11.7-8C247.7,31.2,248.5,26.3,247.6,19.1z"/>
		<g>
			<defs>
				<path id="SVGID_1_" d="M247.6,19.1c-0.5-3.3-2.3-4.7-3.8-4.5c-4.9,0.4-6.7,1.2-12.9,1.9c-4.4,0.4-4.2-8.6-18.2-9.5h-1.1
					c-0.7,0-1.4-0.1-2.1-0.3L207,6c-2.1-0.9-6.1-5.8-7.9-5.8s-2.4,3-2.2,7.6c0.2,2.2-3.6,6.5-6.4,11.7c-0.4,0.8-0.9,1.5-1.4,2.1
					c-7.8,9.5-9.4,11.7-16.8,21.9s-13.7,11.3-27.5,11.1c-7.1-0.1-27.4-2.5-48.6,2C81.8,59.7,65.6,70,62.7,86.7
					c-4.8,27.6,22.1,22.3,42.6,34.2c25.7,15,38.3,21.2,78.2,20.7c1.3,0,9.5-4.2,10.8-4.3c20.6-0.1,44.1-39.8,43-67.1
					c-0.6-15.9-8.2-25.3-6.7-27.4s4-3,11.7-8C247.7,31.2,248.5,26.3,247.6,19.1z"/>
			</defs>
			<clipPath id="SVGID_2_">
				<use xlink:href="#SVGID_1_"  style="overflow:visible;"/>
			</clipPath>
			<g class="st3">
				<path class="st4" d="M109.1,110.6l30.8,30.8l-56.8-4.5L109.1,110.6z M178.4,129.5l13.9,20.9l18.2-13.6l-19.1-19.1L178.4,129.5z"
					/>
			</g>
		</g>
		<path class="st1" d="M75.5,63.3c-5.3,3.2-9.8,7.4-13.4,12.4c-6.7,9.6-10,18.9-10,31.1s5.8,35.4,4.4,42.6s-1,28.2,0,30.8h18.1
			c1.3-2.7,1.8-6.2-1.2-7.9s-3.1-2.9-3-5.8s0.6-8.3,3.5-12.3c5-6.8,28.8-20.3,37.5-36.4c1.2-2.4,2.7-4.6,4.4-6.7
			C124.1,100.5,82.2,59.1,75.5,63.3z"/>
		<path class="st1" d="M183.5,92.7c0.9,5.8-24.1,26.5-23.8,33.7c0.4,15.3,13.3,32.2,19.5,38.8c4.1,4.4,7.1,3.4,7.4,5.9
			c1,6.7,2.3,9.1,3,9.1h15.7c1.4-2.8,2.1-6.9-1.8-8.6s-3.3-2.2-3.5-4.3c-3.1-13.6-3.5-27.7-1.2-41.5c2.4-14,10.1-21.5,11-37.9
			C211.2,61.1,181.3,77.1,183.5,92.7z"/>
		<path class="st5" d="M224.2,19.2c0.5,1.1-0.6,2.8-1.6,3.3c-1.1,0.5-2.4,0.1-2.9-1c-0.6-1-0.2-2.4,0.8-3
			C221.6,18,223.6,18.1,224.2,19.2z"/>
	</g>
</g>
</svg>
