<svg xmlns="http://www.w3.org/2000/svg" xmlns:xlink="http://www.w3.org/1999/xlink" viewBox="0 0 300 220"><defs><style>.cls-1{fill:#fff;}.cls-2{isolation:isolate;}.cls-3,.cls-4{fill:#a9aaab;}.cls-3,.cls-6{mix-blend-mode:multiply;}.cls-5{clip-path:url(#clip-path);}.cls-6{fill:#241916;opacity:0.15;}.cls-7{fill:#ed6e15;}.cls-8{fill:#231815;}.cls-9{fill:#a84317;}</style><clipPath id="clip-path"><path class="cls-1" d="M243.6,77.3c-.1-1.7-.7-1.9-1.9-2.1-5-1.1-9.8-1.7-14.3-2.9-1.7-.4-1.1-5.2-5.4-7.7-6.9-3.8-20.1-4.2-24.5-1.2-8.2,5.6-10,11.4-14.2,19s-8.6,11.2-14.1,14.4c-10.6,6.1-36.8,7.5-42.6,8s-10,.3-24.2.5c-4.7.1-7.7-1.9-9.3-8.4s-4.9-24.5-.3-41.2c2.5-9.4-7.3-7.8-10.6,1.2-5.1,13.5-2.7,33.9,1.8,53.3,2.4,10.4-8.4,22.3-7.2,25.2,8.4,21,15,8.4,32.8,13,22.6,5.8,48.8,15.1,74.3,9.3,16.6-3.8,21.2-16,22.6-31.6.4-4,2.5-8.5,3.4-12.5,3.4-15.4,5.2-17.2,13.8-18.1,3.7-.4,8.1,0,13.4-1.8S243.9,81.7,243.6,77.3Z"/></clipPath></defs><title>fullDog</title><g class="cls-2"><g id="Layer_1" data-name="Layer 1"><ellipse class="cls-3" cx="140.4" cy="207.8" rx="103.6" ry="12.2"/><path class="cls-4" d="M93.6,130.5c-8.4,8.3-6.7,20.7-10,30.4-2.4,7-6.2,15.1-7.9,21.9-1,3.7,1.7,23.3,2.3,25H90.5c1.2-2.2,1.4-5-1.3-6.3s-2.6-1.2-2.9-3.7a52.2,52.2,0,0,1,.9-12.8c.9-3.6,10.2-11.4,17.6-18.4,9.1-8.5,12.9-17.3,11.7-27.5S105.4,119,93.6,130.5Z"/><path class="cls-4" d="M183.6,149c-.5,17.8,3.4,58.8,4,58.8h12.6c1-1.5,1.7-5.8-1.7-7.1s-1.9-2.9-2.1-4.5-.6-20.1,1.5-32.4c1.3-8.3,4.9-19.9,4.8-23C202.6,140.1,183.6,149,183.6,149Z"/><path class="cls-1" d="M243.6,77.3c-.1-1.7-.7-1.9-1.9-2.1-5-1.1-9.8-1.7-14.3-2.9-1.7-.4-1.1-5.2-5.4-7.7-6.9-3.8-20.1-4.2-24.5-1.2-8.2,5.6-10,11.4-14.2,19s-8.6,11.2-14.1,14.4c-10.6,6.1-36.8,7.5-42.6,8s-10,.3-24.2.5c-4.7.1-7.7-1.9-9.3-8.4s-4.9-24.5-.3-41.2c2.5-9.4-7.3-7.8-10.6,1.2-5.1,13.5-2.7,33.9,1.8,53.3,2.4,10.4-8.4,22.3-7.2,25.2,8.4,21,15,8.4,32.8,13,22.6,5.8,48.8,15.1,74.3,9.3,16.6-3.8,21.2-16,22.6-31.6.4-4,2.5-8.5,3.4-12.5,3.4-15.4,5.2-17.2,13.8-18.1,3.7-.4,8.1,0,13.4-1.8S243.9,81.7,243.6,77.3Z"/><g class="cls-5"><path class="cls-6" d="M114.5,140.1l24,24-44.3-3.5Zm57.8,9.4,10.8,16.3,20.4-14.7-14.9-14.9Z"/></g><path class="cls-1" d="M110.5,114.9c-1.7-1.4-22.7-13.8-25.5-2.1s-7.4,10.9-10.5,23.8c-1.3,5.8-1.9,14.8-4.7,23.1s-11.6,16.3-12.3,22c-1,7.2-1.8,23.9-.3,26.1H70.9c1.1-2.1,1.5-4.8-.9-6.1s-2.4-2.3-2.4-4.6,1-9.5,3.2-12.6c3.9-5.3,18.9-16,22.5-20.5,7.6-9.7,12.7-16.2,20.1-17.5,10.5-1.9,15-.8,22.1-.1S117.5,120.4,110.5,114.9Z"/><path class="cls-1" d="M165.5,139.5c.6,4.6,2.7,8.1,2.8,13.8.5,13.9,1.9,31,2.6,45.1.3,5.3,1,9.4,1.5,9.4h12.4c1.2-2.1,1.7-5.4-1.3-6.7s-2.6-1.7-2.8-3.3.8-13.5,4.4-31c2.1-10.1,12.9-14.9,13.6-27.7,1.1-20.9-9.1-28.7-12.6-29.7s-8.7-1.8-11.8.9S163.7,127.4,165.5,139.5Z"/><path class="cls-7" d="M184.5,99c-4.2-2.7-8.6-4.2-14-.6-1.3.9-3.4,1.7-4.8,2.5-10.5,6.1-33.4,5.2-39.3,5.8s-11-.5-24-1.4c-4.7-.3-7.6-2-9.2-8.5-.6-2.4-1.3-5.5-1.9-9.2,0-.3-.2-.4-.6-.2a15.1,15.1,0,0,1-4.4,2.2,9.4,9.4,0,0,1-5.9-1c-.2-.2-.4-.2-.3.3A203.1,203.1,0,0,0,83.8,110a12.8,12.8,0,0,1-1.4,9.3c-1.5,3.1-3.3,5.2-5.1,8.8a27.9,27.9,0,0,0-2.2,6.3c-.9,6.5,8,20.3,14.2,22.9,3.4,1.5,5.8,1.8,7.5,1.3a2.5,2.5,0,0,0,1.8-1.2c3.2-3.7,5.5-6.4,8.6-8.3s11.3-3.9,18.3-2.8c13.2,2.1,26.9,5.8,31.5,6.7,2.8.5,6.4,2.6,8.8,4.3.6.4,2.2,1,2.8,1.9s.7,3.1,1.8,5.2c2.5,4.9,12.6,8.6,13.9,6.4.2-.4.7-3,1-4.2,1.2-5.3,5.9-10.9,8.1-13.8,3.9-5.1,5.2-10.4,5.9-15.4a76.9,76.9,0,0,0-.8-24.5C197.4,106.6,188.4,101.6,184.5,99Z"/><path class="cls-7" d="M222,64.5c-6.9-3.8-19.1-4.4-24.6-1.1-8.5,5.2-10.1,11.4-14.2,19-.7,1.3-.3,1.7.7,2.5a31.8,31.8,0,0,0,8.6,5.3c4.4,1.8,7.3,13.9,25.5,5,5-2.4,1.8-10.3,3.4-12.8s3-3.2,3.4-5.9a20.9,20.9,0,0,0-1-9.6A4.2,4.2,0,0,0,222,64.5Z"/><path class="cls-8" d="M182,103.4c6.8-7.2-6.9-10-7.5-9.8-2.4.4-3.5,2.2-7.5,3.9-11.2,4.9-32.8,6.3-38.7,6.7-9.6.7-15.3.7-24.9.9-2.1,0-5-.5-6.5-1.6s-.7-.2-.7-.1c-.4,2.8,4.5,7.8,9,14.2,3,4.2,5.9,12.9,9.7,17,6.7,7.4,19.3,11.2,43.1,12.9,20.5,1.4,10-17.8,12.4-28.2C172.4,110.6,178.3,107.4,182,103.4Z"/><path class="cls-8" d="M221.7,71.8c-.1,1.2-1.9,2.1-3,2.1a2.2,2.2,0,0,1-1.9-2.4,2.1,2.1,0,0,1,2.1-2.1C220,69.5,221.7,70.6,221.7,71.8Z"/><path class="cls-9" d="M188.2,83.4A18.7,18.7,0,0,1,195.7,71a26.7,26.7,0,0,1,5.3-3.5c1.2-.5,2.7-.1,3.2,2,.9,4.1,2.9,8.4,4.6,14.2,2.5,8.5,2.3,16,1.1,17.6-3.1,4-11.6,3-16.1-.2C190.9,99.1,187.3,90,188.2,83.4Z"/></g></g></svg>