<?xml version="1.0" encoding="utf-8"?>
<!-- Generator: Adobe Illustrator 22.0.1, SVG Export Plug-In . SVG Version: 6.00 Build 0)  -->
<svg version="1.1" id="Layer_1" xmlns="http://www.w3.org/2000/svg" xmlns:xlink="http://www.w3.org/1999/xlink" x="0px" y="0px"
	 viewBox="0 0 300 192" style="enable-background:new 0 0 300 192;" xml:space="preserve">
<style type="text/css">
	.st0{fill:#A9AAAB;}
	.st1{fill:#FFFFFF;}
	.st2{clip-path:url(#SVGID_2_);}
	.st3{opacity:0.25;fill:#241916;enable-background:new    ;}
	.st4{fill:#4C4949;}
	.st5{fill:#DCDDDD;}
	.st6{fill:#231815;}
</style>
<title>fullDog</title>
<g>
	<g id="Layer_1_1_">
		<ellipse class="st0" cx="143" cy="179.8" rx="110.4" ry="12.2"/>
		<path class="st0" d="M90,99.8c-1.7,3.5-3,1.4-3.4,15.1c-0.6,20.7-24.8,28.2-26.1,38.9c-1.7,13.8,6.7,24.9,18.8,24.9h8.4
			c12.4,0,7.6-4.6,8.5-7.3c3.1-9.6,16.9-14.7,23.1-26.8c5.4-10.5,13.1-28,28-27.1c2.6,0.2-19.6-32.5-26.2-34.6
			C105,77.7,95,89.3,90,99.8z"/>
		<path class="st0" d="M202.7,124.2c-3.3,11.6-5,23.7-4.9,35.8c0,4.4-0.1,8.8,0,11.5s2,4.6,1.7,6s-1.5,2.7-4.5,2.7h-12.1
			c-5.4,0-8.5-5.6-9.2-8.5c-1.9-8.5-3.2-17.1-4.1-25.8c-1.4-15.4-1-24.4,0.4-27.8s11.2-16,17.6-11.4s13.7,6.8,14.7,10.5
			S203.7,121,202.7,124.2z"/>
		<path class="st1" d="M252.1,66.4c0.9-2.5,2.2-4.8,0.2-6.2c-4.1-2.7-7.7-5.9-10.8-9.7c0.6-1,2.9,0.2,1-2.2c-0.7-0.9-1-0.6-3.4-2.4
			c-5-4.1-10.2-7.8-15.8-11c-6.3-3.3-13.6-4.8-21-0.2s-10.3,9.9-16.4,16.8s-14,14.8-22.7,18.1c-17.3,6.7-46.2,8.8-58.8,10.7
			c-5.7,0.8-7.2-5.4-10.8-4.5c-1.2,0.3-2.1,1.7-2.6,2.9s1.6,4.8,2.5,7.5c0.2,0.5,0.7,2.7-1.7,6.1c-6.3,8.7-0.5,18,20.4,20.7
			c3.8,0.5-3.4,4.5,5.7,9.4c18.6,9.8,43.5,14.9,58.8,16.8c2.5,0.3,4.1,3.9,5.6,3.9c24.4-1,25.3-33.4,24.8-48.5
			c-0.3-8.3,4.3-25.9,7.4-26.6c6.6-1.2,5,8.1,5.5,9.9c1.8,6,7.7,11.4,8.6,12.7s8.8-3.2,11.2-4.1C246.4,84.1,249.5,73.8,252.1,66.4z"
			/>
		<g>
			<defs>
				<path id="SVGID_1_" d="M252.1,66.4c0.9-2.5,2.2-4.8,0.2-6.2c-4.1-2.7-7.7-5.9-10.8-9.7c0.6-1,2.9,0.2,1-2.2
					c-0.7-0.9-1-0.6-3.4-2.4c-5-4.1-10.2-7.8-15.8-11c-6.3-3.3-13.6-4.8-21-0.2s-10.3,9.9-16.4,16.8s-14,14.8-22.7,18.1
					c-17.3,6.7-46.2,8.8-58.8,10.7c-5.7,0.8-7.2-5.4-10.8-4.5c-1.2,0.3-2.1,1.7-2.6,2.9s1.6,4.8,2.5,7.5c0.2,0.5,0.7,2.7-1.7,6.1
					c-6.3,8.7-0.5,18,20.4,20.7c3.8,0.5-3.4,4.5,5.7,9.4c18.6,9.8,43.5,14.9,58.8,16.8c2.5,0.3,4.1,3.9,5.6,3.9
					c24.4-1,25.3-33.4,24.8-48.5c-0.3-8.3,4.3-25.9,7.4-26.6c6.6-1.2,5,8.1,5.5,9.9c1.8,6,7.7,11.4,8.6,12.7s8.8-3.2,11.2-4.1
					C246.4,84.1,249.5,73.8,252.1,66.4z"/>
			</defs>
			<clipPath id="SVGID_2_">
				<use xlink:href="#SVGID_1_"  style="overflow:visible;"/>
			</clipPath>
			<g class="st2">
				<polygon class="st3" points="129,122.1 146.4,139.5 111,136.8 116.3,121.3 				"/>
				<polygon class="st3" points="192.7,145.2 195.4,126.3 206.8,137.8 				"/>
			</g>
		</g>
		<path class="st1" d="M200.8,126.7c-5.5,6.8-8,21.2-9,33.3c-0.3,4.4-0.8,8.8-0.9,11.5s2.1,4.4,1.7,5.8s-2.2,2.9-5.2,2.9h-12.1
			c-5.3,0-8-5.6-8.5-8.5c-1.2-8.5-1.9-17.2-2.1-25.8c-0.3-15.4,0.7-24.4,2.4-27.8s12.5-16,18.5-11.4s13.2,6.8,13.9,10.5
			S203,124.1,200.8,126.7z"/>
		<path class="st1" d="M87.6,95.6c-2.4,3.4-2.8,7.1-5.9,20.8c-4.6,20.7-30.3,28.2-33.7,38.9c-4.3,13.8,1.9,24.9,14,24.9h8.5
			c12.3,0,8.5-4.6,9.8-7.3c5.1-9.7,19.8-14.7,28.4-26.8c7.4-10.5,18.5-28,33.2-27.1c2.6,0.2-13.3-32.5-19.5-34.6
			C107.3,79.2,94.7,85,87.6,95.6z"/>
		<path class="st4" d="M252.3,60.2c-4.1-2.7-7.7-5.9-10.8-9.7c0.6-1,4,0.9,2.1-1.5c-1.1-1.5-2.5-2.6-4.2-3.3
			c-3.4-1.7-10-8.2-16-11.4l-2.4-1.1c-1-0.4-1.3-0.8-1.2-2.1c0-3-0.2-6.1,0-7.5s-1.3-2.3-2.7-0.5c-2.7,2.9-5.5,5.6-8.5,8.2
			c-0.9,0.7-1.8,1.3-2.9,1.7c-1.2,0.4-2.3,1-3.4,1.7c-6.1,3.7-10.3,9.9-16.4,16.8s-14,14.8-22.7,18.1c-17.3,6.7-46.2,8.8-58.8,10.7
			c-5.7,0.8-7.2-5.4-10.8-4.5c-1.2,0.3-2.1,1.7-2.6,2.9s1.6,4.8,2.5,7.5s-0.5,2.8-2,4.1c-1.7,1.4-3.1,3-4.2,4.8
			c-2.5,4.3-3.1,9.9-5.8,21.6c-2,8.5-8.9,21-5.6,27.6c1.7,3.3,10.3,4.9,18.3-2.7s14.5-16.5,22.1-20.3s16.9,1.7,23.3,3
			c11.9,2.3,21.2,1.5,24.4-1.2s3.3,5.8,3.9,8.9c1.5,8,8.1,5.1,18.8-1.1c7.1-4.2,14-17.4,15.2-20.8c2.9-8.5,4.7-28.2,4.9-37.5
			s0.1-20.4,5.9-23.9s12,6.2,13.2,12.9c0.8,4.5,1.8,8.1,5.6,8.4s7.6-2.3,10.4-1.3c4.4,1.5,8.6,2.3,10.2-2.3
			C253,63.9,254.3,61.6,252.3,60.2z"/>
		<path class="st5" d="M217.6,35.5c0.9-3,1.2-6.2,0.8-9.4c-0.1-1.5-1.2-0.8-2.8,1.1s-5.3,6.3-5.4,7.8
			C210.1,36.5,216.9,37.4,217.6,35.5z"/>
		<path class="st6" d="M237.5,52.4c0.2,1.4-1.7,2.8-3,2.9c-1.4,0.1-2.6-0.9-2.7-2.3c0,0,0,0,0,0c-0.1-1.4,0.8-2.6,2.1-2.9
			C235.2,50,237.4,51,237.5,52.4z"/>
	</g>
</g>
</svg>
