<svg xmlns="http://www.w3.org/2000/svg" xmlns:xlink="http://www.w3.org/1999/xlink" viewBox="0 0 300 220"><defs><style>.cls-1{fill:#fff;}.cls-2{isolation:isolate;}.cls-3,.cls-4{fill:#a9aaab;}.cls-3,.cls-6{mix-blend-mode:multiply;}.cls-5{clip-path:url(#clip-path);}.cls-6{fill:#241916;opacity:0.25;}.cls-7{fill:#4c4949;}.cls-8{fill:#dcdddd;}.cls-9{fill:#231815;}</style><clipPath id="clip-path"><path class="cls-1" d="M252.1,94.4c.9-2.5,2.2-4.8.2-6.2a48.8,48.8,0,0,1-10.8-9.7c.6-1,2.9.2,1-2.2-.7-.9-1-.6-3.4-2.4a118.9,118.9,0,0,0-15.8-11c-6.3-3.3-13.6-4.8-21-.2S192,72.6,185.9,79.5s-14,14.8-22.7,18.1c-17.3,6.7-46.2,8.8-58.8,10.7-5.7.8-7.2-5.4-10.8-4.5-1.2.3-2.1,1.7-2.6,2.9s1.6,4.8,2.5,7.5c.2.5.7,2.7-1.7,6.1-6.3,8.7-.5,18,20.4,20.7,3.8.5-3.4,4.5,5.7,9.4,18.6,9.8,43.5,14.9,58.8,16.8,2.5.3,4.1,3.9,5.6,3.9,24.4-1,25.3-33.4,24.8-48.5-.3-8.3,4.3-25.9,7.4-26.6,6.6-1.2,5,8.1,5.5,9.9,1.8,6,7.7,11.4,8.6,12.7s8.8-3.2,11.2-4.1C246.4,112.1,249.5,101.8,252.1,94.4Z"/></clipPath></defs><title>fullDog</title><g class="cls-2"><g id="Layer_1" data-name="Layer 1"><ellipse class="cls-3" cx="143" cy="207.8" rx="110.4" ry="12.2"/><path class="cls-4" d="M90,127.8c-1.7,3.5-3,1.4-3.4,15.1-.6,20.7-24.8,28.2-26.1,38.9-1.7,13.8,6.7,24.9,18.8,24.9h8.4c12.4,0,7.6-4.6,8.5-7.3,3.1-9.6,16.9-14.7,23.1-26.8,5.4-10.5,13.1-28,28-27.1,2.6.2-19.6-32.5-26.2-34.6C105,105.7,95,117.3,90,127.8Z"/><path class="cls-4" d="M202.7,152.2a127.8,127.8,0,0,0-4.9,35.8c0,4.4-.1,8.8,0,11.5s2,4.6,1.7,6-1.5,2.7-4.5,2.7H182.9c-5.4,0-8.5-5.6-9.2-8.5a225.8,225.8,0,0,1-4.1-25.8c-1.4-15.4-1-24.4.4-27.8s11.2-16,17.6-11.4,13.7,6.8,14.7,10.5S203.7,149,202.7,152.2Z"/><path class="cls-1" d="M252.1,94.4c.9-2.5,2.2-4.8.2-6.2a48.8,48.8,0,0,1-10.8-9.7c.6-1,2.9.2,1-2.2-.7-.9-1-.6-3.4-2.4a118.9,118.9,0,0,0-15.8-11c-6.3-3.3-13.6-4.8-21-.2S192,72.6,185.9,79.5s-14,14.8-22.7,18.1c-17.3,6.7-46.2,8.8-58.8,10.7-5.7.8-7.2-5.4-10.8-4.5-1.2.3-2.1,1.7-2.6,2.9s1.6,4.8,2.5,7.5c.2.5.7,2.7-1.7,6.1-6.3,8.7-.5,18,20.4,20.7,3.8.5-3.4,4.5,5.7,9.4,18.6,9.8,43.5,14.9,58.8,16.8,2.5.3,4.1,3.9,5.6,3.9,24.4-1,25.3-33.4,24.8-48.5-.3-8.3,4.3-25.9,7.4-26.6,6.6-1.2,5,8.1,5.5,9.9,1.8,6,7.7,11.4,8.6,12.7s8.8-3.2,11.2-4.1C246.4,112.1,249.5,101.8,252.1,94.4Z"/><g class="cls-5"><polygon class="cls-6" points="129 150.1 146.4 167.5 111 164.8 116.3 149.3 129 150.1"/><polygon class="cls-6" points="192.7 173.2 195.4 154.3 206.8 165.8 192.7 173.2"/></g><path class="cls-1" d="M200.8,154.7c-5.5,6.8-8,21.2-9,33.3-.3,4.4-.8,8.8-.9,11.5s2.1,4.4,1.7,5.8-2.2,2.9-5.2,2.9H175.3c-5.3,0-8-5.6-8.5-8.5a211.7,211.7,0,0,1-2.1-25.8c-.3-15.4.7-24.4,2.4-27.8s12.5-16,18.5-11.4,13.2,6.8,13.9,10.5S203,152.1,200.8,154.7Z"/><path class="cls-1" d="M87.6,123.6c-2.4,3.4-2.8,7.1-5.9,20.8-4.6,20.7-30.3,28.2-33.7,38.9-4.3,13.8,1.9,24.9,14,24.9h8.5c12.3,0,8.5-4.6,9.8-7.3,5.1-9.7,19.8-14.7,28.4-26.8,7.4-10.5,18.5-28,33.2-27.1,2.6.2-13.3-32.5-19.5-34.6C107.3,107.2,94.7,113,87.6,123.6Z"/><path class="cls-7" d="M252.3,88.2a48.8,48.8,0,0,1-10.8-9.7c.6-1,4,.9,2.1-1.5a9.8,9.8,0,0,0-4.2-3.3c-3.4-1.7-10-8.2-16-11.4L221,61.2c-1-.4-1.3-.8-1.2-2.1,0-3-.2-6.1,0-7.5s-1.3-2.3-2.7-.5a100.7,100.7,0,0,1-8.5,8.2,9.6,9.6,0,0,1-2.9,1.7,18,18,0,0,0-3.4,1.7c-6.1,3.7-10.3,9.9-16.4,16.8s-14,14.8-22.7,18.1c-17.3,6.7-46.2,8.8-58.8,10.7-5.7.8-7.2-5.4-10.8-4.5-1.2.3-2.1,1.7-2.6,2.9s1.6,4.8,2.5,7.5-.5,2.8-2,4.1a19.6,19.6,0,0,0-4.2,4.8c-2.5,4.3-3.1,9.9-5.8,21.6-2,8.5-8.9,21-5.6,27.6,1.7,3.3,10.3,4.9,18.3-2.7s14.5-16.5,22.1-20.3,16.9,1.7,23.3,3c11.9,2.3,21.2,1.5,24.4-1.2s3.3,5.8,3.9,8.9c1.5,8,8.1,5.1,18.8-1.1,7.1-4.2,14-17.4,15.2-20.8,2.9-8.5,4.7-28.2,4.9-37.5s.1-20.4,5.9-23.9,12,6.2,13.2,12.9c.8,4.5,1.8,8.1,5.6,8.4s7.6-2.3,10.4-1.3c4.4,1.5,8.6,2.3,10.2-2.3C253,91.9,254.3,89.6,252.3,88.2Z"/><path class="cls-8" d="M217.6,63.5a23.7,23.7,0,0,0,.8-9.4c-.1-1.5-1.2-.8-2.8,1.1s-5.3,6.3-5.4,7.8S216.9,65.4,217.6,63.5Z"/><path class="cls-9" d="M237.5,80.4c.2,1.4-1.7,2.8-3,2.9a2.5,2.5,0,0,1-2.7-2.3,2.7,2.7,0,0,1,2.1-2.9C235.2,78,237.4,79,237.5,80.4Z"/></g></g></svg>