<svg xmlns="http://www.w3.org/2000/svg" xmlns:xlink="http://www.w3.org/1999/xlink" viewBox="0 0 300 220"><defs><style>.cls-1{fill:#f7a70e;}.cls-2{isolation:isolate;}.cls-3{fill:#a9aaab;}.cls-3,.cls-5,.cls-8{mix-blend-mode:multiply;}.cls-4{clip-path:url(#clip-path);}.cls-5,.cls-8{fill:#241916;}.cls-5{opacity:0.5;}.cls-6{clip-path:url(#clip-path-2);}.cls-7{clip-path:url(#clip-path-3);}.cls-8{opacity:0.15;}.cls-10,.cls-9{fill:#231815;}.cls-10{opacity:0.2;}</style><clipPath id="clip-path"><path class="cls-1" d="M114.4,115c-10.1,9.9-4.6,30.4-9.6,39.9-4.2,7.9-7.7,12.4-9.3,20.7s-1.9,30.1-.3,32.2h17.7c1.4-2.6,1.6-6.1-1.5-7.6s-4.3-2.1-4.3-5.1,2.9-12.6,5-16.6,6.4-7.9,11.9-13.4c0,.5.3,1,1.6.1s2.4-2.9,3.3-3,.9,1.4,2.1-.5,2.7-4,3.1-3.8.1,1.4,1.2.3,2.3-4.5,2.9-4.5.9,1.4,1.6.3.8-4.3,1.4-4.4.9,1.8,1.6.9a13.4,13.4,0,0,0,3.1-8.3C150.4,146.8,128.5,101.2,114.4,115Z"/></clipPath><clipPath id="clip-path-2"><path class="cls-1" d="M215.3,146.4c-.3,3.7-1.6,22.3-.3,23.3s2.7-2.9,3.4-1.8-2.3,8.2-1.3,10.8,2.2.3,2.7,1.7.8,3.9,1.2,5.8c1.2,4.8,2.3,3.9,2.7,4.6s.5,5.4.6,6.3c.5,5.9,1.2,10.7,1.9,10.7h16.6c2.2-3.1,1.6-7.4-2.5-8.8s-3.3-2.7-3.5-4.6.7-21.7,2-40.6a39.2,39.2,0,0,1,.6-5.5c.1-.3.4-1,.7-.9s.9-1.9,1-2.7.3-1.8.9-1.5,1-2.2,1.3-3.7S215.3,146.4,215.3,146.4Z"/></clipPath><clipPath id="clip-path-3"><path class="cls-1" d="M295.7,51.6c-3.7-2.8-14.5-6.4-19-9.5-1.7-1.1-1.8-5.2-4.7-7.6a27.2,27.2,0,0,0-10-5.1c-3-.9-8.4-1.3-10-1.5-6-.6-12.3,1.9-17,6.8l-8.8,10.7c-6.3,8.4-11.3,17.1-17.8,21.2-12.8,8.1-20.6,8.9-43,10.6-6.6.5-31.5-.4-48.4,2.1-6.2,1-15.1,3-29.6,11.4-19,11.1-38.8,15.9-60.1,18.6-10.6,1.3-16.6,3.6-20.5,5.7-2.2,1.1-3.7,2.6-3.4,3.1s4.7-.7,5-.2-.3,1.2-.9,2.1-.4,2.5,1.3,2.2,2.1-.7,2.4,0a2.8,2.8,0,0,1-.3,1.8c-.5,1.1,0,1.4,1.4,1s2-.3,2.4.3.2,1.8-.1,2.7.6,2,1.4,1.1,2.5-2.3,2.9-2,.3,3.3.4,4.8,1.5,1.6,1.9.4,1.3-2.7,1.7-2.6,0,4.8,1.1,5.7,2.6-3.5,3.9-4.1-.2,5.3,2,5.8,2.3-5,4.4-5.5,1.3,5.1,2.4,6.6,2.7-5.2,4.2-5.7,1.3,6,2.9,7.1,2.5-7.1,4.3-6.9,2.3,7.8,4.4,8.3.3-7.9,2.4-8.3,4,7.2,6.6,7-.6-7.7,2.2-8.4,4,5.8,6.6,5.4.1-6.9,1.3-7.2,2.9,3.2,4.8,3.5.5-5.7,1.8-6.2,3.3,1.2,4,3.5,1.8-4.2,2.5-5.5l11.4-2c8-1.5,24.5,10.8,37.1,15l1.5.6c.4,2.1.7,7.8,3.3,9.3s3.2,1.3,4,1,1.1-1.1,2.1-1.1,2.2,1.7,3.7,3.2,3,2.1,2.7.2.9-1.8,1.8-.7a26.4,26.4,0,0,0,6.3,5.2c2.1,1.1,1.5-.9,2.3-1.8s4.6,2.7,6.1,4.2,3.2,2.1,2.9.4-.1-2.1,1-2.2,3.5,1.7,5,3.3,3,1.7,2.5-.2.4-2.7,1.6-1.5a39.6,39.6,0,0,1,3.2,4c.7.8,2.3,1.4,2.1,0s-.3-2,.5-2.2,1.5.9,3.3,2.5,3.1-1.1,3.8,1.5,3,4.3,3.2,6.2-.2,4.1.1,6.6.6,2.6,2.4,1.6,1.6.2,1.6,1.9-.4,8.2-.2,9.8.9,2.7,2.6,1.9,1.6.3,1.9,1.7a15.9,15.9,0,0,0,.8,4.3c1,2.6,3.7-.9,4.2.5s-1,2.5.4,3.9,2.8-2.4,3.5-3.8,6.9-42.8,11.3-44.9c.3,1.1.4,2.9,1.5,2.3s4.1-5.4,4.9-5.1-.2,3.5.9,2.8,2.5-3.9,3.2-4.3.4,2.9,1,2.6,2.4-5.5,3.1-6.1.9,2.8,1.9,1.8,2.8-6.4,3.4-7,1.7.9,2.2-.1,1.8-5.5,2.2-6,1.5,1,2,.2.5-5.6.9-6.3,1.7,1.1,2.1.1-.5-3.8,0-4.3,1.6,1.3,2.1-.9a57,57,0,0,0,.8-8c0-1.2-.2-4.8.9-4.2s.2-5.1.2-10c0-2.4,0-5.3.8-5.3s1.3-.9,1-3.6c-.1-1-.6-6.9.2-6.3s1.2.1,1.1-1.2c-.2-3.1,0-6.8,1.1-8.9s4.1-5.2,6.7-5.8c4.2-.9,8.8-.4,16.9-1.9,6-1,9.1-9,10.4-12.5C296.8,53.5,296.8,52.4,295.7,51.6Z"/></clipPath></defs><title>fullDog</title><g class="cls-2"><g id="Layer_1" data-name="Layer 1"><ellipse class="cls-3" cx="152.2" cy="207.8" rx="144.8" ry="12.2"/><path class="cls-1" d="M114.4,115c-10.1,9.9-4.6,30.4-9.6,39.9-4.2,7.9-7.7,12.4-9.3,20.7s-1.9,30.1-.3,32.2h17.7c1.4-2.6,1.6-6.1-1.5-7.6s-4.3-2.1-4.3-5.1,2.9-12.6,5-16.6,6.4-7.9,11.9-13.4c0,.5.3,1,1.6.1s2.4-2.9,3.3-3,.9,1.4,2.1-.5,2.7-4,3.1-3.8.1,1.4,1.2.3,2.3-4.5,2.9-4.5.9,1.4,1.6.3.8-4.3,1.4-4.4.9,1.8,1.6.9a13.4,13.4,0,0,0,3.1-8.3C150.4,146.8,128.5,101.2,114.4,115Z"/><g class="cls-4"><polygon class="cls-5" points="100.2 127.2 89.7 210.4 121.8 208.6 156.3 127.8 100.2 127.2"/></g><path class="cls-1" d="M215.3,146.4c-.3,3.7-1.6,22.3-.3,23.3s2.7-2.9,3.4-1.8-2.3,8.2-1.3,10.8,2.2.3,2.7,1.7.8,3.9,1.2,5.8c1.2,4.8,2.3,3.9,2.7,4.6s.5,5.4.6,6.3c.5,5.9,1.2,10.7,1.9,10.7h16.6c2.2-3.1,1.6-7.4-2.5-8.8s-3.3-2.7-3.5-4.6.7-21.7,2-40.6a39.2,39.2,0,0,1,.6-5.5c.1-.3.4-1,.7-.9s.9-1.9,1-2.7.3-1.8.9-1.5,1-2.2,1.3-3.7S215.3,146.4,215.3,146.4Z"/><g class="cls-6"><polygon class="cls-5" points="190.2 129.1 221 211.1 250.6 209.8 251.2 97 190.2 129.1"/></g><path class="cls-1" d="M295.7,51.6c-3.7-2.8-14.5-6.4-19-9.5-1.7-1.1-1.8-5.2-4.7-7.6a27.2,27.2,0,0,0-10-5.1c-3-.9-8.4-1.3-10-1.5-6-.6-12.3,1.9-17,6.8l-8.8,10.7c-6.3,8.4-11.3,17.1-17.8,21.2-12.8,8.1-20.6,8.9-43,10.6-6.6.5-31.5-.4-48.4,2.1-6.2,1-15.1,3-29.6,11.4-19,11.1-38.8,15.9-60.1,18.6-10.6,1.3-16.6,3.6-20.5,5.7-2.2,1.1-3.7,2.6-3.4,3.1s4.7-.7,5-.2-.3,1.2-.9,2.1-.4,2.5,1.3,2.2,2.1-.7,2.4,0a2.8,2.8,0,0,1-.3,1.8c-.5,1.1,0,1.4,1.4,1s2-.3,2.4.3.2,1.8-.1,2.7.6,2,1.4,1.1,2.5-2.3,2.9-2,.3,3.3.4,4.8,1.5,1.6,1.9.4,1.3-2.7,1.7-2.6,0,4.8,1.1,5.7,2.6-3.5,3.9-4.1-.2,5.3,2,5.8,2.3-5,4.4-5.5,1.3,5.1,2.4,6.6,2.7-5.2,4.2-5.7,1.3,6,2.9,7.1,2.5-7.1,4.3-6.9,2.3,7.8,4.4,8.3.3-7.9,2.4-8.3,4,7.2,6.6,7-.6-7.7,2.2-8.4,4,5.8,6.6,5.4.1-6.9,1.3-7.2,2.9,3.2,4.8,3.5.5-5.7,1.8-6.2,3.3,1.2,4,3.5,1.8-4.2,2.5-5.5l11.4-2c8-1.5,24.5,10.8,37.1,15l1.5.6c.4,2.1.7,7.8,3.3,9.3s3.2,1.3,4,1,1.1-1.1,2.1-1.1,2.2,1.7,3.7,3.2,3,2.1,2.7.2.9-1.8,1.8-.7a26.4,26.4,0,0,0,6.3,5.2c2.1,1.1,1.5-.9,2.3-1.8s4.6,2.7,6.1,4.2,3.2,2.1,2.9.4-.1-2.1,1-2.2,3.5,1.7,5,3.3,3,1.7,2.5-.2.4-2.7,1.6-1.5a39.6,39.6,0,0,1,3.2,4c.7.8,2.3,1.4,2.1,0s-.3-2,.5-2.2,1.5.9,3.3,2.5,3.1-1.1,3.8,1.5,3,4.3,3.2,6.2-.2,4.1.1,6.6.6,2.6,2.4,1.6,1.6.2,1.6,1.9-.4,8.2-.2,9.8.9,2.7,2.6,1.9,1.6.3,1.9,1.7a15.9,15.9,0,0,0,.8,4.3c1,2.6,3.7-.9,4.2.5s-1,2.5.4,3.9,2.8-2.4,3.5-3.8,6.9-42.8,11.3-44.9c.3,1.1.4,2.9,1.5,2.3s4.1-5.4,4.9-5.1-.2,3.5.9,2.8,2.5-3.9,3.2-4.3.4,2.9,1,2.6,2.4-5.5,3.1-6.1.9,2.8,1.9,1.8,2.8-6.4,3.4-7,1.7.9,2.2-.1,1.8-5.5,2.2-6,1.5,1,2,.2.5-5.6.9-6.3,1.7,1.1,2.1.1-.5-3.8,0-4.3,1.6,1.3,2.1-.9a57,57,0,0,0,.8-8c0-1.2-.2-4.8.9-4.2s.2-5.1.2-10c0-2.4,0-5.3.8-5.3s1.3-.9,1-3.6c-.1-1-.6-6.9.2-6.3s1.2.1,1.1-1.2c-.2-3.1,0-6.8,1.1-8.9s4.1-5.2,6.7-5.8c4.2-.9,8.8-.4,16.9-1.9,6-1,9.1-9,10.4-12.5C296.8,53.5,296.8,52.4,295.7,51.6Z"/><g class="cls-7"><path class="cls-8" d="M144,135.9l28.8,28.8-53.2-4.1Zm65.8,5.2,13,19.5,17-12.7L221.9,130Z"/></g><path class="cls-9" d="M271.2,41.9c0,1.2-1.9,2.2-3.2,2.2a2.2,2.2,0,1,1,0-4.4C269.3,39.7,271.2,40.7,271.2,41.9Z"/><path class="cls-10" d="M235,43.2c1.8-4,8.9-9.3,15.6-10.2,3.5-.5,5.4,1.2,5,3-2.5,11.6,4.2,30.3,0,32.1-7.8,3.4-17.9-5.7-20.6-13A16.8,16.8,0,0,1,235,43.2Z"/><path class="cls-1" d="M129.9,96.2c-2-1.6-25.5-5.5-36.9,3.4-7.2,5.6-11.7,23.8-11.7,23.8.4,2.2-.7,5.8-1.1,7.2s-.2,2.4.8,2.3.2.8-.1,1.9-1,2.1-.5,1.9-1,2.1-1,3.2,0,.9.4,1a69.3,69.3,0,0,1-2.5,11.4c-3.2,8.3-11.5,16.3-12.2,24s-.9,28.9.9,31.5H83.1c1.3-2.5,1.7-5.1-1.2-6.7s-3.4-3.4-3.4-6.1,1.1-11.7,3.8-15.4c4.7-6.3,17.3-6.8,27.2-16.1,1.3.7,2.9.2,4.6-2.5s3-2.7,2.9-.3,2.3.1,4.3-3.7c.6-1.1,1.7-1.2,1.7,0s.9,1.5,2.2.3a10.1,10.1,0,0,0,1.7-1.9c1-1.4,2.2-1.7,2.3-.5s1.5.7,2.4-1.7.9-3.3,1.8-3.2,1.3,2,2.3,2.1,2.8-4.8,3.7-6.7,3.7-2.9,6.5-3.2C160.4,140.7,141.8,105.6,129.9,96.2Z"/><path class="cls-1" d="M202.6,124.9c.8,5.5,2.5,10.9,2.3,17.7-.5,15.9-1,37-.1,53.9.3,6.3,1.1,11.3,1.8,11.3h15.9c1.3-2.6,2-6.8-1.7-8.4s-3.1-1.7-3.3-3.6.6-18,5-39c2-9.3,11.5-17.1,12.3-32.5,1.3-25.1-8.3-33.4-12.6-34.7s-10.4-2.2-14,1.1S200.6,110.3,202.6,124.9Z"/></g></g></svg>