<svg xmlns="http://www.w3.org/2000/svg" xmlns:xlink="http://www.w3.org/1999/xlink" viewBox="0 0 300 220"><defs><style>.cls-1{fill:#fff;}.cls-2{isolation:isolate;}.cls-3{fill:#a9aaab;}.cls-3,.cls-6{mix-blend-mode:multiply;}.cls-4{fill:#7d7d7e;}.cls-5{clip-path:url(#clip-path);}.cls-6{fill:#241916;opacity:0.15;}.cls-7{fill:#231815;}</style><clipPath id="clip-path"><path class="cls-1" d="M247.6,47.1c-.5-3.3-2.3-4.7-3.8-4.5-4.9.4-6.7,1.2-12.9,1.9-4.4.4-4.2-8.6-18.2-9.5h-1.1a8.2,8.2,0,0,1-2.1-.3L207,34c-2.1-.9-6.1-5.8-7.9-5.8s-2.4,3-2.2,7.6c.2,2.2-3.6,6.5-6.4,11.7a11,11,0,0,1-1.4,2.1c-7.8,9.5-9.4,11.7-16.8,21.9s-13.7,11.3-27.5,11.1c-7.1-.1-27.4-2.5-48.6,2C81.8,87.7,65.6,98,62.7,114.7c-4.8,27.6,22.1,22.3,42.6,34.2,25.7,15,38.3,21.2,78.2,20.7,1.3,0,9.5-4.2,10.8-4.3,20.6-.1,44.1-39.8,43-67.1-.6-15.9-8.2-25.3-6.7-27.4s4-3,11.7-8C247.7,59.2,248.5,54.3,247.6,47.1Z"/></clipPath></defs><title>fullDog</title><g class="cls-2"><g id="Layer_1" data-name="Layer 1"><ellipse class="cls-3" cx="143.4" cy="207.8" rx="115.5" ry="12.2"/><path class="cls-1" d="M90.3,91a10.8,10.8,0,0,1,8.8-8.6c11-1.8,18.3,16,21.7,25.4s9.3,7.3,14.1-.8,5.3-21.9,3-30.8a37.8,37.8,0,0,0-5.1-11C123,50.8,102.7,41.9,83.1,53.9,69,62.5,65.4,73.7,62.3,84.6c-2.6,9.2-3.5,23.1-7.4,33.2Z"/><path class="cls-4" d="M83.5,147c-2.6,9.2-6.6,27-7,34-.2,4.8,2.8,24.9,3.6,27.2H97.5c1.5-2.8,1.7-6.5-1.7-8.1s-4.5-1.6-5-4.7,0-7.9,1.1-12.7,12.9-11.3,19.1-22.5c7.7-13.9,7.2-23.2,5.7-36.3C116.7,109.4,90.2,123.2,83.5,147Z"/><path class="cls-4" d="M196.1,120.7c.8,5.8-24.1,26.5-23.9,33.7.4,15.3,14.7,30.2,19.5,38.8,1.3,2.1,7.5,2.9,7.7,5.5.3,6.8-1.4,9.5-.6,9.5h15.6c1.5-2.8,2.1-6.9-1.8-8.6s-3.3-2.2-3.5-4.3a149.8,149.8,0,0,1,2.5-39.2c3-14,9.8-23.8,10.7-40.2C223.7,89.1,193.9,105.1,196.1,120.7Z"/><path class="cls-1" d="M247.6,47.1c-.5-3.3-2.3-4.7-3.8-4.5-4.9.4-6.7,1.2-12.9,1.9-4.4.4-4.2-8.6-18.2-9.5h-1.1a8.2,8.2,0,0,1-2.1-.3L207,34c-2.1-.9-6.1-5.8-7.9-5.8s-2.4,3-2.2,7.6c.2,2.2-3.6,6.5-6.4,11.7a11,11,0,0,1-1.4,2.1c-7.8,9.5-9.4,11.7-16.8,21.9s-13.7,11.3-27.5,11.1c-7.1-.1-27.4-2.5-48.6,2C81.8,87.7,65.6,98,62.7,114.7c-4.8,27.6,22.1,22.3,42.6,34.2,25.7,15,38.3,21.2,78.2,20.7,1.3,0,9.5-4.2,10.8-4.3,20.6-.1,44.1-39.8,43-67.1-.6-15.9-8.2-25.3-6.7-27.4s4-3,11.7-8C247.7,59.2,248.5,54.3,247.6,47.1Z"/><g class="cls-5"><path class="cls-6" d="M109.1,138.6l30.8,30.8-56.8-4.5Zm69.3,18.9,13.9,20.9,18.2-13.6-19.1-19.1Z"/></g><path class="cls-1" d="M75.5,91.3a45.3,45.3,0,0,0-13.4,12.4c-6.7,9.6-10,18.9-10,31.1s5.8,35.4,4.4,42.6-1,28.2,0,30.8H74.6c1.3-2.7,1.8-6.2-1.2-7.9s-3.1-2.9-3-5.8.6-8.3,3.5-12.3c5-6.8,28.8-20.3,37.5-36.4a37,37,0,0,1,4.4-6.7C124.1,128.5,82.2,87.1,75.5,91.3Z"/><path class="cls-1" d="M183.5,120.7c.9,5.8-24.1,26.5-23.8,33.7.4,15.3,13.3,32.2,19.5,38.8,4.1,4.4,7.1,3.4,7.4,5.9,1,6.7,2.3,9.1,3,9.1h15.7c1.4-2.8,2.1-6.9-1.8-8.6s-3.3-2.2-3.5-4.3a106.8,106.8,0,0,1-1.2-41.5c2.4-14,10.1-21.5,11-37.9C211.2,89.1,181.3,105.1,183.5,120.7Z"/><path class="cls-7" d="M224.2,47.2c.5,1.1-.6,2.8-1.6,3.3a2.2,2.2,0,0,1-2.9-1,2.2,2.2,0,0,1,.8-3C221.6,46,223.6,46.1,224.2,47.2Z"/></g></g></svg>