<svg xmlns="http://www.w3.org/2000/svg" xmlns:xlink="http://www.w3.org/1999/xlink" viewBox="0 0 300 220"><defs><style>.cls-1{fill:#fff;}.cls-2{isolation:isolate;}.cls-3{fill:#a9aaab;}.cls-3,.cls-9{mix-blend-mode:multiply;}.cls-4{fill:#81521c;}.cls-5{fill:#7d7d7e;}.cls-6{fill:#f7a70e;}.cls-7{fill:#231815;}.cls-8{clip-path:url(#clip-path);}.cls-9{fill:#241916;opacity:0.25;}</style><clipPath id="clip-path"><path class="cls-1" d="M219.1,105.4c1.8,17-1.1,42-28.8,43.1-8.8.4-36.3-1.4-62.4-12.7-10.7-4.7-14.6-3.1-18.9-3.6-23.7-3.1-32.8-11.1-32.8-23.2S85,86.3,98.7,84.3s30.8,2.7,39.2,3.3c24,1.9,30.7.8,35.5-9.8S184,45.5,193.3,35.9c6.9-7.1,18.5-9.4,26.3-7.4,11.6,3,13.5,12,13.3,17-.4,6.6-3.4,11.3-14.5,11.2,9.9,23.4,11.3,34.3-.2,36.6C218.4,96.4,218.6,100.5,219.1,105.4Z"/></clipPath></defs><title>fullDog</title><g class="cls-2"><g id="Layer_1" data-name="Layer 1"><ellipse class="cls-3" cx="138.4" cy="207.8" rx="110.3" ry="12.2"/><path class="cls-4" d="M189.7,196.9c0,1.7-.6,8.8.8,10.9h12.1a3.5,3.5,0,0,0,1-4.3c-.6-1.3-4-3.4-5-6.2S189.7,196.9,189.7,196.9Z"/><path class="cls-4" d="M87.4,194.5c.3,1.8-.9,11,1,13.3h14.5a3.5,3.5,0,0,0,.2-4.6c-.9-1.5-4.8-4.6-6.5-7.6S87.4,194.5,87.4,194.5Z"/><path class="cls-5" d="M210.2,144.5c-5.3,8.2-5,21-6.1,34-1.2,14.8-.4,16.5-3.3,18.5s-18.3,1.5-20.5-2.6-2.4-24.9-2-34.8c.8-17.4,2.4-27.7,4.4-31.5s13.7-18.1,19.6-12.9,9.5-12.7,11.5-9.1S221.1,127.6,210.2,144.5Z"/><path class="cls-5" d="M84.3,104c-1.9,4,11.6,20.5,14.1,36.4s-6,26.9-10.1,34.6c-7.5,14-4.8,21.7.8,23.2,7.1,1.7,10.9-.5,14.5-4.9,12.5-15.3,14.3-18.9,17.4-28.8,5.1-16.1,8.7-29,23.7-26.5,11.9,2.1-8.7-33.3-18-38.2S90.1,92.1,84.3,104Z"/><path class="cls-6" d="M227.2,51a7.9,7.9,0,0,0,4.2,4c6.1,2,15.3,5.4,16.2,5.9s-3.3,9.5-7.9,10.6-12.7-.2-18.4-.6a12.5,12.5,0,0,0-6.3.9c-5.2,2-6.7-8.9-4.2-13.1S226.2,48.8,227.2,51Z"/><path class="cls-1" d="M57.4,54.9c-8.9,8.6-5.9,25.1,4.9,30.8s16.9,1.3,18.6,3,3.3,6.2,3.3,6.2l9.5-7.5s-5-3.2-5.3-4.6,6.9-15.5-3.1-26.5A19.5,19.5,0,0,0,57.4,54.9Z"/><path class="cls-6" d="M175.8,197.4c0,1.8-.6,8.1.9,10.4h13.8a3.8,3.8,0,0,0,1.1-4.6c-.7-1.5-4.3-3.7-5.5-6.8S175.8,197.4,175.8,197.4Z"/><path class="cls-6" d="M61.9,194.1c0,1.8-.3,11.4,1.2,13.7H76.9a3.8,3.8,0,0,0,1.1-4.6c-.7-1.5-4-4.6-5.1-7.6S61.9,194.1,61.9,194.1Z"/><path class="cls-7" d="M222.4,56.4a12.1,12.1,0,0,0,5.2.8c.6-.2,1.4-2.7.5-3S221.6,56,222.4,56.4Z"/><path class="cls-1" d="M219.1,105.4c1.8,17-1.1,42-28.8,43.1-8.8.4-36.3-1.4-62.4-12.7-10.7-4.7-14.6-3.1-18.9-3.6-23.7-3.1-32.8-11.1-32.8-23.2S85,86.3,98.7,84.3s30.8,2.7,39.2,3.3c24,1.9,30.7.8,35.5-9.8S184,45.5,193.3,35.9c6.9-7.1,18.5-9.4,26.3-7.4,11.6,3,13.5,12,13.3,17-.4,6.6-3.4,11.3-14.5,11.2,9.9,23.4,11.3,34.3-.2,36.6C218.4,96.4,218.6,100.5,219.1,105.4Z"/><g class="cls-8"><polygon class="cls-9" points="133.7 130.9 147.2 144.4 118.4 142.6 122.4 130.6 133.7 130.9"/><polygon class="cls-9" points="201.4 151.2 203.7 135.2 213.4 144.9 201.4 151.2"/></g><path class="cls-1" d="M207.5,137.8c-6.1,7.7-9.1,25-10.9,38.7s-1.9,19.1-4.8,21.2-19.1,3-21-2c-1.4-3.5-2-26.2-1.5-36.1.7-17.4,2.3-27.7,4.3-31.5s13.7-18.1,19.6-12.9,13,7.7,13.6,11.8S209.9,134.8,207.5,137.8Z"/><path class="cls-1" d="M77.3,104c-2.6,4-.8,12.7-2.9,28.5-1.8,13.7-11.6,24.2-15.5,34.6-5.8,15.3-3.5,26.9,1.1,29.7s13.9,3.3,16.7-2.1c5.7-10.9,16.7-20.5,26.4-34.2,8.4-11.9,17.5-26.1,34.1-25.1,3,.2,9,.1,13,.7,5.5.8-23.3-32.6-29.6-36.3S85.4,92.1,77.3,104Z"/></g></g></svg>