<?xml version="1.0" encoding="utf-8"?>
<!-- Generator: Adobe Illustrator 22.0.1, SVG Export Plug-In . SVG Version: 6.00 Build 0)  -->
<svg version="1.1" id="Layer_1" xmlns="http://www.w3.org/2000/svg" xmlns:xlink="http://www.w3.org/1999/xlink" x="0px" y="0px"
	 viewBox="0 0 300 192" style="enable-background:new 0 0 300 192;" xml:space="preserve">
<style type="text/css">
	.st0{fill:#A9AAAB;}
	.st1{fill:#F7A70E;}
	.st2{clip-path:url(#SVGID_2_);}
	.st3{opacity:0.5;fill:#241916;enable-background:new    ;}
	.st4{clip-path:url(#SVGID_4_);}
	.st5{clip-path:url(#SVGID_6_);}
	.st6{opacity:0.15;fill:#241916;enable-background:new    ;}
	.st7{fill:#231815;}
	.st8{opacity:0.2;fill:#231815;enable-background:new    ;}
</style>
<title>fullDog</title>
<g>
	<g id="Layer_1_1_">
		<ellipse class="st0" cx="152.2" cy="179.8" rx="144.8" ry="12.2"/>
		<path class="st1" d="M114.4,87c-10.1,9.9-4.6,30.4-9.6,39.9c-4.2,7.9-7.7,12.4-9.3,20.7s-1.9,30.1-0.3,32.2h17.7
			c1.4-2.6,1.6-6.1-1.5-7.6s-4.3-2.1-4.3-5.1s2.9-12.6,5-16.6s6.4-7.9,11.9-13.4c0,0.5,0.3,1,1.6,0.1s2.4-2.9,3.3-3
			c0.9-0.1,0.9,1.4,2.1-0.5s2.7-4,3.1-3.8s0.1,1.4,1.2,0.3s2.3-4.5,2.9-4.5s0.9,1.4,1.6,0.3s0.8-4.3,1.4-4.4s0.9,1.8,1.6,0.9
			c1.9-2.3,3-5.3,3.1-8.3C150.4,118.8,128.5,73.2,114.4,87z"/>
		<g>
			<defs>
				<path id="SVGID_1_" d="M114.4,87c-10.1,9.9-4.6,30.4-9.6,39.9c-4.2,7.9-7.7,12.4-9.3,20.7s-1.9,30.1-0.3,32.2h17.7
					c1.4-2.6,1.6-6.1-1.5-7.6s-4.3-2.1-4.3-5.1s2.9-12.6,5-16.6s6.4-7.9,11.9-13.4c0,0.5,0.3,1,1.6,0.1s2.4-2.9,3.3-3
					c0.9-0.1,0.9,1.4,2.1-0.5s2.7-4,3.1-3.8s0.1,1.4,1.2,0.3s2.3-4.5,2.9-4.5s0.9,1.4,1.6,0.3s0.8-4.3,1.4-4.4s0.9,1.8,1.6,0.9
					c1.9-2.3,3-5.3,3.1-8.3C150.4,118.8,128.5,73.2,114.4,87z"/>
			</defs>
			<clipPath id="SVGID_2_">
				<use xlink:href="#SVGID_1_"  style="overflow:visible;"/>
			</clipPath>
			<g class="st2">
				<polygon class="st3" points="100.2,99.2 89.7,182.4 121.8,180.6 156.3,99.8 				"/>
			</g>
		</g>
		<path class="st1" d="M215.3,118.4c-0.3,3.7-1.6,22.3-0.3,23.3s2.7-2.9,3.4-1.8s-2.3,8.2-1.3,10.8s2.2,0.3,2.7,1.7s0.8,3.9,1.2,5.8
			c1.2,4.8,2.3,3.9,2.7,4.6s0.5,5.4,0.6,6.3c0.5,5.9,1.2,10.7,1.9,10.7h16.6c2.2-3.1,1.6-7.4-2.5-8.8s-3.3-2.7-3.5-4.6
			s0.7-21.7,2-40.6c0.1-1.8,0.3-3.7,0.6-5.5c0.1-0.3,0.4-1,0.7-0.9s0.9-1.9,1-2.7s0.3-1.8,0.9-1.5s1-2.2,1.3-3.7
			S215.3,118.4,215.3,118.4z"/>
		<g>
			<defs>
				<path id="SVGID_3_" d="M215.3,118.4c-0.3,3.7-1.6,22.3-0.3,23.3s2.7-2.9,3.4-1.8s-2.3,8.2-1.3,10.8s2.2,0.3,2.7,1.7
					s0.8,3.9,1.2,5.8c1.2,4.8,2.3,3.9,2.7,4.6s0.5,5.4,0.6,6.3c0.5,5.9,1.2,10.7,1.9,10.7h16.6c2.2-3.1,1.6-7.4-2.5-8.8
					s-3.3-2.7-3.5-4.6s0.7-21.7,2-40.6c0.1-1.8,0.3-3.7,0.6-5.5c0.1-0.3,0.4-1,0.7-0.9s0.9-1.9,1-2.7s0.3-1.8,0.9-1.5s1-2.2,1.3-3.7
					S215.3,118.4,215.3,118.4z"/>
			</defs>
			<clipPath id="SVGID_4_">
				<use xlink:href="#SVGID_3_"  style="overflow:visible;"/>
			</clipPath>
			<g class="st4">
				<polygon class="st3" points="190.2,101.1 221,183.1 250.6,181.8 251.2,69 				"/>
			</g>
		</g>
		<path class="st1" d="M295.7,23.6c-3.7-2.8-14.5-6.4-19-9.5c-1.7-1.1-1.8-5.2-4.7-7.6c-2.9-2.4-6.3-4.1-10-5.1
			c-3-0.9-8.4-1.3-10-1.5c-6-0.6-12.3,1.9-17,6.8l-8.8,10.7c-6.3,8.4-11.3,17.1-17.8,21.2c-12.8,8.1-20.6,8.9-43,10.6
			c-6.6,0.5-31.5-0.4-48.4,2.1c-6.2,1-15.1,3-29.6,11.4c-19,11.1-38.8,15.9-60.1,18.6C16.7,82.6,10.7,84.9,6.8,87
			c-2.2,1.1-3.7,2.6-3.4,3.1s4.7-0.7,5-0.2S8.1,91.1,7.5,92s-0.4,2.5,1.3,2.2s2.1-0.7,2.4,0c0.1,0.6,0,1.3-0.3,1.8
			c-0.5,1.1,0,1.4,1.4,1s2-0.3,2.4,0.3s0.2,1.8-0.1,2.7s0.6,2,1.4,1.1s2.5-2.3,2.9-2s0.3,3.3,0.4,4.8s1.5,1.6,1.9,0.4
			s1.3-2.7,1.7-2.6s0,4.8,1.1,5.7s2.6-3.5,3.9-4.1s-0.2,5.3,2,5.8s2.3-5,4.4-5.5s1.3,5.1,2.4,6.6s2.7-5.2,4.2-5.7s1.3,6,2.9,7.1
			s2.5-7.1,4.3-6.9s2.3,7.8,4.4,8.3s0.3-7.9,2.4-8.3s4,7.2,6.6,7s-0.6-7.7,2.2-8.4s4,5.8,6.6,5.4s0.1-6.9,1.3-7.2s2.9,3.2,4.8,3.5
			s0.5-5.7,1.8-6.2s3.3,1.2,4,3.5s1.8-4.2,2.5-5.5l11.4-2c8-1.5,24.5,10.8,37.1,15l1.5,0.6c0.4,2.1,0.7,7.8,3.3,9.3s3.2,1.3,4,1
			s1.1-1.1,2.1-1.1s2.2,1.7,3.7,3.2s3,2.1,2.7,0.2s0.9-1.8,1.8-0.7c1.8,2,3.9,3.8,6.3,5.2c2.1,1.1,1.5-0.9,2.3-1.8s4.6,2.7,6.1,4.2
			s3.2,2.1,2.9,0.4s-0.1-2.1,1-2.2s3.5,1.7,5,3.3s3,1.7,2.5-0.2s0.4-2.7,1.6-1.5c1.2,1.3,2.2,2.6,3.2,4c0.7,0.8,2.3,1.4,2.1,0
			s-0.3-2,0.5-2.2s1.5,0.9,3.3,2.5s3.1-1.1,3.8,1.5s3,4.3,3.2,6.2s-0.2,4.1,0.1,6.6s0.6,2.6,2.4,1.6s1.6,0.2,1.6,1.9
			s-0.4,8.2-0.2,9.8s0.9,2.7,2.6,1.9s1.6,0.3,1.9,1.7c0.1,1.5,0.3,2.9,0.8,4.3c1,2.6,3.7-0.9,4.2,0.5s-1,2.5,0.4,3.9
			s2.8-2.4,3.5-3.8s6.9-42.8,11.3-44.9c0.3,1.1,0.4,2.9,1.5,2.3s4.1-5.4,4.9-5.1s-0.2,3.5,0.9,2.8s2.5-3.9,3.2-4.3s0.4,2.9,1,2.6
			s2.4-5.5,3.1-6.1s0.9,2.8,1.9,1.8s2.8-6.4,3.4-7s1.7,0.9,2.2-0.1s1.8-5.5,2.2-6s1.5,1,2,0.2s0.5-5.6,0.9-6.3s1.7,1.1,2.1,0.1
			s-0.5-3.8,0-4.3s1.6,1.3,2.1-0.9c0.5-2.6,0.7-5.3,0.8-8c0-1.2-0.2-4.8,0.9-4.2s0.2-5.1,0.2-10c0-2.4,0-5.3,0.8-5.3s1.3-0.9,1-3.6
			c-0.1-1-0.6-6.9,0.2-6.3s1.2,0.1,1.1-1.2c-0.2-3.1,0-6.8,1.1-8.9s4.1-5.2,6.7-5.8c4.2-0.9,8.8-0.4,16.9-1.9c6-1,9.1-9,10.4-12.5
			C296.8,25.5,296.8,24.4,295.7,23.6z"/>
		<g>
			<defs>
				<path id="SVGID_5_" d="M295.7,23.6c-3.7-2.8-14.5-6.4-19-9.5c-1.7-1.1-1.8-5.2-4.7-7.6c-2.9-2.4-6.3-4.1-10-5.1
					c-3-0.9-8.4-1.3-10-1.5c-6-0.6-12.3,1.9-17,6.8l-8.8,10.7c-6.3,8.4-11.3,17.1-17.8,21.2c-12.8,8.1-20.6,8.9-43,10.6
					c-6.6,0.5-31.5-0.4-48.4,2.1c-6.2,1-15.1,3-29.6,11.4c-19,11.1-38.8,15.9-60.1,18.6C16.7,82.6,10.7,84.9,6.8,87
					c-2.2,1.1-3.7,2.6-3.4,3.1s4.7-0.7,5-0.2S8.1,91.1,7.5,92s-0.4,2.5,1.3,2.2s2.1-0.7,2.4,0c0.1,0.6,0,1.3-0.3,1.8
					c-0.5,1.1,0,1.4,1.4,1s2-0.3,2.4,0.3s0.2,1.8-0.1,2.7s0.6,2,1.4,1.1s2.5-2.3,2.9-2s0.3,3.3,0.4,4.8s1.5,1.6,1.9,0.4
					s1.3-2.7,1.7-2.6s0,4.8,1.1,5.7s2.6-3.5,3.9-4.1s-0.2,5.3,2,5.8s2.3-5,4.4-5.5s1.3,5.1,2.4,6.6s2.7-5.2,4.2-5.7s1.3,6,2.9,7.1
					s2.5-7.1,4.3-6.9s2.3,7.8,4.4,8.3s0.3-7.9,2.4-8.3s4,7.2,6.6,7s-0.6-7.7,2.2-8.4s4,5.8,6.6,5.4s0.1-6.9,1.3-7.2s2.9,3.2,4.8,3.5
					s0.5-5.7,1.8-6.2s3.3,1.2,4,3.5s1.8-4.2,2.5-5.5l11.4-2c8-1.5,24.5,10.8,37.1,15l1.5,0.6c0.4,2.1,0.7,7.8,3.3,9.3s3.2,1.3,4,1
					s1.1-1.1,2.1-1.1s2.2,1.7,3.7,3.2s3,2.1,2.7,0.2s0.9-1.8,1.8-0.7c1.8,2,3.9,3.8,6.3,5.2c2.1,1.1,1.5-0.9,2.3-1.8
					s4.6,2.7,6.1,4.2s3.2,2.1,2.9,0.4s-0.1-2.1,1-2.2s3.5,1.7,5,3.3s3,1.7,2.5-0.2s0.4-2.7,1.6-1.5c1.2,1.3,2.2,2.6,3.2,4
					c0.7,0.8,2.3,1.4,2.1,0s-0.3-2,0.5-2.2s1.5,0.9,3.3,2.5s3.1-1.1,3.8,1.5s3,4.3,3.2,6.2s-0.2,4.1,0.1,6.6s0.6,2.6,2.4,1.6
					s1.6,0.2,1.6,1.9s-0.4,8.2-0.2,9.8s0.9,2.7,2.6,1.9s1.6,0.3,1.9,1.7c0.1,1.5,0.3,2.9,0.8,4.3c1,2.6,3.7-0.9,4.2,0.5
					s-1,2.5,0.4,3.9s2.8-2.4,3.5-3.8s6.9-42.8,11.3-44.9c0.3,1.1,0.4,2.9,1.5,2.3s4.1-5.4,4.9-5.1s-0.2,3.5,0.9,2.8s2.5-3.9,3.2-4.3
					s0.4,2.9,1,2.6s2.4-5.5,3.1-6.1s0.9,2.8,1.9,1.8s2.8-6.4,3.4-7s1.7,0.9,2.2-0.1s1.8-5.5,2.2-6s1.5,1,2,0.2s0.5-5.6,0.9-6.3
					s1.7,1.1,2.1,0.1s-0.5-3.8,0-4.3s1.6,1.3,2.1-0.9c0.5-2.6,0.7-5.3,0.8-8c0-1.2-0.2-4.8,0.9-4.2s0.2-5.1,0.2-10
					c0-2.4,0-5.3,0.8-5.3s1.3-0.9,1-3.6c-0.1-1-0.6-6.9,0.2-6.3s1.2,0.1,1.1-1.2c-0.2-3.1,0-6.8,1.1-8.9s4.1-5.2,6.7-5.8
					c4.2-0.9,8.8-0.4,16.9-1.9c6-1,9.1-9,10.4-12.5C296.8,25.5,296.8,24.4,295.7,23.6z"/>
			</defs>
			<clipPath id="SVGID_6_">
				<use xlink:href="#SVGID_5_"  style="overflow:visible;"/>
			</clipPath>
			<g class="st5">
				<path class="st6" d="M144,107.9l28.8,28.8l-53.2-4.1L144,107.9z M209.8,113.1l13,19.5l17-12.7L221.9,102L209.8,113.1z"/>
			</g>
		</g>
		<path class="st7" d="M271.2,13.9c0,1.2-1.9,2.2-3.2,2.2c-1.2,0-2.2-1-2.2-2.2s1-2.2,2.2-2.2C269.3,11.7,271.2,12.7,271.2,13.9z"/>
		<path class="st8" d="M235,15.2c1.8-4,8.9-9.3,15.6-10.2c3.5-0.5,5.4,1.2,5,3c-2.5,11.6,4.2,30.3,0,32.1c-7.8,3.4-17.9-5.7-20.6-13
			C233.5,23.3,233.5,19,235,15.2z"/>
		<path class="st1" d="M129.9,68.2c-2-1.6-25.5-5.5-36.9,3.4c-7.2,5.6-11.7,23.8-11.7,23.8c0.4,2.2-0.7,5.8-1.1,7.2S80,105,81,104.9
			s0.2,0.8-0.1,1.9s-1,2.1-0.5,1.9s-1,2.1-1,3.2s0,0.9,0.4,1c-0.5,3.9-1.3,7.7-2.5,11.4c-3.2,8.3-11.5,16.3-12.2,24
			s-0.9,28.9,0.9,31.5h17.1c1.3-2.5,1.7-5.1-1.2-6.7s-3.4-3.4-3.4-6.1s1.1-11.7,3.8-15.4c4.7-6.3,17.3-6.8,27.2-16.1
			c1.3,0.7,2.9,0.2,4.6-2.5s3-2.7,2.9-0.3s2.3,0.1,4.3-3.7c0.6-1.1,1.7-1.2,1.7,0s0.9,1.5,2.2,0.3c0.6-0.6,1.2-1.2,1.7-1.9
			c1-1.4,2.2-1.7,2.3-0.5s1.5,0.7,2.4-1.7s0.9-3.3,1.8-3.2s1.3,2,2.3,2.1s2.8-4.8,3.7-6.7s3.7-2.9,6.5-3.2
			C160.4,112.7,141.8,77.6,129.9,68.2z"/>
		<path class="st1" d="M202.6,96.9c0.8,5.5,2.5,10.9,2.3,17.7c-0.5,15.9-1,37-0.1,53.9c0.3,6.3,1.1,11.3,1.8,11.3h15.9
			c1.3-2.6,2-6.8-1.7-8.4s-3.1-1.7-3.3-3.6s0.6-18,5-39c2-9.3,11.5-17.1,12.3-32.5c1.3-25.1-8.3-33.4-12.6-34.7s-10.4-2.2-14,1.1
			S200.6,82.3,202.6,96.9z"/>
	</g>
</g>
</svg>
