<svg xmlns="http://www.w3.org/2000/svg" xmlns:xlink="http://www.w3.org/1999/xlink" viewBox="0 0 300 220"><defs><style>.cls-1{fill:#fff;}.cls-2{isolation:isolate;}.cls-3{fill:#a9aaab;}.cls-3,.cls-6{mix-blend-mode:multiply;}.cls-4{fill:#949394;}.cls-5{clip-path:url(#clip-path);}.cls-6,.cls-9{fill:#241916;}.cls-6{opacity:0.15;}.cls-7{fill:#231815;}.cls-8{fill:#ee9516;}</style><clipPath id="clip-path"><path class="cls-1" d="M238,104.7c-1.6-4.1,0-6.8-5-6.8-2,0-3.2-4.1-5-6.2-3.5-4.1-11.9-6.4-17-6.8a15.8,15.8,0,0,0-3.8.3c-1.4.1-2.1.1-2.3-.9-1.2-5.2-2.9-8.8-4.3-10.5s-2.9-1.4-2.6,1.7-2.1,7.1-3.2,15.2c-.2,1.5-2.3,2.6-4,3.3-9.3,4.1-14.4,6.5-19.4,10s-12.8,4.4-18.3,5.1c-10.9,1.3-33.8-4.7-48.1,0-5.7,1.8-7.9.8-10.3.1s-15.1,8.3-7,10.9c2.7.9,1.8,1.9,4.3,2.5,19.3,4.3-.1,24.9,14.9,32.2,17.5,8.5,43.8,15.7,65.1,14.8.5,0,.9,3,1.5,2.8,16-4.6,22.2-12.8,30-33.4,1.3-3.7,2.5-5.2,7.4-8.5s11.9-8,15-9.6c4.6-2.4,10-5,11.9-7S239.3,108.2,238,104.7Z"/></clipPath></defs><title>fullDog</title><g class="cls-2"><g id="Layer_1" data-name="Layer 1"><ellipse class="cls-3" cx="144.4" cy="207.8" rx="99.6" ry="12.2"/><path class="cls-4" d="M97.2,138.3c-7.6,7.5-7.4,16.7-10.4,25.5-2.1,6.3-4.1,17.8-5,24.4-.4,3.4,2.8,18.4,3.4,20H98.1c1-2,.8-4.6-1.6-5.7s-3.2-1.1-3.5-3.4a32.8,32.8,0,0,1,.2-9.8c.9-3.3,7.6-11.7,14.8-17.8s14.2-16.9,13.1-26.1S107.8,127.9,97.2,138.3Z"/><path class="cls-4" d="M173,155.4c-.3,10.5,1.7,29.6,2.7,41.7.6,6.6,2.7,11.1,2.9,11.1h11.8c.9-1.4,1.6-5.3-1.5-6.4s-2.3-2.3-2.4-3.7a306.4,306.4,0,0,1,3.2-30.6c1.3-7.4,5.4-16.9,5.2-19.7C194.9,147.2,173,155.4,173,155.4Z"/><path class="cls-1" d="M238,104.7c-1.6-4.1,0-6.8-5-6.8-2,0-3.2-4.1-5-6.2-3.5-4.1-11.9-6.4-17-6.8a15.8,15.8,0,0,0-3.8.3c-1.4.1-2.1.1-2.3-.9-1.2-5.2-2.9-8.8-4.3-10.5s-2.9-1.4-2.6,1.7-2.1,7.1-3.2,15.2c-.2,1.5-2.3,2.6-4,3.3-9.3,4.1-14.4,6.5-19.4,10s-12.8,4.4-18.3,5.1c-10.9,1.3-33.8-4.7-48.1,0-5.7,1.8-7.9.8-10.3.1s-15.1,8.3-7,10.9c2.7.9,1.8,1.9,4.3,2.5,19.3,4.3-.1,24.9,14.9,32.2,17.5,8.5,43.8,15.7,65.1,14.8.5,0,.9,3,1.5,2.8,16-4.6,22.2-12.8,30-33.4,1.3-3.7,2.5-5.2,7.4-8.5s11.9-8,15-9.6c4.6-2.4,10-5,11.9-7S239.3,108.2,238,104.7Z"/><g class="cls-5"><path class="cls-6" d="M113.1,148.8l21.7,21.6-35.5-6.5Zm52.4,15,9.8,14.7,21-6.5-17.5-17.5Z"/></g><path class="cls-7" d="M229.7,114.5a52,52,0,0,1-1.2-7.7c-.1-2.7.9-5.6,1.2-7.2s-1.4-5.9-2.4-7c-3.6-4.1-11.9-3.1-16.7-3.6-2.7-.4-2.3-3.7-3.4-3.8s-2.1.1-2.3-.9c-1.2-5.2-2.9-8.8-4.3-10.5s-2.8-1.6-2.8,1.6-2,7.1-3.1,15.2a12.6,12.6,0,0,1-.7,2.5c-1.4,5.8.4,13.6,14.4,18.9,4.7,1.8,10.7,5.4,13,6.5C226.7,121.3,230.3,117.7,229.7,114.5Z"/><path class="cls-1" d="M223.3,97.6a3.4,3.4,0,0,1-3.4,3.5,3.5,3.5,0,1,1,0-6.9A3.4,3.4,0,0,1,223.3,97.6Z"/><path class="cls-7" d="M222.1,97.6a2.3,2.3,0,1,1-4.5,0,2.3,2.3,0,1,1,4.5,0Z"/><path class="cls-8" d="M200,77.6c.7-.9,2.3,7.4,2,9s-2.3,3.1-2.8,2.9,0-3.6.2-6.6S199.7,78,200,77.6Z"/><path class="cls-1" d="M160.6,146.4a128.3,128.3,0,0,1,.8,13.2c.3,12.6,1.5,27.3,2.2,40.1.2,4.7,2.2,8.5,2.8,8.5h11.5c1-1.9,1.5-4.9-1.3-6.1s-2.3-1.6-2.5-3a288.9,288.9,0,0,1,4.7-29c1.8-9,12-11.1,12.6-22.7,1-18.9-10.1-27.3-13.3-28.2s-7.8-1.6-10.6.8S159,135.5,160.6,146.4Z"/><path class="cls-1" d="M111.3,117.6c-1.5-1.2-11-10.8-20.5-5.4s-18.9,15.3-18.4,24.6c.2,5.5.8,21.8-1.7,29.3s-8.3,17.6-9,22.8-1.1,17.3.2,19.3H73.7c1-1.9,1.4-4.3-.8-5.5s-2.2-2.1-2.1-4.2a21.4,21.4,0,0,1,3.3-9.2c3.5-4.8,7.4-3.7,23.1-18.6,6.8-6.4,15.4-13.2,20.4-14.6,3.2-1,6.8-1.1,13.2-.5S117.7,122.7,111.3,117.6Z"/><path class="cls-9" d="M153.1,109.1c-10.9,1.3-33.8-4.7-48.1,0-5.7,1.8-7.9.1-10.4-.3s-7.1,3-9.4,6.9c-8.4,6-13.3,13-12.9,20.9.1,2.2.2,5.8.2,10.2,0,2.3,3.1,3.3,9.4-6.1s10.2-11.1,17-12.6c11.5-2.5,12.9-1.3,17.2-8.5s8.8-2.5,16.1,8.5,7.3,22.6,16.1,30.1c7.1,6.1,19.1,3.1,24.7-2.8s10.5-15,5.7-25.1c-3.2-6.6-6.7-13.6-7.9-23.5-.2-1.7-1.1-1.7-2-1.3C164,107.8,157.7,108.5,153.1,109.1Z"/></g></g></svg>