<?xml version="1.0" encoding="utf-8"?>
<!-- Generator: Adobe Illustrator 22.0.1, SVG Export Plug-In . SVG Version: 6.00 Build 0)  -->
<svg version="1.1" id="Layer_1" xmlns="http://www.w3.org/2000/svg" xmlns:xlink="http://www.w3.org/1999/xlink" x="0px" y="0px"
	 viewBox="0 0 300 192" style="enable-background:new 0 0 300 192;" xml:space="preserve">
<style type="text/css">
	.st0{fill:#A9AAAB;}
	.st1{fill:#949394;}
	.st2{fill:#FFFFFF;}
	.st3{clip-path:url(#SVGID_2_);}
	.st4{opacity:0.15;fill:#241916;enable-background:new    ;}
	.st5{fill:#231815;}
	.st6{fill:#EE9516;}
	.st7{fill:#241916;}
</style>
<title>fullDog</title>
<g>
	<g id="Layer_1_1_">
		<ellipse class="st0" cx="144.4" cy="179.8" rx="99.6" ry="12.2"/>
		<path class="st1" d="M97.2,110.3c-7.6,7.5-7.4,16.7-10.4,25.5c-2.1,6.3-4.1,17.8-5,24.4c-0.4,3.4,2.8,18.4,3.4,20h12.9
			c1-2,0.8-4.6-1.6-5.7s-3.2-1.1-3.5-3.4c-0.4-3.3-0.4-6.6,0.2-9.8c0.9-3.3,7.6-11.7,14.8-17.8s14.2-16.9,13.1-26.1
			S107.8,99.9,97.2,110.3z"/>
		<path class="st1" d="M173,127.4c-0.3,10.5,1.7,29.6,2.7,41.7c0.6,6.6,2.7,11.1,2.9,11.1h11.8c0.9-1.4,1.6-5.3-1.5-6.4
			s-2.3-2.3-2.4-3.7c0.6-10.2,1.6-20.5,3.2-30.6c1.3-7.4,5.4-16.9,5.2-19.7C194.9,119.2,173,127.4,173,127.4z"/>
		<path class="st2" d="M238,76.7c-1.6-4.1,0-6.8-5-6.8c-2,0-3.2-4.1-5-6.2c-3.5-4.1-11.9-6.4-17-6.8c-1.3-0.1-2.6,0-3.8,0.3
			c-1.4,0.1-2.1,0.1-2.3-0.9c-1.2-5.2-2.9-8.8-4.3-10.5s-2.9-1.4-2.6,1.7s-2.1,7.1-3.2,15.2c-0.2,1.5-2.3,2.6-4,3.3
			c-9.3,4.1-14.4,6.5-19.4,10s-12.8,4.4-18.3,5.1c-10.9,1.3-33.8-4.7-48.1,0c-5.7,1.8-7.9,0.8-10.3,0.1s-15.1,8.3-7,10.9
			c2.7,0.9,1.8,1.9,4.3,2.5c19.3,4.3-0.1,24.9,14.9,32.2c17.5,8.5,43.8,15.7,65.1,14.8c0.5,0,0.9,3,1.5,2.8
			c16-4.6,22.2-12.8,30-33.4c1.3-3.7,2.5-5.2,7.4-8.5s11.9-8,15-9.6c4.6-2.4,10-5,11.9-7S239.3,80.2,238,76.7z"/>
		<g>
			<defs>
				<path id="SVGID_1_" d="M238,76.7c-1.6-4.1,0-6.8-5-6.8c-2,0-3.2-4.1-5-6.2c-3.5-4.1-11.9-6.4-17-6.8c-1.3-0.1-2.6,0-3.8,0.3
					c-1.4,0.1-2.1,0.1-2.3-0.9c-1.2-5.2-2.9-8.8-4.3-10.5s-2.9-1.4-2.6,1.7s-2.1,7.1-3.2,15.2c-0.2,1.5-2.3,2.6-4,3.3
					c-9.3,4.1-14.4,6.5-19.4,10s-12.8,4.4-18.3,5.1c-10.9,1.3-33.8-4.7-48.1,0c-5.7,1.8-7.9,0.8-10.3,0.1s-15.1,8.3-7,10.9
					c2.7,0.9,1.8,1.9,4.3,2.5c19.3,4.3-0.1,24.9,14.9,32.2c17.5,8.5,43.8,15.7,65.1,14.8c0.5,0,0.9,3,1.5,2.8
					c16-4.6,22.2-12.8,30-33.4c1.3-3.7,2.5-5.2,7.4-8.5s11.9-8,15-9.6c4.6-2.4,10-5,11.9-7S239.3,80.2,238,76.7z"/>
			</defs>
			<clipPath id="SVGID_2_">
				<use xlink:href="#SVGID_1_"  style="overflow:visible;"/>
			</clipPath>
			<g class="st3">
				<path class="st4" d="M113.1,120.8l21.7,21.6l-35.5-6.5L113.1,120.8z M165.5,135.8l9.8,14.7l21-6.5l-17.5-17.5L165.5,135.8z"/>
			</g>
		</g>
		<path class="st5" d="M229.7,86.5c-0.6-2.5-1-5.1-1.2-7.7c-0.1-2.7,0.9-5.6,1.2-7.2s-1.4-5.9-2.4-7c-3.6-4.1-11.9-3.1-16.7-3.6
			c-2.7-0.4-2.3-3.7-3.4-3.8s-2.1,0.1-2.3-0.9c-1.2-5.2-2.9-8.8-4.3-10.5s-2.8-1.6-2.8,1.6s-2,7.1-3.1,15.2
			c-0.1,0.9-0.4,1.7-0.7,2.5c-1.4,5.8,0.4,13.6,14.4,18.9c4.7,1.8,10.7,5.4,13,6.5C226.7,93.3,230.3,89.7,229.7,86.5z"/>
		<path class="st2" d="M223.3,69.6c0.1,1.9-1.4,3.4-3.3,3.5c0,0-0.1,0-0.1,0c-1.9,0.3-3.7-1-4-2.9c-0.3-1.9,1-3.7,2.9-4
			c0.4-0.1,0.8-0.1,1.2,0C221.8,66.2,223.3,67.7,223.3,69.6z"/>
		<path class="st5" d="M222.1,69.6c0.3,1.2-0.5,2.5-1.8,2.7c-1.2,0.3-2.5-0.5-2.7-1.8c-0.1-0.3-0.1-0.6,0-1
			c-0.3-1.2,0.5-2.5,1.8-2.7c1.2-0.3,2.5,0.5,2.7,1.8C222.2,69,222.2,69.3,222.1,69.6z"/>
		<path class="st6" d="M200,49.6c0.7-0.9,2.3,7.4,2,9s-2.3,3.1-2.8,2.9s0-3.6,0.2-6.6S199.7,50,200,49.6z"/>
		<path class="st2" d="M160.6,118.4c0.5,4.4,0.8,8.8,0.8,13.2c0.3,12.6,1.5,27.3,2.2,40.1c0.2,4.7,2.2,8.5,2.8,8.5h11.5
			c1-1.9,1.5-4.9-1.3-6.1s-2.3-1.6-2.5-3c1.1-9.7,2.6-19.4,4.7-29c1.8-9,12-11.1,12.6-22.7c1-18.9-10.1-27.3-13.3-28.2
			s-7.8-1.6-10.6,0.8S159,107.5,160.6,118.4z"/>
		<path class="st2" d="M111.3,89.6c-1.5-1.2-11-10.8-20.5-5.4s-18.9,15.3-18.4,24.6c0.2,5.5,0.8,21.8-1.7,29.3s-8.3,17.6-9,22.8
			s-1.1,17.3,0.2,19.3h11.8c1-1.9,1.4-4.3-0.8-5.5s-2.2-2.1-2.1-4.2c0.4-3.3,1.5-6.4,3.3-9.2c3.5-4.8,7.4-3.7,23.1-18.6
			c6.8-6.4,15.4-13.2,20.4-14.6c3.2-1,6.8-1.1,13.2-0.5C137.2,128.2,117.7,94.7,111.3,89.6z"/>
		<path class="st7" d="M153.1,81.1c-10.9,1.3-33.8-4.7-48.1,0c-5.7,1.8-7.9,0.1-10.4-0.3s-7.1,3-9.4,6.9c-8.4,6-13.3,13-12.9,20.9
			c0.1,2.2,0.2,5.8,0.2,10.2c0,2.3,3.1,3.3,9.4-6.1s10.2-11.1,17-12.6c11.5-2.5,12.9-1.3,17.2-8.5s8.8-2.5,16.1,8.5
			s7.3,22.6,16.1,30.1c7.1,6.1,19.1,3.1,24.7-2.8s10.5-15,5.7-25.1c-3.2-6.6-6.7-13.6-7.9-23.5c-0.2-1.7-1.1-1.7-2-1.3
			C164,79.8,157.7,80.5,153.1,81.1z"/>
	</g>
</g>
</svg>
