<svg id="Layer_1" data-name="Layer 1" xmlns="http://www.w3.org/2000/svg" xmlns:xlink="http://www.w3.org/1999/xlink" viewBox="0 0 1285.4 233"><defs><style>.cls-1{fill:none;}.cls-2{fill:#a9aaab;}.cls-3{fill:#fff;}.cls-4{clip-path:url(#clip-path);}.cls-11,.cls-13,.cls-25,.cls-5{fill:#251a17;}.cls-5{opacity:0.25;}.cls-11,.cls-25,.cls-28,.cls-5{isolation:isolate;}.cls-6{fill:#4d4a4a;}.cls-7{fill:#dcdedd;}.cls-28,.cls-8{fill:#241916;}.cls-9{fill:#949394;}.cls-10{clip-path:url(#clip-path-2);}.cls-11{opacity:0.15;}.cls-12{fill:#ee9616;}.cls-14{fill:#7d7d7f;}.cls-15{clip-path:url(#clip-path-3);}.cls-16{fill:#f5a049;}.cls-17{clip-path:url(#clip-path-4);}.cls-18{clip-path:url(#clip-path-5);}.cls-19{fill:#ed6f19;}.cls-20{fill:#a94417;}.cls-21{fill:#82531d;}.cls-22{fill:#f7a713;}.cls-23{clip-path:url(#clip-path-6);}.cls-24{clip-path:url(#clip-path-7);}.cls-25{opacity:0.5;}.cls-26{clip-path:url(#clip-path-8);}.cls-27{clip-path:url(#clip-path-9);}.cls-28{opacity:0.2;}.cls-29{clip-path:url(#clip-path-10);}.cls-30{fill:#302826;}.cls-31{clip-path:url(#clip-path-11);}.cls-32{fill:#e9640a;}.cls-33{fill:#a8947f;}.cls-34{fill:#ebebec;}</style><clipPath id="clip-path"><path class="cls-1" d="M1281.4,141.1c.7-2.1,1.8-3.9.1-5.1a40.9,40.9,0,0,1-8.7-7.9c.5-.9,2.3.1.8-1.8s-.9-.5-2.8-2a101.6,101.6,0,0,0-12.9-9c-5.2-2.7-11.1-3.9-17.2-.2s-8.4,8.1-13.4,13.7-11.4,12.1-18.5,14.8c-14.1,5.5-37.7,7.2-48,8.8-4.7.7-5.9-4.4-8.8-3.7a3.9,3.9,0,0,0-2.1,2.4c-.8,2,1.3,3.9,2,6.2.1.3.5,2.2-1.4,4.9-5.1,7.2-.4,14.7,16.7,16.9,3,.4-2.8,3.7,4.6,7.7,15.2,8,35.6,12.2,48,13.7,2.1.3,3.4,3.2,4.6,3.2,19.9-.8,20.6-27.3,20.3-39.6-.3-6.8,3.4-21.2,6-21.7,5.4-1,4.1,6.5,4.5,8,1.5,4.9,6.3,9.4,7,10.4s7.2-2.6,9.2-3.3C1276.8,155.5,1279.3,147.1,1281.4,141.1Z"/></clipPath><clipPath id="clip-path-2"><path class="cls-1" d="M1186.7,125.8c-1.6-4.2,0-7.1-5.2-7.1-2.1,0-3.3-4.3-5.2-6.5-3.7-4.2-12.5-6.6-17.8-7a17.6,17.6,0,0,0-4,.2c-1.5.2-2.2.2-2.4-.9-1.2-5.5-3.1-9.2-4.5-10.9s-3-1.5-2.7,1.7-2.2,7.4-3.3,15.9c-.3,1.6-2.4,2.7-4.2,3.5-9.8,4.3-15.1,6.8-20.4,10.4s-13.3,4.6-19,5.3c-11.5,1.4-35.4-4.9-50.3,0-5.9,1.9-8.3.8-10.8.1s-15.7,8.7-7.4,11.5c2.9.9,1.9,1.9,4.6,2.5,20.1,4.5-.2,26.1,15.5,33.7,18.3,8.9,45.8,16.4,68,15.5.6,0,1.1,3.1,1.6,2.9,16.8-4.8,23.2-13.4,31.3-34.9,1.5-3.8,2.6-5.5,7.8-8.9s12.5-8.3,15.7-10c4.8-2.5,10.5-5.2,12.4-7.3S1188.1,129.5,1186.7,125.8Z"/></clipPath><clipPath id="clip-path-3"><path class="cls-1" d="M1046.5,112.3a2.6,2.6,0,0,0-1.9-3.1h0c-6.2-1.9-16.4-2.1-19.7-4-1.6-1-1.8-7-9.1-9.3S998.7,94.8,994,98c-9,6.1-15.7,20.2-21.8,32.6-4.2,8.6-10.4,9.8-18,10.5-13.2,1.3-23,3.3-29.4,3.5s-26.4-.2-44.7-1c-12.4-.6-30.5,13.8-30.6,17.2-.4,16.6,18.7,30,36.8,38.8,21.6,10.5,56.7,22.9,84.2,15.6,5.8-1.5,9.4,2.1,15.2,1,31.7-5.7,37.3-30.9,36.6-47.4-1-23.5-6.6-37.4,3.5-40.5,3.8-1.2,5.1-1,11.4-3.9S1046,116.1,1046.5,112.3Z"/></clipPath><clipPath id="clip-path-4"><path class="cls-1" d="M1032.6,107.7c-.4-.6-.6-.8-1-.9-2.9-.4-5.3-.9-6.6-1.7s-1.9-7-9.2-9.3a31.4,31.4,0,0,0-8.6-1.3,19,19,0,0,1-2.9-2.8c-1.7-2.4-5.4-13.5-13.6-14.5-3.3-.3-2.9,5-1.6,15.6.5,3.6.8,6.2,1.1,8.1-7.2,7-12.9,19-18.2,29.7-4.2,8.6-11,9.7-18.5,10.5-13.3,1.3-22.8,3-29.1,3.2s-26-.2-44.3-1c-4.4-.2-10.7,1.2-16.7,4.1-12.3,5.9-18.3,18.2-21.5,29.4-4,14.4-2.9,29.5.7,35.6a6.3,6.3,0,0,1,.9,3.3c0,.5.7.5,1,.6a10.8,10.8,0,0,0,4-.1,74.5,74.5,0,0,0,12.4-5.2,8.2,8.2,0,0,0,2-1.2,46.1,46.1,0,0,1,19.3-8.6,19.6,19.6,0,0,1,9.9,1.3c21.8,9.8,53.3,19.8,78.5,13.2a9.5,9.5,0,0,1,3-.8,7.9,7.9,0,0,0,3.9-1.1,40.9,40.9,0,0,0,9.5-5.6c5-3.9,5.8-8.5,7.1-13.7s9.4-7.2,13.9-16.1c6-11.6-5.6-40-5.8-52.9s6.5-11.6,11.6-11.8,11.1,1.1,15.6.3S1033.4,109.4,1032.6,107.7Z"/></clipPath><clipPath id="clip-path-5"><path class="cls-1" d="M930,92.5c-.1-1.9-.7-2.1-2-2.3-5.5-1.2-10.6-1.9-15.5-3.1-1.9-.5-1.2-5.7-5.9-8.4-7.5-4.1-21.8-4.5-26.5-1.3-9,6-10.8,12.3-15.4,20.6s-9.4,12.1-15.3,15.6c-11.5,6.7-39.9,8.1-46.3,8.7s-10.7.3-26.2.6c-5.1.1-8.3-2.2-10.1-9.2-2.1-8.7-5.2-26.5-.3-44.7,2.8-10.2-7.8-8.4-11.5,1.4-5.5,14.6-2.8,36.7,2,57.7,2.6,11.3-9,24.2-7.8,27.4,9.2,22.8,16.2,9.1,35.6,14,24.5,6.3,52.9,16.5,80.5,10.1,18.1-4.1,23.1-17.3,24.6-34.2.4-4.4,2.7-9.2,3.6-13.6,3.7-16.6,5.7-18.6,15.1-19.6,3.9-.5,8.6,0,14.4-2S930.4,97.2,930,92.5Z"/></clipPath><clipPath id="clip-path-6"><path class="cls-1" d="M757,129.5c1.8,17.3-1.2,42.8-29.4,44-8.9.4-37-1.5-63.6-13-11-4.7-15-3-19.3-3.6-24.2-3.2-33.5-11.4-33.5-23.7s9-23.1,23-25.2,31.4,2.8,40,3.4c24.4,1.9,31.2.8,36.2-10s10.8-33,20.3-42.7c7-7.3,18.9-9.6,26.8-7.6,11.8,3.1,13.8,12.3,13.5,17.4-.4,6.7-3.4,11.5-14.7,11.4,10.1,23.8,11.5,35-.2,37.3Q756.3,122,757,129.5Z"/></clipPath><clipPath id="clip-path-7"><path class="cls-1" d="M439.7,125.1c-11.8,11.6-5.3,35.7-11.2,46.9-4.9,9.2-9.1,14.4-10.9,24.1s-2.3,35.3-.5,37.9H438c1.6-3.1,1.9-7.2-1.8-9s-5.1-2.5-5.1-5.9,3.5-14.8,5.9-19.6c1.6-3.1,7.5-9.2,14-15.7,0,.6.3,1.3,1.9.2s2.8-3.4,3.8-3.6,1.1,1.7,2.5-.5,3.2-4.7,3.6-4.5.2,1.6,1.5.4,2.6-5.4,3.4-5.3,1,1.6,1.9.4.9-5.1,1.5-5.2,1.2,2.1,2,1.1a15.4,15.4,0,0,0,3.6-9.8C482,162.4,456.2,108.8,439.7,125.1Z"/></clipPath><clipPath id="clip-path-8"><path class="cls-1" d="M558.1,161.9c-.4,4.4-1.9,26.1-.4,27.4s3.2-3.4,4.1-2.2-2.7,9.6-1.6,12.8c.6,1.4,2.5.3,3.2,1.9s.9,4.5,1.4,6.8c1.3,5.6,2.7,4.6,3.2,5.4l.7,7.4c.6,6.9,1.4,12.6,2.2,12.6h19.5c2.5-3.7,1.9-8.7-2.9-10.4s-4-3.2-4.2-5.4.8-25.5,2.3-47.6a48.1,48.1,0,0,1,.8-6.5c.1-.3.4-1.1.8-1s1-2.2,1.1-3.2.4-2.1,1.1-1.7,1.2-2.6,1.6-4.4S558.1,161.9,558.1,161.9Z"/></clipPath><clipPath id="clip-path-9"><path class="cls-1" d="M652.4,50.6c-4.4-3.2-17-7.4-22.2-11-2.1-1.4-2.2-6.1-5.6-9a33.3,33.3,0,0,0-11.7-6,94.3,94.3,0,0,0-11.7-1.7,24.4,24.4,0,0,0-20,8c-.9.9-9.1,10.9-10.3,12.5-7.5,9.9-13.3,20-20.9,24.9-15.1,9.5-24.2,10.5-50.4,12.4-7.8.6-37.1-.5-56.8,2.5-7.3,1.1-17.8,3.6-34.8,13.4-22.2,13-45.4,18.6-70.4,21.7-12.5,1.6-19.6,4.3-24.2,6.8-2.5,1.3-4.2,3-3.9,3.6s5.5-.8,5.9-.3-.4,1.5-1.1,2.6-.5,2.9,1.6,2.5,2.5-.8,2.7,0a2.6,2.6,0,0,1-.3,2.1c-.5,1.3,0,1.7,1.6,1.2s2.4-.3,2.9.4a5.5,5.5,0,0,1-.1,3.1c-.5,1.5.7,2.4,1.6,1.3s2.9-2.7,3.4-2.3.4,3.9.5,5.7,1.7,1.8,2.2.5,1.5-3.3,2-3.1,0,5.7,1.3,6.7,3.1-4.2,4.6-4.9-.3,6.3,2.3,6.9,2.7-5.9,5.1-6.5,1.5,6,2.9,7.7,3.1-6.1,4.9-6.7,1.5,7.1,3.4,8.3,2.9-8.3,5-8,2.7,9.2,5.2,9.7.4-9.2,2.8-9.6,4.7,8.3,7.8,8.1-.7-9,2.6-9.9,4.7,6.9,7.7,6.4.1-8.1,1.6-8.4,3.3,3.7,5.5,4,.6-6.6,2.2-7.2,3.9,1.4,4.7,4.1,2.1-5,2.9-6.5l13.4-2.3c9.3-1.8,28.7,12.7,43.5,17.6a8.5,8.5,0,0,1,1.7.6c.5,2.4.8,9.2,3.9,11s3.8,1.5,4.7,1.1,1.2-1.3,2.5-1.2,2.6,1.9,4.3,3.6,3.6,2.5,3.2.3,1-2.1,2.1-.8a35.3,35.3,0,0,0,7.3,6.1c2.6,1.3,1.9-1.1,2.7-2.1s5.5,3.1,7.2,4.9,3.8,2.4,3.4.4-.1-2.4,1.2-2.5,4.1,2,5.9,3.8,3.5,2.1,2.9-.2.5-3.1,1.8-1.7,3.1,3.8,3.8,4.6,2.7,1.7,2.4,0-.3-2.3.7-2.5,1.7,1,3.9,2.9,3.6-1.3,4.3,1.8,3.6,5.1,3.8,7.3c.4,3.8-.2,4.8.2,7.7s.6,3,2.7,1.9,1.9.2,1.9,2.1-.4,9.7-.2,11.6,1,3.1,3,2.2,2,.4,2.2,2.1a28.4,28.4,0,0,0,1,4.9c1.2,3.2,4.4-1,4.9.6s-1.1,3,.5,4.6,3.3-2.8,4.2-4.4,8-50.2,13.1-52.7c.5,1.3.5,3.4,1.8,2.6s4.8-6.3,5.9-5.9-.3,4,1,3.3,3-4.7,3.8-5,.4,3.3,1.1,3,2.8-6.4,3.6-7.1,1.1,3.2,2.2,2,3.4-7.5,4.1-8.2,1.9,1.1,2.6-.1,2-6.5,2.6-7.1,1.7,1.2,2.2.2.6-6.5,1.2-7.3,1.9,1.3,2.4,0-.5-4.4,0-5,1.9,1.5,2.5-1.1a73,73,0,0,0,.9-9.4c.1-1.4-.3-5.6,1.1-4.9s.2-6,.2-11.7c0-2.8,0-6.3,1-6.2s1.5-1.2,1.1-4.2c-.1-1.2-.7-8.2.2-7.4s1.5.1,1.4-1.4c-.3-3.6-.1-8,1.3-10.5s4.7-6.1,7.7-6.8c5-1.1,10.4-.4,20-2.2,6.9-1.2,10.6-10.6,12.1-14.7C653.7,52.9,653.7,51.6,652.4,50.6Z"/></clipPath><clipPath id="clip-path-10"><path class="cls-1" d="M467.8,43.5c-.4-4-2.6-5.6-4.4-5.4-5.8.5-7.9,1.5-15.3,2.2-5.1.6-5-10.1-21.5-11.2h-1.3a10.1,10.1,0,0,1-2.5-.3l-2.9-.8c-2.6-1.1-7.3-6.9-9.5-6.9s-2.8,3.5-2.5,8.9c.1,2.6-4.3,7.8-7.6,13.9a11,11,0,0,1-1.7,2.5c-9.2,11.2-11.1,13.8-19.9,25.9s-16.2,13.4-32.5,13.1c-8.3-.1-32.4-3-57.5,2.5-17,3.6-36.2,15.8-39.6,35.4-5.7,32.7,26.2,26.5,50.4,40.5,30.4,17.8,45.3,25.1,92.5,24.5,1.6,0,11.2-5,12.7-5,24.4-.2,52.2-47.2,50.9-79.5-.8-18.7-9.7-29.9-8-32.4s4.8-3.5,13.9-9.5C468,57.7,468.9,51.9,467.8,43.5Z"/></clipPath><clipPath id="clip-path-11"><path class="cls-1" d="M315,18.5c-6.6-1.8-8.7-.5-16.2-3.4-4.3-1.7-5.4-7.9-9.8-10.5-6.7-3.9-26.2-7.2-38.7,5.8S234,29.3,223.1,41.9,209.2,54.3,196.9,58,171,61.6,153,61.3c-8.1-.2-33.7-1.3-58.6.8C76.6,63.6,62.8,74.1,58,88.2c-13.4,40-30.8,37.4-51,30.9-4.2-1.3-5.5,1.4-3.2,4.3C21.6,146,52.6,134.7,68,122c13.4-11,26.9,6.4,37.7,4.7s15.6,1.3,20.9,3.8c27,12.5,51,16.8,87.4,16.2,1.7,0-1.7-1.5,0-1.5,21.3,0,41.2-9.1,53.8-45.3,3.8-10.8,6.6-17,9.8-32.2,1.6-7.9,2.6-9.8,5.2-13.2s4.6-6.4,11.7-9.5c4.8-2,17.9-10,21.2-14.1S319.4,19.7,315,18.5Z"/></clipPath></defs><title>homeDogs</title><g id="Layer_1-2" data-name="Layer 1"><path class="cls-2" d="M1149,168.3c-1.4,2.9-2.4,1.2-2.7,12.4-.5,16.9-20.3,23-21.3,31.8-1.4,11.2,5.4,20.3,15.3,20.3h6.9c10.1,0,6.2-3.8,6.9-6,2.6-7.9,13.9-12,18.9-21.9s10.7-22.9,22.8-22.1c2.2.1-16-26.6-21.4-28.3C1161.3,150.3,1153.1,159.7,1149,168.3Z"/><path class="cls-2" d="M1241.1,188.3a102.9,102.9,0,0,0-4,29.2c0,3.6-.1,7.2,0,9.4s1.6,3.8,1.4,4.9-1.3,2.2-3.7,2.2h-9.9c-4.4,0-6.9-4.6-7.5-7a183.5,183.5,0,0,1-3.3-21c-1.2-12.6-.9-19.9.3-22.7s9.1-13.1,14.4-9.3,11.1,5.5,11.9,8.5S1241.9,185.7,1241.1,188.3Z"/><path class="cls-3" d="M1281.4,141.1c.7-2.1,1.8-3.9.1-5.1a40.9,40.9,0,0,1-8.7-7.9c.5-.9,2.3.1.8-1.8s-.9-.5-2.8-2a101.6,101.6,0,0,0-12.9-9c-5.2-2.7-11.1-3.9-17.2-.2s-8.4,8.1-13.4,13.7-11.4,12.1-18.5,14.8c-14.1,5.5-37.7,7.2-48,8.8-4.7.7-5.9-4.4-8.8-3.7a3.9,3.9,0,0,0-2.1,2.4c-.8,2,1.3,3.9,2,6.2.1.3.5,2.2-1.4,4.9-5.1,7.2-.4,14.7,16.7,16.9,3,.4-2.8,3.7,4.6,7.7,15.2,8,35.6,12.2,48,13.7,2.1.3,3.4,3.2,4.6,3.2,19.9-.8,20.6-27.3,20.3-39.6-.3-6.8,3.4-21.2,6-21.7,5.4-1,4.1,6.5,4.5,8,1.5,4.9,6.3,9.4,7,10.4s7.2-2.6,9.2-3.3C1276.8,155.5,1279.3,147.1,1281.4,141.1Z"/><g class="cls-4"><polygon class="cls-5" points="1180.8 186.6 1195.1 200.8 1166.2 198.6 1170.5 185.9 1180.8 186.6"/><polygon class="cls-5" points="1232.9 205.4 1235.1 190 1244.4 199.4 1232.9 205.4"/></g><path class="cls-3" d="M1239.5,190.3c-4.5,5.5-6.5,17.4-7.3,27.2-.3,3.6-.6,7.2-.7,9.4s1.6,3.6,1.4,4.8-1.9,2.3-4.3,2.3h-9.9c-4.4,0-6.6-4.5-7-6.9A185.6,185.6,0,0,1,1210,206c-.2-12.6.6-19.9,2-22.7s10.2-13.1,15.1-9.3,10.7,5.5,11.4,8.5S1241.3,188.1,1239.5,190.3Z"/><path class="cls-3" d="M1147,164.9c-1.9,2.8-2.2,5.8-4.7,17-3.8,16.9-24.8,23-27.6,31.8-3.5,11.3,1.6,20.3,11.5,20.3h6.9c10,0,6.9-3.8,8-6,4.1-7.8,16.2-12,23.2-21.9s15.1-22.8,27.1-22.1c2.1.2-10.9-26.6-15.9-28.3C1163.1,151.5,1152.8,156.3,1147,164.9Z"/><path class="cls-6" d="M1281.5,136a38.9,38.9,0,0,1-8.7-8c.5-.8,3.2.8,1.7-1.2a8.5,8.5,0,0,0-3.5-2.7c-2.7-1.4-8.1-6.7-13-9.3l-2-.9c-.8-.3-1-.7-1-1.7s-.1-5,0-6.1-1-1.9-2.2-.4a73.1,73.1,0,0,1-6.9,6.7,9.2,9.2,0,0,1-2.4,1.3l-2.8,1.4c-5,3.1-8.4,8.1-13.4,13.7s-11.4,12.1-18.5,14.8c-14.1,5.5-37.7,7.2-48,8.8-4.7.7-5.9-4.4-8.8-3.7a3.9,3.9,0,0,0-2.1,2.4c-.8,2,1.3,3.9,2,6.2s-.4,2.2-1.7,3.2a15.9,15.9,0,0,0-3.4,3.9c-2,3.6-2.5,8.1-4.7,17.7-1.7,6.9-7.3,17.1-4.6,22.5,1.4,2.7,8.4,4,15-2.2s11.8-13.5,18-16.6,13.7,1.4,19,2.5c9.7,1.9,17.3,1.2,19.9-.9s2.7,4.7,3.2,7.2c1.2,6.5,6.7,4.2,15.4-.9,5.8-3.5,11.4-14.2,12.4-17,2.4-7,3.8-23.1,4-30.7s.1-16.6,4.8-19.4,9.8,5,10.8,10.5c.6,3.7,1.5,6.6,4.5,6.9s6.3-1.9,8.6-1.1,7,1.9,8.3-1.9C1282.1,139,1283.2,137.2,1281.5,136Z"/><path class="cls-7" d="M1253.2,115.8a17.9,17.9,0,0,0,.7-7.6c-.1-1.3-1-.7-2.3.8s-4.3,5.2-4.4,6.4S1252.6,117.4,1253.2,115.8Z"/><path class="cls-8" d="M1269.5,129.6c.1,1.2-1.4,2.3-2.5,2.4a2.1,2.1,0,0,1-2.2-2,2.1,2.1,0,0,1,1.8-2.2C1267.6,127.7,1269.4,128.4,1269.5,129.6Z"/></g><g id="Layer_1-3" data-name="Layer 1"><path class="cls-9" d="M1039.6,161c-7.9,7.8-7.7,17.4-10.8,26.6-2.3,6.6-4.4,18.6-5.3,25.5-.4,3.5,2.9,19.2,3.5,20.9h13.5c1.1-2.1.9-4.8-1.6-6s-3.4-1.2-3.7-3.5a29.7,29.7,0,0,1,.3-10.3c.8-3.4,7.8-12.2,15.3-18.6s14.9-17.6,13.8-27.3S1050.7,150.1,1039.6,161Z"/><path class="cls-9" d="M1118.8,178.9c-.3,10.9,1.7,30.9,2.9,43.5.6,6.9,2.8,11.6,3,11.6H1137c1-1.4,1.6-5.5-1.5-6.7s-2.5-2.4-2.6-3.9,1.2-18.8,3.4-31.9c1.3-7.8,5.6-17.7,5.4-20.7C1141.7,170.3,1118.8,178.9,1118.8,178.9Z"/><path class="cls-3" d="M1186.7,125.8c-1.6-4.2,0-7.1-5.2-7.1-2.1,0-3.3-4.3-5.2-6.5-3.7-4.2-12.5-6.6-17.8-7a17.6,17.6,0,0,0-4,.2c-1.5.2-2.2.2-2.4-.9-1.2-5.5-3.1-9.2-4.5-10.9s-3-1.5-2.7,1.7-2.2,7.4-3.3,15.9c-.3,1.6-2.4,2.7-4.2,3.5-9.8,4.3-15.1,6.8-20.4,10.4s-13.3,4.6-19,5.3c-11.5,1.4-35.4-4.9-50.3,0-5.9,1.9-8.3.8-10.8.1s-15.7,8.7-7.4,11.5c2.9.9,1.9,1.9,4.6,2.5,20.1,4.5-.2,26.1,15.5,33.7,18.3,8.9,45.8,16.4,68,15.5.6,0,1.1,3.1,1.6,2.9,16.8-4.8,23.2-13.4,31.3-34.9,1.5-3.8,2.6-5.5,7.8-8.9s12.5-8.3,15.7-10c4.8-2.5,10.5-5.2,12.4-7.3S1188.1,129.5,1186.7,125.8Z"/><g class="cls-10"><path class="cls-11" d="M1056.2,171.9l22.7,22.6-37.1-6.8Zm54.8,15.7,10.2,15.4,22-6.8-18.3-18.3Z"/></g><path class="cls-8" d="M1178.1,136.1a45.5,45.5,0,0,1-1.3-8.1c-.1-2.8,1-5.8,1.3-7.4s-1.5-6.2-2.6-7.4c-3.7-4.3-12.4-3.2-17.4-3.8-2.8-.3-2.4-3.8-3.6-4s-2.2.2-2.4-.9c-1.2-5.5-3-9.2-4.5-10.9s-2.9-1.8-2.9,1.6-2.1,7.4-3.1,15.9a19.8,19.8,0,0,1-.8,2.6c-1.5,6.1.4,14.2,15,19.8,4.9,1.8,11.2,5.6,13.6,6.8C1174.9,143.1,1178.7,139.5,1178.1,136.1Z"/><path class="cls-3" d="M1171.4,118.5a3.6,3.6,0,0,1-7.2,0,3.5,3.5,0,0,1,3.6-3.6h0A3.6,3.6,0,0,1,1171.4,118.5Z"/><path class="cls-8" d="M1170.2,118.5a2.4,2.4,0,1,1-2.4-2.4A2.3,2.3,0,0,1,1170.2,118.5Z"/><path class="cls-12" d="M1147,97.5c.7-.9,2.5,7.8,2.1,9.4s-2.3,3.3-2.9,3.1,0-3.7.3-6.9S1146.7,98,1147,97.5Z"/><path class="cls-3" d="M1105.8,169.5a124.4,124.4,0,0,1,.9,13.7c.3,13.1,1.6,28.6,2.3,41.9.2,5,2.3,8.9,2.9,8.9h12c1-2,1.6-5.1-1.3-6.3s-2.5-1.7-2.6-3.2a280.9,280.9,0,0,1,4.8-30.3c2-9.4,12.6-11.6,13.3-23.7,1-19.8-10.6-28.5-14-29.5s-8.1-1.7-11,.9S1104.2,158,1105.8,169.5Z"/><path class="cls-3" d="M1054.4,139.4c-1.6-1.3-11.5-11.4-21.5-5.8s-19.7,16.1-19.3,25.8c.3,5.7,1,22.8-1.7,30.6s-8.7,18.4-9.4,23.8-1.1,18.1.2,20.2h12.4c1-2,1.4-4.5-.9-5.8s-2.2-2.2-2.2-4.3a21.4,21.4,0,0,1,3.5-9.6c3.6-5,7.7-3.9,24.1-19.5,7.1-6.7,16.1-13.8,21.3-15.3,3.3-1,7.1-1,13.8-.4S1061,144.6,1054.4,139.4Z"/><path class="cls-13" d="M1098,130.4c-11.4,1.4-35.3-4.8-50.2,0-6,2-8.3.1-11-.3s-7.4,3.1-9.7,7.3c-8.8,6.2-14,13.5-13.6,21.9.1,2.2.3,6,.3,10.5,0,2.5,3.2,3.5,9.8-6.3s10.6-11.6,17.7-13.1c12.1-2.6,13.5-1.4,18-8.9s9.2-2.7,16.9,8.8,7.6,23.7,16.8,31.5c7.4,6.4,20,3.2,25.8-2.9s11-15.7,5.9-26.2c-3.3-7-6.9-14.3-8.2-24.6-.2-1.8-1.1-1.8-2.1-1.4C1109.4,129,1102.8,129.9,1098,130.4Z"/></g><g id="Layer_1-4" data-name="Layer 1"><path class="cls-14" d="M988.1,159.6c.7,4.9-4.6,13.4-4.4,19.5.4,15.2,3.1,20.6,7.2,32.9,2.6,8,6.4,22,7,22H1012c2.1-4,1-8-2.2-9.5s-2.9-1.9-3.1-3.6,3.5-13.9,5.1-29c1.2-11.1-.7-15,0-29C1013,140.1,986.2,146.3,988.1,159.6Z"/><path class="cls-14" d="M876.7,149.8c-9.2,9-12.3,14.4-16,25-2.6,7.7-1.2,24.4-3.1,31.8-1,4.1,4.4,25.5,5.1,27.4h14.7c1.3-2.4,1.6-6.2-1.3-7.5s-3.9-1.3-4.4-4a34.4,34.4,0,0,1,2.3-12.3c1.8-4.1,7.6-9.7,18.2-17.9a35.5,35.5,0,0,0,13.9-32.2C906.1,147.8,889.5,137.2,876.7,149.8Z"/><path class="cls-3" d="M1046.5,112.3a2.6,2.6,0,0,0-1.9-3.1h0c-6.2-1.9-16.4-2.1-19.7-4-1.6-1-1.8-7-9.1-9.3S998.7,94.8,994,98c-9,6.1-15.7,20.2-21.8,32.6-4.2,8.6-10.4,9.8-18,10.5-13.2,1.3-23,3.3-29.4,3.5s-26.4-.2-44.7-1c-12.4-.6-30.5,13.8-30.6,17.2-.4,16.6,18.7,30,36.8,38.8,21.6,10.5,56.7,22.9,84.2,15.6,5.8-1.5,9.4,2.1,15.2,1,31.7-5.7,37.3-30.9,36.6-47.4-1-23.5-6.6-37.4,3.5-40.5,3.8-1.2,5.1-1,11.4-3.9S1046,116.1,1046.5,112.3Z"/><g class="cls-15"><path class="cls-11" d="M981.6,206.3,993.4,224l15.5-11.5-16.3-16.2Z"/></g><path class="cls-3" d="M863.9,147.6c-13.1,6.3-18.1,17.8-21.8,30.6-4.5,16.1.1,33.8,1.4,34.2.5,4.9-.6,5.1-.6,8.8-.1,5.7,1,11.2,1.9,12.8h17.3c1.1-2.3,1.5-6.4-1-7.8s-4.1-1.7-4.1-4.2,1-7.1,3.7-10.2c4.3-5,19.3-12.7,28.1-10.7,36,8.4,38.5-14.9,41.1-15.2s-26.9-30.5-47.7-40.7C875.3,141.8,867.8,145.8,863.9,147.6Z"/><path class="cls-3" d="M972.7,159.6c.7,4.9-10.5,14.2-10.4,20.4.5,15.1,8.9,32,14.5,43.7,2.7,5.8,5,10.3,5.7,10.3h14.1c2.1-4,1.1-8-2.2-9.5s-2.9-1.9-3-3.6,3.4-16.9,5-32.1c1.2-11.1,11.8-15.7,12.5-29.7C1010.1,136.4,970.8,146.3,972.7,159.6Z"/><path class="cls-16" d="M1032.6,107.7c-.4-.6-.6-.8-1-.9-2.9-.4-5.3-.9-6.6-1.7s-1.9-7-9.2-9.3a31.4,31.4,0,0,0-8.6-1.3,19,19,0,0,1-2.9-2.8c-1.7-2.4-5.4-13.5-13.6-14.5-3.3-.3-2.9,5-1.6,15.6.5,3.6.8,6.2,1.1,8.1-7.2,7-12.9,19-18.2,29.7-4.2,8.6-11,9.7-18.5,10.5-13.3,1.3-22.8,3-29.1,3.2s-26-.2-44.3-1c-4.4-.2-10.7,1.2-16.7,4.1-12.3,5.9-18.3,18.2-21.5,29.4-4,14.4-2.9,29.5.7,35.6a6.3,6.3,0,0,1,.9,3.3c0,.5.7.5,1,.6a10.8,10.8,0,0,0,4-.1,74.5,74.5,0,0,0,12.4-5.2,8.2,8.2,0,0,0,2-1.2,46.1,46.1,0,0,1,19.3-8.6,19.6,19.6,0,0,1,9.9,1.3c21.8,9.8,53.3,19.8,78.5,13.2a9.5,9.5,0,0,1,3-.8,7.9,7.9,0,0,0,3.9-1.1,40.9,40.9,0,0,0,9.5-5.6c5-3.9,5.8-8.5,7.1-13.7s9.4-7.2,13.9-16.1c6-11.6-5.6-40-5.8-52.9s6.5-11.6,11.6-11.8,11.1,1.1,15.6.3S1033.4,109.4,1032.6,107.7Z"/><g class="cls-17"><polygon class="cls-11" points="896.2 190.6 922.3 216.7 874 213 896.2 190.6"/></g><path class="cls-16" d="M904.9,199.1a215.1,215.1,0,0,0-22.7,2.1,47.4,47.4,0,0,0-19.3,8.6l14.7-24.6h33.1Z"/><path class="cls-8" d="M1022,105.9c.1,1.5-1.8,2.9-3.2,3a2.6,2.6,0,0,1-2.8-2.6,2.8,2.8,0,0,1,2.2-2.8C1019.6,103.4,1021.8,104.4,1022,105.9Z"/></g><g id="Layer_1-5" data-name="Layer 1"><path class="cls-2" d="M767.4,150.2c-9.1,8.9-7.2,22.4-10.8,32.9-2.6,7.6-6.7,16.4-8.6,23.8-1,4,1.8,25.2,2.5,27.1h13.6c1.2-2.4,1.4-5.5-1.4-6.9s-2.8-1.3-3.3-4a58.9,58.9,0,0,1,1.1-13.9c1-3.9,11-12.3,19.1-19.9,9.8-9.2,14-18.8,12.7-29.9S780.2,137.7,767.4,150.2Z"/><path class="cls-2" d="M865,170.2c-.5,19.3,3.7,63.8,4.3,63.8H883c1.1-1.7,1.9-6.3-1.8-7.7s-2.1-3.2-2.3-4.9-.6-21.9,1.6-35.2c1.5-8.9,5.4-21.5,5.2-24.9C885.6,160.6,865,170.2,865,170.2Z"/><path class="cls-3" d="M930,92.5c-.1-1.9-.7-2.1-2-2.3-5.5-1.2-10.6-1.9-15.5-3.1-1.9-.5-1.2-5.7-5.9-8.4-7.5-4.1-21.8-4.5-26.5-1.3-9,6-10.8,12.3-15.4,20.6s-9.4,12.1-15.3,15.6c-11.5,6.7-39.9,8.1-46.3,8.7s-10.7.3-26.2.6c-5.1.1-8.3-2.2-10.1-9.2-2.1-8.7-5.2-26.5-.3-44.7,2.8-10.2-7.8-8.4-11.5,1.4-5.5,14.6-2.8,36.7,2,57.7,2.6,11.3-9,24.2-7.8,27.4,9.2,22.8,16.2,9.1,35.6,14,24.5,6.3,52.9,16.5,80.5,10.1,18.1-4.1,23.1-17.3,24.6-34.2.4-4.4,2.7-9.2,3.6-13.6,3.7-16.6,5.7-18.6,15.1-19.6,3.9-.5,8.6,0,14.4-2S930.4,97.2,930,92.5Z"/><g class="cls-18"><path class="cls-11" d="M790.1,160.6l26,26-48-3.8Zm62.7,10.1,11.7,17.7,22-15.9-16.1-16.1Z"/></g><path class="cls-3" d="M785.7,133.1c-1.8-1.4-24.5-14.9-27.6-2.1-2.7,11.1-8.1,11.8-11.3,25.7-1.5,6.4-2.2,16.2-5.2,25.1s-12.5,17.7-13.4,23.8c-1,7.8-1.8,26.1-.2,28.4h14.8c1.2-2.3,1.6-5.2-1-6.6s-2.5-2.5-2.5-5,1-10.4,3.4-13.7c4.2-5.7,20.5-17.4,24.4-22.3,8.3-10.5,13.7-17.5,21.8-18.9,11.4-2.1,16.3-.8,24-.1S793.3,139.2,785.7,133.1Z"/><path class="cls-3" d="M845.3,159.9c.7,5,3,8.8,3.2,14.9.4,15.1,2,33.7,2.8,49,.3,5.7,1,10.2,1.6,10.2h13.5c1.2-2.3,1.8-5.8-1.5-7.3s-2.8-1.9-3-3.6.8-14.7,4.7-33.6c2.3-10.9,14-16.1,14.7-30,1.2-22.6-9.7-31.1-13.6-32.2s-9.4-2-12.7,1S843.5,146.8,845.3,159.9Z"/><path class="cls-19" d="M866,116c-4.6-3-9.3-4.6-15.2-.7-1.4,1-3.7,1.9-5.2,2.8-11.4,6.6-36.3,5.6-42.6,6.2s-11.9-.5-26.1-1.4c-5.1-.4-8.2-2.3-10-9.3-.6-2.6-1.4-6-2-9.9,0-.4-.2-.5-.7-.3a14,14,0,0,1-4.7,2.4,9.5,9.5,0,0,1-6.4-1.1c-.3-.2-.4-.2-.4.3a219.4,219.4,0,0,0,4.1,22.9,13.7,13.7,0,0,1-1.5,10.1c-1.7,3.3-3.7,5.6-5.5,9.5a33.5,33.5,0,0,0-2.5,6.9c-.9,7,8.7,21.9,15.4,24.8,3.7,1.6,6.3,1.9,8.2,1.4a2.6,2.6,0,0,0,1.9-1.3c3.5-3.9,6-6.9,9.4-9s12.2-4.2,19.8-3c14.3,2.3,29.2,6.3,34.2,7.3,3,.5,6.9,2.8,9.6,4.7.6.4,2.3,1,3,2s.7,3.2,1.9,5.6c2.7,5.4,13.7,9.3,15.1,7s.8-3.1,1.1-4.6c1.2-5.8,6.3-11.8,8.7-14.9,4.4-5.6,5.7-11.3,6.4-16.8a84.8,84.8,0,0,0-.8-26.6C879.9,124.2,870.2,118.8,866,116Z"/><path class="cls-19" d="M906.6,78.6c-7.4-4.2-20.7-4.8-26.6-1.2C870.7,83,869.1,89.8,864.6,98c-.8,1.4-.3,1.8.8,2.8a36.9,36.9,0,0,0,9.3,5.7c4.8,1.9,8,15.1,27.6,5.4,5.4-2.6,2-11.1,3.7-13.9s3.3-3.5,3.7-6.3a22,22,0,0,0-1.1-10.5A4.3,4.3,0,0,0,906.6,78.6Z"/><path class="cls-8" d="M863.3,120.8c7.3-7.9-7.5-10.9-8.2-10.7-2.6.4-3.8,2.4-8.1,4.3-12.2,5.3-35.6,6.8-42,7.3-10.4.7-16.6.7-26.9.9-2.4,0-5.5-.5-7.1-1.7s-.8-.2-.8-.1c-.4,3.1,4.9,8.4,9.7,15.4,3.3,4.6,6.4,14,10.5,18.4,7.3,8,21,12.1,46.8,14,22.2,1.5,10.8-19.3,13.4-30.6C852.8,128.6,859.2,125.1,863.3,120.8Z"/><path class="cls-8" d="M906.3,86.5c0,1.3-2,2.3-3.3,2.3a2.5,2.5,0,0,1-2-2.8,2.4,2.4,0,0,1,2.3-2C904.5,84,906.3,85.2,906.3,86.5Z"/><path class="cls-20" d="M870,99.1a20.6,20.6,0,0,1,8.1-13.5,24.9,24.9,0,0,1,5.8-3.7c1.3-.6,2.9-.1,3.4,2.1,1,4.5,3.2,9.2,5,15.4,2.8,9.3,2.5,17.4,1.2,19.1-3.3,4.3-12.6,3.3-17.5-.2C872.9,116.1,869,106.2,870,99.1Z"/></g><g id="Layer_1-6" data-name="Layer 1"><path class="cls-21" d="M727,222.8c0,1.8-.6,9,.8,11.2h12.4a3.7,3.7,0,0,0,1-4.4c-.7-1.4-4.1-3.5-5.2-6.4S727,222.8,727,222.8Z"/><path class="cls-21" d="M622.6,220.4c.4,1.9-.8,11.2,1.1,13.6h14.7a3.6,3.6,0,0,0,.3-4.7c-1.1-1.5-5-4.7-6.8-7.8S622.6,220.4,622.6,220.4Z"/><path class="cls-14" d="M747.9,169.4c-5.4,8.4-5.1,21.4-6.2,34.7-1.3,15.1-.4,16.8-3.4,18.9s-18.7,1.5-20.9-2.6-2.4-25.5-2-35.6c.8-17.7,2.4-28.2,4.4-32.1s14-18.5,20-13.2,9.7-12.9,11.8-9.2S759,152.1,747.9,169.4Z"/><path class="cls-14" d="M619.5,128.1c-1.9,4,11.9,20.9,14.3,37.2s-6.1,27.3-10.3,35.2c-7.7,14.3-4.9,22.2.9,23.6s11.1-.4,14.7-4.9c12.8-15.7,14.6-19.3,17.8-29.4,5.1-16.5,8.9-29.6,24.1-27,12.2,2.1-8.8-34-18.3-39C654.7,119.5,625.4,116,619.5,128.1Z"/><path class="cls-22" d="M765.2,74a7.8,7.8,0,0,0,4.3,4.1c6.2,2.1,15.6,5.5,16.6,6.1s-3.4,9.7-8.2,10.8-12.9-.2-18.7-.7a12.7,12.7,0,0,0-6.4,1c-5.4,1.9-6.8-9.1-4.3-13.5S764.3,71.8,765.2,74Z"/><path class="cls-3" d="M592.1,78c-9.2,8.8-6.1,25.6,4.9,31.4s17.3,1.4,19,3.1,3.4,6.3,3.4,6.3l9.7-7.6s-5.1-3.4-5.4-4.7,7-15.8-3.1-27.1a20,20,0,0,0-28.1-1.8Z"/><path class="cls-22" d="M712.8,223.4c0,1.8-.6,8.2.9,10.6h14.1a3.9,3.9,0,0,0,1.1-4.7c-.7-1.5-4.4-3.8-5.6-6.9S712.8,223.4,712.8,223.4Z"/><path class="cls-22" d="M596.6,220c0,1.9-.2,11.6,1.2,14h14.1a4,4,0,0,0,1.2-4.7c-.7-1.5-4.1-4.7-5.2-7.8S596.6,220,596.6,220Z"/><path class="cls-8" d="M760.3,79.5a10.8,10.8,0,0,0,5.3.8c.7-.2,1.5-2.7.5-3S759.5,79.1,760.3,79.5Z"/><path class="cls-3" d="M757,129.5c1.8,17.3-1.2,42.8-29.4,44-8.9.4-37-1.5-63.6-13-11-4.7-15-3-19.3-3.6-24.2-3.2-33.5-11.4-33.5-23.7s9-23.1,23-25.2,31.4,2.8,40,3.4c24.4,1.9,31.2.8,36.2-10s10.8-33,20.3-42.7c7-7.3,18.9-9.6,26.8-7.6,11.8,3.1,13.8,12.3,13.5,17.4-.4,6.7-3.4,11.5-14.7,11.4,10.1,23.8,11.5,35-.2,37.3Q756.3,122,757,129.5Z"/><g class="cls-23"><polygon class="cls-5" points="669.9 155.5 683.6 169.3 654.3 167.5 658.4 155.3 669.9 155.5"/><polygon class="cls-5" points="738.9 176.2 741.2 160 751.1 169.8 738.9 176.2"/></g><path class="cls-3" d="M745.1,162.6c-6.2,7.8-9.3,25.5-11.1,39.4s-1.9,19.5-4.9,21.7-19.5,3-21.4-2.1c-1.4-3.5-1.9-26.7-1.5-36.8.8-17.8,2.4-28.2,4.4-32.1s14-18.5,20-13.2,13.3,7.9,13.8,12.1S747.6,159.5,745.1,162.6Z"/><path class="cls-3" d="M612.4,128.1c-2.8,4-.9,12.9-3,29.1-1.8,13.9-11.8,24.7-15.8,35.2-6,15.7-3.5,27.5,1.1,30.4s14.3,3.3,17.1-2.2c5.8-11.2,17-20.9,26.9-34.8,8.5-12.2,17.9-26.7,34.8-25.6a131.6,131.6,0,0,1,13.2.7c5.6.8-23.7-33.3-30.2-37.1S620.6,116,612.4,128.1Z"/></g><g id="Layer_1-7" data-name="Layer 1"><path class="cls-22" d="M439.7,125.1c-11.8,11.6-5.3,35.7-11.2,46.9-4.9,9.2-9.1,14.4-10.9,24.1s-2.3,35.3-.5,37.9H438c1.6-3.1,1.9-7.2-1.8-9s-5.1-2.5-5.1-5.9,3.5-14.8,5.9-19.6c1.6-3.1,7.5-9.2,14-15.7,0,.6.3,1.3,1.9.2s2.8-3.4,3.8-3.6,1.1,1.7,2.5-.5,3.2-4.7,3.6-4.5.2,1.6,1.5.4,2.6-5.4,3.4-5.3,1,1.6,1.9.4.9-5.1,1.5-5.2,1.2,2.1,2,1.1a15.4,15.4,0,0,0,3.6-9.8C482,162.4,456.2,108.8,439.7,125.1Z"/><g class="cls-24"><polygon class="cls-25" points="423.1 139.4 410.8 237.1 448.4 234.9 488.9 140.1 423.1 139.4"/></g><path class="cls-22" d="M558.1,161.9c-.4,4.4-1.9,26.1-.4,27.4s3.2-3.4,4.1-2.2-2.7,9.6-1.6,12.8c.6,1.4,2.5.3,3.2,1.9s.9,4.5,1.4,6.8c1.3,5.6,2.7,4.6,3.2,5.4l.7,7.4c.6,6.9,1.4,12.6,2.2,12.6h19.5c2.5-3.7,1.9-8.7-2.9-10.4s-4-3.2-4.2-5.4.8-25.5,2.3-47.6a48.1,48.1,0,0,1,.8-6.5c.1-.3.4-1.1.8-1s1-2.2,1.1-3.2.4-2.1,1.1-1.7,1.2-2.6,1.6-4.4S558.1,161.9,558.1,161.9Z"/><g class="cls-26"><polygon class="cls-25" points="528.7 141.6 564.8 237.8 599.5 236.3 600.3 104 528.7 141.6"/></g><path class="cls-22" d="M652.4,50.6c-4.4-3.2-17-7.4-22.2-11-2.1-1.4-2.2-6.1-5.6-9a33.3,33.3,0,0,0-11.7-6,94.3,94.3,0,0,0-11.7-1.7,24.4,24.4,0,0,0-20,8c-.9.9-9.1,10.9-10.3,12.5-7.5,9.9-13.3,20-20.9,24.9-15.1,9.5-24.2,10.5-50.4,12.4-7.8.6-37.1-.5-56.8,2.5-7.3,1.1-17.8,3.6-34.8,13.4-22.2,13-45.4,18.6-70.4,21.7-12.5,1.6-19.6,4.3-24.2,6.8-2.5,1.3-4.2,3-3.9,3.6s5.5-.8,5.9-.3-.4,1.5-1.1,2.6-.5,2.9,1.6,2.5,2.5-.8,2.7,0a2.6,2.6,0,0,1-.3,2.1c-.5,1.3,0,1.7,1.6,1.2s2.4-.3,2.9.4a5.5,5.5,0,0,1-.1,3.1c-.5,1.5.7,2.4,1.6,1.3s2.9-2.7,3.4-2.3.4,3.9.5,5.7,1.7,1.8,2.2.5,1.5-3.3,2-3.1,0,5.7,1.3,6.7,3.1-4.2,4.6-4.9-.3,6.3,2.3,6.9,2.7-5.9,5.1-6.5,1.5,6,2.9,7.7,3.1-6.1,4.9-6.7,1.5,7.1,3.4,8.3,2.9-8.3,5-8,2.7,9.2,5.2,9.7.4-9.2,2.8-9.6,4.7,8.3,7.8,8.1-.7-9,2.6-9.9,4.7,6.9,7.7,6.4.1-8.1,1.6-8.4,3.3,3.7,5.5,4,.6-6.6,2.2-7.2,3.9,1.4,4.7,4.1,2.1-5,2.9-6.5l13.4-2.3c9.3-1.8,28.7,12.7,43.5,17.6a8.5,8.5,0,0,1,1.7.6c.5,2.4.8,9.2,3.9,11s3.8,1.5,4.7,1.1,1.2-1.3,2.5-1.2,2.6,1.9,4.3,3.6,3.6,2.5,3.2.3,1-2.1,2.1-.8a35.3,35.3,0,0,0,7.3,6.1c2.6,1.3,1.9-1.1,2.7-2.1s5.5,3.1,7.2,4.9,3.8,2.4,3.4.4-.1-2.4,1.2-2.5,4.1,2,5.9,3.8,3.5,2.1,2.9-.2.5-3.1,1.8-1.7,3.1,3.8,3.8,4.6,2.7,1.7,2.4,0-.3-2.3.7-2.5,1.7,1,3.9,2.9,3.6-1.3,4.3,1.8,3.6,5.1,3.8,7.3c.4,3.8-.2,4.8.2,7.7s.6,3,2.7,1.9,1.9.2,1.9,2.1-.4,9.7-.2,11.6,1,3.1,3,2.2,2,.4,2.2,2.1a28.4,28.4,0,0,0,1,4.9c1.2,3.2,4.4-1,4.9.6s-1.1,3,.5,4.6,3.3-2.8,4.2-4.4,8-50.2,13.1-52.7c.5,1.3.5,3.4,1.8,2.6s4.8-6.3,5.9-5.9-.3,4,1,3.3,3-4.7,3.8-5,.4,3.3,1.1,3,2.8-6.4,3.6-7.1,1.1,3.2,2.2,2,3.4-7.5,4.1-8.2,1.9,1.1,2.6-.1,2-6.5,2.6-7.1,1.7,1.2,2.2.2.6-6.5,1.2-7.3,1.9,1.3,2.4,0-.5-4.4,0-5,1.9,1.5,2.5-1.1a73,73,0,0,0,.9-9.4c.1-1.4-.3-5.6,1.1-4.9s.2-6,.2-11.7c0-2.8,0-6.3,1-6.2s1.5-1.2,1.1-4.2c-.1-1.2-.7-8.2.2-7.4s1.5.1,1.4-1.4c-.3-3.6-.1-8,1.3-10.5s4.7-6.1,7.7-6.8c5-1.1,10.4-.4,20-2.2,6.9-1.2,10.6-10.6,12.1-14.7C653.7,52.9,653.7,51.6,652.4,50.6Z"/><g class="cls-27"><path class="cls-11" d="M474.4,149.6l33.8,33.8-62.4-4.9Zm77.2,6.1,15.2,22.9,20.1-14.9-21-21Z"/></g><path class="cls-8" d="M623.6,39.3c0,1.5-2.2,2.6-3.7,2.6a2.6,2.6,0,0,1,0-5.2C621.4,36.7,623.6,37.9,623.6,39.3Z"/><path class="cls-28" d="M581.2,40.8c2-4.6,10.5-10.9,18.3-11.9,4.1-.6,6.3,1.4,5.9,3.5-3,13.7,4.8,35.6,0,37.7-9.2,3.9-21.1-6.7-24.2-15.3A19.3,19.3,0,0,1,581.2,40.8Z"/><path class="cls-22" d="M458,103c-2.3-1.9-29.9-6.4-43.3,4.1-8.4,6.5-13.8,27.8-13.8,27.8.6,2.6-.8,6.8-1.2,8.5s-.3,2.8.9,2.6.2,1-.2,2.3-1.1,2.5-.6,2.3-1,2.4-1,3.7-.1,1.1.4,1.2c-1,5.6-1.8,10.2-3,13.3-3.7,9.8-13.5,19.2-14.2,28.3s-1.1,33.8,1,36.9h20c1.5-3,2-6-1.4-7.9s-4-4-4-7.2,1.3-13.6,4.5-18c5.5-7.4,20.3-8,31.9-18.8,1.5.7,3.4.1,5.4-3s3.5-3.2,3.5-.4,2.6.2,4.9-4.3c.7-1.3,2.1-1.4,2,0s1.1,1.7,2.6.4a15.1,15.1,0,0,0,2.1-2.3c1.1-1.7,2.5-2,2.7-.6s1.8.8,2.7-2c.4-1.2,1.1-3.8,2.2-3.7s1.6,2.3,2.6,2.4,3.3-5.6,4.4-7.8,4.3-3.4,7.7-3.8C493.7,155.2,471.9,114.1,458,103Z"/><path class="cls-22" d="M543.2,136.7c1,6.4,3,12.8,2.7,20.8-.6,18.6-1.2,43.4-.1,63.2.4,7.4,1.3,13.3,2.1,13.3h18.6c1.6-3.1,2.3-8-1.9-9.9s-3.7-2-3.9-4.3.7-21.1,5.8-45.7c2.3-10.9,13.5-20.1,14.4-38.1,1.6-29.5-9.7-39.3-14.7-40.8-6.6-1.9-12.2-2.5-16.5,1.4S540.8,119.6,543.2,136.7Z"/></g><g id="Layer_1-8" data-name="Layer 1"><path class="cls-3" d="M281.8,95.3a12.8,12.8,0,0,1,10.4-10.1c13-2.1,21.7,19,25.7,30.1s10.9,8.6,16.6-1,6.4-25.9,3.6-36.4a41.9,41.9,0,0,0-5.9-13.1c-11.7-17-35.7-27.5-58.9-13.3-16.7,10.1-21,23.5-24.6,36.2-3.1,11-4.1,27.5-8.8,39.4Z"/><path class="cls-14" d="M273.7,161.7c-3,10.8-7.8,31.8-8.2,40.1-.2,5.8,3.3,29.5,4.3,32.2h20.5c1.8-3.3,2.1-7.7-2-9.6s-5.3-1.9-5.9-5.6a53.1,53.1,0,0,1,1.4-14.9c1.4-5.5,15.2-13.4,22.6-26.7,9.1-16.4,8.4-27.4,6.6-42.9C313,117.1,281.7,133.5,273.7,161.7Z"/><path class="cls-14" d="M406.9,130.4c1,6.9-28.5,31.4-28.2,40,.5,18,17.3,35.7,23.1,45.9,1.5,2.5,8.9,3.4,9.1,6.5.4,8-1.6,11.2-.8,11.2h18.5c1.7-3.3,2.5-8.2-2.1-10.2s-3.9-2.6-4.2-5a176.9,176.9,0,0,1,3.1-46.5c3.4-16.4,11.5-28.1,12.6-47.5C439.6,93.1,404.3,112,406.9,130.4Z"/><path class="cls-3" d="M467.8,43.5c-.4-4-2.6-5.6-4.4-5.4-5.8.5-7.9,1.5-15.3,2.2-5.1.6-5-10.1-21.5-11.2h-1.3a10.1,10.1,0,0,1-2.5-.3l-2.9-.8c-2.6-1.1-7.3-6.9-9.5-6.9s-2.8,3.5-2.5,8.9c.1,2.6-4.3,7.8-7.6,13.9a11,11,0,0,1-1.7,2.5c-9.2,11.2-11.1,13.8-19.9,25.9s-16.2,13.4-32.5,13.1c-8.3-.1-32.4-3-57.5,2.5-17,3.6-36.2,15.8-39.6,35.4-5.7,32.7,26.2,26.5,50.4,40.5,30.4,17.8,45.3,25.1,92.5,24.5,1.6,0,11.2-5,12.7-5,24.4-.2,52.2-47.2,50.9-79.5-.8-18.7-9.7-29.9-8-32.4s4.8-3.5,13.9-9.5C468,57.7,468.9,51.9,467.8,43.5Z"/><g class="cls-29"><path class="cls-11" d="M304.1,151.7l36.4,36.4-67.2-5.3Zm82,22.3,16.3,24.7,21.6-16-22.6-22.6Z"/></g><path class="cls-3" d="M264.4,95.7a54.8,54.8,0,0,0-16,14.7c-7.9,11.4-11.8,22.3-11.8,36.8s6.9,41.8,5.2,50.3c-2,10.3-1.2,33.5,0,36.5h21.4c1.7-3.2,2.2-7.3-1.4-9.3s-3.5-3.5-3.5-7,.7-9.7,4.1-14.5c5.9-8,34.1-24,44.4-43a52.2,52.2,0,0,1,5.2-8C321.8,139.7,272.3,90.9,264.4,95.7Z"/><path class="cls-3" d="M392.1,130.4c1,6.9-28.5,31.4-28.2,40,.5,18,15.7,38,23.1,45.9,4.9,5.1,8.3,4,8.8,7,1.1,7.8,2.7,10.7,3.5,10.7h18.5c1.8-3.3,2.5-8.2-2-10.2s-4-2.6-4.3-5a129.3,129.3,0,0,1-1.4-49.2c2.9-16.5,12-25.4,13-44.8C424.8,93.1,389.5,112,392.1,130.4Z"/><path class="cls-8" d="M440.2,43.6c.7,1.3-.7,3.3-1.9,3.9a2.7,2.7,0,0,1-2.4-4.7C437.1,42.1,439.5,42.2,440.2,43.6Z"/></g><g id="Layer_1-9" data-name="Layer 1"><path class="cls-8" d="M80.9,104.1c-14.9,13.8-13.5,34.7-20.1,51-4.8,11.9-10.2,20.3-13.2,34C46.2,195.5,50,231,50.9,234H69.5c2.2-3.7,2.8-8.5-1.5-10.6s-5.8-2.1-6.2-6.2a105.4,105.4,0,0,1,3.3-22.4c1.9-6.1,13.4-17.6,26.8-29.3,10.9-9.7,18.9-23.8,23.9-34.3,2.9-6,9.9-10.7,31.6-6.9C148.5,105.2,102,84.7,80.9,104.1Z"/><path class="cls-8" d="M218.2,134.3c.4,30,8.2,98.7,9.1,98.7l17.6.6c1.6-2.6,2.4-9.8-3.3-11.9-4.2-1.6-4.5-4.2-4.8-6.9-.2-1.1.1-31.5,2.3-56.2,1.3-13.9,10.6-32.5,10-37.8C249,119.7,218.2,134.3,218.2,134.3Z"/><path class="cls-30" d="M315,18.5c-6.6-1.8-8.7-.5-16.2-3.4-4.3-1.7-5.4-7.9-9.8-10.5-6.7-3.9-26.2-7.2-38.7,5.8S234,29.3,223.1,41.9,209.2,54.3,196.9,58,171,61.6,153,61.3c-8.1-.2-33.7-1.3-58.6.8C76.6,63.6,62.8,74.1,58,88.2c-13.4,40-30.8,37.4-51,30.9-4.2-1.3-5.5,1.4-3.2,4.3C21.6,146,52.6,134.7,68,122c13.4-11,26.9,6.4,37.7,4.7s15.6,1.3,20.9,3.8c27,12.5,51,16.8,87.4,16.2,1.7,0-1.7-1.5,0-1.5,21.3,0,41.2-9.1,53.8-45.3,3.8-10.8,6.6-17,9.8-32.2,1.6-7.9,2.6-9.8,5.2-13.2s4.6-6.4,11.7-9.5c4.8-2,17.9-10,21.2-14.1S319.4,19.7,315,18.5Z"/><g class="cls-31"><path class="cls-11" d="M116.8,111.9l40.3,40.3-74.5-5.8Zm98.5,24.3,18.1,27.4,24.1-17.8-25.2-25.1Z"/></g><path class="cls-32" d="M291.3,15.5a3.4,3.4,0,0,1-2.9,3.8,4,4,0,0,1-4.3-2.9c-.2-1.8,1.7-3.5,3.4-3.8A3.4,3.4,0,0,1,291.3,15.5Z"/><path class="cls-8" d="M270.4,3.7c-7.6-1.1-20.7,1.5-26,6.8-3.4,3.4,11.5,27.6,17.3,30.1s6.8-1.8,6.1-8.5c-.4-4.9-1.6-14.3,5.4-23.6C275.7,5.3,274.5,4.2,270.4,3.7Z"/><path class="cls-20" d="M73.2,181.2c-.8-1.3-4,0-7.7,1.6-8.5,3.7-18.3,9.1-18.4,14.8-.1,11.4,3,33.8,3.7,36.4H69.6c2.2-3.7,2.6-8.7-1.7-10.9s-5.5-2.1-5.9-6.2a93.1,93.1,0,0,1,3.1-21.6,25.8,25.8,0,0,1,6.1-9.5C73.8,183,73.9,182.1,73.2,181.2Z"/><path class="cls-20" d="M241.6,221.7c-4.2-1.6-4.5-4.2-4.8-6.9-.2-.8.1-18.1,1.1-36.9.2-2.6-.7-2.7-2.1-1.8-3.6,2.6-8.1,4.4-11.4,7.4s-2.8,2.9-2.5,6.2c2.3,23.2,4.9,43.3,5.4,43.3l17.6.6C246.5,231.1,247.3,223.8,241.6,221.7Z"/><path class="cls-30" d="M93.7,65.2c-5.3,3-30.8,4.5-35.8,43.7-3.1,24-7.5,37.9-15,48.8s-18.1,18-18.9,25.9c-.6,6.3-.7,19.9-.3,31.3A72.4,72.4,0,0,0,26.6,234H41.7c1.8-3.6,4.3-6.4.3-8.6s-4.3-5.4-4.3-9.2,3.1-19.7,6.4-25.2c6.5-10.8,39.6-27.5,49.6-41.8,20.2-28.9,28.7-25.2,33.6-24.2C181.1,135.9,129.9,44.6,93.7,65.2Z"/><path class="cls-32" d="M42.3,188.7c-3.4,2.4-4.1,4.3-7.5,9.4s-6.8,6.5-9.3,7.3-2.2,2.6-2.2,4.8c.3,9.9,1.1,22.2,1.7,23.8H44.7c1.8-3.6,2.5-8.1-1.6-10.4s-3.9-3.8-3.9-7.7,2-19.8,5.3-25.3C45.8,188.7,44.7,187,42.3,188.7Z"/><path class="cls-30" d="M196.4,119.2a197.3,197.3,0,0,1,3.1,23.1c1.6,23.3,4.2,52.1,6.4,75.8.9,8.9,4.2,15.9,5.2,15.9h14c1.8-3.6,2.9-8.3-2.2-10.6s-4.1-3.6-4.5-6.3.6-25.9,4.6-55.4c2.4-18.4,11.8-29.1,12-50.6.5-35.2-4-40.9-10.2-42.7-7.9-2.3-14.6-3-19.6,1.6S192.8,98.7,196.4,119.2Z"/><path class="cls-32" d="M223.3,222.7c-4.1-1.8-4.5-2.9-4.8-5.6-.1-.5.5-8.7.8-15.5a5.9,5.9,0,0,0-1.3-4.9c-3.1-3.3-7.6-5.7-12.8-7.7-1.3-.5-2.1-.1-1.9,1.5.6,7.8,1.8,20.4,2.5,27.4.9,8.9,2.4,16.1,3.3,16.1h17C227.9,230.4,228.5,225,223.3,222.7Z"/><path class="cls-33" d="M284.8,38.3c1-1.7,11.2-5.9,18.2-5.6,3.1.2,5.7,2.8,7,3.4s.9,3.7-.1,4.9-3.4,2.4-9.8,2.3c-2.8-.1-14.2-1.1-15-3.2S284.8,38.3,284.8,38.3Z"/><path class="cls-34" d="M290.5,40.3c0-.4,1.2-2.1,1.9-2.1s1.7,2.4,2,2.9,1.5-.8,2.3-1,1,.5,1.5,1.3,2.9-.7,3.3-.6.9.6,1.4,1.1,2.4-2.2,3.2-3.3,1.3,2.3,1.3,3.1,1.4-1.4,1.7-1.8.9,1.2.9,1.8-.9,1.3-3.4,1.3h-6a34.2,34.2,0,0,1-7.8-1.2C291.3,41.2,290.4,40.9,290.5,40.3Z"/><path class="cls-32" d="M313.6,27.4c-1.4-.7-2.4-2.9-2.6-5.1s-.5-1.3-1.2-.6c-7.4,6.1-21,7.9-26.9,12.5s-4.6-3.4-4.1-7.2-4.5-3.1-7.9,6.5c-2.4,6.8,3.4,7.9,3.6,11.1s1.4,10.4,4.7,13.6c1.1,1.1,2.1,0,3.1-2s2.1-4.5,6.2-5.5,7-1.1,13.4-1.1,7.9-1.9,9.7-3.6,1.5-2.5,1.1-2.9-2,1.2-3.6,2c-5.2,2.6-14.8,2.6-20.3-.2s-2.1-6.7,0-8.1,6.3-.9,12.4,1.4A12.2,12.2,0,0,0,315,34.4a16.2,16.2,0,0,0,2.4-6.1c.1-.7-.1-.6-.7-.4A3.7,3.7,0,0,1,313.6,27.4Z"/><path class="cls-30" d="M292.1,38.1c2.3-.5,7.5.6,10.5.9.8,0,.7-.5.2-.6l-1.6-.5c-6.1-2.3-11.1-2.4-12.7-1.3s-5.3,5.5.2,8.3,15.4,3,20.5.3a12.1,12.1,0,0,0,3-2c.2-.1.2-.5-.4-.7a14,14,0,0,0-4.1-.1c-2.2.2-4.6-.3-9,0a15,15,0,0,1-7.8-1.6C290,40.4,289.2,38.7,292.1,38.1Z"/><path class="cls-8" d="M290.6,15.8a2.6,2.6,0,0,1-2.5,2.6,2.5,2.5,0,0,1-2.5-2.5,2.5,2.5,0,0,1,2.5-2.5h0A2.5,2.5,0,0,1,290.6,15.8Z"/></g></svg>