<?xml version="1.0" encoding="utf-8"?>
<!-- Generator: Adobe Illustrator 22.0.1, SVG Export Plug-In . SVG Version: 6.00 Build 0)  -->
<svg version="1.1" id="Layer_2_1_" xmlns="http://www.w3.org/2000/svg" xmlns:xlink="http://www.w3.org/1999/xlink" x="0px" y="0px"
	 viewBox="0 0 208.7 233" style="enable-background:new 0 0 208.7 233;" xml:space="preserve">
<style type="text/css">
	.st0{fill:#7D7D7F;}
	.st1{fill:#FFFFFF;}
	.st2{clip-path:url(#SVGID_2_);}
	.st3{opacity:0.15;fill:#251A17;enable-background:new    ;}
	.st4{fill:#F5A049;}
	.st5{clip-path:url(#SVGID_4_);}
	.st6{fill:#241916;}
</style>
<title>homeDog</title>
<g id="Layer_1">
	<path class="st0" d="M148.8,158.6c0.7,4.9-4.7,13.4-4.5,19.5c0.5,15.2,3.1,20.6,7.2,32.9c2.7,8,6.4,22,7,22h14.2
		c2.1-4,0.9-8-2.3-9.5s-2.8-1.9-3-3.6s3.4-13.9,5.1-29c1.2-11.1-0.8-15,0-29C173.7,139.1,146.9,145.3,148.8,158.6z"/>
	<path class="st0" d="M37.3,148.8c-9.1,9-12.3,14.4-15.9,25c-2.6,7.7-1.3,24.4-3.2,31.8c-1,4.1,4.5,25.5,5.2,27.4H38
		c1.3-2.4,1.6-6.2-1.3-7.5s-3.9-1.3-4.3-4c0-4.2,0.7-8.4,2.2-12.3c1.8-4.1,7.6-9.7,18.3-17.9c9.9-7.6,15.1-19.8,13.8-32.2
		C66.7,146.8,50.2,136.2,37.3,148.8z"/>
	<path class="st1" d="M207.1,111.3c0.3-1.3-0.5-2.7-1.8-3.1h-0.1c-6.1-1.9-16.4-2.1-19.6-4c-1.7-1-1.8-7-9.1-9.3s-17.2-1.1-21.9,2.1
		c-9,6.1-15.7,20.2-21.7,32.6c-4.2,8.6-10.5,9.8-18,10.5c-13.3,1.3-23,3.3-29.4,3.5s-26.4-0.2-44.7-1c-12.5-0.6-30.6,13.8-30.6,17.2
		c-0.4,16.6,18.7,30,36.7,38.8c21.6,10.5,56.7,22.9,84.2,15.6c5.8-1.5,9.4,2.1,15.2,1c31.7-5.7,37.3-30.9,36.6-47.4
		c-0.9-23.5-6.5-37.4,3.5-40.5c3.8-1.2,5.2-1,11.4-3.9S206.6,115.1,207.1,111.3z"/>
	<g>
		<defs>
			<path id="SVGID_1_" d="M207.1,111.3c0.3-1.3-0.5-2.7-1.8-3.1h-0.1c-6.1-1.9-16.4-2.1-19.6-4c-1.7-1-1.8-7-9.1-9.3
				s-17.2-1.1-21.9,2.1c-9,6.1-15.7,20.2-21.7,32.6c-4.2,8.6-10.5,9.8-18,10.5c-13.3,1.3-23,3.3-29.4,3.5s-26.4-0.2-44.7-1
				c-12.5-0.6-30.6,13.8-30.6,17.2c-0.4,16.6,18.7,30,36.7,38.8c21.6,10.5,56.7,22.9,84.2,15.6c5.8-1.5,9.4,2.1,15.2,1
				c31.7-5.7,37.3-30.9,36.6-47.4c-0.9-23.5-6.5-37.4,3.5-40.5c3.8-1.2,5.2-1,11.4-3.9S206.6,115.1,207.1,111.3z"/>
		</defs>
		<clipPath id="SVGID_2_">
			<use xlink:href="#SVGID_1_"  style="overflow:visible;"/>
		</clipPath>
		<g class="st2">
			<path class="st3" d="M142.2,205.3L154,223l15.5-11.5l-16.2-16.2L142.2,205.3z"/>
		</g>
	</g>
	<path class="st1" d="M24.5,146.6c-13,6.3-18.1,17.8-21.7,30.6c-4.5,16.1,0.1,33.8,1.3,34.2c0.5,4.9-0.5,5.1-0.6,8.8
		c-0.1,5.7,1,11.2,2,12.8h17.2c1.2-2.3,1.6-6.4-1-7.8s-4.1-1.7-4.1-4.2s1-7.1,3.7-10.2c4.3-5,19.3-12.7,28.1-10.7
		c36.1,8.4,38.5-14.9,41.1-15.2s-26.9-30.5-47.6-40.7C35.9,140.8,28.4,144.8,24.5,146.6z"/>
	<path class="st1" d="M133.3,158.6c0.7,4.9-10.5,14.2-10.3,20.4c0.4,15.1,8.9,32,14.4,43.7c2.8,5.8,5.1,10.3,5.7,10.3h14.2
		c2.1-4,1-8-2.3-9.5s-2.8-1.9-3-3.6s3.4-16.9,5.1-32.1c1.2-11.1,11.7-15.7,12.5-29.7C170.7,135.4,131.5,145.3,133.3,158.6z"/>
	<path class="st4" d="M193.2,106.7c-0.2-0.5-0.5-0.8-1-0.9c-2.8-0.4-5.2-0.9-6.5-1.7s-1.9-7-9.3-9.3c-2.8-0.8-5.6-1.3-8.5-1.3
		c-1.1-0.8-2.1-1.7-2.9-2.8c-1.7-2.4-5.4-13.5-13.6-14.5c-3.3-0.3-3,5-1.6,15.6c0.4,3.6,0.7,6.2,1,8.1c-7.2,7-12.9,19-18.1,29.7
		c-4.2,8.6-11.1,9.7-18.6,10.5c-13.2,1.3-22.7,3-29.1,3.2s-25.9-0.2-44.2-1c-4.5-0.2-10.7,1.2-16.7,4.1
		c-12.4,5.9-18.4,18.2-21.5,29.4c-4.1,14.4-2.9,29.5,0.7,35.6c0.5,1,0.8,2.2,0.9,3.3c0,0.5,0.6,0.5,0.9,0.6c1.3,0.2,2.7,0.2,4-0.1
		c1.9-0.4,7.1-2.5,12.5-5.2c0.7-0.3,1.3-0.7,1.9-1.2c5.7-4.3,12.4-7.3,19.4-8.6c3.3-0.4,6.7,0,9.8,1.3c21.8,9.8,53.3,19.8,78.5,13.2
		c1-0.4,2-0.7,3-0.8c1.4,0,2.7-0.4,3.9-1.1c3.5-1.7,5.5-2.4,9.5-5.6s5.8-8.5,7.1-13.7s9.4-7.2,14-16.1c5.9-11.6-5.7-40-5.8-52.9
		s6.4-11.6,11.6-11.8s11,1.1,15.5,0.3S194.1,108.4,193.2,106.7z"/>
	<g>
		<defs>
			<path id="SVGID_3_" d="M193.2,106.7c-0.2-0.5-0.5-0.8-1-0.9c-2.8-0.4-5.2-0.9-6.5-1.7s-1.9-7-9.3-9.3c-2.8-0.8-5.6-1.3-8.5-1.3
				c-1.1-0.8-2.1-1.7-2.9-2.8c-1.7-2.4-5.4-13.5-13.6-14.5c-3.3-0.3-3,5-1.6,15.6c0.4,3.6,0.7,6.2,1,8.1c-7.2,7-12.9,19-18.1,29.7
				c-4.2,8.6-11.1,9.7-18.6,10.5c-13.2,1.3-22.7,3-29.1,3.2s-25.9-0.2-44.2-1c-4.5-0.2-10.7,1.2-16.7,4.1
				c-12.4,5.9-18.4,18.2-21.5,29.4c-4.1,14.4-2.9,29.5,0.7,35.6c0.5,1,0.8,2.2,0.9,3.3c0,0.5,0.6,0.5,0.9,0.6c1.3,0.2,2.7,0.2,4-0.1
				c1.9-0.4,7.1-2.5,12.5-5.2c0.7-0.3,1.3-0.7,1.9-1.2c5.7-4.3,12.4-7.3,19.4-8.6c3.3-0.4,6.7,0,9.8,1.3
				c21.8,9.8,53.3,19.8,78.5,13.2c1-0.4,2-0.7,3-0.8c1.4,0,2.7-0.4,3.9-1.1c3.5-1.7,5.5-2.4,9.5-5.6s5.8-8.5,7.1-13.7
				s9.4-7.2,14-16.1c5.9-11.6-5.7-40-5.8-52.9s6.4-11.6,11.6-11.8s11,1.1,15.5,0.3S194.1,108.4,193.2,106.7z"/>
		</defs>
		<clipPath id="SVGID_4_">
			<use xlink:href="#SVGID_3_"  style="overflow:visible;"/>
		</clipPath>
		<g class="st5">
			<polygon class="st3" points="56.8,189.6 83,215.7 34.7,212 			"/>
		</g>
	</g>
	<path class="st4" d="M65.5,198.1c-7.6,0.3-15.1,1-22.6,2.1c-7,1.4-13.6,4.3-19.3,8.6l14.6-24.6h33.1L65.5,198.1z"/>
	<path class="st6" d="M182.6,104.9c0.2,1.5-1.8,2.9-3.2,3c-1.5,0.1-2.7-1.1-2.8-2.6c0,0,0,0,0,0c0-1.4,1-2.5,2.3-2.8
		C180.2,102.4,182.5,103.4,182.6,104.9z"/>
</g>
</svg>
