<?xml version="1.0" encoding="utf-8"?>
<!-- Generator: Adobe Illustrator 22.0.1, SVG Export Plug-In . SVG Version: 6.00 Build 0)  -->
<svg version="1.1" id="Layer_2_1_" xmlns="http://www.w3.org/2000/svg" xmlns:xlink="http://www.w3.org/1999/xlink" x="0px" y="0px"
	 viewBox="0 0 238.6 233" style="enable-background:new 0 0 238.6 233;" xml:space="preserve">
<style type="text/css">
	.st0{fill:#FFFFFF;}
	.st1{fill:#7D7D7F;}
	.st2{clip-path:url(#SVGID_2_);}
	.st3{opacity:0.15;fill:#251A17;enable-background:new    ;}
	.st4{fill:#241916;}
</style>
<title>homeDog</title>
<g id="Layer_1">
	<path class="st0" d="M49.2,94.3c1-5.2,5.2-9.2,10.4-10.1c13-2.1,21.7,19,25.7,30.1s10.9,8.6,16.6-1s6.3-25.9,3.6-36.4
		c-1.2-4.7-3.2-9.1-5.9-13.1c-11.7-17-35.7-27.5-58.9-13.3C24,60.6,19.7,74,16.1,86.7c-3.1,11-4.1,27.5-8.8,39.4L49.2,94.3z"/>
	<path class="st1" d="M41.1,160.7c-3,10.8-7.8,31.8-8.2,40.1c-0.2,5.8,3.3,29.5,4.3,32.2h20.5c1.8-3.3,2.1-7.7-2-9.6
		s-5.3-1.9-5.9-5.6c-0.3-5,0.2-10,1.4-14.9c1.3-5.5,15.2-13.4,22.5-26.7c9.1-16.4,8.5-27.4,6.7-42.9
		C80.4,116.1,49.1,132.5,41.1,160.7z"/>
	<path class="st1" d="M174.3,129.4c1,6.9-28.5,31.4-28.2,40c0.5,18,17.3,35.7,23.1,45.9c1.4,2.5,8.9,3.4,9,6.5
		c0.5,8-1.6,11.2-0.7,11.2H196c1.7-3.3,2.5-8.2-2.1-10.2s-3.9-2.6-4.2-5c-1-15.6,0-31.2,3-46.5c3.5-16.4,11.6-28.1,12.6-47.5
		C207,92.1,171.7,111,174.3,129.4z"/>
	<path class="st0" d="M235.2,42.5c-0.5-4-2.6-5.6-4.4-5.4c-5.8,0.5-8,1.5-15.3,2.2c-5.1,0.6-5-10.1-21.5-11.2h-1.4
		c-0.8,0-1.6-0.1-2.4-0.3l-2.9-0.8c-2.6-1.1-7.3-6.9-9.5-6.9s-2.8,3.5-2.5,8.9c0.1,2.6-4.3,7.8-7.6,13.9c-0.5,0.9-1.1,1.7-1.7,2.5
		c-9.2,11.2-11.1,13.8-19.9,25.9s-16.2,13.4-32.5,13.1c-8.3-0.1-32.4-3-57.5,2.5c-17,3.6-36.2,15.8-39.6,35.4
		c-5.7,32.7,26.2,26.5,50.3,40.5c30.5,17.8,45.3,25.1,92.6,24.5c1.5,0,11.2-5,12.7-5c24.4-0.2,52.2-47.2,50.9-79.5
		c-0.8-18.7-9.8-29.9-8-32.4s4.8-3.5,13.9-9.5C235.4,56.7,236.3,50.9,235.2,42.5z"/>
	<g>
		<defs>
			<path id="SVGID_1_" d="M235.2,42.5c-0.5-4-2.6-5.6-4.4-5.4c-5.8,0.5-8,1.5-15.3,2.2c-5.1,0.6-5-10.1-21.5-11.2h-1.4
				c-0.8,0-1.6-0.1-2.4-0.3l-2.9-0.8c-2.6-1.1-7.3-6.9-9.5-6.9s-2.8,3.5-2.5,8.9c0.1,2.6-4.3,7.8-7.6,13.9c-0.5,0.9-1.1,1.7-1.7,2.5
				c-9.2,11.2-11.1,13.8-19.9,25.9s-16.2,13.4-32.5,13.1c-8.3-0.1-32.4-3-57.5,2.5c-17,3.6-36.2,15.8-39.6,35.4
				c-5.7,32.7,26.2,26.5,50.3,40.5c30.5,17.8,45.3,25.1,92.6,24.5c1.5,0,11.2-5,12.7-5c24.4-0.2,52.2-47.2,50.9-79.5
				c-0.8-18.7-9.8-29.9-8-32.4s4.8-3.5,13.9-9.5C235.4,56.7,236.3,50.9,235.2,42.5z"/>
		</defs>
		<clipPath id="SVGID_2_">
			<use xlink:href="#SVGID_1_"  style="overflow:visible;"/>
		</clipPath>
		<g class="st2">
			<path class="st3" d="M71.5,150.7l36.4,36.4l-67.2-5.3L71.5,150.7z M153.4,173l16.4,24.7l21.6-16l-22.6-22.6L153.4,173z"/>
		</g>
	</g>
	<path class="st0" d="M31.7,94.7c-6.2,3.8-11.6,8.8-15.9,14.7C7.9,120.8,4,131.7,4,146.2s6.8,41.8,5.2,50.3c-2,10.3-1.2,33.5,0,36.5
		h21.4c1.6-3.2,2.2-7.3-1.4-9.3s-3.6-3.5-3.6-7s0.8-9.7,4.2-14.5c5.9-8,34.1-24,44.3-43c1.5-2.8,3.3-5.5,5.2-8
		C89.1,138.7,39.6,89.9,31.7,94.7z"/>
	<path class="st0" d="M159.5,129.4c1,6.9-28.5,31.4-28.2,40c0.5,18,15.7,38,23.1,45.9c4.9,5.1,8.3,4,8.8,7
		c1.1,7.8,2.7,10.7,3.5,10.7h18.5c1.7-3.3,2.5-8.2-2.1-10.2s-3.9-2.6-4.2-5c-3.6-16.2-4.1-32.9-1.4-49.2c2.9-16.5,12-25.4,13-44.8
		C192.2,92.1,156.9,111,159.5,129.4z"/>
	<path class="st4" d="M207.6,42.6c0.6,1.3-0.7,3.3-1.9,3.9c-1.4,0.4-2.9-0.5-3.3-1.9c-0.3-1,0.1-2.1,0.9-2.8
		C204.5,41.1,206.9,41.2,207.6,42.6z"/>
</g>
</svg>
