<?xml version="1.0" encoding="utf-8"?>
<!-- Generator: Adobe Illustrator 22.0.1, SVG Export Plug-In . SVG Version: 6.00 Build 0)  -->
<svg version="1.1" id="Layer_2_1_" xmlns="http://www.w3.org/2000/svg" xmlns:xlink="http://www.w3.org/1999/xlink" x="0px" y="0px"
	 viewBox="0 0 201.4 233" style="enable-background:new 0 0 201.4 233;" xml:space="preserve">
<style type="text/css">
	.st0{fill:#82531D;}
	.st1{fill:#7D7D7F;}
	.st2{fill:#F7A713;}
	.st3{fill:#FFFFFF;}
	.st4{fill:#241916;}
	.st5{clip-path:url(#SVGID_2_);}
	.st6{opacity:0.25;fill:#251A17;enable-background:new    ;}
</style>
<title>homeDog</title>
<g id="Layer_1">
	<path class="st0" d="M141.5,221.8c0,1.8-0.6,9,0.8,11.2h12.4c1.3-1.1,1.7-2.9,1-4.4c-0.7-1.4-4.1-3.5-5.2-6.4
		S141.5,221.8,141.5,221.8z"/>
	<path class="st0" d="M37.2,219.4c0.3,1.9-0.9,11.2,1,13.6H53c1.2-1.3,1.3-3.3,0.2-4.7c-1-1.5-4.9-4.7-6.7-7.8
		S37.2,219.4,37.2,219.4z"/>
	<path class="st1" d="M162.4,168.4c-5.4,8.4-5.1,21.4-6.2,34.7c-1.2,15.1-0.4,16.8-3.4,18.9s-18.6,1.5-20.9-2.6s-2.4-25.5-2-35.6
		c0.8-17.7,2.4-28.2,4.4-32.1s14-18.5,20.1-13.2s9.6-12.9,11.7-9.2C168.2,133,173.5,151.1,162.4,168.4z"/>
	<path class="st1" d="M34,127.1c-1.9,4,11.9,20.9,14.3,37.2s-6,27.3-10.3,35.2c-7.7,14.3-4.8,22.2,0.9,23.6s11.1-0.4,14.8-4.9
		c12.7-15.7,14.5-19.3,17.7-29.4c5.1-16.5,8.9-29.6,24.2-27c12.1,2.1-8.9-34-18.4-39C69.2,118.5,39.9,115,34,127.1z"/>
	<path class="st2" d="M179.7,73c0.9,1.9,2.4,3.4,4.4,4.1c6.2,2.1,15.5,5.5,16.5,6.1s-3.4,9.7-8.2,10.8s-12.9-0.2-18.7-0.7
		c-2.2-0.2-4.4,0.1-6.4,1c-5.3,1.9-6.8-9.1-4.3-13.5S178.8,70.8,179.7,73z"/>
	<path class="st3" d="M6.6,77c-9.2,8.8-6,25.6,4.9,31.4s17.3,1.4,19,3.1s3.4,6.3,3.4,6.3l9.7-7.6c0,0-5.1-3.4-5.4-4.7
		s7-15.8-3.1-27.1c-7.3-8.2-19.8-9-28.1-1.8C6.9,76.8,6.7,76.9,6.6,77z"/>
	<path class="st2" d="M127.3,222.4c0,1.8-0.6,8.2,0.9,10.6h14.1c1.4-1.1,1.9-3.1,1.1-4.7c-0.7-1.5-4.4-3.8-5.6-6.9
		S127.3,222.4,127.3,222.4z"/>
	<path class="st2" d="M11.1,219c0,1.9-0.2,11.6,1.3,14h14c1.4-1.1,1.9-3,1.2-4.7c-0.7-1.5-4-4.7-5.2-7.8S11.1,219,11.1,219z"/>
	<path class="st4" d="M174.8,78.5c1.7,0.7,3.6,1,5.4,0.8c0.6-0.2,1.4-2.7,0.4-3S174,78.1,174.8,78.5z"/>
	<path class="st3" d="M171.5,128.5c1.9,17.3-1.2,42.8-29.4,44c-8.9,0.4-37-1.5-63.6-13c-11-4.7-15-3-19.3-3.6
		c-24.2-3.2-33.5-11.4-33.5-23.7s9-23.1,23-25.2s31.4,2.8,40,3.4c24.4,1.9,31.3,0.8,36.2-10c4.9-10.8,10.8-33,20.3-42.7
		c7.1-7.3,18.9-9.6,26.8-7.6c11.8,3.1,13.8,12.3,13.5,17.4c-0.4,6.7-3.4,11.5-14.7,11.4c10.1,23.8,11.5,35-0.2,37.3
		C170.7,119.4,171,123.5,171.5,128.5z"/>
	<g>
		<defs>
			<path id="SVGID_1_" d="M171.5,128.5c1.9,17.3-1.2,42.8-29.4,44c-8.9,0.4-37-1.5-63.6-13c-11-4.7-15-3-19.3-3.6
				c-24.2-3.2-33.5-11.4-33.5-23.7s9-23.1,23-25.2s31.4,2.8,40,3.4c24.4,1.9,31.3,0.8,36.2-10c4.9-10.8,10.8-33,20.3-42.7
				c7.1-7.3,18.9-9.6,26.8-7.6c11.8,3.1,13.8,12.3,13.5,17.4c-0.4,6.7-3.4,11.5-14.7,11.4c10.1,23.8,11.5,35-0.2,37.3
				C170.7,119.4,171,123.5,171.5,128.5z"/>
		</defs>
		<clipPath id="SVGID_2_">
			<use xlink:href="#SVGID_1_"  style="overflow:visible;"/>
		</clipPath>
		<g class="st5">
			<polygon class="st6" points="84.4,154.5 98.1,168.3 68.8,166.5 72.9,154.3 			"/>
			<polygon class="st6" points="153.4,175.2 155.7,159 165.6,168.8 			"/>
		</g>
	</g>
	<path class="st3" d="M159.7,161.6c-6.3,7.8-9.4,25.5-11.2,39.4s-1.9,19.5-4.9,21.7s-19.4,3-21.4-2.1c-1.4-3.5-1.9-26.7-1.5-36.8
		c0.8-17.8,2.4-28.2,4.4-32.1s14-18.5,20.1-13.2s13.2,7.9,13.7,12.1S162.1,158.5,159.7,161.6z"/>
	<path class="st3" d="M26.9,127.1c-2.7,4-0.9,12.9-3,29.1c-1.8,13.9-11.8,24.7-15.8,35.2c-6,15.7-3.5,27.5,1.1,30.4
		s14.3,3.3,17.1-2.2c5.8-11.2,17.1-20.9,26.9-34.8c8.6-12.2,17.9-26.7,34.8-25.6c4.4,0,8.8,0.2,13.2,0.7
		c5.6,0.8-23.7-33.3-30.2-37.1S35.1,115,26.9,127.1z"/>
</g>
</svg>
