<?xml version="1.0" encoding="utf-8"?>
<!-- Generator: Adobe Illustrator 22.0.1, SVG Export Plug-In . SVG Version: 6.00 Build 0)  -->
<svg version="1.1" id="Layer_2_1_" xmlns="http://www.w3.org/2000/svg" xmlns:xlink="http://www.w3.org/1999/xlink" x="0px" y="0px"
	 viewBox="0 0 315.5 233" style="enable-background:new 0 0 315.5 233;" xml:space="preserve">
<style type="text/css">
	.st0{fill:#241916;}
	.st1{fill:#302826;}
	.st2{clip-path:url(#SVGID_2_);}
	.st3{opacity:0.15;fill:#251A17;enable-background:new    ;}
	.st4{fill:#E9640A;}
	.st5{fill:#A94417;}
	.st6{fill:#A8947F;}
	.st7{fill:#EBEBEC;}
</style>
<title>homeDog</title>
<g id="Layer_1">
	<path class="st0" d="M78.4,103c-15,13.9-13.5,34.8-20.1,51.1c-4.8,11.8-10.3,20.2-13.2,34c-1.4,6.3,2.4,41.9,3.3,44.8h18.5
		c2.2-3.6,2.9-8.5-1.4-10.6s-5.8-2.1-6.2-6.2c0.3-7.6,1.4-15.1,3.3-22.4c1.9-6.1,13.4-17.6,26.7-29.3c10.9-9.6,19-23.7,24-34.2
		c2.9-6,9.8-10.8,31.5-7C146,104.2,99.4,83.6,78.4,103z"/>
	<path class="st0" d="M215.7,133.2c0.4,30,8.2,98.7,9.1,98.7l17.6,0.7c1.6-2.6,2.4-9.8-3.3-12s-4.5-4.2-4.9-6.8s0.2-31.6,2.4-56.2
		c1.3-14,10.5-32.6,10-37.9C246.5,118.6,215.7,133.2,215.7,133.2z"/>
	<path class="st1" d="M312.4,17.4c-6.5-1.8-8.6-0.5-16.1-3.4c-4.3-1.6-5.4-7.8-9.9-10.5c-6.6-3.8-26.1-7.2-38.6,5.8
		c-12.5,13-16.3,19-27.2,31.5s-14,12.4-26.2,16.1s-25.9,3.7-44,3.3c-8-0.1-33.6-1.3-58.5,0.9c-17.8,1.5-31.7,11.9-36.4,26
		C42,127.1,24.6,124.5,4.4,118c-4.1-1.3-5.4,1.5-3.1,4.4c17.8,22.5,48.8,11.2,64.2-1.4c13.4-11,26.9,6.3,37.7,4.7s15.6,1.3,20.8,3.8
		c27.1,12.4,51.1,16.7,87.5,16.2c1.7,0-1.7-1.6,0-1.6c21.3,0,41.1-9,53.8-45.2c3.8-10.9,6.5-17,9.7-32.3c1.7-7.8,2.6-9.8,5.2-13.2
		S284.8,47,292,44c4.8-2.1,17.9-10.1,21.2-14.2S316.9,18.6,312.4,17.4z"/>
	<g>
		<defs>
			<path id="SVGID_1_" d="M312.4,17.4c-6.5-1.8-8.6-0.5-16.1-3.4c-4.3-1.6-5.4-7.8-9.9-10.5c-6.6-3.8-26.1-7.2-38.6,5.8
				c-12.5,13-16.3,19-27.2,31.5s-14,12.4-26.2,16.1s-25.9,3.7-44,3.3c-8-0.1-33.6-1.3-58.5,0.9c-17.8,1.5-31.7,11.9-36.4,26
				C42,127.1,24.6,124.5,4.4,118c-4.1-1.3-5.4,1.5-3.1,4.4c17.8,22.5,48.8,11.2,64.2-1.4c13.4-11,26.9,6.3,37.7,4.7
				s15.6,1.3,20.8,3.8c27.1,12.4,51.1,16.7,87.5,16.2c1.7,0-1.7-1.6,0-1.6c21.3,0,41.1-9,53.8-45.2c3.8-10.9,6.5-17,9.7-32.3
				c1.7-7.8,2.6-9.8,5.2-13.2S284.8,47,292,44c4.8-2.1,17.9-10.1,21.2-14.2S316.9,18.6,312.4,17.4z"/>
		</defs>
		<clipPath id="SVGID_2_">
			<use xlink:href="#SVGID_1_"  style="overflow:visible;"/>
		</clipPath>
		<g class="st2">
			<path class="st3" d="M114.3,110.8l40.3,40.4l-74.5-5.9L114.3,110.8z M212.8,135.1l18.1,27.4l24-17.8l-25.1-25L212.8,135.1z"/>
		</g>
	</g>
	<path class="st4" d="M288.8,14.4c0.2,1.9-1.1,3.5-2.9,3.9c-2,0.2-3.8-1-4.3-2.9c-0.3-1.9,1.6-3.6,3.3-3.8
		C286.7,11.4,288.4,12.6,288.8,14.4z"/>
	<path class="st0" d="M267.9,2.6c-7.6-1.1-20.7,1.5-26.1,6.9c-3.3,3.3,11.6,27.6,17.4,30.1c5.8,2.5,6.7-1.8,6.1-8.6
		c-0.4-4.9-1.6-14.2,5.4-23.5C273.2,4.2,272,3.2,267.9,2.6z"/>
	<path class="st5" d="M70.7,180.1c-0.8-1.3-4,0-7.8,1.6c-8.5,3.8-18.2,9.2-18.3,14.9c-0.1,11.3,2.9,33.8,3.7,36.3h18.8
		c2.2-3.6,2.6-8.7-1.7-10.8s-5.6-2.1-6-6.2c0.3-7.3,1.3-14.5,3.1-21.6c1.4-3.6,3.5-6.9,6.2-9.6C71.3,181.9,71.3,181.1,70.7,180.1z"
		/>
	<path class="st5" d="M239.1,220.6c-4.3-1.6-4.5-4.2-4.9-6.8c-0.1-0.8,0.2-18.1,1.2-37c0.2-2.6-0.8-2.7-2.1-1.7
		c-3.6,2.5-8.2,4.4-11.5,7.3s-2.7,2.9-2.4,6.3c2.3,23.2,4.9,43.2,5.4,43.2l17.6,0.7C244,230,244.8,222.7,239.1,220.6z"/>
	<path class="st1" d="M91.1,64.2c-5.3,3-30.7,4.5-35.8,43.6c-3.1,24-7.5,38-15,48.8s-18.1,18-18.8,26c-0.7,6.3-0.7,19.8-0.4,31.3
		c0.2,6.4,1.2,12.8,3,19h15c1.9-3.6,4.4-6.3,0.4-8.5s-4.4-5.4-4.4-9.3s3.2-19.7,6.5-25.2c6.5-10.7,39.6-27.5,49.6-41.8
		c20.1-28.9,28.7-25.1,33.6-24.1C178.6,134.9,127.3,43.5,91.1,64.2z"/>
	<path class="st4" d="M39.8,187.6c-3.4,2.4-4.1,4.4-7.6,9.4s-6.8,6.5-9.2,7.3s-2.3,2.6-2.2,4.8c0.3,9.9,1.1,22.3,1.7,23.8h19.7
		c1.8-3.6,2.4-8-1.6-10.3s-4-3.9-4-7.8s2.1-19.7,5.4-25.2C43.2,187.6,42.2,185.9,39.8,187.6z"/>
	<path class="st1" d="M193.9,118.1c1.5,7.6,2.5,15.3,3,23.1c1.7,23.3,4.3,52.2,6.5,75.8c0.8,8.9,4.2,15.9,5.2,15.9h14
		c1.8-3.6,2.9-8.3-2.3-10.5s-4-3.7-4.4-6.4c-0.2-1.2,0.6-25.8,4.5-55.4c2.5-18.4,11.8-29,12.1-50.6c0.5-35.1-4.1-40.8-10.2-42.6
		c-8-2.3-14.6-3-19.6,1.6S190.3,97.7,193.9,118.1z"/>
	<path class="st4" d="M220.8,221.7c-4.1-1.8-4.5-3-4.9-5.6c-0.1-0.5,0.5-8.7,0.9-15.6c0.3-1.7-0.2-3.5-1.3-4.8
		c-3.1-3.4-7.7-5.7-12.8-7.8c-1.3-0.5-2.1-0.1-2,1.5c0.7,7.8,1.9,20.4,2.6,27.5c0.8,8.9,2.3,16,3.3,16h17
		C225.3,229.3,226,223.9,220.8,221.7z"/>
	<path class="st6" d="M282.2,37.3c1.1-1.8,11.3-6,18.3-5.7c3,0.2,5.7,2.9,7,3.5s0.9,3.7-0.1,4.9s-3.5,2.3-9.8,2.2
		c-2.9-0.1-14.3-1.1-15-3.2S282.2,37.3,282.2,37.3z"/>
	<path class="st7" d="M287.9,39.3c0-0.4,1.3-2.1,1.9-2.1s1.8,2.4,2.1,2.8s1.5-0.7,2.3-1s1,0.6,1.5,1.3s2.9-0.6,3.3-0.6
		s0.9,0.6,1.4,1.1s2.4-2.2,3.1-3.2s1.4,2.3,1.4,3.1s1.4-1.4,1.7-1.9s0.9,1.2,0.9,1.9s-0.9,1.2-3.4,1.2h-6c-2.7-0.1-5.3-0.5-7.9-1.2
		C288.8,40.2,287.9,39.9,287.9,39.3z"/>
	<path class="st4" d="M311,26.4c-1.4-0.8-2.3-3-2.5-5.2s-0.5-1.2-1.3-0.5c-7.4,6.1-20.9,7.9-26.9,12.4s-4.5-3.4-4.1-7.2
		s-4.5-3-7.8,6.6c-2.4,6.8,3.4,7.8,3.6,11.1s1.3,10.3,4.6,13.5c1.2,1.2,2.2,0,3.2-2s2-4.4,6.2-5.4s7-1.2,13.4-1.2s7.9-1.8,9.6-3.6
		s1.6-2.5,1.2-2.8s-2,1.2-3.6,2c-5.3,2.5-14.9,2.5-20.4-0.3s-2-6.6,0-8s6.4-1,12.5,1.4c4.9,1.8,10.5,0.3,13.8-3.8
		c1.2-1.9,2-3.9,2.4-6.1c0.1-0.7-0.1-0.7-0.8-0.5C313,27.1,311.9,26.9,311,26.4z"/>
	<path class="st1" d="M289.5,37.1c2.4-0.6,7.6,0.5,10.6,0.8c0.8,0.1,0.7-0.4,0.2-0.5l-1.7-0.5c-6-2.4-11-2.4-12.6-1.3
		s-5.3,5.4,0.2,8.2s15.3,3,20.5,0.4c1-0.6,2-1.3,3-2c0.1-0.1,0.2-0.6-0.4-0.7c-1.3-0.3-2.7-0.3-4.1-0.1c-2.2,0.2-4.6-0.3-9.1,0
		c-2.7,0.1-5.3-0.5-7.7-1.7C287.5,39.3,286.6,37.7,289.5,37.1z"/>
	<path class="st0" d="M288.1,14.8c0,1.4-1.1,2.5-2.5,2.5s-2.5-1.1-2.5-2.5s1.1-2.5,2.5-2.5l0,0C286.9,12.3,288.1,13.4,288.1,14.8z"
		/>
</g>
</svg>
