<?xml version="1.0" encoding="utf-8"?>
<!-- Generator: Adobe Illustrator 22.0.1, SVG Export Plug-In . SVG Version: 6.00 Build 0)  -->
<svg version="1.1" id="Layer_2_1_" xmlns="http://www.w3.org/2000/svg" xmlns:xlink="http://www.w3.org/1999/xlink" x="0px" y="0px"
	 viewBox="0 0 186.6 233" style="enable-background:new 0 0 186.6 233;" xml:space="preserve">
<style type="text/css">
	.st0{fill:#949394;}
	.st1{fill:#FFFFFF;}
	.st2{clip-path:url(#SVGID_2_);}
	.st3{opacity:0.15;fill:#251A17;enable-background:new    ;}
	.st4{fill:#241916;}
	.st5{fill:#EE9616;}
	.st6{fill:#251A17;}
</style>
<title>homeDog</title>
<g id="Layer_1">
	<path class="st0" d="M38.3,160c-7.9,7.8-7.7,17.4-10.8,26.6c-2.3,6.6-4.4,18.6-5.2,25.5c-0.5,3.5,2.9,19.2,3.5,20.9h13.5
		c1-2.1,0.8-4.8-1.7-6s-3.3-1.2-3.7-3.5c-0.4-3.4-0.3-6.9,0.3-10.3c0.9-3.4,7.9-12.2,15.4-18.6c7.5-6.4,14.9-17.6,13.7-27.3
		S49.4,149.1,38.3,160z"/>
	<path class="st0" d="M117.5,177.9c-0.2,10.9,1.8,30.9,2.9,43.5c0.6,6.9,2.8,11.6,3,11.6h12.4c0.9-1.4,1.6-5.5-1.6-6.7
		s-2.4-2.4-2.6-3.9s1.2-18.8,3.4-31.9c1.4-7.8,5.6-17.7,5.4-20.7C140.4,169.3,117.5,177.9,117.5,177.9z"/>
	<path class="st1" d="M185.5,124.8c-1.6-4.2,0-7.1-5.3-7.1c-2,0-3.3-4.3-5.2-6.5c-3.7-4.2-12.4-6.6-17.8-7c-1.3-0.1-2.7,0-4,0.2
		c-1.4,0.2-2.2,0.2-2.4-0.9c-1.2-5.5-3-9.2-4.5-10.9s-2.9-1.5-2.7,1.7s-2.2,7.4-3.3,15.9c-0.2,1.6-2.4,2.7-4.2,3.5
		c-9.8,4.3-15.1,6.8-20.3,10.4s-13.4,4.6-19.1,5.3c-11.5,1.4-35.4-4.9-50.3,0c-5.9,1.9-8.2,0.8-10.8,0.1s-15.7,8.7-7.3,11.5
		c2.8,0.9,1.8,1.9,4.5,2.5c20.2,4.5-0.1,26.1,15.5,33.7c18.3,8.9,45.8,16.4,68.1,15.5c0.5,0,1,3.1,1.5,2.9
		c16.8-4.8,23.2-13.4,31.4-34.9c1.4-3.8,2.6-5.5,7.8-8.9s12.4-8.3,15.7-10c4.8-2.5,10.4-5.2,12.3-7.3S186.8,128.5,185.5,124.8z"/>
	<g>
		<defs>
			<path id="SVGID_1_" d="M185.5,124.8c-1.6-4.2,0-7.1-5.3-7.1c-2,0-3.3-4.3-5.2-6.5c-3.7-4.2-12.4-6.6-17.8-7c-1.3-0.1-2.7,0-4,0.2
				c-1.4,0.2-2.2,0.2-2.4-0.9c-1.2-5.5-3-9.2-4.5-10.9s-2.9-1.5-2.7,1.7s-2.2,7.4-3.3,15.9c-0.2,1.6-2.4,2.7-4.2,3.5
				c-9.8,4.3-15.1,6.8-20.3,10.4s-13.4,4.6-19.1,5.3c-11.5,1.4-35.4-4.9-50.3,0c-5.9,1.9-8.2,0.8-10.8,0.1s-15.7,8.7-7.3,11.5
				c2.8,0.9,1.8,1.9,4.5,2.5c20.2,4.5-0.1,26.1,15.5,33.7c18.3,8.9,45.8,16.4,68.1,15.5c0.5,0,1,3.1,1.5,2.9
				c16.8-4.8,23.2-13.4,31.4-34.9c1.4-3.8,2.6-5.5,7.8-8.9s12.4-8.3,15.7-10c4.8-2.5,10.4-5.2,12.3-7.3S186.8,128.5,185.5,124.8z"/>
		</defs>
		<clipPath id="SVGID_2_">
			<use xlink:href="#SVGID_1_"  style="overflow:visible;"/>
		</clipPath>
		<g class="st2">
			<path class="st3" d="M54.9,170.9l22.7,22.6l-37.1-6.8L54.9,170.9z M109.7,186.6l10.2,15.4l22-6.8l-18.3-18.3L109.7,186.6z"/>
		</g>
	</g>
	<path class="st4" d="M176.8,135.1c-0.6-2.7-1-5.4-1.2-8.1c-0.2-2.8,0.9-5.8,1.2-7.4s-1.5-6.2-2.5-7.4c-3.7-4.3-12.5-3.2-17.4-3.8
		c-2.9-0.3-2.5-3.8-3.7-4s-2.1,0.2-2.4-0.9c-1.1-5.5-3-9.2-4.5-10.9s-2.9-1.8-2.9,1.6s-2,7.4-3.1,15.9c-0.2,0.9-0.5,1.8-0.7,2.6
		c-1.5,6.1,0.3,14.2,15,19.8c4.9,1.8,11.1,5.6,13.6,6.8C173.7,142.1,177.5,138.5,176.8,135.1z"/>
	<path class="st1" d="M170.1,117.5c0,2-1.6,3.6-3.6,3.6c-2,0-3.6-1.6-3.6-3.6c0-2,1.6-3.6,3.6-3.6l0,0
		C168.5,113.9,170.1,115.5,170.1,117.5C170.1,117.5,170.1,117.5,170.1,117.5z"/>
	<path class="st4" d="M168.9,117.5c0,1.3-1.1,2.4-2.4,2.4c-1.3,0-2.4-1.1-2.4-2.4c0-1.3,1.1-2.4,2.4-2.4l0,0
		c1.3-0.1,2.3,0.9,2.4,2.2C168.9,117.4,168.9,117.4,168.9,117.5z"/>
	<path class="st5" d="M145.8,96.5c0.7-0.9,2.4,7.8,2.1,9.4s-2.4,3.3-3,3.1s0-3.7,0.3-6.9S145.4,97,145.8,96.5z"/>
	<path class="st1" d="M104.6,168.5c0.5,4.5,0.8,9.1,0.8,13.7c0.4,13.1,1.6,28.6,2.3,41.9c0.3,5,2.4,8.9,2.9,8.9h12
		c1.1-2,1.6-5.1-1.3-6.3s-2.4-1.7-2.6-3.2c1.1-10.2,2.7-20.3,4.9-30.3c1.9-9.4,12.6-11.6,13.2-23.7c1-19.8-10.5-28.5-13.9-29.5
		s-8.2-1.7-11.1,0.9S102.9,157,104.6,168.5z"/>
	<path class="st1" d="M53.1,138.4c-1.6-1.3-11.5-11.4-21.5-5.8c-10,5.6-19.7,16.1-19.2,25.8c0.3,5.7,0.9,22.8-1.8,30.6
		s-8.7,18.4-9.4,23.8S0.1,230.9,1.5,233h12.3c1-2,1.4-4.5-0.9-5.8s-2.2-2.2-2.2-4.3c0.4-3.4,1.6-6.7,3.5-9.6
		c3.7-5,7.7-3.9,24.1-19.5c7.1-6.7,16.2-13.8,21.3-15.3c3.4-1,7.2-1,13.9-0.4S59.7,143.6,53.1,138.4z"/>
	<path class="st6" d="M96.8,129.4c-11.5,1.4-35.4-4.8-50.3,0c-5.9,2-8.2,0.1-10.9-0.3s-7.5,3.1-9.8,7.3
		c-8.8,6.2-13.9,13.5-13.6,21.9c0.2,2.2,0.3,6,0.3,10.5c0,2.5,3.2,3.5,9.8-6.3s10.6-11.6,17.8-13.1c12-2.6,13.4-1.4,17.9-8.9
		s9.2-2.7,16.9,8.8s7.6,23.7,16.8,31.5c7.4,6.4,20,3.2,25.8-2.9s11-15.7,5.9-26.2c-3.3-7-6.9-14.3-8.1-24.6
		c-0.3-1.8-1.2-1.8-2.1-1.4C108.1,128,101.6,128.9,96.8,129.4z"/>
</g>
</svg>
