<svg id="Layer_2" data-name="Layer 2" xmlns="http://www.w3.org/2000/svg" xmlns:xlink="http://www.w3.org/1999/xlink" viewBox="0 0 344 233"><defs><style>.cls-1{fill:none;}.cls-2{fill:#f7a713;}.cls-3{clip-path:url(#clip-path);}.cls-4,.cls-7{fill:#251a17;}.cls-4{opacity:0.5;}.cls-4,.cls-7,.cls-9{isolation:isolate;}.cls-5{clip-path:url(#clip-path-2);}.cls-6{clip-path:url(#clip-path-3);}.cls-7{opacity:0.15;}.cls-8,.cls-9{fill:#241916;}.cls-9{opacity:0.2;}</style><clipPath id="clip-path"><path class="cls-1" d="M130.2,124.1c-11.7,11.6-5.3,35.7-11.2,46.9-4.9,9.2-9.1,14.4-10.9,24.1s-2.3,35.3-.5,37.9h20.9c1.6-3.1,1.9-7.2-1.8-9s-5-2.5-5-5.9,3.4-14.8,5.8-19.6c1.6-3.1,7.5-9.2,14-15.7,0,.6.3,1.3,1.9.2s2.8-3.4,3.8-3.6,1.1,1.7,2.5-.5,3.2-4.7,3.6-4.5.2,1.6,1.5.4,2.6-5.4,3.4-5.3,1,1.6,1.9.4.9-5.1,1.5-5.2,1.2,2.1,2,1.1a15.4,15.4,0,0,0,3.6-9.8C172.5,161.4,146.7,107.8,130.2,124.1Z"/></clipPath><clipPath id="clip-path-2"><path class="cls-1" d="M248.6,160.9c-.3,4.4-1.9,26.1-.3,27.4s3.1-3.4,4-2.2-2.7,9.6-1.6,12.8c.6,1.4,2.5.3,3.2,1.9s.9,4.5,1.4,6.8c1.4,5.6,2.7,4.6,3.2,5.4l.7,7.4c.6,6.9,1.4,12.6,2.2,12.6h19.5c2.5-3.7,1.9-8.7-2.9-10.4s-4-3.2-4.2-5.4.8-25.5,2.3-47.6a48.1,48.1,0,0,1,.8-6.5c.1-.3.4-1.1.8-1s1.1-2.2,1.1-3.2.4-2.1,1.1-1.7,1.2-2.6,1.6-4.4S248.6,160.9,248.6,160.9Z"/></clipPath><clipPath id="clip-path-3"><path class="cls-1" d="M342.9,49.6c-4.3-3.2-17-7.4-22.2-11-2.1-1.4-2.2-6.1-5.6-9a33.3,33.3,0,0,0-11.7-6,94.3,94.3,0,0,0-11.7-1.7,24.4,24.4,0,0,0-20,8c-.9.9-9.1,10.9-10.3,12.5-7.5,9.9-13.3,20-20.9,24.9-15.1,9.5-24.2,10.5-50.4,12.4-7.8.6-37.1-.5-56.8,2.5-7.3,1.1-17.8,3.6-34.8,13.4-22.2,13-45.4,18.6-70.4,21.7-12.5,1.6-19.6,4.3-24.1,6.8-2.6,1.3-4.3,3-4,3.6s5.5-.8,5.9-.3-.4,1.5-1.1,2.6-.5,2.9,1.6,2.5,2.5-.8,2.7,0a2.6,2.6,0,0,1-.3,2.1c-.5,1.3,0,1.7,1.7,1.2s2.3-.3,2.8.4a4.7,4.7,0,0,1-.1,3.1c-.5,1.5.7,2.4,1.6,1.3s2.9-2.7,3.5-2.3.3,3.9.4,5.7,1.7,1.8,2.2.5,1.5-3.3,2-3.1,0,5.7,1.3,6.7,3.1-4.2,4.6-4.9-.2,6.3,2.3,6.9,2.7-5.9,5.1-6.5,1.5,6,2.9,7.7,3.1-6.1,4.9-6.7,1.5,7.1,3.5,8.3,2.8-8.3,5-8,2.6,9.2,5.1,9.7.4-9.2,2.8-9.6,4.7,8.3,7.8,8.1-.7-9,2.6-9.9,4.7,6.9,7.7,6.4.1-8.1,1.6-8.4,3.3,3.7,5.5,4,.6-6.6,2.2-7.2,3.9,1.4,4.7,4.1,2.1-5,2.9-6.5l13.4-2.3c9.3-1.8,28.8,12.7,43.5,17.6a8.5,8.5,0,0,1,1.7.6c.5,2.4.9,9.2,3.9,11s3.8,1.5,4.7,1.1,1.3-1.3,2.5-1.2,2.6,1.9,4.3,3.6,3.6,2.5,3.2.3,1-2.1,2.2-.8a30.8,30.8,0,0,0,7.3,6.1c2.5,1.3,1.8-1.1,2.6-2.1s5.5,3.1,7.3,4.9,3.8,2.4,3.3.4-.1-2.4,1.2-2.5,4.1,2,5.9,3.8,3.5,2.1,2.9-.2.5-3.1,1.8-1.7,3.1,3.8,3.8,4.6,2.7,1.7,2.4,0-.2-2.3.7-2.5,1.7,1,3.9,2.9,3.6-1.3,4.3,1.8,3.6,5.1,3.9,7.3c.4,3.8-.3,4.8.1,7.7s.6,3,2.7,1.9,1.9.2,1.9,2.1-.4,9.7-.2,11.6,1.1,3.1,3,2.2,2,.4,2.3,2.1a21.1,21.1,0,0,0,.9,4.9c1.2,3.2,4.4-1,4.9.6s-1.1,3,.6,4.6,3.3-2.8,4.1-4.4,8-50.2,13.1-52.7c.5,1.3.5,3.4,1.8,2.6s4.8-6.3,5.9-5.9-.3,4,1,3.3,3-4.7,3.8-5,.4,3.3,1.1,3,2.9-6.4,3.6-7.1,1.1,3.2,2.2,2,3.4-7.5,4.1-8.2,1.9,1.1,2.6-.1,2-6.5,2.6-7.1,1.7,1.2,2.2.2.6-6.5,1.2-7.3,1.9,1.3,2.5,0-.6-4.4,0-5,1.8,1.5,2.4-1.1a58.7,58.7,0,0,0,.9-9.4c.1-1.4-.3-5.6,1.1-4.9s.2-6,.2-11.7c0-2.8,0-6.3,1-6.2s1.5-1.2,1.1-4.2c-.1-1.2-.7-8.2.2-7.4s1.5.1,1.4-1.4c-.3-3.6-.1-8,1.3-10.5s4.7-6.1,7.7-6.8c5-1.1,10.5-.4,20-2.2,7-1.2,10.6-10.6,12.1-14.7C344.2,51.9,344.2,50.6,342.9,49.6Z"/></clipPath></defs><title>homeDog</title><g id="Layer_1" data-name="Layer 1"><path class="cls-2" d="M130.2,124.1c-11.7,11.6-5.3,35.7-11.2,46.9-4.9,9.2-9.1,14.4-10.9,24.1s-2.3,35.3-.5,37.9h20.9c1.6-3.1,1.9-7.2-1.8-9s-5-2.5-5-5.9,3.4-14.8,5.8-19.6c1.6-3.1,7.5-9.2,14-15.7,0,.6.3,1.3,1.9.2s2.8-3.4,3.8-3.6,1.1,1.7,2.5-.5,3.2-4.7,3.6-4.5.2,1.6,1.5.4,2.6-5.4,3.4-5.3,1,1.6,1.9.4.9-5.1,1.5-5.2,1.2,2.1,2,1.1a15.4,15.4,0,0,0,3.6-9.8C172.5,161.4,146.7,107.8,130.2,124.1Z"/><g class="cls-3"><polygon class="cls-4" points="113.6 138.4 101.3 236.1 138.9 233.9 179.4 139.1 113.6 138.4"/></g><path class="cls-2" d="M248.6,160.9c-.3,4.4-1.9,26.1-.3,27.4s3.1-3.4,4-2.2-2.7,9.6-1.6,12.8c.6,1.4,2.5.3,3.2,1.9s.9,4.5,1.4,6.8c1.4,5.6,2.7,4.6,3.2,5.4l.7,7.4c.6,6.9,1.4,12.6,2.2,12.6h19.5c2.5-3.7,1.9-8.7-2.9-10.4s-4-3.2-4.2-5.4.8-25.5,2.3-47.6a48.1,48.1,0,0,1,.8-6.5c.1-.3.4-1.1.8-1s1.1-2.2,1.1-3.2.4-2.1,1.1-1.7,1.2-2.6,1.6-4.4S248.6,160.9,248.6,160.9Z"/><g class="cls-5"><polygon class="cls-4" points="219.2 140.6 255.3 236.8 290 235.3 290.8 103 219.2 140.6"/></g><path class="cls-2" d="M342.9,49.6c-4.3-3.2-17-7.4-22.2-11-2.1-1.4-2.2-6.1-5.6-9a33.3,33.3,0,0,0-11.7-6,94.3,94.3,0,0,0-11.7-1.7,24.4,24.4,0,0,0-20,8c-.9.9-9.1,10.9-10.3,12.5-7.5,9.9-13.3,20-20.9,24.9-15.1,9.5-24.2,10.5-50.4,12.4-7.8.6-37.1-.5-56.8,2.5-7.3,1.1-17.8,3.6-34.8,13.4-22.2,13-45.4,18.6-70.4,21.7-12.5,1.6-19.6,4.3-24.1,6.8-2.6,1.3-4.3,3-4,3.6s5.5-.8,5.9-.3-.4,1.5-1.1,2.6-.5,2.9,1.6,2.5,2.5-.8,2.7,0a2.6,2.6,0,0,1-.3,2.1c-.5,1.3,0,1.7,1.7,1.2s2.3-.3,2.8.4a4.7,4.7,0,0,1-.1,3.1c-.5,1.5.7,2.4,1.6,1.3s2.9-2.7,3.5-2.3.3,3.9.4,5.7,1.7,1.8,2.2.5,1.5-3.3,2-3.1,0,5.7,1.3,6.7,3.1-4.2,4.6-4.9-.2,6.3,2.3,6.9,2.7-5.9,5.1-6.5,1.5,6,2.9,7.7,3.1-6.1,4.9-6.7,1.5,7.1,3.5,8.3,2.8-8.3,5-8,2.6,9.2,5.1,9.7.4-9.2,2.8-9.6,4.7,8.3,7.8,8.1-.7-9,2.6-9.9,4.7,6.9,7.7,6.4.1-8.1,1.6-8.4,3.3,3.7,5.5,4,.6-6.6,2.2-7.2,3.9,1.4,4.7,4.1,2.1-5,2.9-6.5l13.4-2.3c9.3-1.8,28.8,12.7,43.5,17.6a8.5,8.5,0,0,1,1.7.6c.5,2.4.9,9.2,3.9,11s3.8,1.5,4.7,1.1,1.3-1.3,2.5-1.2,2.6,1.9,4.3,3.6,3.6,2.5,3.2.3,1-2.1,2.2-.8a30.8,30.8,0,0,0,7.3,6.1c2.5,1.3,1.8-1.1,2.6-2.1s5.5,3.1,7.3,4.9,3.8,2.4,3.3.4-.1-2.4,1.2-2.5,4.1,2,5.9,3.8,3.5,2.1,2.9-.2.5-3.1,1.8-1.7,3.1,3.8,3.8,4.6,2.7,1.7,2.4,0-.2-2.3.7-2.5,1.7,1,3.9,2.9,3.6-1.3,4.3,1.8,3.6,5.1,3.9,7.3c.4,3.8-.3,4.8.1,7.7s.6,3,2.7,1.9,1.9.2,1.9,2.1-.4,9.7-.2,11.6,1.1,3.1,3,2.2,2,.4,2.3,2.1a21.1,21.1,0,0,0,.9,4.9c1.2,3.2,4.4-1,4.9.6s-1.1,3,.6,4.6,3.3-2.8,4.1-4.4,8-50.2,13.1-52.7c.5,1.3.5,3.4,1.8,2.6s4.8-6.3,5.9-5.9-.3,4,1,3.3,3-4.7,3.8-5,.4,3.3,1.1,3,2.9-6.4,3.6-7.1,1.1,3.2,2.2,2,3.4-7.5,4.1-8.2,1.9,1.1,2.6-.1,2-6.5,2.6-7.1,1.7,1.2,2.2.2.6-6.5,1.2-7.3,1.9,1.3,2.5,0-.6-4.4,0-5,1.8,1.5,2.4-1.1a58.7,58.7,0,0,0,.9-9.4c.1-1.4-.3-5.6,1.1-4.9s.2-6,.2-11.7c0-2.8,0-6.3,1-6.2s1.5-1.2,1.1-4.2c-.1-1.2-.7-8.2.2-7.4s1.5.1,1.4-1.4c-.3-3.6-.1-8,1.3-10.5s4.7-6.1,7.7-6.8c5-1.1,10.5-.4,20-2.2,7-1.2,10.6-10.6,12.1-14.7C344.2,51.9,344.2,50.6,342.9,49.6Z"/><g class="cls-6"><path class="cls-7" d="M165,148.6l33.7,33.8-62.4-4.9Zm77.1,6.1,15.2,22.9,20.1-14.9-21-21Z"/></g><path class="cls-8" d="M314.1,38.3c0,1.5-2.2,2.6-3.6,2.6a2.6,2.6,0,0,1,0-5.2C311.9,35.7,314.1,36.9,314.1,38.3Z"/><path class="cls-9" d="M271.7,39.8c2.1-4.6,10.5-10.9,18.3-11.9,4.1-.6,6.3,1.4,5.9,3.5-3,13.7,4.8,35.6,0,37.7-9.2,3.9-21.1-6.7-24.2-15.3A19.9,19.9,0,0,1,271.7,39.8Z"/><path class="cls-2" d="M148.5,102c-2.3-1.9-29.9-6.4-43.3,4.1-8.4,6.5-13.8,27.8-13.8,27.8.6,2.6-.8,6.8-1.2,8.5s-.3,2.8.9,2.6.2,1-.2,2.3-1.1,2.5-.6,2.3-1,2.4-1,3.7-.1,1.1.4,1.2c-1,5.6-1.8,10.2-3,13.3C83,177.6,73.2,187,72.5,196.1s-1.1,33.8,1,36.9h20c1.5-3,2-6-1.4-7.9s-4-4-4-7.2,1.3-13.6,4.5-18c5.5-7.4,20.3-8,31.9-18.8,1.5.7,3.4.1,5.4-3s3.5-3.2,3.5-.4,2.6.2,5-4.3c.7-1.3,2-1.4,1.9,0s1.1,1.7,2.6.4a15.1,15.1,0,0,0,2.1-2.3c1.1-1.7,2.5-2,2.7-.6s1.8.8,2.7-2c.4-1.2,1.1-3.8,2.2-3.7s1.6,2.3,2.7,2.4,3.2-5.6,4.3-7.8,4.3-3.4,7.7-3.8C184.2,154.2,162.4,113.1,148.5,102Z"/><path class="cls-2" d="M233.8,135.7c.9,6.4,2.9,12.8,2.6,20.8-.6,18.6-1.1,43.4-.1,63.2.4,7.4,1.3,13.3,2.1,13.3H257c1.6-3.1,2.4-8-1.9-9.9s-3.7-2-3.9-4.3.7-21.1,5.9-45.7c2.2-10.9,13.4-20.1,14.3-38.1,1.6-29.5-9.6-39.3-14.7-40.8s-12.2-2.5-16.5,1.4S231.3,118.6,233.8,135.7Z"/></g></svg>