<?xml version="1.0" encoding="utf-8"?>
<!-- Generator: Adobe Illustrator 22.0.1, SVG Export Plug-In . SVG Version: 6.00 Build 0)  -->
<svg version="1.1" id="Layer_2_1_" xmlns="http://www.w3.org/2000/svg" xmlns:xlink="http://www.w3.org/1999/xlink" x="0px" y="0px"
	 viewBox="0 0 169 233" style="enable-background:new 0 0 169 233;" xml:space="preserve">
<style type="text/css">
	.st0{fill:#A9AAAB;}
	.st1{fill:#FFFFFF;}
	.st2{clip-path:url(#SVGID_2_);}
	.st3{opacity:0.25;fill:#251A17;enable-background:new    ;}
	.st4{fill:#4D4A4A;}
	.st5{fill:#DCDEDD;}
	.st6{fill:#241916;}
</style>
<title>homeDog</title>
<g id="Layer_1">
	<path class="st0" d="M35.6,167.3c-1.4,2.9-2.4,1.2-2.7,12.4c-0.5,16.9-20.3,23-21.4,31.8c-1.3,11.2,5.5,20.3,15.4,20.3h6.9
		c10,0,6.2-3.8,6.9-6c2.6-7.9,13.8-12,18.9-21.9s10.7-22.9,22.8-22.1c2.2,0.1-16-26.6-21.4-28.3C47.9,149.3,39.7,158.7,35.6,167.3z"
		/>
	<path class="st0" d="M127.7,187.3c-2.7,9.5-4.1,19.3-4,29.2c0,3.6-0.1,7.2,0,9.4s1.6,3.8,1.4,4.9s-1.3,2.2-3.8,2.2h-9.8
		c-4.4,0-7-4.6-7.5-7c-1.6-6.9-2.7-13.9-3.4-21c-1.1-12.6-0.8-19.9,0.3-22.7s9.2-13.1,14.4-9.3s11.2,5.5,12,8.5
		C128.1,184.5,128.4,184.7,127.7,187.3z"/>
	<path class="st1" d="M168,140.1c0.7-2.1,1.8-3.9,0.1-5.1c-3.3-2.2-6.2-4.9-8.7-7.9c0.4-0.9,2.3,0.1,0.8-1.8s-0.9-0.5-2.8-2
		c-4.1-3.4-8.4-6.4-13-9c-5.1-2.7-11-3.9-17.1-0.2c-6.1,3.7-8.4,8.1-13.4,13.7s-11.4,12.1-18.5,14.8c-14.2,5.5-37.7,7.2-48,8.8
		c-4.7,0.7-5.9-4.4-8.8-3.7c-1,0.5-1.8,1.3-2.2,2.4c-0.8,2,1.3,3.9,2.1,6.2c0.1,0.3,0.5,2.2-1.5,4.9c-5.1,7.2-0.3,14.7,16.8,16.9
		c3,0.4-2.9,3.7,4.6,7.7c15.2,8,35.5,12.2,48,13.7c2.1,0.3,3.4,3.2,4.6,3.2c19.9-0.8,20.6-27.3,20.2-39.6
		c-0.2-6.8,3.5-21.2,6.1-21.7c5.3-1,4.1,6.5,4.5,8c1.5,4.9,6.3,9.4,7,10.4s7.2-2.6,9.2-3.3C163.4,154.5,165.9,146.1,168,140.1z"/>
	<g>
		<defs>
			<path id="SVGID_1_" d="M168,140.1c0.7-2.1,1.8-3.9,0.1-5.1c-3.3-2.2-6.2-4.9-8.7-7.9c0.4-0.9,2.3,0.1,0.8-1.8s-0.9-0.5-2.8-2
				c-4.1-3.4-8.4-6.4-13-9c-5.1-2.7-11-3.9-17.1-0.2c-6.1,3.7-8.4,8.1-13.4,13.7s-11.4,12.1-18.5,14.8c-14.2,5.5-37.7,7.2-48,8.8
				c-4.7,0.7-5.9-4.4-8.8-3.7c-1,0.5-1.8,1.3-2.2,2.4c-0.8,2,1.3,3.9,2.1,6.2c0.1,0.3,0.5,2.2-1.5,4.9c-5.1,7.2-0.3,14.7,16.8,16.9
				c3,0.4-2.9,3.7,4.6,7.7c15.2,8,35.5,12.2,48,13.7c2.1,0.3,3.4,3.2,4.6,3.2c19.9-0.8,20.6-27.3,20.2-39.6
				c-0.2-6.8,3.5-21.2,6.1-21.7c5.3-1,4.1,6.5,4.5,8c1.5,4.9,6.3,9.4,7,10.4s7.2-2.6,9.2-3.3C163.4,154.5,165.9,146.1,168,140.1z"/>
		</defs>
		<clipPath id="SVGID_2_">
			<use xlink:href="#SVGID_1_"  style="overflow:visible;"/>
		</clipPath>
		<g class="st2">
			<polygon class="st3" points="67.4,185.6 81.6,199.8 52.8,197.6 57.1,184.9 			"/>
			<polygon class="st3" points="119.5,204.4 121.6,189 131,198.4 			"/>
		</g>
	</g>
	<path class="st1" d="M126.1,189.3c-4.5,5.5-6.5,17.4-7.3,27.2c-0.3,3.6-0.7,7.2-0.8,9.4s1.7,3.6,1.4,4.8s-1.8,2.3-4.2,2.3h-9.9
		c-4.4,0-6.6-4.5-7-6.9c-1-7-1.6-14-1.7-21.1c-0.2-12.6,0.6-19.9,2-22.7s10.1-13.1,15.1-9.3s10.7,5.5,11.3,8.5
		S127.9,187.1,126.1,189.3z"/>
	<path class="st1" d="M33.6,163.9c-1.9,2.8-2.3,5.8-4.8,17c-3.7,16.9-24.7,23-27.5,31.8C-2.2,224,2.8,233,12.7,233h6.9
		c10.1,0,7-3.8,8.1-6c4.1-7.8,16.2-12,23.1-21.9S66,182.3,77.9,183c2.2,0.2-10.8-26.6-15.8-28.3C49.7,150.5,39.4,155.3,33.6,163.9z"
		/>
	<path class="st4" d="M168.1,135c-3.3-2.2-6.2-4.9-8.7-8c0.4-0.8,3.2,0.8,1.7-1.2c-0.9-1.2-2.1-2.1-3.5-2.7c-2.7-1.4-8.1-6.7-13-9.3
		l-2-0.9c-0.8-0.3-1-0.7-1-1.7s-0.1-5,0-6.1s-1-1.9-2.2-0.4s-4.5,4.6-6.9,6.7c-0.7,0.6-1.5,1-2.4,1.3c-1,0.4-1.9,0.9-2.8,1.4
		c-5,3.1-8.4,8.1-13.4,13.7c-5,5.6-11.4,12.1-18.5,14.8c-14.2,5.5-37.7,7.2-48,8.8c-4.7,0.7-5.9-4.4-8.8-3.7c-1,0.5-1.8,1.3-2.2,2.4
		c-0.7,2,1.3,3.9,2.1,6.2s-0.5,2.2-1.7,3.2c-1.3,1.1-2.5,2.4-3.4,3.9c-2.1,3.6-2.5,8.1-4.8,17.7c-1.6,6.9-7.2,17.1-4.5,22.5
		c1.4,2.7,8.4,4,15-2.2c6.6-6.2,11.8-13.5,17.9-16.6s13.8,1.4,19.1,2.5c9.7,1.9,17.3,1.2,19.9-0.9s2.7,4.7,3.2,7.2
		c1.2,6.5,6.6,4.2,15.4-0.9c5.8-3.5,11.4-14.2,12.4-17c2.4-7,3.8-23.1,4-30.7s0-16.6,4.8-19.4s9.8,5,10.7,10.5
		c0.7,3.7,1.6,6.6,4.6,6.9s6.3-1.9,8.6-1.1s6.9,1.9,8.3-1.9C168.7,138,169.8,136.2,168.1,135z"/>
	<path class="st5" d="M139.8,114.8c0.8-2.5,1-5,0.7-7.6c-0.1-1.3-1-0.7-2.3,0.8s-4.3,5.2-4.5,6.4S139.2,116.4,139.8,114.8z"/>
	<path class="st6" d="M156.1,128.6c0.1,1.2-1.4,2.3-2.5,2.4c-1.2,0.1-2.1-0.8-2.2-2c0,0,0,0,0,0c-0.1-1.1,0.7-2,1.7-2.2
		C154.2,126.7,156,127.4,156.1,128.6z"/>
</g>
</svg>
