<?xml version="1.0" encoding="utf-8"?>
<!-- Generator: Adobe Illustrator 22.0.1, SVG Export Plug-In . SVG Version: 6.00 Build 0)  -->
<svg version="1.1" id="Layer_2_1_" xmlns="http://www.w3.org/2000/svg" xmlns:xlink="http://www.w3.org/1999/xlink" x="0px" y="0px"
	 viewBox="0 0 204.9 233" style="enable-background:new 0 0 204.9 233;" xml:space="preserve">
<style type="text/css">
	.st0{fill:#A9AAAB;}
	.st1{fill:#FFFFFF;}
	.st2{clip-path:url(#SVGID_2_);}
	.st3{opacity:0.15;fill:#251A17;enable-background:new    ;}
	.st4{fill:#ED6F19;}
	.st5{fill:#241916;}
	.st6{fill:#A94417;}
</style>
<title>homeDog</title>
<g id="Layer_1">
	<path class="st0" d="M41.4,149.2c-9.1,8.9-7.3,22.4-10.9,32.9c-2.6,7.6-6.7,16.4-8.6,23.8c-1,4,1.8,25.2,2.5,27.1H38
		c1.3-2.4,1.5-5.5-1.4-6.9s-2.8-1.3-3.3-4c-0.1-4.7,0.2-9.3,1.1-13.9c1-3.9,11.1-12.3,19.1-19.9c9.8-9.2,14-18.8,12.7-29.9
		S54.1,136.7,41.4,149.2z"/>
	<path class="st0" d="M139,169.2c-0.6,19.3,3.6,63.8,4.2,63.8h13.7c1.1-1.7,1.9-6.3-1.8-7.7s-2.1-3.2-2.2-4.9s-0.7-21.9,1.5-35.2
		c1.5-8.9,5.4-21.5,5.2-24.9C159.6,159.6,139,169.2,139,169.2z"/>
	<path class="st1" d="M204,91.5c-0.2-1.9-0.8-2.1-2-2.3c-5.5-1.2-10.7-1.9-15.6-3.1c-1.8-0.5-1.2-5.7-5.9-8.4
		c-7.4-4.1-21.8-4.5-26.5-1.3c-8.9,6-10.8,12.3-15.4,20.6s-9.4,12.1-15.3,15.6c-11.5,6.7-39.9,8.1-46.2,8.7s-10.8,0.3-26.3,0.6
		c-5.1,0.1-8.3-2.2-10-9.2c-2.2-8.7-5.3-26.5-0.4-44.7c2.8-10.2-7.8-8.4-11.5,1.4c-5.5,14.6-2.8,36.7,2,57.7
		c2.6,11.3-9,24.2-7.7,27.4c9.1,22.8,16.2,9.1,35.5,14c24.5,6.3,52.9,16.5,80.6,10.1c18-4.1,23-17.3,24.5-34.2
		c0.4-4.4,2.7-9.2,3.7-13.6c3.6-16.6,5.6-18.6,15-19.6c3.9-0.5,8.7,0,14.4-2S204.3,96.2,204,91.5z"/>
	<g>
		<defs>
			<path id="SVGID_1_" d="M204,91.5c-0.2-1.9-0.8-2.1-2-2.3c-5.5-1.2-10.7-1.9-15.6-3.1c-1.8-0.5-1.2-5.7-5.9-8.4
				c-7.4-4.1-21.8-4.5-26.5-1.3c-8.9,6-10.8,12.3-15.4,20.6s-9.4,12.1-15.3,15.6c-11.5,6.7-39.9,8.1-46.2,8.7s-10.8,0.3-26.3,0.6
				c-5.1,0.1-8.3-2.2-10-9.2c-2.2-8.7-5.3-26.5-0.4-44.7c2.8-10.2-7.8-8.4-11.5,1.4c-5.5,14.6-2.8,36.7,2,57.7
				c2.6,11.3-9,24.2-7.7,27.4c9.1,22.8,16.2,9.1,35.5,14c24.5,6.3,52.9,16.5,80.6,10.1c18-4.1,23-17.3,24.5-34.2
				c0.4-4.4,2.7-9.2,3.7-13.6c3.6-16.6,5.6-18.6,15-19.6c3.9-0.5,8.7,0,14.4-2S204.3,96.2,204,91.5z"/>
		</defs>
		<clipPath id="SVGID_2_">
			<use xlink:href="#SVGID_1_"  style="overflow:visible;"/>
		</clipPath>
		<g class="st2">
			<path class="st3" d="M64,159.6l26.1,26L42,181.8L64,159.6z M126.7,169.7l11.7,17.7l22.1-15.9l-16.2-16.1L126.7,169.7z"/>
		</g>
	</g>
	<path class="st1" d="M59.7,132.1c-1.9-1.4-24.6-14.9-27.7-2.1c-2.7,11.1-8,11.8-11.3,25.7c-1.5,6.4-2.2,16.2-5.2,25.1
		S3,198.5,2.2,204.6c-1.1,7.8-1.9,26.1-0.3,28.4h14.9c1.1-2.3,1.6-5.2-1-6.6s-2.6-2.5-2.6-5s1-10.4,3.5-13.7
		c4.1-5.7,20.4-17.4,24.3-22.3c8.3-10.5,13.8-17.5,21.8-18.9c11.4-2.1,16.3-0.8,24-0.1S67.2,138.2,59.7,132.1z"/>
	<path class="st1" d="M119.3,158.9c0.7,5,2.9,8.8,3.1,14.9c0.4,15.1,2,33.7,2.8,49c0.3,5.7,1,10.2,1.6,10.2h13.5
		c1.2-2.3,1.8-5.8-1.5-7.3s-2.8-1.9-3-3.6s0.9-14.7,4.8-33.6c2.2-10.9,13.9-16.1,14.7-30c1.2-22.6-9.8-31.1-13.7-32.2s-9.4-2-12.7,1
		S117.4,145.8,119.3,158.9z"/>
	<path class="st4" d="M139.9,115c-4.6-3-9.3-4.6-15.2-0.7c-1.4,1-3.6,1.9-5.2,2.8c-11.4,6.6-36.3,5.6-42.6,6.2s-11.9-0.5-26.1-1.4
		c-5.1-0.4-8.2-2.3-10-9.3c-0.8-3.3-1.4-6.6-1.9-9.9c0-0.4-0.3-0.5-0.7-0.3c-1.4,1.1-3.1,1.9-4.8,2.4c-2.2,0.4-4.5,0-6.4-1.1
		c-0.2-0.2-0.4-0.2-0.3,0.3c0.9,7.7,2.3,15.3,4,22.9c0.8,3.4,0.3,7.1-1.5,10.1c-1.7,3.3-3.6,5.6-5.5,9.5c-1.1,2.2-1.9,4.5-2.5,6.9
		c-0.9,7,8.7,21.9,15.4,24.8c3.7,1.6,6.3,1.9,8.2,1.4c0.8-0.1,1.5-0.6,2-1.3c3.4-3.9,6-6.9,9.3-9c3.3-2.1,12.2-4.2,19.9-3
		c14.2,2.3,29.1,6.3,34.1,7.3c3,0.5,7,2.8,9.6,4.7c0.6,0.4,2.3,1,3,2s0.8,3.2,1.9,5.6c2.7,5.4,13.7,9.3,15.1,7s0.8-3.1,1.1-4.6
		c1.3-5.8,6.4-11.8,8.7-14.9c4.4-5.6,5.7-11.3,6.4-16.8c1.2-8.9,0.9-17.8-0.8-26.6C153.9,123.2,144.2,117.8,139.9,115z"/>
	<path class="st4" d="M180.6,77.6c-7.5-4.2-20.8-4.8-26.7-1.2C144.7,82,143,88.8,138.5,97c-0.8,1.4-0.3,1.8,0.8,2.8
		c2.8,2.4,5.9,4.3,9.3,5.7c4.8,1.9,8,15.1,27.6,5.4c5.4-2.6,2-11.1,3.7-13.9s3.3-3.5,3.7-6.3c0.5-3.5,0.1-7.1-1.1-10.5
		C182.2,79.1,181.5,78.2,180.6,77.6z"/>
	<path class="st5" d="M137.2,119.8c7.3-7.9-7.5-10.9-8.2-10.7c-2.5,0.4-3.8,2.4-8.1,4.3c-12.1,5.3-35.6,6.8-42,7.3
		c-10.4,0.7-16.6,0.7-26.9,0.9c-2.3,0-5.4-0.5-7.1-1.7s-0.8-0.2-0.8-0.1c-0.4,3.1,5,8.4,9.8,15.4c3.2,4.6,6.4,14,10.5,18.4
		c7.2,8,20.9,12.1,46.7,14c22.2,1.5,10.8-19.3,13.4-30.6C126.8,127.6,133.1,124.1,137.2,119.8z"/>
	<path class="st5" d="M180.2,85.5c0,1.3-2,2.3-3.3,2.3c-1.3-0.3-2.2-1.5-2-2.8c0.2-1.1,1.2-2,2.3-2C178.4,83,180.3,84.2,180.2,85.5z
		"/>
	<path class="st6" d="M143.9,98.1c0.8-5.4,3.7-10.2,8.1-13.5c1.8-1.5,3.7-2.7,5.8-3.7c1.3-0.6,2.9-0.1,3.4,2.1
		c1.1,4.5,3.2,9.2,5.1,15.4c2.7,9.3,2.4,17.4,1.1,19.1c-3.3,4.3-12.6,3.3-17.4-0.2C146.8,115.1,142.9,105.2,143.9,98.1z"/>
</g>
</svg>
