<svg id="Layer_1" data-name="Layer 1" xmlns="http://www.w3.org/2000/svg" xmlns:xlink="http://www.w3.org/1999/xlink" viewBox="0 0 712.4 233"><defs><style>.cls-1{fill:none;}.cls-2{fill:#949394;}.cls-3{fill:#fff;}.cls-4{clip-path:url(#clip-path);}.cls-5,.cls-8{fill:#251a17;}.cls-5{opacity:0.15;isolation:isolate;}.cls-6{fill:#241916;}.cls-7{fill:#ee9616;}.cls-9{fill:#a9aaab;}.cls-10{clip-path:url(#clip-path-2);}.cls-11{fill:#ed6f19;}.cls-12{fill:#a94417;}.cls-13{fill:#7d7d7f;}.cls-14{clip-path:url(#clip-path-3);}.cls-15{fill:#302826;}.cls-16{clip-path:url(#clip-path-4);}.cls-17{fill:#e9640a;}.cls-18{fill:#a8947f;}.cls-19{fill:#ebebec;}</style><clipPath id="clip-path"><path class="cls-1" d="M710.3,125.8c-1.6-4.2,0-7.1-5.2-7.1-2.1,0-3.4-4.3-5.3-6.5-3.6-4.2-12.4-6.6-17.8-7a18.2,18.2,0,0,0-4,.2c-1.4.2-2.2.2-2.4-.9-1.1-5.5-3-9.2-4.5-10.9s-2.9-1.5-2.7,1.7-2.1,7.4-3.3,15.9c-.2,1.6-2.4,2.7-4.2,3.5-9.7,4.3-15,6.8-20.3,10.4s-13.4,4.6-19.1,5.3c-11.5,1.4-35.4-4.9-50.3,0-5.9,1.9-8.2.8-10.8.1s-15.7,8.7-7.3,11.5c2.8.9,1.9,1.9,4.5,2.5,20.2,4.5-.1,26.1,15.5,33.7,18.3,8.9,45.8,16.4,68.1,15.5.5,0,1,3.1,1.5,2.9,16.8-4.8,23.2-13.4,31.4-34.9,1.4-3.8,2.6-5.5,7.8-8.9s12.4-8.3,15.7-10,10.4-5.2,12.3-7.3S711.6,129.5,710.3,125.8Z"/></clipPath><clipPath id="clip-path-2"><path class="cls-1" d="M591.3,92.5c-.1-1.9-.8-2.1-2-2.3-5.5-1.2-10.6-1.9-15.5-3.1-1.9-.5-1.3-5.7-5.9-8.4-7.5-4.1-21.8-4.5-26.5-1.3-9,6-10.8,12.3-15.4,20.6a37.2,37.2,0,0,1-15.4,15.6c-11.4,6.7-39.8,8.1-46.2,8.7s-10.7.3-26.2.6c-5.1.1-8.3-2.2-10.1-9.2-2.2-8.7-5.2-26.5-.3-44.7,2.7-10.2-7.8-8.4-11.5,1.4-5.5,14.6-2.9,36.7,2,57.7,2.6,11.3-9,24.2-7.8,27.4,9.1,22.8,16.2,9.1,35.6,14,24.4,6.3,52.9,16.5,80.5,10.1,18-4.1,23-17.3,24.5-34.2.4-4.4,2.8-9.2,3.7-13.6,3.7-16.6,5.7-18.6,15-19.6,4-.5,8.7,0,14.5-2S591.7,97.2,591.3,92.5Z"/></clipPath><clipPath id="clip-path-3"><path class="cls-1" d="M449.4,58.7c-.5-3.7-2.5-5.1-4.1-5-5.3.5-7.3,1.4-14.1,2.1-4.7.5-4.6-9.3-19.7-10.3h-1.3a9.1,9.1,0,0,1-2.3-.3l-2.7-.8c-2.3-1-6.6-6.3-8.7-6.3s-2.5,3.2-2.3,8.2c.1,2.4-3.9,7.2-7,12.8a11.4,11.4,0,0,1-1.5,2.3c-8.5,10.3-10.2,12.7-18.3,23.8s-14.9,12.4-29.9,12.1c-7.7-.2-29.8-2.8-53,2.2-15.6,3.4-33.3,14.6-36.4,32.7-5.2,30,24.1,24.3,46.3,37.2,28.1,16.3,41.7,23.1,85.2,22.5,1.4,0,10.3-4.6,11.7-4.6,22.4-.1,48.1-43.4,46.8-73.1-.7-17.2-8.9-27.5-7.3-29.8s4.4-3.2,12.8-8.7C449.6,71.8,450.4,66.5,449.4,58.7Z"/></clipPath><clipPath id="clip-path-4"><path class="cls-1" d="M315,18.5c-6.6-1.8-8.7-.5-16.2-3.4-4.3-1.7-5.4-7.9-9.8-10.5-6.7-3.9-26.2-7.2-38.7,5.8S234,29.3,223.1,41.9,209.2,54.3,196.9,58,171,61.6,153,61.3c-8.1-.2-33.7-1.3-58.6.8C76.6,63.6,62.8,74.1,58,88.2c-13.4,40-30.8,37.4-51,30.9-4.2-1.3-5.5,1.4-3.2,4.3C21.6,146,52.6,134.7,68,122c13.4-11,26.9,6.4,37.7,4.7s15.6,1.3,20.9,3.8c27,12.5,51,16.8,87.4,16.2,1.7,0-1.7-1.5,0-1.5,21.3,0,41.2-9.1,53.8-45.3,3.8-10.8,6.6-17,9.8-32.2,1.6-7.9,2.6-9.8,5.2-13.2s4.6-6.4,11.7-9.5c4.8-2,17.9-10,21.2-14.1S319.4,19.7,315,18.5Z"/></clipPath></defs><title>homeDogsDesktop</title><g id="Layer_1-2" data-name="Layer 1"><path class="cls-2" d="M563.2,161c-7.9,7.8-7.8,17.4-10.9,26.6-2.3,6.6-4.4,18.6-5.2,25.5-.5,3.5,2.9,19.2,3.5,20.9h13.5c1-2.1.8-4.8-1.7-6s-3.3-1.2-3.7-3.5a35.6,35.6,0,0,1,.3-10.3c.9-3.4,7.9-12.2,15.4-18.6s14.9-17.6,13.8-27.3S574.3,150.1,563.2,161Z"/><path class="cls-2" d="M642.4,178.9c-.3,10.9,1.7,30.9,2.8,43.5.6,6.9,2.8,11.6,3,11.6h12.4c1-1.4,1.6-5.5-1.6-6.7s-2.4-2.4-2.6-3.9,1.2-18.8,3.5-31.9c1.3-7.8,5.5-17.7,5.4-20.7C665.2,170.3,642.4,178.9,642.4,178.9Z"/><path class="cls-3" d="M710.3,125.8c-1.6-4.2,0-7.1-5.2-7.1-2.1,0-3.4-4.3-5.3-6.5-3.6-4.2-12.4-6.6-17.8-7a18.2,18.2,0,0,0-4,.2c-1.4.2-2.2.2-2.4-.9-1.1-5.5-3-9.2-4.5-10.9s-2.9-1.5-2.7,1.7-2.1,7.4-3.3,15.9c-.2,1.6-2.4,2.7-4.2,3.5-9.7,4.3-15,6.8-20.3,10.4s-13.4,4.6-19.1,5.3c-11.5,1.4-35.4-4.9-50.3,0-5.9,1.9-8.2.8-10.8.1s-15.7,8.7-7.3,11.5c2.8.9,1.9,1.9,4.5,2.5,20.2,4.5-.1,26.1,15.5,33.7,18.3,8.9,45.8,16.4,68.1,15.5.5,0,1,3.1,1.5,2.9,16.8-4.8,23.2-13.4,31.4-34.9,1.4-3.8,2.6-5.5,7.8-8.9s12.4-8.3,15.7-10,10.4-5.2,12.3-7.3S711.6,129.5,710.3,125.8Z"/><g class="cls-4"><path class="cls-5" d="M579.7,171.9l22.7,22.6-37.1-6.8Zm54.8,15.7L644.8,203l21.9-6.8-18.3-18.3Z"/></g><path class="cls-6" d="M701.6,136.1a56.6,56.6,0,0,1-1.2-8.1c-.1-2.8.9-5.8,1.2-7.4s-1.5-6.2-2.5-7.4c-3.7-4.3-12.4-3.2-17.4-3.8-2.9-.3-2.5-3.8-3.6-4s-2.2.2-2.4-.9c-1.2-5.5-3.1-9.2-4.5-10.9s-3-1.8-3,1.6-2,7.4-3.1,15.9a19.7,19.7,0,0,1-.7,2.6c-1.5,6.1.3,14.2,15,19.8,4.9,1.8,11.2,5.6,13.6,6.8C698.5,143.1,702.3,139.5,701.6,136.1Z"/><path class="cls-3" d="M694.9,118.5a3.5,3.5,0,0,1-3.6,3.6,3.6,3.6,0,0,1-3.6-3.6,3.6,3.6,0,0,1,3.6-3.6h0A3.6,3.6,0,0,1,694.9,118.5Z"/><path class="cls-6" d="M693.7,118.5a2.4,2.4,0,1,1-2.4-2.4A2.3,2.3,0,0,1,693.7,118.5Z"/><path class="cls-7" d="M670.6,97.5c.7-.9,2.5,7.8,2.1,9.4s-2.4,3.3-3,3.1,0-3.7.3-6.9S670.2,98,670.6,97.5Z"/><path class="cls-3" d="M629.4,169.5a124.4,124.4,0,0,1,.8,13.7c.4,13.1,1.6,28.6,2.3,41.9.3,5,2.4,8.9,2.9,8.9h12.1c1-2,1.5-5.1-1.3-6.3s-2.5-1.7-2.7-3.2a281.1,281.1,0,0,1,4.9-30.3c2-9.4,12.6-11.6,13.2-23.7,1.1-19.8-10.5-28.5-13.9-29.5s-8.2-1.7-11.1.9S627.7,158,629.4,169.5Z"/><path class="cls-3" d="M577.9,139.4c-1.6-1.3-11.5-11.4-21.5-5.8s-19.7,16.1-19.2,25.8c.3,5.7.9,22.8-1.8,30.6s-8.7,18.4-9.4,23.8-1.1,18.1.3,20.2h12.3c1.1-2,1.4-4.5-.9-5.8s-2.2-2.2-2.2-4.3a20.4,20.4,0,0,1,3.6-9.6c3.6-5,7.6-3.9,24.1-19.5,7.1-6.7,16.1-13.8,21.2-15.3,3.4-1,7.2-1,13.9-.4S584.5,144.6,577.9,139.4Z"/><path class="cls-8" d="M621.6,130.4c-11.5,1.4-35.4-4.8-50.3,0-5.9,2-8.2.1-10.9-.3s-7.4,3.1-9.8,7.3c-8.8,6.2-13.9,13.5-13.5,21.9.1,2.2.2,6,.2,10.5,0,2.5,3.3,3.5,9.8-6.3s10.6-11.6,17.8-13.1c12-2.6,13.5-1.4,18-8.9s9.2-2.7,16.8,8.8,7.7,23.7,16.8,31.5c7.4,6.4,20,3.2,25.8-2.9s11-15.7,6-26.2c-3.4-7-6.9-14.3-8.2-24.6-.3-1.8-1.2-1.8-2.1-1.4C633,129,626.4,129.9,621.6,130.4Z"/></g><g id="Layer_1-3" data-name="Layer 1"><path class="cls-9" d="M428.7,150.2c-9.1,8.9-7.2,22.4-10.8,32.9-2.6,7.6-6.8,16.4-8.6,23.8-1.1,4,1.8,25.2,2.5,27.1h13.5c1.3-2.4,1.5-5.5-1.4-6.9s-2.8-1.3-3.2-4a58.9,58.9,0,0,1,1.1-13.9c1-3.9,11-12.3,19.1-19.9,9.7-9.2,14-18.8,12.7-29.9S441.4,137.7,428.7,150.2Z"/><path class="cls-9" d="M526.3,170.2c-.5,19.3,3.7,63.8,4.3,63.8h13.7c1.1-1.7,1.8-6.3-1.8-7.7s-2.1-3.2-2.3-4.9-.7-21.9,1.6-35.2c1.4-8.9,5.4-21.5,5.1-24.9C546.9,160.6,526.3,170.2,526.3,170.2Z"/><path class="cls-3" d="M591.3,92.5c-.1-1.9-.8-2.1-2-2.3-5.5-1.2-10.6-1.9-15.5-3.1-1.9-.5-1.3-5.7-5.9-8.4-7.5-4.1-21.8-4.5-26.5-1.3-9,6-10.8,12.3-15.4,20.6a37.2,37.2,0,0,1-15.4,15.6c-11.4,6.7-39.8,8.1-46.2,8.7s-10.7.3-26.2.6c-5.1.1-8.3-2.2-10.1-9.2-2.2-8.7-5.2-26.5-.3-44.7,2.7-10.2-7.8-8.4-11.5,1.4-5.5,14.6-2.9,36.7,2,57.7,2.6,11.3-9,24.2-7.8,27.4,9.1,22.8,16.2,9.1,35.6,14,24.4,6.3,52.9,16.5,80.5,10.1,18-4.1,23-17.3,24.5-34.2.4-4.4,2.8-9.2,3.7-13.6,3.7-16.6,5.7-18.6,15-19.6,4-.5,8.7,0,14.5-2S591.7,97.2,591.3,92.5Z"/><g class="cls-10"><path class="cls-5" d="M451.4,160.6l26,26-48-3.8ZM514,170.7l11.8,17.7,22-15.9-16.2-16.1Z"/></g><path class="cls-3" d="M447,133.1c-1.8-1.4-24.6-14.9-27.6-2.1-2.8,11.1-8.1,11.8-11.4,25.7-1.4,6.4-2.1,16.2-5.1,25.1s-12.6,17.7-13.4,23.8c-1.1,7.8-1.8,26.1-.2,28.4h14.8c1.2-2.3,1.6-5.2-1-6.6s-2.5-2.5-2.5-5,1-10.4,3.4-13.7c4.2-5.7,20.5-17.4,24.4-22.3,8.3-10.5,13.7-17.5,21.8-18.9,11.4-2.1,16.2-.8,23.9-.1S454.6,139.2,447,133.1Z"/><path class="cls-3" d="M506.6,159.9c.7,5,2.9,8.8,3.1,14.9.5,15.1,2,33.7,2.8,49,.3,5.7,1.1,10.2,1.7,10.2h13.4c1.3-2.3,1.8-5.8-1.4-7.3s-2.9-1.9-3.1-3.6a246.3,246.3,0,0,1,4.8-33.6c2.3-10.9,14-16.1,14.7-30,1.2-22.6-9.8-31.1-13.7-32.2s-9.3-2-12.7,1S504.7,146.8,506.6,159.9Z"/><path class="cls-11" d="M527.3,116c-4.6-3-9.4-4.6-15.2-.7-1.4,1-3.7,1.9-5.2,2.8-11.5,6.6-36.3,5.6-42.6,6.2s-12-.5-26.1-1.4c-5.1-.4-8.3-2.3-10-9.3-.6-2.6-1.4-6-2-9.9,0-.4-.3-.5-.7-.3a14,14,0,0,1-4.7,2.4,9.5,9.5,0,0,1-6.4-1.1c-.3-.2-.4-.2-.4.3a219.4,219.4,0,0,0,4.1,22.9,13.7,13.7,0,0,1-1.5,10.1c-1.7,3.3-3.7,5.6-5.6,9.5a40.2,40.2,0,0,0-2.4,6.9c-.9,7,8.7,21.9,15.4,24.8,3.7,1.6,6.3,1.9,8.2,1.4a2.6,2.6,0,0,0,1.9-1.3c3.4-3.9,6-6.9,9.4-9s12.2-4.2,19.8-3c14.3,2.3,29.1,6.3,34.2,7.3,3,.5,6.9,2.8,9.5,4.7.6.4,2.4,1,3,2s.8,3.2,2,5.6c2.7,5.4,13.7,9.3,15,7a43.5,43.5,0,0,0,1.1-4.6c1.3-5.8,6.4-11.8,8.8-14.9,4.3-5.6,5.7-11.3,6.4-16.8a84.8,84.8,0,0,0-.9-26.6C541.2,124.2,531.5,118.8,527.3,116Z"/><path class="cls-11" d="M567.9,78.6c-7.4-4.2-20.7-4.8-26.6-1.2C532,83,530.4,89.8,525.9,98c-.8,1.4-.4,1.8.7,2.8a38.7,38.7,0,0,0,9.3,5.7c4.8,1.9,8,15.1,27.7,5.4,5.4-2.6,2-11.1,3.7-13.9s3.2-3.5,3.7-6.3a23.3,23.3,0,0,0-1.1-10.5A4.3,4.3,0,0,0,567.9,78.6Z"/><path class="cls-6" d="M524.5,120.8c7.4-7.9-7.4-10.9-8.1-10.7-2.6.4-3.8,2.4-8.1,4.3-12.2,5.3-35.7,6.8-42,7.3-10.4.7-16.6.7-27,.9-2.3,0-5.4-.5-7-1.7s-.8-.2-.8-.1c-.5,3.1,4.9,8.4,9.7,15.4,3.3,4.6,6.4,14,10.5,18.4,7.3,8,20.9,12.1,46.7,14,22.3,1.5,10.9-19.3,13.5-30.6C514.1,128.6,520.5,125.1,524.5,120.8Z"/><path class="cls-6" d="M567.5,86.5c0,1.3-1.9,2.3-3.2,2.3a2.5,2.5,0,0,1-2-2.8,2.3,2.3,0,0,1,2.2-2C565.7,84,567.6,85.2,567.5,86.5Z"/><path class="cls-12" d="M531.3,99.1a20.6,20.6,0,0,1,8.1-13.5,26.5,26.5,0,0,1,5.7-3.7c1.3-.6,3-.1,3.5,2.1,1,4.5,3.2,9.2,5,15.4,2.8,9.3,2.5,17.4,1.2,19.1-3.4,4.3-12.6,3.3-17.5-.2C534.2,116.1,530.3,106.2,531.3,99.1Z"/></g><g id="Layer_1-4" data-name="Layer 1"><path class="cls-3" d="M278.2,106.4a11.7,11.7,0,0,1,9.6-9.3c11.9-1.9,20,17.4,23.6,27.6s10.1,8,15.3-.8,5.8-23.9,3.3-33.6a40,40,0,0,0-5.4-11.9C313.8,62.7,291.7,53,270.3,66.1c-15.3,9.3-19.2,21.6-22.5,33.3-2.9,10.1-3.9,25.2-8.1,36.2Z"/><path class="cls-13" d="M270.8,167.4c-2.8,10-7.2,29.3-7.6,37-.2,5.3,3,27.1,3.9,29.6H286c1.6-3.1,1.9-7.1-1.8-8.8s-4.9-1.8-5.4-5.2a45.2,45.2,0,0,1,1.2-13.7c1.3-5.1,14-12.4,20.8-24.5,8.4-15.1,7.8-25.3,6.1-39.5C306.9,126.5,278.1,141.5,270.8,167.4Z"/><path class="cls-13" d="M393.3,138.7c.9,6.4-26.2,28.9-26,36.7.5,16.7,16,33,21.3,42.3,1.4,2.3,8.2,3.2,8.3,6,.4,7.3-1.4,10.3-.6,10.3h17c1.6-3,2.3-7.5-1.9-9.4s-3.7-2.4-3.9-4.6a165.1,165.1,0,0,1,2.8-42.7c3.2-15.2,10.6-25.9,11.6-43.8C423.4,104.4,390.9,121.7,393.3,138.7Z"/><path class="cls-3" d="M449.4,58.7c-.5-3.7-2.5-5.1-4.1-5-5.3.5-7.3,1.4-14.1,2.1-4.7.5-4.6-9.3-19.7-10.3h-1.3a9.1,9.1,0,0,1-2.3-.3l-2.7-.8c-2.3-1-6.6-6.3-8.7-6.3s-2.5,3.2-2.3,8.2c.1,2.4-3.9,7.2-7,12.8a11.4,11.4,0,0,1-1.5,2.3c-8.5,10.3-10.2,12.7-18.3,23.8s-14.9,12.4-29.9,12.1c-7.7-.2-29.8-2.8-53,2.2-15.6,3.4-33.3,14.6-36.4,32.7-5.2,30,24.1,24.3,46.3,37.2,28.1,16.3,41.7,23.1,85.2,22.5,1.4,0,10.3-4.6,11.7-4.6,22.4-.1,48.1-43.4,46.8-73.1-.7-17.2-8.9-27.5-7.3-29.8s4.4-3.2,12.8-8.7C449.6,71.8,450.4,66.5,449.4,58.7Z"/><g class="cls-14"><path class="cls-5" d="M298.7,158.3l33.5,33.4-61.9-4.8Zm75.4,20.5,15.1,22.7,19.9-14.7L388.3,166Z"/></g><path class="cls-3" d="M262.1,106.8a48.2,48.2,0,0,0-14.6,13.5c-7.3,10.4-10.9,20.5-10.9,33.8s6.3,38.5,4.8,46.4c-1.8,9.4-1.1,30.7,0,33.5h19.7c1.5-3,2-6.7-1.3-8.6s-3.3-3.2-3.3-6.4.7-8.9,3.9-13.3c5.4-7.4,31.3-22.1,40.8-39.6a44.1,44.1,0,0,1,4.7-7.4C315,147.2,269.4,102.3,262.1,106.8Z"/><path class="cls-3" d="M379.7,138.7c.9,6.4-26.2,28.9-26,36.7.5,16.7,14.5,35.1,21.3,42.3,4.5,4.7,7.7,3.7,8.1,6.4,1,7.2,2.4,9.9,3.2,9.9h17c1.6-3,2.4-7.5-1.8-9.4s-3.7-2.4-3.9-4.6a116.6,116.6,0,0,1-1.3-45.2c2.6-15.3,11-23.4,12-41.3C409.8,104.4,377.3,121.7,379.7,138.7Z"/><path class="cls-6" d="M423.9,58.8c.6,1.2-.6,3-1.7,3.6a2.3,2.3,0,0,1-3.1-1.5A2.5,2.5,0,0,1,420,58C421.1,57.4,423.3,57.5,423.9,58.8Z"/></g><g id="Layer_1-5" data-name="Layer 1"><path class="cls-6" d="M80.9,104.1c-14.9,13.8-13.5,34.7-20.1,51-4.8,11.9-10.2,20.3-13.2,34C46.2,195.5,50,231,50.9,234H69.5c2.2-3.7,2.8-8.5-1.5-10.6s-5.8-2.1-6.2-6.2a105.4,105.4,0,0,1,3.3-22.4c1.9-6.1,13.4-17.6,26.8-29.3,10.9-9.7,18.9-23.8,23.9-34.3,2.9-6,9.9-10.7,31.6-6.9C148.5,105.2,102,84.7,80.9,104.1Z"/><path class="cls-6" d="M218.2,134.3c.4,30,8.2,98.7,9.1,98.7l17.6.6c1.6-2.6,2.4-9.8-3.3-11.9-4.2-1.6-4.5-4.2-4.8-6.9-.2-1.1.1-31.5,2.3-56.2,1.3-13.9,10.6-32.5,10-37.8C249,119.7,218.2,134.3,218.2,134.3Z"/><path class="cls-15" d="M315,18.5c-6.6-1.8-8.7-.5-16.2-3.4-4.3-1.7-5.4-7.9-9.8-10.5-6.7-3.9-26.2-7.2-38.7,5.8S234,29.3,223.1,41.9,209.2,54.3,196.9,58,171,61.6,153,61.3c-8.1-.2-33.7-1.3-58.6.8C76.6,63.6,62.8,74.1,58,88.2c-13.4,40-30.8,37.4-51,30.9-4.2-1.3-5.5,1.4-3.2,4.3C21.6,146,52.6,134.7,68,122c13.4-11,26.9,6.4,37.7,4.7s15.6,1.3,20.9,3.8c27,12.5,51,16.8,87.4,16.2,1.7,0-1.7-1.5,0-1.5,21.3,0,41.2-9.1,53.8-45.3,3.8-10.8,6.6-17,9.8-32.2,1.6-7.9,2.6-9.8,5.2-13.2s4.6-6.4,11.7-9.5c4.8-2,17.9-10,21.2-14.1S319.4,19.7,315,18.5Z"/><g class="cls-16"><path class="cls-5" d="M116.8,111.9l40.3,40.3-74.5-5.8Zm98.5,24.3,18.1,27.4,24.1-17.8-25.2-25.1Z"/></g><path class="cls-17" d="M291.3,15.5a3.4,3.4,0,0,1-2.9,3.8,4,4,0,0,1-4.3-2.9c-.2-1.8,1.7-3.5,3.4-3.8A3.4,3.4,0,0,1,291.3,15.5Z"/><path class="cls-6" d="M270.4,3.7c-7.6-1.1-20.7,1.5-26,6.8-3.4,3.4,11.5,27.6,17.3,30.1s6.8-1.8,6.1-8.5c-.4-4.9-1.6-14.3,5.4-23.6C275.7,5.3,274.5,4.2,270.4,3.7Z"/><path class="cls-12" d="M73.2,181.2c-.8-1.3-4,0-7.7,1.6-8.5,3.7-18.3,9.1-18.4,14.8-.1,11.4,3,33.8,3.7,36.4H69.6c2.2-3.7,2.6-8.7-1.7-10.9s-5.5-2.1-5.9-6.2a93.1,93.1,0,0,1,3.1-21.6,25.8,25.8,0,0,1,6.1-9.5C73.8,183,73.9,182.1,73.2,181.2Z"/><path class="cls-12" d="M241.6,221.7c-4.2-1.6-4.5-4.2-4.8-6.9-.2-.8.1-18.1,1.1-36.9.2-2.6-.7-2.7-2.1-1.8-3.6,2.6-8.1,4.4-11.4,7.4s-2.8,2.9-2.5,6.2c2.3,23.2,4.9,43.3,5.4,43.3l17.6.6C246.5,231.1,247.3,223.8,241.6,221.7Z"/><path class="cls-15" d="M93.7,65.2c-5.3,3-30.8,4.5-35.8,43.7-3.1,24-7.5,37.9-15,48.8s-18.1,18-18.9,25.9c-.6,6.3-.7,19.9-.3,31.3A72.4,72.4,0,0,0,26.6,234H41.7c1.8-3.6,4.3-6.4.3-8.6s-4.3-5.4-4.3-9.2,3.1-19.7,6.4-25.2c6.5-10.8,39.6-27.5,49.6-41.8,20.2-28.9,28.7-25.2,33.6-24.2C181.1,135.9,129.9,44.6,93.7,65.2Z"/><path class="cls-17" d="M42.3,188.7c-3.4,2.4-4.1,4.3-7.5,9.4s-6.8,6.5-9.3,7.3-2.2,2.6-2.2,4.8c.3,9.9,1.1,22.2,1.7,23.8H44.7c1.8-3.6,2.5-8.1-1.6-10.4s-3.9-3.8-3.9-7.7,2-19.8,5.3-25.3C45.8,188.7,44.7,187,42.3,188.7Z"/><path class="cls-15" d="M196.4,119.2a197.3,197.3,0,0,1,3.1,23.1c1.6,23.3,4.2,52.1,6.4,75.8.9,8.9,4.2,15.9,5.2,15.9h14c1.8-3.6,2.9-8.3-2.2-10.6s-4.1-3.6-4.5-6.3.6-25.9,4.6-55.4c2.4-18.4,11.8-29.1,12-50.6.5-35.2-4-40.9-10.2-42.7-7.9-2.3-14.6-3-19.6,1.6S192.8,98.7,196.4,119.2Z"/><path class="cls-17" d="M223.3,222.7c-4.1-1.8-4.5-2.9-4.8-5.6-.1-.5.5-8.7.8-15.5a5.9,5.9,0,0,0-1.3-4.9c-3.1-3.3-7.6-5.7-12.8-7.7-1.3-.5-2.1-.1-1.9,1.5.6,7.8,1.8,20.4,2.5,27.4.9,8.9,2.4,16.1,3.3,16.1h17C227.9,230.4,228.5,225,223.3,222.7Z"/><path class="cls-18" d="M284.8,38.3c1-1.7,11.2-5.9,18.2-5.6,3.1.2,5.7,2.8,7,3.4s.9,3.7-.1,4.9-3.4,2.4-9.8,2.3c-2.8-.1-14.2-1.1-15-3.2S284.8,38.3,284.8,38.3Z"/><path class="cls-19" d="M290.5,40.3c0-.4,1.2-2.1,1.9-2.1s1.7,2.4,2,2.9,1.5-.8,2.3-1,1,.5,1.5,1.3,2.9-.7,3.3-.6.9.6,1.4,1.1,2.4-2.2,3.2-3.3,1.3,2.3,1.3,3.1,1.4-1.4,1.7-1.8.9,1.2.9,1.8-.9,1.3-3.4,1.3h-6a34.2,34.2,0,0,1-7.8-1.2C291.3,41.2,290.4,40.9,290.5,40.3Z"/><path class="cls-17" d="M313.6,27.4c-1.4-.7-2.4-2.9-2.6-5.1s-.5-1.3-1.2-.6c-7.4,6.1-21,7.9-26.9,12.5s-4.6-3.4-4.1-7.2-4.5-3.1-7.9,6.5c-2.4,6.8,3.4,7.9,3.6,11.1s1.4,10.4,4.7,13.6c1.1,1.1,2.1,0,3.1-2s2.1-4.5,6.2-5.5,7-1.1,13.4-1.1,7.9-1.9,9.7-3.6,1.5-2.5,1.1-2.9-2,1.2-3.6,2c-5.2,2.6-14.8,2.6-20.3-.2s-2.1-6.7,0-8.1,6.3-.9,12.4,1.4A12.2,12.2,0,0,0,315,34.4a16.2,16.2,0,0,0,2.4-6.1c.1-.7-.1-.6-.7-.4A3.7,3.7,0,0,1,313.6,27.4Z"/><path class="cls-15" d="M292.1,38.1c2.3-.5,7.5.6,10.5.9.8,0,.7-.5.2-.6l-1.6-.5c-6.1-2.3-11.1-2.4-12.7-1.3s-5.3,5.5.2,8.3,15.4,3,20.5.3a12.1,12.1,0,0,0,3-2c.2-.1.2-.5-.4-.7a14,14,0,0,0-4.1-.1c-2.2.2-4.6-.3-9,0a15,15,0,0,1-7.8-1.6C290,40.4,289.2,38.7,292.1,38.1Z"/><path class="cls-6" d="M290.6,15.8a2.6,2.6,0,0,1-2.5,2.6,2.5,2.5,0,0,1-2.5-2.5,2.5,2.5,0,0,1,2.5-2.5h0A2.5,2.5,0,0,1,290.6,15.8Z"/></g></svg>